<svg id="AI_Icon_-_40x40" data-name="AI Icon - 40x40" xmlns="http://www.w3.org/2000/svg" xmlns:xlink="http://www.w3.org/1999/xlink" width="40" height="40" viewBox="0 0 40 40">
  <defs>
    <clipPath id="clip-path">
      <rect id="Rectangle_44" data-name="Rectangle 44" width="40" height="40" rx="10" transform="translate(865 470)" fill="#6b7688"/>
    </clipPath>
  </defs>
  <g id="Mask_Group_4" data-name="Mask Group 4" transform="translate(-865 -470)" clip-path="url(#clip-path)">
    <g id="Layer_2" data-name="Layer 2" transform="translate(865 470.5)">
      <g id="Layer_1" data-name="Layer 1" transform="translate(0)">
        <g id="Layer_2-2" data-name="Layer 2">
          <g id="Surfaces">
            <g id="Drawing_Surface" data-name="Drawing Surface">
              <g id="Outline_no_shadow" data-name="Outline no shadow">
                <path id="Path_141" data-name="Path 141" d="M7.083,0H32.917A7.077,7.077,0,0,1,40,7.083V31.917A7.077,7.077,0,0,1,32.917,39H7.083A7.077,7.077,0,0,1,0,31.917V7.083A7.077,7.077,0,0,1,7.083,0Z" transform="translate(0 0)" fill="#edf2f8"/>
              </g>
            </g>
          </g>
          <g id="Outlined_Mnemonics_Logos" data-name="Outlined Mnemonics Logos" transform="translate(8.265 8.65)">
            <g id="Ai">
              <path id="Path_142" data-name="Path 142" d="M26.615,32.135h-6.2l-1.267,3.917a.292.292,0,0,1-.317.233H15.7c-.183,0-.233-.1-.183-.3l5.367-15.45c.05-.167.1-.35.167-.55a5.822,5.822,0,0,0,.1-1.083.167.167,0,0,1,.133-.183H25.6c.133,0,.2.05.217.133L31.9,36.019c.05.183,0,.267-.167.267H28.249a.252.252,0,0,1-.267-.183Zm-5.233-3.383h4.233c-.1-.35-.233-.767-.383-1.2s-.3-.933-.45-1.433-.317-1.017-.483-1.533-.317-1-.45-1.483-.25-.9-.367-1.3h-.033a20.463,20.463,0,0,1-.567,2.15c-.25.8-.5,1.633-.767,2.467C21.882,27.269,21.632,28.052,21.382,28.752Z" transform="translate(-15.497 -17.385)" fill="#30368e"/>
              <path id="Path_143" data-name="Path 143" d="M51.268,20.4a2.063,2.063,0,0,1-1.483-.583,2.167,2.167,0,0,1-.567-1.533,1.962,1.962,0,0,1,.6-1.483,2.135,2.135,0,0,1,1.483-.583,2,2,0,0,1,1.517.583,2.291,2.291,0,0,1-.033,3.017A1.96,1.96,0,0,1,51.268,20.4ZM49.4,34.869V22.035c0-.167.067-.233.217-.233h3.3c.15,0,.217.083.217.233V34.869c0,.183-.067.267-.217.267H49.651a.233.233,0,0,1-.25-.267Z" transform="translate(-31.233 -16.219)" fill="#30368e"/>
            </g>
          </g>
        </g>
      </g>
    </g>
  </g>
</svg>
