<?xml version="1.0" encoding="utf-8"?>
<!-- Generator: Adobe Illustrator 24.1.2, SVG Export Plug-In . SVG Version: 6.00 Build 0)  -->
<svg version="1.1" id="Be_Icon_-_30x30" xmlns="http://www.w3.org/2000/svg" xmlns:xlink="http://www.w3.org/1999/xlink" x="0px"
	 y="0px" viewBox="0 0 30 30" style="enable-background:new 0 0 30 30;" xml:space="preserve">
<style type="text/css">
	.st0{fill:#4176FA;}
</style>
<g>
	<g>
		<g id="Mask_Group_14" transform="translate(-83 -587)">
			<g>
				<path class="st0" d="M95,602.8h-3.3v3h3.1l0,0c0.5,0,1.4-0.1,1.3-1.5C96.2,602.8,95,602.8,95,602.8z"/>
				<path class="st0" d="M103.4,601c-1,0-1.8,0.7-2,1.7h3.7v-0.1C105.1,601.7,104.3,601,103.4,601z"/>
				<path class="st0" d="M95.8,599.7c0-1.2-0.8-1.2-0.8-1.2h-3.3v2.5h3.1C95.3,601,95.8,600.9,95.8,599.7z"/>
				<path class="st0" d="M98,587c-8.3,0-15,6.7-15,15s6.7,15,15,15s15-6.7,15-15S106.3,587,98,587z M100.9,597.2h4.7v1.4h-4.7V597.2
					z M98.6,604.5c0,3.4-3.6,3.3-3.6,3.3h-5.9v-11.3H95c0.1,0,0.3,0,0.5,0c1.6,0.1,2.8,1.4,2.7,3c0.1,1.1-0.7,2-1.7,2.1
					C98.7,601.7,98.6,604.5,98.6,604.5z M107.3,604.3h-5.9c0,0.1,0,0.2,0,0.3c0.1,1,1,1.8,2,1.7c1.9,0,1.8-1.2,1.8-1.2h2
					c0,3.2-3.9,3-3.9,3c-0.2,0-0.4,0-0.7,0c-2.2-0.2-3.9-2.1-3.7-4.3c0,0,0-4.3,4.3-4.3C108,599.4,107.3,604.3,107.3,604.3z"/>
			</g>
		</g>
	</g>
</g>
</svg>
