<?xml version="1.0" encoding="utf-8"?>
<!-- Generator: Adobe Illustrator 24.1.2, SVG Export Plug-In . SVG Version: 6.00 Build 0)  -->
<svg version="1.1" id="Be_Icon_-_White_-_30x30" xmlns="http://www.w3.org/2000/svg" xmlns:xlink="http://www.w3.org/1999/xlink"
	 x="0px" y="0px" viewBox="0 0 30 30" style="enable-background:new 0 0 30 30;" xml:space="preserve">
<style type="text/css">
	.st0{fill:none;}
	.st1{fill:#EDF2F8;}
</style>
<circle class="st0" cx="15" cy="15" r="15"/>
<g>
	<path class="st1" d="M12,15.8H8.7v3h3.1v0c0.5,0,1.4-0.1,1.3-1.5C13.2,15.8,12,15.8,12,15.8z"/>
	<path class="st1" d="M20.4,14c-1,0-1.8,0.7-2,1.7h3.7c0,0,0-0.1,0-0.1C22.1,14.7,21.3,14,20.4,14z"/>
	<path class="st1" d="M12.8,12.7c0-1.2-0.8-1.2-0.8-1.2H8.7V14h3.1C12.3,14,12.8,13.9,12.8,12.7z"/>
	<path class="st1" d="M15,0C6.7,0,0,6.7,0,15c0,8.3,6.7,15,15,15c8.3,0,15-6.7,15-15C30,6.7,23.3,0,15,0z M17.9,10.2l4.7,0v1.4h-4.7
		V10.2z M15.6,17.5c0,3.4-3.6,3.3-3.6,3.3H6.1V9.5H12c0.1,0,0.3,0,0.5,0c1.6,0.1,2.8,1.4,2.7,3c0.1,1.1-0.7,2-1.7,2.1
		C15.7,14.7,15.6,17.5,15.6,17.5z M24.3,17.3h-5.9c0,0.1,0,0.2,0,0.3c0.1,1,1,1.8,2,1.7c1.9,0,1.8-1.2,1.8-1.2h2c0,3.2-3.9,3-3.9,3
		c-0.2,0-0.4,0-0.7,0c-2.2-0.2-3.9-2.1-3.7-4.3c0,0,0-4.3,4.3-4.3C25,12.4,24.3,17.3,24.3,17.3z"/>
</g>
</svg>
