<svg xmlns="http://www.w3.org/2000/svg" width="271.459" height="264.679" viewBox="0 0 271.459 264.679">
  <g id="Footer_pattern_-_Right" data-name="Footer pattern - Right" transform="translate(0 0)">
    <g id="pattern" transform="translate(-5.9 -16.4)" style="isolation: isolate">
      <path id="Path_2499" data-name="Path 2499" d="M336.755,394.177a1.777,1.777,0,1,1-1.777-1.777A1.749,1.749,0,0,1,336.755,394.177Z" transform="translate(-200.834 -230.716)" fill="#fff"/>
      <circle id="Ellipse_233" data-name="Ellipse 233" cx="2.666" cy="2.666" r="2.666" transform="translate(128.791 160.416) rotate(-80.782)" fill="#fff"/>
      <path id="Path_2500" data-name="Path 2500" d="M336,364.4a2.9,2.9,0,1,1-2.9-2.9A2.894,2.894,0,0,1,336,364.4Z" transform="translate(-198.993 -211.756)" fill="#fff"/>
      <path id="Path_2501" data-name="Path 2501" d="M350.219,357.559a2.859,2.859,0,1,1-2.859-2.859A2.853,2.853,0,0,1,350.219,357.559Z" transform="translate(-207.767 -207.583)" fill="#fff"/>
      <path id="Path_2502" data-name="Path 2502" d="M365.255,362.227a2.627,2.627,0,1,1-2.627-2.627A2.63,2.63,0,0,1,365.255,362.227Z" transform="translate(-217.278 -210.59)" fill="#fff"/>
      <path id="Path_2503" data-name="Path 2503" d="M374.178,374.689a2.589,2.589,0,1,1-2.589-2.589A2.589,2.589,0,0,1,374.178,374.689Z" transform="translate(-222.801 -218.26)" fill="#fff"/>
      <circle id="Ellipse_234" data-name="Ellipse 234" cx="2.048" cy="2.048" r="2.048" transform="translate(145.592 160.417) rotate(-9.218)" fill="#fff"/>
      <circle id="Ellipse_235" data-name="Ellipse 235" cx="1.932" cy="1.932" r="1.932" transform="translate(141.824 164.414) rotate(-9.218)" fill="#fff"/>
      <path id="Path_2504" data-name="Path 2504" d="M348.9,401.652a1.352,1.352,0,1,1-1.352-1.352A1.344,1.344,0,0,1,348.9,401.652Z" transform="translate(-208.811 -235.564)" fill="#fff"/>
      <path id="Path_2505" data-name="Path 2505" d="M336.755,394.177a1.777,1.777,0,1,1-1.777-1.777A1.749,1.749,0,0,1,336.755,394.177Z" transform="translate(-200.834 -230.716)" fill="#fff"/>
      <circle id="Ellipse_236" data-name="Ellipse 236" cx="2.666" cy="2.666" r="2.666" transform="translate(128.791 160.416) rotate(-80.782)" fill="#fff"/>
      <path id="Path_2506" data-name="Path 2506" d="M367.791,433.3a2.4,2.4,0,1,1-2.4-2.4A2.408,2.408,0,0,1,367.791,433.3Z" transform="translate(-219.119 -254.34)" fill="#fff"/>
      <circle id="Ellipse_237" data-name="Ellipse 237" cx="2.396" cy="2.396" r="2.396" transform="translate(134.225 181.424) rotate(-80.782)" fill="#fff"/>
      <path id="Path_2507" data-name="Path 2507" d="M321.146,425.473A2.473,2.473,0,1,1,318.673,423,2.49,2.49,0,0,1,321.146,425.473Z" transform="translate(-190.402 -249.493)" fill="#fff"/>
      <circle id="Ellipse_238" data-name="Ellipse 238" cx="2.666" cy="2.666" r="2.666" transform="matrix(0.099, -0.995, 0.995, 0.099, 118.707, 171.587)" fill="#fff"/>
      <circle id="Ellipse_239" data-name="Ellipse 239" cx="2.821" cy="2.821" r="2.821" transform="matrix(0.099, -0.995, 0.995, 0.099, 115.567, 162.519)" fill="#fff"/>
      <path id="Path_2508" data-name="Path 2508" d="M298.014,357.107a3.207,3.207,0,1,1-3.207-3.207A3.2,3.2,0,0,1,298.014,357.107Z" transform="translate(-175.308 -207.092)" fill="#fff"/>
      <path id="Path_2509" data-name="Path 2509" d="M311.832,334.016a3.516,3.516,0,1,1-3.516-3.516A3.48,3.48,0,0,1,311.832,334.016Z" transform="translate(-183.407 -192.734)" fill="#fff"/>
      <path id="Path_2510" data-name="Path 2510" d="M337.141,325.821A2.821,2.821,0,1,1,334.321,323,2.812,2.812,0,0,1,337.141,325.821Z" transform="translate(-199.79 -188.132)" fill="#fff"/>
      <path id="Path_2511" data-name="Path 2511" d="M362.091,327.9a2.4,2.4,0,1,1-2.4-2.4A2.383,2.383,0,0,1,362.091,327.9Z" transform="translate(-215.622 -189.666)" fill="#fff"/>
      <path id="Path_2512" data-name="Path 2512" d="M382.577,341.239a1.739,1.739,0,1,1-1.739-1.739A1.732,1.732,0,0,1,382.577,341.239Z" transform="translate(-228.998 -198.257)" fill="#fff"/>
      <circle id="Ellipse_240" data-name="Ellipse 240" cx="1.777" cy="1.777" r="1.777" transform="translate(155.859 147.658)" fill="#fff"/>
      <circle id="Ellipse_241" data-name="Ellipse 241" cx="1.816" cy="1.816" r="1.816" transform="translate(158.293 155.965)" fill="#fff"/>
      <circle id="Ellipse_242" data-name="Ellipse 242" cx="1.893" cy="1.893" r="1.893" transform="translate(156.902 164.543)" fill="#fff"/>
      <circle id="Ellipse_243" data-name="Ellipse 243" cx="2.473" cy="2.473" r="2.473" transform="translate(151.707 176.615) rotate(-80.782)" fill="#fff"/>
      <path id="Path_2513" data-name="Path 2513" d="M367.791,433.3a2.4,2.4,0,1,1-2.4-2.4A2.408,2.408,0,0,1,367.791,433.3Z" transform="translate(-219.119 -254.34)" fill="#fff"/>
      <path id="Path_2514" data-name="Path 2514" d="M420.532,427.316a1.816,1.816,0,1,1-1.816-1.816A1.814,1.814,0,0,1,420.532,427.316Z" transform="translate(-252.192 -251.027)" fill="#fff"/>
      <circle id="Ellipse_244" data-name="Ellipse 244" cx="1.623" cy="1.623" r="1.623" transform="translate(157.791 181.312)" fill="#fff"/>
      <path id="Path_2515" data-name="Path 2515" d="M380.314,456.007a1.507,1.507,0,1,1-3.014,0,1.534,1.534,0,0,1,1.507-1.507A1.509,1.509,0,0,1,380.314,456.007Z" transform="translate(-227.894 -268.821)" fill="#fff"/>
      <path id="Path_2516" data-name="Path 2516" d="M356.168,461.184a1.584,1.584,0,1,1-1.584-1.584A1.567,1.567,0,0,1,356.168,461.184Z" transform="translate(-212.983 -271.951)" fill="#fff"/>
      <path id="Path_2517" data-name="Path 2517" d="M330.909,460.155a1.855,1.855,0,1,1-1.855-1.855A1.855,1.855,0,0,1,330.909,460.155Z" transform="translate(-197.152 -271.153)" fill="#fff"/>
      <path id="Path_2518" data-name="Path 2518" d="M306.918,450.609a2.009,2.009,0,1,1-2.009-2.009A2.02,2.02,0,0,1,306.918,450.609Z" transform="translate(-182.241 -265.201)" fill="#fff"/>
      <path id="Path_2519" data-name="Path 2519" d="M283.823,435.112a2.512,2.512,0,1,1-2.512-2.512A2.507,2.507,0,0,1,283.823,435.112Z" transform="translate(-167.453 -255.383)" fill="#fff"/>
      <circle id="Ellipse_245" data-name="Ellipse 245" cx="2.898" cy="2.898" r="2.898" transform="translate(104.507 168.021)" fill="#fff"/>
      <circle id="Ellipse_246" data-name="Ellipse 246" cx="3.246" cy="3.246" r="3.246" transform="translate(100.285 157.454) rotate(-9.218)" fill="#fff"/>
      <path id="Path_2520" data-name="Path 2520" d="M257.664,352.232a3.632,3.632,0,1,1-3.632-3.632A3.628,3.628,0,0,1,257.664,352.232Z" transform="translate(-150.027 -203.84)" fill="#fff"/>
      <circle id="Ellipse_247" data-name="Ellipse 247" cx="3.709" cy="3.709" r="3.709" transform="translate(104.58 134.431) rotate(-9.218)" fill="#fff"/>
      <path id="Path_2521" data-name="Path 2521" d="M292.332,302.755a3.516,3.516,0,1,1-3.516-3.555A3.529,3.529,0,0,1,292.332,302.755Z" transform="translate(-171.442 -173.528)" fill="#fff"/>
      <path id="Path_2522" data-name="Path 2522" d="M319.646,290.123a3.323,3.323,0,1,1-3.323-3.323A3.323,3.323,0,0,1,319.646,290.123Z" transform="translate(-188.439 -165.919)" fill="#fff"/>
      <circle id="Ellipse_248" data-name="Ellipse 248" cx="2.821" cy="2.821" r="2.821" transform="translate(136.462 121.112)" fill="#fff"/>
      <path id="Path_2523" data-name="Path 2523" d="M376.537,298.818a2.318,2.318,0,1,1-2.318-2.318A2.3,2.3,0,0,1,376.537,298.818Z" transform="translate(-224.58 -171.871)" fill="#fff"/>
      <circle id="Ellipse_249" data-name="Ellipse 249" cx="2.087" cy="2.087" r="2.087" transform="matrix(0.099, -0.995, 0.995, 0.099, 156.224, 133.939)" fill="#fff"/>
      <path id="Path_2524" data-name="Path 2524" d="M415.923,333.261a1.662,1.662,0,1,1-1.661-1.661A1.674,1.674,0,0,1,415.923,333.261Z" transform="translate(-249.554 -193.409)" fill="#fff"/>
      <path id="Path_2525" data-name="Path 2525" d="M426.337,355.968a1.468,1.468,0,1,1-1.468-1.468A1.52,1.52,0,0,1,426.337,355.968Z" transform="translate(-256.181 -207.461)" fill="#fff"/>
      <path id="Path_2526" data-name="Path 2526" d="M432.346,379.523a1.623,1.623,0,1,1-1.623-1.623A1.659,1.659,0,0,1,432.346,379.523Z" transform="translate(-259.679 -221.819)" fill="#fff"/>
      <circle id="Ellipse_250" data-name="Ellipse 250" cx="1.777" cy="1.777" r="1.777" transform="translate(168.765 165.586)" fill="#fff"/>
      <path id="Path_2527" data-name="Path 2527" d="M420.532,427.316a1.816,1.816,0,1,1-1.816-1.816A1.814,1.814,0,0,1,420.532,427.316Z" transform="translate(-252.192 -251.027)" fill="#fff"/>
      <path id="Path_2528" data-name="Path 2528" d="M462.614,425.357a2.342,2.342,0,0,1-2.357,2.357,2.366,2.366,0,0,1-2.357-2.357A2.342,2.342,0,0,1,460.257,423,2.366,2.366,0,0,1,462.614,425.357Z" transform="translate(-277.35 -249.493)" fill="#fff"/>
      <circle id="Ellipse_251" data-name="Ellipse 251" cx="2.473" cy="2.473" r="2.473" transform="translate(175.604 183.399)" fill="#fff"/>
      <path id="Path_2529" data-name="Path 2529" d="M431.3,473.15a2.55,2.55,0,1,1-5.1,0,2.55,2.55,0,0,1,5.1,0Z" transform="translate(-257.899 -278.7)" fill="#fff"/>
      <path id="Path_2530" data-name="Path 2530" d="M407.964,491.282a2.782,2.782,0,1,1-2.782-2.782A2.77,2.77,0,0,1,407.964,491.282Z" transform="translate(-243.295 -289.684)" fill="#fff"/>
      <path id="Path_2531" data-name="Path 2531" d="M379.887,501.143a2.743,2.743,0,1,1-2.743-2.743A2.754,2.754,0,0,1,379.887,501.143Z" transform="translate(-226.114 -295.759)" fill="#fff"/>
      <path id="Path_2532" data-name="Path 2532" d="M350.423,501.51A2.512,2.512,0,1,1,347.911,499,2.459,2.459,0,0,1,350.423,501.51Z" transform="translate(-208.32 -296.125)" fill="#fff"/>
      <path id="Path_2533" data-name="Path 2533" d="M323.373,492.586a2.087,2.087,0,1,1-2.087-2.086A2.078,2.078,0,0,1,323.373,492.586Z" transform="translate(-192.243 -290.911)" fill="#fff"/>
      <path id="Path_2534" data-name="Path 2534" d="M300.078,478.739A1.739,1.739,0,1,1,298.339,477,1.782,1.782,0,0,1,300.078,478.739Z" transform="translate(-178.376 -282.627)" fill="#fff"/>
      <path id="Path_2535" data-name="Path 2535" d="M281.359,460.927a1.43,1.43,0,0,1-2.859,0,1.452,1.452,0,0,1,1.43-1.43A1.38,1.38,0,0,1,281.359,460.927Z" transform="translate(-167.269 -271.887)" fill="#fff"/>
      <path id="Path_2536" data-name="Path 2536" d="M266.389,440.514a1.295,1.295,0,1,1-1.314-1.314A1.354,1.354,0,0,1,266.389,440.514Z" transform="translate(-158.249 -259.433)" fill="#fff"/>
      <path id="Path_2537" data-name="Path 2537" d="M254.827,418.114a1.314,1.314,0,1,1-1.314-1.314A1.3,1.3,0,0,1,254.827,418.114Z" transform="translate(-151.131 -245.688)" fill="#fff"/>
      <path id="Path_2538" data-name="Path 2538" d="M249.327,393.414a1.314,1.314,0,1,1-1.314-1.314A1.328,1.328,0,0,1,249.327,393.414Z" transform="translate(-147.757 -230.532)" fill="#fff"/>
      <path id="Path_2539" data-name="Path 2539" d="M247.737,367.668a1.468,1.468,0,1,1-1.468-1.468A1.468,1.468,0,0,1,247.737,367.668Z" transform="translate(-146.591 -214.64)" fill="#fff"/>
      <path id="Path_2540" data-name="Path 2540" d="M249.932,340.516a1.816,1.816,0,1,1-1.816-1.816A1.814,1.814,0,0,1,249.932,340.516Z" transform="translate(-147.511 -197.766)" fill="#fff"/>
      <path id="Path_2541" data-name="Path 2541" d="M261.764,316.193a1.932,1.932,0,1,1-3.864,0,1.881,1.881,0,0,1,1.932-1.893A1.9,1.9,0,0,1,261.764,316.193Z" transform="translate(-154.629 -182.794)" fill="#fff"/>
      <circle id="Ellipse_252" data-name="Ellipse 252" cx="1.855" cy="1.855" r="1.855" transform="translate(110.69 124.088)" fill="#fff"/>
      <circle id="Ellipse_253" data-name="Ellipse 253" cx="1.661" cy="1.661" r="1.661" transform="translate(120.002 119.374)" fill="#fff"/>
      <path id="Path_2542" data-name="Path 2542" d="M329.937,278.368a1.468,1.468,0,1,1-1.468-1.468A1.468,1.468,0,0,1,329.937,278.368Z" transform="translate(-197.029 -159.845)" fill="#fff"/>
      <path id="Path_2543" data-name="Path 2543" d="M355.514,275.507A1.507,1.507,0,1,1,354.007,274,1.485,1.485,0,0,1,355.514,275.507Z" transform="translate(-212.676 -158.065)" fill="#fff"/>
      <circle id="Ellipse_254" data-name="Ellipse 254" cx="1.546" cy="1.546" r="1.546" transform="translate(149.321 117.645) rotate(-22.5)" fill="#fff"/>
      <path id="Path_2544" data-name="Path 2544" d="M405.946,286.923a1.623,1.623,0,1,1-1.623-1.623A1.633,1.633,0,0,1,405.946,286.923Z" transform="translate(-243.479 -164.999)" fill="#fff"/>
      <circle id="Ellipse_255" data-name="Ellipse 255" cx="1.816" cy="1.816" r="1.816" transform="translate(167.876 125.401)" fill="#fff"/>
      <circle id="Ellipse_256" data-name="Ellipse 256" cx="1.971" cy="1.971" r="1.971" transform="translate(174.558 135.706) rotate(-67.5)" fill="#fff"/>
      <circle id="Ellipse_257" data-name="Ellipse 257" cx="2.125" cy="2.125" r="2.125" transform="translate(180.395 141.746)" fill="#fff"/>
      <path id="Path_2545" data-name="Path 2545" d="M468.427,369.864a2.164,2.164,0,1,1-2.164-2.164A2.16,2.16,0,0,1,468.427,369.864Z" transform="translate(-281.155 -215.56)" fill="#fff"/>
      <path id="Path_2546" data-name="Path 2546" d="M468.982,397.841a2.276,2.276,0,0,1-2.241,2.28,2.26,2.26,0,1,1,2.241-2.28Z" transform="translate(-281.4 -232.68)" fill="#fff"/>
      <path id="Path_2547" data-name="Path 2547" d="M462.614,425.357a2.342,2.342,0,0,1-2.357,2.357,2.366,2.366,0,0,1-2.357-2.357A2.342,2.342,0,0,1,460.257,423,2.366,2.366,0,0,1,462.614,425.357Z" transform="translate(-277.35 -249.493)" fill="#fff"/>
      <path id="Path_2548" data-name="Path 2548" d="M514.332,430.815a3.516,3.516,0,1,1-3.516-3.516A3.48,3.48,0,0,1,514.332,430.815Z" transform="translate(-307.663 -252.13)" fill="#fff"/>
      <path id="Path_2549" data-name="Path 2549" d="M500.039,459.8a3.42,3.42,0,1,1-3.4-3.4A3.381,3.381,0,0,1,500.039,459.8Z" transform="translate(-299.011 -269.987)" fill="#fff"/>
      <path id="Path_2550" data-name="Path 2550" d="M481.146,485.523a3.323,3.323,0,1,1-3.323-3.323A3.323,3.323,0,0,1,481.146,485.523Z" transform="translate(-287.536 -285.818)" fill="#fff"/>
      <path id="Path_2551" data-name="Path 2551" d="M458.269,507.484a3.284,3.284,0,1,1-3.284-3.284A3.282,3.282,0,0,1,458.269,507.484Z" transform="translate(-273.546 -299.318)" fill="#fff"/>
      <path id="Path_2552" data-name="Path 2552" d="M431.614,524.107a3.207,3.207,0,1,1-3.207-3.207A3.2,3.2,0,0,1,431.614,524.107Z" transform="translate(-257.286 -309.565)" fill="#fff"/>
      <path id="Path_2553" data-name="Path 2553" d="M402.482,535.091A3.091,3.091,0,1,1,399.391,532,3.1,3.1,0,0,1,402.482,535.091Z" transform="translate(-239.552 -316.376)" fill="#fff"/>
      <path id="Path_2554" data-name="Path 2554" d="M372.182,541.691a3.091,3.091,0,1,1-3.091-3.091A3.1,3.1,0,0,1,372.182,541.691Z" transform="translate(-220.96 -320.426)" fill="#fff"/>
      <path id="Path_2555" data-name="Path 2555" d="M341.137,543.268a3.168,3.168,0,1,1-3.168-3.168A3.208,3.208,0,0,1,341.137,543.268Z" transform="translate(-201.815 -321.346)" fill="#fff"/>
      <circle id="Ellipse_258" data-name="Ellipse 258" cx="3.284" cy="3.284" r="3.284" transform="translate(120.31 223.554) rotate(-80.782)" fill="#fff"/>
      <path id="Path_2556" data-name="Path 2556" d="M279.846,529.922a3.323,3.323,0,1,1-3.323-3.323A3.274,3.274,0,0,1,279.846,529.922Z" transform="translate(-164.017 -313.061)" fill="#fff"/>
      <path id="Path_2557" data-name="Path 2557" d="M254.537,511.368a3.168,3.168,0,1,1-3.168-3.168A3.183,3.183,0,0,1,254.537,511.368Z" transform="translate(-148.677 -301.772)" fill="#fff"/>
      <circle id="Ellipse_259" data-name="Ellipse 259" cx="3.091" cy="3.091" r="3.091" transform="translate(91.061 198.082)" fill="#fff"/>
      <path id="Path_2558" data-name="Path 2558" d="M215.35,464.375a2.975,2.975,0,1,1-2.975-2.975A2.977,2.977,0,0,1,215.35,464.375Z" transform="translate(-124.869 -273.055)" fill="#fff"/>
      <path id="Path_2559" data-name="Path 2559" d="M204.341,436.221a2.821,2.821,0,1,1-2.821-2.821A2.836,2.836,0,0,1,204.341,436.221Z" transform="translate(-118.303 -255.874)" fill="#fff"/>
      <path id="Path_2560" data-name="Path 2560" d="M199.594,406.866a2.647,2.647,0,1,1-2.627-2.666A2.664,2.664,0,0,1,199.594,406.866Z" transform="translate(-115.604 -237.957)" fill="#fff"/>
      <path id="Path_2561" data-name="Path 2561" d="M202.937,378.117a2.318,2.318,0,1,1-2.318-2.318A2.277,2.277,0,0,1,202.937,378.117Z" transform="translate(-118.058 -220.529)" fill="#fff"/>
      <path id="Path_2562" data-name="Path 2562" d="M213.787,351.993a1.893,1.893,0,1,1-1.893-1.893A1.9,1.9,0,0,1,213.787,351.993Z" transform="translate(-125.237 -204.761)" fill="#fff"/>
      <circle id="Ellipse_260" data-name="Ellipse 260" cx="1.468" cy="1.468" r="1.468" transform="translate(90.752 136.8)" fill="#fff"/>
      <path id="Path_2563" data-name="Path 2563" d="M243.65,308.975a1.275,1.275,0,1,1-1.275-1.275A1.262,1.262,0,0,1,243.65,308.975Z" transform="translate(-144.32 -178.744)" fill="#fff"/>
      <path id="Path_2564" data-name="Path 2564" d="M260.818,290.756a1.159,1.159,0,0,1-2.318,0,1.189,1.189,0,0,1,1.159-1.159A1.116,1.116,0,0,1,260.818,290.756Z" transform="translate(-154.997 -167.634)" fill="#fff"/>
      <path id="Path_2565" data-name="Path 2565" d="M281.709,277.5a1,1,0,1,1-1-1A1.023,1.023,0,0,1,281.709,277.5Z" transform="translate(-168.006 -159.599)" fill="#fff"/>
      <circle id="Ellipse_261" data-name="Ellipse 261" cx="0.966" cy="0.966" r="0.966" transform="translate(120.079 112.612)" fill="#fff"/>
      <path id="Path_2566" data-name="Path 2566" d="M325.4,254.8a1.2,1.2,0,1,1-1.2-1.2A1.2,1.2,0,0,1,325.4,254.8Z" transform="translate(-194.575 -145.548)" fill="#fff"/>
      <path id="Path_2567" data-name="Path 2567" d="M349.746,244.023a1.623,1.623,0,1,1-1.623-1.623A1.633,1.633,0,0,1,349.746,244.023Z" transform="translate(-208.995 -138.675)" fill="#fff"/>
      <circle id="Ellipse_262" data-name="Ellipse 262" cx="2.125" cy="2.125" r="2.125" transform="translate(147.667 100.788)" fill="#fff"/>
      <path id="Path_2568" data-name="Path 2568" d="M405.314,239.957a2.357,2.357,0,1,1-2.357-2.357A2.366,2.366,0,0,1,405.314,239.957Z" transform="translate(-242.191 -135.73)" fill="#fff"/>
      <path id="Path_2569" data-name="Path 2569" d="M431.569,251.434A2.434,2.434,0,1,1,429.134,249,2.424,2.424,0,0,1,431.569,251.434Z" transform="translate(-258.206 -142.725)" fill="#fff"/>
      <path id="Path_2570" data-name="Path 2570" d="M455.046,268.173a2.473,2.473,0,1,1-4.946,0,2.473,2.473,0,1,1,4.946,0Z" transform="translate(-272.564 -152.972)" fill="#fff"/>
      <path id="Path_2571" data-name="Path 2571" d="M475.523,288.75a2.512,2.512,0,0,1-5.023,0,2.54,2.54,0,0,1,2.512-2.55A2.565,2.565,0,0,1,475.523,288.75Z" transform="translate(-285.082 -165.551)" fill="#fff"/>
      <path id="Path_2572" data-name="Path 2572" d="M495.619,310.658a2.859,2.859,0,1,1-2.859-2.859A2.853,2.853,0,0,1,495.619,310.658Z" transform="translate(-296.986 -178.804)" fill="#fff"/>
      <path id="Path_2573" data-name="Path 2573" d="M509.382,337.591a3.091,3.091,0,1,1-3.091-3.091A3.1,3.1,0,0,1,509.382,337.591Z" transform="translate(-305.147 -195.188)" fill="#fff"/>
      <path id="Path_2574" data-name="Path 2574" d="M518.823,367.362A3.362,3.362,0,1,1,515.462,364,3.364,3.364,0,0,1,518.823,367.362Z" transform="translate(-310.608 -213.29)" fill="#fff"/>
      <path id="Path_2575" data-name="Path 2575" d="M521.032,399.215a3.516,3.516,0,1,1-3.516-3.516A3.48,3.48,0,0,1,521.032,399.215Z" transform="translate(-311.774 -232.74)" fill="#fff"/>
      <path id="Path_2576" data-name="Path 2576" d="M514.332,430.815a3.516,3.516,0,1,1-3.516-3.516A3.48,3.48,0,0,1,514.332,430.815Z" transform="translate(-307.663 -252.13)" fill="#fff"/>
      <circle id="Ellipse_263" data-name="Ellipse 263" cx="3.014" cy="3.014" r="3.014" transform="translate(210.534 175.323)" fill="#fff"/>
      <circle id="Ellipse_264" data-name="Ellipse 264" cx="2.937" cy="2.937" r="2.937" transform="translate(205.577 190.706) rotate(-67.5)" fill="#fff"/>
      <path id="Path_2577" data-name="Path 2577" d="M514.841,483.921a2.821,2.821,0,1,1-2.821-2.821A2.812,2.812,0,0,1,514.841,483.921Z" transform="translate(-308.828 -285.143)" fill="#fff"/>
      <path id="Path_2578" data-name="Path 2578" d="M495.987,506.543a2.743,2.743,0,1,1-2.743-2.743A2.754,2.754,0,0,1,495.987,506.543Z" transform="translate(-297.354 -299.072)" fill="#fff"/>
      <circle id="Ellipse_265" data-name="Ellipse 265" cx="2.705" cy="2.705" r="2.705" transform="translate(184.916 212.417)" fill="#fff"/>
      <path id="Path_2579" data-name="Path 2579" d="M450.709,542.9a2.7,2.7,0,1,1-2.7-2.7A2.688,2.688,0,0,1,450.709,542.9Z" transform="translate(-269.619 -321.407)" fill="#fff"/>
      <path id="Path_2580" data-name="Path 2580" d="M424.709,555.9a2.7,2.7,0,1,1-2.7-2.7A2.713,2.713,0,0,1,424.709,555.9Z" transform="translate(-253.665 -329.384)" fill="#fff"/>
      <circle id="Ellipse_266" data-name="Ellipse 266" cx="2.627" cy="2.627" r="2.627" transform="translate(154.97 226.945)" fill="#fff"/>
      <circle id="Ellipse_267" data-name="Ellipse 267" cx="2.55" cy="2.55" r="2.55" transform="translate(143.997 228.066)" fill="#fff"/>
      <path id="Path_2581" data-name="Path 2581" d="M340.046,566.073a2.473,2.473,0,1,1-4.946,0,2.473,2.473,0,0,1,4.946,0Z" transform="translate(-202 -335.766)" fill="#fff"/>
      <circle id="Ellipse_268" data-name="Ellipse 268" cx="2.512" cy="2.512" r="2.512" transform="translate(122.009 231.102) rotate(-85.935)" fill="#fff"/>
      <path id="Path_2582" data-name="Path 2582" d="M284.684,553.511a2.5,2.5,0,0,1-2.473,2.512,2.512,2.512,0,0,1,0-5.023A2.474,2.474,0,0,1,284.684,553.511Z" transform="translate(-168.006 -328.034)" fill="#fff"/>
      <path id="Path_2583" data-name="Path 2583" d="M260.391,539.3a2.4,2.4,0,1,1-2.4-2.4A2.408,2.408,0,0,1,260.391,539.3Z" transform="translate(-153.218 -319.383)" fill="#fff"/>
      <circle id="Ellipse_269" data-name="Ellipse 269" cx="2.241" cy="2.241" r="2.241" transform="translate(94.268 210.756)" fill="#fff"/>
      <circle id="Ellipse_270" data-name="Ellipse 270" cx="2.125" cy="2.125" r="2.125" transform="translate(86.661 203.819) rotate(-22.5)" fill="#fff"/>
      <path id="Path_2584" data-name="Path 2584" d="M207.141,477.871a1.971,1.971,0,1,1-1.971-1.971A1.979,1.979,0,0,1,207.141,477.871Z" transform="translate(-121.065 -281.953)" fill="#fff"/>
      <circle id="Ellipse_271" data-name="Ellipse 271" cx="1.816" cy="1.816" r="1.816" transform="translate(77.655 187.449) rotate(-67.5)" fill="#fff"/>
      <path id="Path_2585" data-name="Path 2585" d="M188.455,428.677a1.777,1.777,0,1,1-3.555,0,1.773,1.773,0,0,1,1.777-1.777A1.8,1.8,0,0,1,188.455,428.677Z" transform="translate(-109.836 -251.886)" fill="#fff"/>
      <circle id="Ellipse_272" data-name="Ellipse 272" cx="1.661" cy="1.661" r="1.661" transform="translate(73.541 167.651) rotate(-67.5)" fill="#fff"/>
      <path id="Path_2586" data-name="Path 2586" d="M187.191,377.346a1.546,1.546,0,1,1-1.546-1.546A1.526,1.526,0,0,1,187.191,377.346Z" transform="translate(-109.345 -220.53)" fill="#fff"/>
      <path id="Path_2587" data-name="Path 2587" d="M190.614,352.207a1.485,1.485,0,0,1-1.507,1.507,1.507,1.507,0,1,1,0-3.014A1.485,1.485,0,0,1,190.614,352.207Z" transform="translate(-111.492 -205.129)" fill="#fff"/>
      <circle id="Ellipse_273" data-name="Ellipse 273" cx="1.546" cy="1.546" r="1.546" transform="translate(77.953 136.695) rotate(-22.5)" fill="#fff"/>
      <circle id="Ellipse_274" data-name="Ellipse 274" cx="1.623" cy="1.623" r="1.623" transform="translate(81.71 126.599)" fill="#fff"/>
      <path id="Path_2588" data-name="Path 2588" d="M217.8,280.5a1.7,1.7,0,1,1-1.7-1.7A1.69,1.69,0,0,1,217.8,280.5Z" transform="translate(-127.937 -161.011)" fill="#fff"/>
      <path id="Path_2589" data-name="Path 2589" d="M233.655,259.477a1.773,1.773,0,0,1-1.777,1.777,1.8,1.8,0,0,1-1.777-1.777,1.773,1.773,0,0,1,1.777-1.777A1.8,1.8,0,0,1,233.655,259.477Z" transform="translate(-137.571 -148.063)" fill="#fff"/>
      <path id="Path_2590" data-name="Path 2590" d="M251.641,239.571a1.971,1.971,0,1,1-1.971-1.971A2,2,0,0,1,251.641,239.571Z" transform="translate(-148.37 -135.73)" fill="#fff"/>
      <path id="Path_2591" data-name="Path 2591" d="M273.7,224.048A2.048,2.048,0,1,1,271.648,222,2.037,2.037,0,0,1,273.7,224.048Z" transform="translate(-161.808 -126.158)" fill="#fff"/>
      <path id="Path_2592" data-name="Path 2592" d="M298.373,212.986a2.087,2.087,0,1,1-2.087-2.087A2.078,2.078,0,0,1,298.373,212.986Z" transform="translate(-176.903 -119.347)" fill="#fff"/>
      <circle id="Ellipse_275" data-name="Ellipse 275" cx="2.125" cy="2.125" r="2.125" transform="translate(126.524 90.778) rotate(-45)" fill="#fff"/>
      <path id="Path_2593" data-name="Path 2593" d="M351.828,202.664a2.164,2.164,0,1,1-2.164-2.164A2.16,2.16,0,0,1,351.828,202.664Z" transform="translate(-209.608 -112.965)" fill="#fff"/>
      <path id="Path_2594" data-name="Path 2594" d="M379.182,203.241A2.241,2.241,0,1,1,376.941,201,2.218,2.218,0,0,1,379.182,203.241Z" transform="translate(-226.298 -113.272)" fill="#fff"/>
      <path id="Path_2595" data-name="Path 2595" d="M406.714,206.857a2.342,2.342,0,0,1-2.357,2.357,2.357,2.357,0,0,1,0-4.714A2.342,2.342,0,0,1,406.714,206.857Z" transform="translate(-243.05 -115.42)" fill="#fff"/>
      <path id="Path_2596" data-name="Path 2596" d="M434.578,212.75a2.589,2.589,0,1,1-2.589-2.55A2.556,2.556,0,0,1,434.578,212.75Z" transform="translate(-259.863 -118.917)" fill="#fff"/>
      <path id="Path_2597" data-name="Path 2597" d="M461.864,223.082a2.782,2.782,0,1,1-2.782-2.782A2.77,2.77,0,0,1,461.864,223.082Z" transform="translate(-276.369 -125.115)" fill="#fff"/>
      <circle id="Ellipse_276" data-name="Ellipse 276" cx="2.859" cy="2.859" r="2.859" transform="translate(189.05 101.831)" fill="#fff"/>
      <path id="Path_2598" data-name="Path 2598" d="M504.441,263.121a2.821,2.821,0,1,1-2.821-2.821A2.836,2.836,0,0,1,504.441,263.121Z" transform="translate(-302.447 -149.659)" fill="#fff"/>
      <path id="Path_2599" data-name="Path 2599" d="M519.287,288.543a2.743,2.743,0,1,1-2.743-2.743A2.705,2.705,0,0,1,519.287,288.543Z" transform="translate(-311.651 -165.306)" fill="#fff"/>
      <circle id="Ellipse_277" data-name="Ellipse 277" cx="2.705" cy="2.705" r="2.705" transform="translate(206.747 130.811)" fill="#fff"/>
      <path id="Path_2600" data-name="Path 2600" d="M540.464,342.782A2.782,2.782,0,1,1,537.682,340,2.77,2.77,0,0,1,540.464,342.782Z" transform="translate(-324.598 -198.563)" fill="#fff"/>
      <path id="Path_2601" data-name="Path 2601" d="M545.219,371.759a2.859,2.859,0,1,1-2.859-2.859A2.853,2.853,0,0,1,545.219,371.759Z" transform="translate(-327.421 -216.297)" fill="#fff"/>
      <circle id="Ellipse_278" data-name="Ellipse 278" cx="2.937" cy="2.937" r="2.937" transform="translate(211.263 165.312) rotate(-22.5)" fill="#fff"/>
      <circle id="Ellipse_279" data-name="Ellipse 279" cx="3.014" cy="3.014" r="3.014" transform="translate(210.534 175.323)" fill="#fff"/>
      <path id="Path_2602" data-name="Path 2602" d="M530.873,458.737a2.937,2.937,0,1,1-2.937-2.937A2.935,2.935,0,0,1,530.873,458.737Z" transform="translate(-318.523 -269.619)" fill="#fff"/>
      <circle id="Ellipse_280" data-name="Ellipse 280" cx="3.284" cy="3.284" r="3.284" transform="matrix(0.099, -0.995, 0.995, 0.099, 225.78, 183.164)" fill="#fff"/>
      <path id="Path_2603" data-name="Path 2603" d="M573.291,463.446a3.246,3.246,0,1,1-3.246-3.246A3.265,3.265,0,0,1,573.291,463.446Z" transform="translate(-344.172 -272.319)" fill="#fff"/>
      <circle id="Ellipse_281" data-name="Ellipse 281" cx="3.13" cy="3.13" r="3.13" transform="translate(216.668 203.688) rotate(-80.782)" fill="#fff"/>
      <circle id="Ellipse_282" data-name="Ellipse 282" cx="3.014" cy="3.014" r="3.014" transform="translate(209.9 212.576) rotate(-80.782)" fill="#fff"/>
      <circle id="Ellipse_283" data-name="Ellipse 283" cx="2.898" cy="2.898" r="2.898" transform="translate(202.32 220.55) rotate(-80.782)" fill="#fff"/>
      <path id="Path_2604" data-name="Path 2604" d="M500.019,553.159a2.859,2.859,0,1,1-2.859-2.859A2.853,2.853,0,0,1,500.019,553.159Z" transform="translate(-299.686 -327.605)" fill="#fff"/>
      <path id="Path_2605" data-name="Path 2605" d="M477.219,570.259a2.859,2.859,0,1,1-2.859-2.859A2.853,2.853,0,0,1,477.219,570.259Z" transform="translate(-285.696 -338.098)" fill="#fff"/>
      <circle id="Ellipse_284" data-name="Ellipse 284" cx="2.821" cy="2.821" r="2.821" transform="translate(175.832 239.759) rotate(-85.935)" fill="#fff"/>
      <path id="Path_2606" data-name="Path 2606" d="M424.771,591.4a2.671,2.671,0,0,1-2.666,2.666,2.685,2.685,0,1,1,2.666-2.666Z" transform="translate(-253.727 -351.167)" fill="#fff"/>
      <path id="Path_2607" data-name="Path 2607" d="M397.1,595.65a2.55,2.55,0,1,1-2.55-2.55A2.548,2.548,0,0,1,397.1,595.65Z" transform="translate(-236.914 -353.867)" fill="#fff"/>
      <circle id="Ellipse_285" data-name="Ellipse 285" cx="2.28" cy="2.28" r="2.28" transform="matrix(0.995, -0.099, 0.099, 0.995, 144.437, 238.882)" fill="#fff"/>
      <path id="Path_2608" data-name="Path 2608" d="M343.341,587.671a1.971,1.971,0,1,1-1.971-1.971A1.979,1.979,0,0,1,343.341,587.671Z" transform="translate(-204.638 -349.327)" fill="#fff"/>
      <circle id="Ellipse_286" data-name="Ellipse 286" cx="1.739" cy="1.739" r="1.739" transform="translate(125.411 233.398)" fill="#fff"/>
      <path id="Path_2609" data-name="Path 2609" d="M295.146,571.223a1.623,1.623,0,1,1-1.623-1.623A1.633,1.633,0,0,1,295.146,571.223Z" transform="translate(-175.492 -339.447)" fill="#fff"/>
      <path id="Path_2610" data-name="Path 2610" d="M273.014,560.407a1.507,1.507,0,1,1-1.507-1.507A1.485,1.485,0,0,1,273.014,560.407Z" transform="translate(-162.054 -332.882)" fill="#fff"/>
      <path id="Path_2611" data-name="Path 2611" d="M252.459,547.43a1.43,1.43,0,0,1-2.859,0,1.43,1.43,0,0,1,2.859,0Z" transform="translate(-149.536 -324.966)" fill="#fff"/>
      <path id="Path_2612" data-name="Path 2612" d="M232.037,534.068a1.468,1.468,0,1,1-1.468-1.468A1.468,1.468,0,0,1,232.037,534.068Z" transform="translate(-136.957 -316.744)" fill="#fff"/>
      <circle id="Ellipse_287" data-name="Ellipse 287" cx="1.623" cy="1.623" r="1.623" transform="translate(83.858 213.512) rotate(-85.935)" fill="#fff"/>
      <path id="Path_2613" data-name="Path 2613" d="M193.178,502.239a1.739,1.739,0,1,1-1.739-1.739A1.732,1.732,0,0,1,193.178,502.239Z" transform="translate(-112.781 -297.047)" fill="#fff"/>
      <circle id="Ellipse_288" data-name="Ellipse 288" cx="1.739" cy="1.739" r="1.739" transform="translate(71.625 195.338)" fill="#fff"/>
      <path id="Path_2614" data-name="Path 2614" d="M168.278,458.739A1.739,1.739,0,1,1,166.539,457,1.732,1.732,0,0,1,168.278,458.739Z" transform="translate(-97.502 -270.355)" fill="#fff"/>
      <circle id="Ellipse_289" data-name="Ellipse 289" cx="1.777" cy="1.777" r="1.777" transform="translate(63.236 178.309) rotate(-22.5)" fill="#fff"/>
      <path id="Path_2615" data-name="Path 2615" d="M152.109,410.555a1.831,1.831,0,0,1-1.855,1.855,1.855,1.855,0,0,1,0-3.709A1.831,1.831,0,0,1,152.109,410.555Z" transform="translate(-87.439 -240.718)" fill="#fff"/>
      <path id="Path_2616" data-name="Path 2616" d="M147.041,384.971A1.971,1.971,0,1,1,145.071,383,1.979,1.979,0,0,1,147.041,384.971Z" transform="translate(-84.187 -224.948)" fill="#fff"/>
      <path id="Path_2617" data-name="Path 2617" d="M145.973,358.686a2.087,2.087,0,1,1-2.087-2.087A2.078,2.078,0,0,1,145.973,358.686Z" transform="translate(-83.389 -208.749)" fill="#fff"/>
      <circle id="Ellipse_290" data-name="Ellipse 290" cx="2.125" cy="2.125" r="2.125" transform="translate(59.115 138.746) rotate(-22.5)" fill="#fff"/>
      <path id="Path_2618" data-name="Path 2618" d="M156.328,307.064a2.164,2.164,0,1,1-2.164-2.164A2.16,2.16,0,0,1,156.328,307.064Z" transform="translate(-89.648 -177.026)" fill="#fff"/>
      <circle id="Ellipse_291" data-name="Ellipse 291" cx="2.241" cy="2.241" r="2.241" transform="translate(65.984 118.214)" fill="#fff"/>
      <path id="Path_2619" data-name="Path 2619" d="M178.659,258.68a2.28,2.28,0,1,1-2.28-2.28A2.284,2.284,0,0,1,178.659,258.68Z" transform="translate(-103.209 -147.266)" fill="#fff"/>
      <path id="Path_2620" data-name="Path 2620" d="M194.637,237.018a2.318,2.318,0,1,1-2.318-2.318A2.325,2.325,0,0,1,194.637,237.018Z" transform="translate(-112.965 -133.95)" fill="#fff"/>
      <circle id="Ellipse_292" data-name="Ellipse 292" cx="2.357" cy="2.357" r="2.357" transform="translate(83.941 97.592) rotate(-80.782)" fill="#fff"/>
      <path id="Path_2621" data-name="Path 2621" d="M235.014,201.557a2.357,2.357,0,1,1-2.357-2.357A2.342,2.342,0,0,1,235.014,201.557Z" transform="translate(-137.693 -112.167)" fill="#fff"/>
      <path id="Path_2622" data-name="Path 2622" d="M259.037,189.418a2.292,2.292,0,0,1-2.318,2.28,2.3,2.3,0,1,1,2.318-2.28Z" transform="translate(-152.481 -104.743)" fill="#fff"/>
      <circle id="Ellipse_293" data-name="Ellipse 293" cx="2.202" cy="2.202" r="2.202" transform="translate(111.069 81.745) rotate(-45)" fill="#fff"/>
      <path id="Path_2623" data-name="Path 2623" d="M311.764,181.432a1.932,1.932,0,1,1-1.932-1.932A1.938,1.938,0,0,1,311.764,181.432Z" transform="translate(-185.309 -100.079)" fill="#fff"/>
      <path id="Path_2624" data-name="Path 2624" d="M337.946,185.123a1.623,1.623,0,1,1-1.623-1.623A1.608,1.608,0,0,1,337.946,185.123Z" transform="translate(-201.754 -102.534)" fill="#fff"/>
      <path id="Path_2625" data-name="Path 2625" d="M362.714,188.107a1.485,1.485,0,0,1-1.507,1.507,1.507,1.507,0,1,1,0-3.014A1.485,1.485,0,0,1,362.714,188.107Z" transform="translate(-217.094 -104.436)" fill="#fff"/>
      <path id="Path_2626" data-name="Path 2626" d="M387.191,189.846a1.546,1.546,0,1,1-1.546-1.546A1.55,1.55,0,0,1,387.191,189.846Z" transform="translate(-232.066 -105.479)" fill="#fff"/>
      <circle id="Ellipse_294" data-name="Ellipse 294" cx="1.584" cy="1.584" r="1.584" transform="translate(161.384 84.482)" fill="#fff"/>
      <path id="Path_2627" data-name="Path 2627" d="M435.123,201.561a1.661,1.661,0,1,1-1.661-1.662A1.649,1.649,0,0,1,435.123,201.561Z" transform="translate(-261.335 -112.597)" fill="#fff"/>
      <path id="Path_2628" data-name="Path 2628" d="M458.793,210.116a1.806,1.806,0,0,1-1.777,1.816,1.839,1.839,0,0,1-1.816-1.816,1.8,1.8,0,1,1,3.593,0Z" transform="translate(-275.694 -117.751)" fill="#fff"/>
      <circle id="Ellipse_295" data-name="Ellipse 295" cx="2.009" cy="2.009" r="2.009" transform="translate(187.563 96.628) rotate(-45)" fill="#fff"/>
      <circle id="Ellipse_296" data-name="Ellipse 296" cx="2.164" cy="2.164" r="2.164" transform="translate(196.817 100.093)" fill="#fff"/>
      <circle id="Ellipse_297" data-name="Ellipse 297" cx="2.28" cy="2.28" r="2.28" transform="translate(204.042 107.202)" fill="#fff"/>
      <path id="Path_2629" data-name="Path 2629" d="M538.459,275.778a2.284,2.284,0,0,1-2.28,2.28,2.259,2.259,0,0,1-2.28-2.28,2.284,2.284,0,0,1,2.28-2.28A2.259,2.259,0,0,1,538.459,275.778Z" transform="translate(-323.985 -157.757)" fill="#fff"/>
      <circle id="Ellipse_298" data-name="Ellipse 298" cx="2.357" cy="2.357" r="2.357" transform="translate(214.191 128.365) rotate(-67.5)" fill="#fff"/>
      <path id="Path_2630" data-name="Path 2630" d="M563.146,323.673a2.473,2.473,0,1,1-4.946,0,2.49,2.49,0,0,1,2.473-2.473A2.441,2.441,0,0,1,563.146,323.673Z" transform="translate(-338.895 -187.027)" fill="#fff"/>
      <path id="Path_2631" data-name="Path 2631" d="M572.432,349.627a2.666,2.666,0,1,1-5.332,0,2.666,2.666,0,0,1,5.332,0Z" transform="translate(-344.356 -202.859)" fill="#fff"/>
      <path id="Path_2632" data-name="Path 2632" d="M579.319,377.059a2.859,2.859,0,1,1-2.859-2.859A2.853,2.853,0,0,1,579.319,377.059Z" transform="translate(-348.345 -219.549)" fill="#fff"/>
      <path id="Path_2633" data-name="Path 2633" d="M583.782,405.791a3.091,3.091,0,1,1-3.091-3.091A3.1,3.1,0,0,1,583.782,405.791Z" transform="translate(-350.799 -237.036)" fill="#fff"/>
      <circle id="Ellipse_299" data-name="Ellipse 299" cx="3.284" cy="3.284" r="3.284" transform="matrix(0.099, -0.995, 0.995, 0.099, 225.78, 183.164)" fill="#fff"/>
      <path id="Path_2634" data-name="Path 2634" d="M575.336,402.068a1.468,1.468,0,1,1-1.468-1.468A1.52,1.52,0,0,1,575.336,402.068Z" transform="translate(-347.608 -235.748)" fill="#fff"/>
      <path id="Path_2635" data-name="Path 2635" d="M573.414,425.007a1.535,1.535,0,0,1-1.507,1.507,1.507,1.507,0,0,1,0-3.014A1.485,1.485,0,0,1,573.414,425.007Z" transform="translate(-346.381 -249.8)" fill="#fff"/>
      <path id="Path_2636" data-name="Path 2636" d="M568.891,447.646a1.546,1.546,0,1,1-1.546-1.546A1.55,1.55,0,0,1,568.891,447.646Z" transform="translate(-343.559 -263.667)" fill="#fff"/>
      <circle id="Ellipse_300" data-name="Ellipse 300" cx="1.584" cy="1.584" r="1.584" transform="translate(219.373 193.899) rotate(-80.782)" fill="#fff"/>
      <circle id="Ellipse_301" data-name="Ellipse 301" cx="1.623" cy="1.623" r="1.623" transform="translate(215.823 199.561) rotate(-9.218)" fill="#fff"/>
      <path id="Path_2637" data-name="Path 2637" d="M541.623,511.761a1.661,1.661,0,1,1-1.661-1.661A1.7,1.7,0,0,1,541.623,511.761Z" transform="translate(-326.685 -302.938)" fill="#fff"/>
      <circle id="Ellipse_302" data-name="Ellipse 302" cx="1.7" cy="1.7" r="1.7" transform="matrix(0.995, -0.099, 0.099, 0.995, 206.116, 214.709)" fill="#fff"/>
      <path id="Path_2638" data-name="Path 2638" d="M512.378,548.739A1.739,1.739,0,1,1,510.639,547,1.756,1.756,0,0,1,512.378,548.739Z" transform="translate(-308.644 -325.58)" fill="#fff"/>
      <circle id="Ellipse_303" data-name="Ellipse 303" cx="1.816" cy="1.816" r="1.816" transform="translate(193.61 227.834)" fill="#fff"/>
      <ellipse id="Ellipse_304" data-name="Ellipse 304" cx="1.855" cy="1.893" rx="1.855" ry="1.893" transform="translate(186.256 237.326) rotate(-85.935)" fill="#fff"/>
      <path id="Path_2639" data-name="Path 2639" d="M456.564,594.032a1.932,1.932,0,1,1-1.932-1.932A1.938,1.938,0,0,1,456.564,594.032Z" transform="translate(-274.16 -353.254)" fill="#fff"/>
      <path id="Path_2640" data-name="Path 2640" d="M434.58,604.609a1.99,1.99,0,1,1-1.971-2.009A1.979,1.979,0,0,1,434.58,604.609Z" transform="translate(-260.599 -359.697)" fill="#fff"/>
      <circle id="Ellipse_305" data-name="Ellipse 305" cx="2.009" cy="2.009" r="2.009" transform="translate(161.037 245.956)" fill="#fff"/>
      <circle id="Ellipse_306" data-name="Ellipse 306" cx="2.087" cy="2.087" r="2.087" transform="matrix(0.995, -0.099, 0.099, 0.995, 151.562, 248.715)" fill="#fff"/>
      <path id="Path_2641" data-name="Path 2641" d="M363.1,624.5a2.2,2.2,0,1,1-2.2-2.2A2.2,2.2,0,0,1,363.1,624.5Z" transform="translate(-216.481 -371.785)" fill="#fff"/>
      <path id="Path_2642" data-name="Path 2642" d="M337.737,626.718a2.318,2.318,0,1,1-2.318-2.318A2.3,2.3,0,0,1,337.737,626.718Z" transform="translate(-200.772 -373.073)" fill="#fff"/>
      <path id="Path_2643" data-name="Path 2643" d="M312.637,624.218a2.318,2.318,0,1,1-2.318-2.318A2.325,2.325,0,0,1,312.637,624.218Z" transform="translate(-185.371 -371.539)" fill="#fff"/>
      <path id="Path_2644" data-name="Path 2644" d="M288.159,617.48a2.284,2.284,0,0,1-2.28,2.28,2.28,2.28,0,1,1,0-4.559A2.284,2.284,0,0,1,288.159,617.48Z" transform="translate(-170.399 -367.428)" fill="#fff"/>
      <circle id="Ellipse_307" data-name="Ellipse 307" cx="2.241" cy="2.241" r="2.241" transform="translate(104.16 244.372)" fill="#fff"/>
      <path id="Path_2645" data-name="Path 2645" d="M241.782,598.441a2.241,2.241,0,1,1-2.241-2.241A2.243,2.243,0,0,1,241.782,598.441Z" transform="translate(-141.989 -355.769)" fill="#fff"/>
      <circle id="Ellipse_308" data-name="Ellipse 308" cx="2.202" cy="2.202" r="2.202" transform="translate(86.747 239.428) rotate(-80.782)" fill="#fff"/>
      <path id="Path_2646" data-name="Path 2646" d="M201.55,569.125a2.119,2.119,0,0,1-2.125,2.125,2.125,2.125,0,0,1,0-4.25A2.119,2.119,0,0,1,201.55,569.125Z" transform="translate(-117.444 -337.852)" fill="#fff"/>
      <path id="Path_2647" data-name="Path 2647" d="M185.718,550.109a2,2,0,0,1-2.009,2.009,2.02,2.02,0,0,1-2.009-2.009,2.009,2.009,0,0,1,4.018,0Z" transform="translate(-107.872 -326.255)" fill="#fff"/>
      <path id="Path_2648" data-name="Path 2648" d="M171.948,530.093a1.9,1.9,0,0,1-1.893,1.893,1.864,1.864,0,0,1-1.855-1.893,1.874,1.874,0,1,1,3.748,0Z" transform="translate(-99.588 -314.044)" fill="#fff"/>
      <circle id="Ellipse_309" data-name="Ellipse 309" cx="1.816" cy="1.816" r="1.816" transform="translate(63.859 206.273)" fill="#fff"/>
      <path id="Path_2649" data-name="Path 2649" d="M149.339,488.2a1.72,1.72,0,1,1-3.439,0,1.72,1.72,0,0,1,3.439,0Z" transform="translate(-85.905 -288.457)" fill="#fff"/>
      <path id="Path_2650" data-name="Path 2650" d="M141.846,465.923a1.623,1.623,0,1,1-1.623-1.623A1.633,1.633,0,0,1,141.846,465.923Z" transform="translate(-81.426 -274.835)" fill="#fff"/>
      <path id="Path_2651" data-name="Path 2651" d="M136.068,443.345a1.584,1.584,0,1,1-3.168,0,1.559,1.559,0,0,1,1.584-1.546A1.584,1.584,0,0,1,136.068,443.345Z" transform="translate(-77.928 -261.028)" fill="#fff"/>
      <path id="Path_2652" data-name="Path 2652" d="M131.191,420.743a1.546,1.546,0,1,1-1.546-1.546A1.5,1.5,0,0,1,131.191,420.743Z" transform="translate(-74.983 -247.159)" fill="#fff"/>
      <path id="Path_2653" data-name="Path 2653" d="M127.046,397.682a1.623,1.623,0,1,1-3.246,0,1.6,1.6,0,0,1,1.623-1.584A1.553,1.553,0,0,1,127.046,397.682Z" transform="translate(-72.344 -232.984)" fill="#fff"/>
      <path id="Path_2654" data-name="Path 2654" d="M125.223,374.161a1.661,1.661,0,1,1-1.661-1.661A1.649,1.649,0,0,1,125.223,374.161Z" transform="translate(-71.178 -218.506)" fill="#fff"/>
      <path id="Path_2655" data-name="Path 2655" d="M126.4,350.6a1.7,1.7,0,1,1-1.7-1.7A1.69,1.69,0,0,1,126.4,350.6Z" transform="translate(-71.853 -204.024)" fill="#fff"/>
      <path id="Path_2656" data-name="Path 2656" d="M130.7,327.3a1.7,1.7,0,1,1-1.7-1.7A1.715,1.715,0,0,1,130.7,327.3Z" transform="translate(-74.492 -189.727)" fill="#fff"/>
      <path id="Path_2657" data-name="Path 2657" d="M137.5,304.7a1.7,1.7,0,1,1-1.7-1.7A1.715,1.715,0,0,1,137.5,304.7Z" transform="translate(-78.664 -175.86)" fill="#fff"/>
      <circle id="Ellipse_310" data-name="Ellipse 310" cx="1.7" cy="1.7" r="1.7" transform="translate(58.679 121.813) rotate(-80.782)" fill="#fff"/>
      <circle id="Ellipse_311" data-name="Ellipse 311" cx="1.661" cy="1.661" r="1.661" transform="translate(63.588 110.912)" fill="#fff"/>
      <path id="Path_2658" data-name="Path 2658" d="M172.746,243.923a1.623,1.623,0,1,1-1.623-1.623A1.633,1.633,0,0,1,172.746,243.923Z" transform="translate(-100.386 -138.614)" fill="#fff"/>
      <path id="Path_2659" data-name="Path 2659" d="M188.246,226.423a1.623,1.623,0,1,1-1.623-1.623A1.608,1.608,0,0,1,188.246,226.423Z" transform="translate(-109.897 -127.876)" fill="#fff"/>
      <path id="Path_2660" data-name="Path 2660" d="M204.423,209.361a1.661,1.661,0,1,1-1.661-1.661A1.674,1.674,0,0,1,204.423,209.361Z" transform="translate(-119.776 -117.383)" fill="#fff"/>
      <circle id="Ellipse_312" data-name="Ellipse 312" cx="1.777" cy="1.777" r="1.777" transform="translate(87.777 83.787)" fill="#fff"/>
      <path id="Path_2661" data-name="Path 2661" d="M240.209,177.455a1.855,1.855,0,1,1-1.855-1.855A1.855,1.855,0,0,1,240.209,177.455Z" transform="translate(-141.498 -97.686)" fill="#fff"/>
      <path id="Path_2662" data-name="Path 2662" d="M261.164,165.532a1.932,1.932,0,1,1-1.932-1.932A1.913,1.913,0,0,1,261.164,165.532Z" transform="translate(-154.261 -90.323)" fill="#fff"/>
      <circle id="Ellipse_313" data-name="Ellipse 313" cx="1.932" cy="1.932" r="1.932" transform="translate(111.425 73.34) rotate(-76.714)" fill="#fff"/>
      <circle id="Ellipse_314" data-name="Ellipse 314" cx="1.932" cy="1.932" r="1.932" transform="translate(120.89 67.597)" fill="#fff"/>
      <path id="Path_2663" data-name="Path 2663" d="M331.364,146.771a1.932,1.932,0,0,1-3.864,0,1.971,1.971,0,0,1,1.932-1.971A2.024,2.024,0,0,1,331.364,146.771Z" transform="translate(-197.336 -78.787)" fill="#fff"/>
      <path id="Path_2664" data-name="Path 2664" d="M355.641,144.709a1.971,1.971,0,1,1-3.941,0,2.012,2.012,0,0,1,1.971-2.009A1.987,1.987,0,0,1,355.641,144.709Z" transform="translate(-212.185 -77.499)" fill="#fff"/>
      <path id="Path_2665" data-name="Path 2665" d="M380.1,144.348a2.048,2.048,0,1,1-2.048-2.048A2.061,2.061,0,0,1,380.1,144.348Z" transform="translate(-227.096 -77.253)" fill="#fff"/>
      <path id="Path_2666" data-name="Path 2666" d="M404.573,147.487a2.087,2.087,0,1,1-2.087-2.087A2.078,2.078,0,0,1,404.573,147.487Z" transform="translate(-242.068 -79.155)" fill="#fff"/>
      <path id="Path_2667" data-name="Path 2667" d="M427.9,155.348a2.048,2.048,0,0,1-4.1,0,2.048,2.048,0,1,1,4.1,0Z" transform="translate(-256.426 -84.003)" fill="#fff"/>
      <path id="Path_2668" data-name="Path 2668" d="M449.664,167.032a1.932,1.932,0,1,1-1.932-1.932A1.938,1.938,0,0,1,449.664,167.032Z" transform="translate(-269.926 -91.243)" fill="#fff"/>
      <path id="Path_2669" data-name="Path 2669" d="M469.971,180.616a1.855,1.855,0,0,1-1.855,1.855,1.835,1.835,0,0,1,0-3.671A1.847,1.847,0,0,1,469.971,180.616Z" transform="translate(-282.505 -99.65)" fill="#fff"/>
      <circle id="Ellipse_315" data-name="Ellipse 315" cx="1.777" cy="1.777" r="1.777" transform="translate(190.905 87.821) rotate(-76.714)" fill="#fff"/>
      <circle id="Ellipse_316" data-name="Ellipse 316" cx="1.739" cy="1.739" r="1.739" transform="translate(197.96 94.025) rotate(-80.782)" fill="#fff"/>
      <path id="Path_2670" data-name="Path 2670" d="M523.5,228a1.7,1.7,0,1,1-3.4,0,1.7,1.7,0,1,1,3.4,0Z" transform="translate(-315.517 -128.796)" fill="#fff"/>
      <circle id="Ellipse_317" data-name="Ellipse 317" cx="1.7" cy="1.7" r="1.7" transform="translate(210.147 104.729)" fill="#fff"/>
      <path id="Path_2671" data-name="Path 2671" d="M549.823,267.061a1.661,1.661,0,1,1-1.661-1.661A1.649,1.649,0,0,1,549.823,267.061Z" transform="translate(-331.716 -152.788)" fill="#fff"/>
      <path id="Path_2672" data-name="Path 2672" d="M559.468,288.584A1.584,1.584,0,1,1,557.884,287,1.591,1.591,0,0,1,559.468,288.584Z" transform="translate(-337.729 -166.042)" fill="#fff"/>
      <path id="Path_2673" data-name="Path 2673" d="M566.391,310.846a1.546,1.546,0,1,1-1.546-1.546A1.576,1.576,0,0,1,566.391,310.846Z" transform="translate(-342.025 -179.726)" fill="#fff"/>
      <path id="Path_2674" data-name="Path 2674" d="M570.837,333.668a1.468,1.468,0,1,1-1.468-1.468A1.468,1.468,0,0,1,570.837,333.668Z" transform="translate(-344.847 -193.777)" fill="#fff"/>
      <path id="Path_2675" data-name="Path 2675" d="M573.759,356.43a1.43,1.43,0,1,1-1.43-1.43A1.426,1.426,0,0,1,573.759,356.43Z" transform="translate(-346.688 -207.767)" fill="#fff"/>
      <path id="Path_2676" data-name="Path 2676" d="M575.359,379.23a1.43,1.43,0,0,1-2.859,0,1.43,1.43,0,1,1,2.859,0Z" transform="translate(-347.67 -221.758)" fill="#fff"/>
      <path id="Path_2677" data-name="Path 2677" d="M575.336,402.068a1.468,1.468,0,1,1-1.468-1.468A1.52,1.52,0,0,1,575.336,402.068Z" transform="translate(-347.608 -235.748)" fill="#fff"/>
      <path id="Path_2678" data-name="Path 2678" d="M573.414,425.007a1.535,1.535,0,0,1-1.507,1.507,1.507,1.507,0,0,1,0-3.014A1.485,1.485,0,0,1,573.414,425.007Z" transform="translate(-346.381 -249.8)" fill="#fff"/>
      <circle id="Ellipse_318" data-name="Ellipse 318" cx="1.7" cy="1.7" r="1.7" transform="translate(236.651 179.563) rotate(-80.782)" fill="#fff"/>
      <path id="Path_2679" data-name="Path 2679" d="M604.555,454.577a1.777,1.777,0,1,1-3.555,0,1.773,1.773,0,0,1,1.777-1.777A1.8,1.8,0,0,1,604.555,454.577Z" transform="translate(-365.158 -267.778)" fill="#fff"/>
      <path id="Path_2680" data-name="Path 2680" d="M599.109,476.455a1.855,1.855,0,0,1-3.709,0,1.831,1.831,0,0,1,1.855-1.855A1.88,1.88,0,0,1,599.109,476.455Z" transform="translate(-361.722 -281.155)" fill="#fff"/>
      <path id="Path_2681" data-name="Path 2681" d="M591.009,497.655a1.855,1.855,0,1,1-1.855-1.855A1.881,1.881,0,0,1,591.009,497.655Z" transform="translate(-356.751 -294.163)" fill="#fff"/>
      <path id="Path_2682" data-name="Path 2682" d="M580.687,517.993a1.893,1.893,0,1,1-1.893-1.893A1.9,1.9,0,0,1,580.687,517.993Z" transform="translate(-350.37 -306.619)" fill="#fff"/>
      <circle id="Ellipse_319" data-name="Ellipse 319" cx="1.932" cy="1.932" r="1.932" transform="translate(221.615 220.508) rotate(-80.782)" fill="#fff"/>
      <circle id="Ellipse_320" data-name="Ellipse 320" cx="1.932" cy="1.932" r="1.932" transform="translate(216.677 224.125)" fill="#fff"/>
      <path id="Path_2683" data-name="Path 2683" d="M540.518,573.669a2,2,0,0,1-2.009,2.009,2.02,2.02,0,0,1-2.009-2.009,1.987,1.987,0,0,1,2.009-1.971A1.963,1.963,0,0,1,540.518,573.669Z" transform="translate(-325.58 -340.734)" fill="#fff"/>
      <path id="Path_2684" data-name="Path 2684" d="M524.1,589.948A2.037,2.037,0,0,1,522.048,592a2.048,2.048,0,1,1,2.048-2.048Z" transform="translate(-315.455 -350.676)" fill="#fff"/>
      <path id="Path_2685" data-name="Path 2685" d="M506,604.446a2.048,2.048,0,1,1-2.048-2.048A2.013,2.013,0,0,1,506,604.446Z" transform="translate(-304.349 -359.572)" fill="#fff"/>
      <circle id="Ellipse_321" data-name="Ellipse 321" cx="2.048" cy="2.048" r="2.048" transform="translate(189.505 251.104) rotate(-80.782)" fill="#fff"/>
      <path id="Path_2686" data-name="Path 2686" d="M464.841,625.569a2.012,2.012,0,0,1-1.971,2.009,1.99,1.99,0,0,1,0-3.98A1.93,1.93,0,0,1,464.841,625.569Z" transform="translate(-279.191 -372.58)" fill="#fff"/>
      <path id="Path_2687" data-name="Path 2687" d="M442.725,632.132a1.938,1.938,0,0,1-1.932,1.932,1.9,1.9,0,0,1-1.893-1.932,1.93,1.93,0,0,1,1.893-1.932A1.99,1.99,0,0,1,442.725,632.132Z" transform="translate(-265.692 -376.632)" fill="#fff"/>
      <path id="Path_2688" data-name="Path 2688" d="M420.032,635.916a1.816,1.816,0,1,1-1.816-1.816A1.814,1.814,0,0,1,420.032,635.916Z" transform="translate(-251.886 -379.025)" fill="#fff"/>
      <circle id="Ellipse_322" data-name="Ellipse 322" cx="1.7" cy="1.7" r="1.7" transform="translate(155.859 255.654)" fill="#fff"/>
      <path id="Path_2689" data-name="Path 2689" d="M375.168,637.084a1.584,1.584,0,1,1-1.584-1.584A1.617,1.617,0,0,1,375.168,637.084Z" transform="translate(-224.642 -379.884)" fill="#fff"/>
      <circle id="Ellipse_323" data-name="Ellipse 323" cx="1.507" cy="1.507" r="1.507" transform="translate(138.935 255.307)" fill="#fff"/>
      <circle id="Ellipse_324" data-name="Ellipse 324" cx="1.507" cy="1.507" r="1.507" transform="matrix(0.995, -0.099, 0.099, 0.995, 130.368, 254.952)" fill="#fff"/>
      <path id="Path_2690" data-name="Path 2690" d="M309.753,632.645a1.526,1.526,0,1,1-1.507-1.545A1.543,1.543,0,0,1,309.753,632.645Z" transform="translate(-184.573 -377.184)" fill="#fff"/>
      <path id="Path_2691" data-name="Path 2691" d="M288.191,628.545A1.546,1.546,0,1,1,286.646,627,1.55,1.55,0,0,1,288.191,628.545Z" transform="translate(-171.319 -374.669)" fill="#fff"/>
      <circle id="Ellipse_325" data-name="Ellipse 325" cx="1.584" cy="1.584" r="1.584" transform="translate(105.589 249.974)" fill="#fff"/>
      <circle id="Ellipse_326" data-name="Ellipse 326" cx="1.623" cy="1.623" r="1.623" transform="translate(97.239 250.214) rotate(-80.782)" fill="#fff"/>
      <path id="Path_2692" data-name="Path 2692" d="M225.2,607.5a1.7,1.7,0,1,1-1.7-1.7A1.715,1.715,0,0,1,225.2,607.5Z" transform="translate(-132.478 -361.66)" fill="#fff"/>
      <circle id="Ellipse_327" data-name="Ellipse 327" cx="1.777" cy="1.777" r="1.777" transform="translate(81.401 240.276)" fill="#fff"/>
      <path id="Path_2693" data-name="Path 2693" d="M185.771,585.155a1.823,1.823,0,0,1-1.855,1.816,1.79,1.79,0,0,1-1.816-1.816,1.847,1.847,0,0,1,1.816-1.855A1.88,1.88,0,0,1,185.771,585.155Z" transform="translate(-108.118 -347.854)" fill="#fff"/>
      <path id="Path_2694" data-name="Path 2694" d="M168.409,570.555a1.831,1.831,0,0,1-1.855,1.855,1.855,1.855,0,1,1,1.855-1.855Z" transform="translate(-97.441 -338.895)" fill="#fff"/>
      <path id="Path_2695" data-name="Path 2695" d="M152.187,554.493a1.893,1.893,0,1,1-1.893-1.893A1.9,1.9,0,0,1,152.187,554.493Z" transform="translate(-87.439 -329.016)" fill="#fff"/>
      <path id="Path_2696" data-name="Path 2696" d="M136.964,537.232a1.932,1.932,0,1,1-1.932-1.932A1.938,1.938,0,0,1,136.964,537.232Z" transform="translate(-78.051 -318.401)" fill="#fff"/>
      <circle id="Ellipse_328" data-name="Ellipse 328" cx="2.009" cy="2.009" r="2.009" transform="translate(49.446 209.867)" fill="#fff"/>
      <path id="Path_2697" data-name="Path 2697" d="M108.773,499.986a2.087,2.087,0,1,1-2.087-2.087A2.078,2.078,0,0,1,108.773,499.986Z" transform="translate(-60.563 -295.452)" fill="#fff"/>
      <path id="Path_2698" data-name="Path 2698" d="M96.2,479.6a2.2,2.2,0,1,1-2.2-2.2A2.227,2.227,0,0,1,96.2,479.6Z" transform="translate(-52.709 -282.873)" fill="#fff"/>
      <path id="Path_2699" data-name="Path 2699" d="M85.537,457.918a2.318,2.318,0,1,1-2.318-2.318A2.3,2.3,0,0,1,85.537,457.918Z" transform="translate(-46.021 -269.496)" fill="#fff"/>
      <path id="Path_2700" data-name="Path 2700" d="M77.591,434.9a2.4,2.4,0,1,1-2.4-2.4A2.408,2.408,0,0,1,77.591,434.9Z" transform="translate(-41.05 -255.322)" fill="#fff"/>
      <path id="Path_2701" data-name="Path 2701" d="M72.207,411.073a2.454,2.454,0,1,1-2.473-2.473A2.516,2.516,0,0,1,72.207,411.073Z" transform="translate(-37.675 -240.657)" fill="#fff"/>
      <path id="Path_2702" data-name="Path 2702" d="M69.323,386.873a2.512,2.512,0,0,1-5.023,0,2.512,2.512,0,0,1,5.023,0Z" transform="translate(-35.835 -225.807)" fill="#fff"/>
      <path id="Path_2703" data-name="Path 2703" d="M68.923,362.41a2.512,2.512,0,1,1-2.512-2.512A2.507,2.507,0,0,1,68.923,362.41Z" transform="translate(-35.589 -210.773)" fill="#fff"/>
      <path id="Path_2704" data-name="Path 2704" d="M71,337.95a2.55,2.55,0,1,1-2.55-2.55A2.548,2.548,0,0,1,71,337.95Z" transform="translate(-36.816 -195.741)" fill="#fff"/>
      <path id="Path_2705" data-name="Path 2705" d="M75.7,313.85a2.55,2.55,0,1,1-2.55-2.55A2.573,2.573,0,0,1,75.7,313.85Z" transform="translate(-39.7 -180.953)" fill="#fff"/>
      <path id="Path_2706" data-name="Path 2706" d="M83.023,290.51A2.512,2.512,0,1,1,80.512,288,2.459,2.459,0,0,1,83.023,290.51Z" transform="translate(-44.241 -166.654)" fill="#fff"/>
      <path id="Path_2707" data-name="Path 2707" d="M92.884,268.112a2.492,2.492,0,0,1-4.984,0,2.492,2.492,0,1,1,4.984,0Z" transform="translate(-50.316 -152.911)" fill="#fff"/>
      <path id="Path_2708" data-name="Path 2708" d="M104.246,246.573a2.465,2.465,0,0,1-2.473,2.473,2.473,2.473,0,1,1,2.473-2.473Z" transform="translate(-57.311 -139.718)" fill="#fff"/>
      <path id="Path_2709" data-name="Path 2709" d="M117.569,226.334a2.434,2.434,0,1,1-2.434-2.434A2.424,2.424,0,0,1,117.569,226.334Z" transform="translate(-65.533 -127.323)" fill="#fff"/>
      <path id="Path_2710" data-name="Path 2710" d="M132.891,207.6a2.4,2.4,0,1,1-2.4-2.4A2.408,2.408,0,0,1,132.891,207.6Z" transform="translate(-74.983 -115.849)" fill="#fff"/>
      <path id="Path_2711" data-name="Path 2711" d="M149.614,190.257a2.357,2.357,0,1,1-4.714,0,2.366,2.366,0,0,1,2.357-2.357A2.418,2.418,0,0,1,149.614,190.257Z" transform="translate(-85.291 -105.234)" fill="#fff"/>
      <circle id="Ellipse_329" data-name="Ellipse 329" cx="2.357" cy="2.357" r="2.357" transform="translate(65.284 77.688) rotate(-31.714)" fill="#fff"/>
      <circle id="Ellipse_330" data-name="Ellipse 330" cx="2.396" cy="2.396" r="2.396" transform="translate(71.993 72.827) rotate(-58.286)" fill="#fff"/>
      <path id="Path_2712" data-name="Path 2712" d="M203.146,141.473a2.465,2.465,0,0,1-2.473,2.473,2.49,2.49,0,0,1-2.473-2.473A2.465,2.465,0,0,1,200.673,139,2.49,2.49,0,0,1,203.146,141.473Z" transform="translate(-117.997 -75.228)" fill="#fff"/>
      <path id="Path_2713" data-name="Path 2713" d="M224.146,129.173a2.473,2.473,0,1,1-2.473-2.473A2.49,2.49,0,0,1,224.146,129.173Z" transform="translate(-130.882 -67.681)" fill="#fff"/>
      <circle id="Ellipse_331" data-name="Ellipse 331" cx="2.434" cy="2.434" r="2.434" transform="translate(97.011 55.426)" fill="#fff"/>
      <path id="Path_2714" data-name="Path 2714" d="M269.891,113a2.4,2.4,0,1,1-2.4-2.4A2.408,2.408,0,0,1,269.891,113Z" transform="translate(-159.047 -57.802)" fill="#fff"/>
      <circle id="Ellipse_332" data-name="Ellipse 332" cx="2.318" cy="2.318" r="2.318" transform="translate(115.326 51.369)" fill="#fff"/>
      <path id="Path_2715" data-name="Path 2715" d="M317.782,108.141a2.241,2.241,0,1,1-2.241-2.241A2.268,2.268,0,0,1,317.782,108.141Z" transform="translate(-188.623 -54.918)" fill="#fff"/>
      <path id="Path_2716" data-name="Path 2716" d="M341.65,109.725a2.125,2.125,0,1,1-2.125-2.125A2.17,2.17,0,0,1,341.65,109.725Z" transform="translate(-203.411 -55.961)" fill="#fff"/>
      <path id="Path_2717" data-name="Path 2717" d="M364.918,113.809a2.02,2.02,0,0,1-2.009,2.009,2.009,2.009,0,1,1,2.009-2.009Z" transform="translate(-217.831 -58.538)" fill="#fff"/>
      <path id="Path_2718" data-name="Path 2718" d="M387.509,119.953a1.855,1.855,0,1,1-3.709,0,1.881,1.881,0,0,1,1.855-1.855A1.808,1.808,0,0,1,387.509,119.953Z" transform="translate(-231.882 -62.402)" fill="#fff"/>
      <path id="Path_2719" data-name="Path 2719" d="M409.316,127.177a1.758,1.758,0,0,1-3.516,0,1.765,1.765,0,0,1,1.739-1.777A1.824,1.824,0,0,1,409.316,127.177Z" transform="translate(-245.381 -66.883)" fill="#fff"/>
      <circle id="Ellipse_333" data-name="Ellipse 333" cx="1.7" cy="1.7" r="1.7" transform="translate(168.389 64.538) rotate(-80.782)" fill="#fff"/>
      <path id="Path_2720" data-name="Path 2720" d="M451.3,142.6a1.7,1.7,0,1,1-1.7-1.7A1.69,1.69,0,0,1,451.3,142.6Z" transform="translate(-271.214 -76.394)" fill="#fff"/>
      <path id="Path_2721" data-name="Path 2721" d="M471.6,151.9a1.7,1.7,0,1,1-1.7-1.7A1.69,1.69,0,0,1,471.6,151.9Z" transform="translate(-283.671 -82.101)" fill="#fff"/>
      <path id="Path_2722" data-name="Path 2722" d="M490.623,163.561a1.661,1.661,0,1,1-1.662-1.661A1.649,1.649,0,0,1,490.623,163.561Z" transform="translate(-295.39 -89.28)" fill="#fff"/>
      <path id="Path_2723" data-name="Path 2723" d="M507.746,177.723a1.623,1.623,0,1,1-1.623-1.623A1.633,1.633,0,0,1,507.746,177.723Z" transform="translate(-305.945 -97.993)" fill="#fff"/>
      <path id="Path_2724" data-name="Path 2724" d="M523.114,194.007a1.507,1.507,0,1,1-3.014,0,1.507,1.507,0,1,1,3.014,0Z" transform="translate(-315.517 -108.056)" fill="#fff"/>
      <circle id="Ellipse_334" data-name="Ellipse 334" cx="1.43" cy="1.43" r="1.43" transform="translate(209.799 91.244)" fill="#fff"/>
      <path id="Path_2725" data-name="Path 2725" d="M547.827,230.214a1.314,1.314,0,1,1-1.314-1.314A1.3,1.3,0,0,1,547.827,230.214Z" transform="translate(-330.918 -130.392)" fill="#fff"/>
      <path id="Path_2726" data-name="Path 2726" d="M557.4,249.5a1.2,1.2,0,1,1-1.2-1.2A1.2,1.2,0,0,1,557.4,249.5Z" transform="translate(-336.932 -142.296)" fill="#fff"/>
      <path id="Path_2727" data-name="Path 2727" d="M566.241,268.721a1.121,1.121,0,1,1-1.121-1.121A1.121,1.121,0,0,1,566.241,268.721Z" transform="translate(-342.454 -154.138)" fill="#fff"/>
      <path id="Path_2728" data-name="Path 2728" d="M574.7,287.72a1.121,1.121,0,0,1-1.121,1.121,1.089,1.089,0,0,1-1.082-1.121,1.114,1.114,0,0,1,1.082-1.12A1.1,1.1,0,0,1,574.7,287.72Z" transform="translate(-347.67 -165.797)" fill="#fff"/>
      <circle id="Ellipse_335" data-name="Ellipse 335" cx="1.121" cy="1.121" r="1.121" transform="translate(228.037 128.145)" fill="#fff"/>
      <path id="Path_2729" data-name="Path 2729" d="M590.3,326.2a1.2,1.2,0,1,1-1.2-1.2A1.179,1.179,0,0,1,590.3,326.2Z" transform="translate(-357.119 -189.359)" fill="#fff"/>
      <circle id="Ellipse_336" data-name="Ellipse 336" cx="1.275" cy="1.275" r="1.275" transform="translate(233.06 143.407)" fill="#fff"/>
      <path id="Path_2730" data-name="Path 2730" d="M601.3,367.052a1.352,1.352,0,1,1-1.352-1.352A1.369,1.369,0,0,1,601.3,367.052Z" transform="translate(-363.685 -214.333)" fill="#fff"/>
      <circle id="Ellipse_337" data-name="Ellipse 337" cx="1.43" cy="1.43" r="1.43" transform="translate(235.757 160.219) rotate(-22.5)" fill="#fff"/>
      <ellipse id="Ellipse_338" data-name="Ellipse 338" cx="1.584" cy="1.546" rx="1.584" ry="1.546" transform="translate(236.725 170.795) rotate(-80.782)" fill="#fff"/>
      <circle id="Ellipse_339" data-name="Ellipse 339" cx="1.7" cy="1.7" r="1.7" transform="translate(236.651 179.563) rotate(-80.782)" fill="#fff"/>
      <path id="Path_2731" data-name="Path 2731" d="M604.555,454.577a1.777,1.777,0,1,1-3.555,0,1.773,1.773,0,0,1,1.777-1.777A1.8,1.8,0,0,1,604.555,454.577Z" transform="translate(-365.158 -267.778)" fill="#fff"/>
      <path id="Path_2732" data-name="Path 2732" d="M624.527,432.814a1.314,1.314,0,1,1-1.314-1.314A1.3,1.3,0,0,1,624.527,432.814Z" transform="translate(-377.982 -254.708)" fill="#fff"/>
      <path id="Path_2733" data-name="Path 2733" d="M620.327,452.214a1.314,1.314,0,1,1-1.314-1.314A1.3,1.3,0,0,1,620.327,452.214Z" transform="translate(-375.405 -266.612)" fill="#fff"/>
      <path id="Path_2734" data-name="Path 2734" d="M615.327,471.514a1.314,1.314,0,1,1-1.314-1.314A1.3,1.3,0,0,1,615.327,471.514Z" transform="translate(-372.337 -278.455)" fill="#fff"/>
      <path id="Path_2735" data-name="Path 2735" d="M609.543,490.652a1.385,1.385,0,0,1-1.391,1.391,1.372,1.372,0,0,1,0-2.743A1.377,1.377,0,0,1,609.543,490.652Z" transform="translate(-368.717 -290.175)" fill="#fff"/>
      <path id="Path_2736" data-name="Path 2736" d="M603.059,509.73a1.426,1.426,0,0,1-1.43,1.43,1.43,1.43,0,0,1,0-2.859A1.426,1.426,0,0,1,603.059,509.73Z" transform="translate(-364.667 -301.833)" fill="#fff"/>
      <path id="Path_2737" data-name="Path 2737" d="M594.814,528.307a1.507,1.507,0,1,1-1.507-1.507A1.534,1.534,0,0,1,594.814,528.307Z" transform="translate(-359.512 -313.185)" fill="#fff"/>
      <circle id="Ellipse_340" data-name="Ellipse 340" cx="1.507" cy="1.507" r="1.507" transform="translate(228.028 223.134) rotate(-80.782)" fill="#fff"/>
      <path id="Path_2738" data-name="Path 2738" d="M572.191,562.245a1.546,1.546,0,1,1-1.546-1.546A1.55,1.55,0,0,1,572.191,562.245Z" transform="translate(-345.584 -333.986)" fill="#fff"/>
      <path id="Path_2739" data-name="Path 2739" d="M558.991,577.846a1.546,1.546,0,1,1-1.546-1.546A1.55,1.55,0,0,1,558.991,577.846Z" transform="translate(-337.484 -343.559)" fill="#fff"/>
      <path id="Path_2740" data-name="Path 2740" d="M545.068,592.984a1.584,1.584,0,1,1-1.584-1.584A1.567,1.567,0,0,1,545.068,592.984Z" transform="translate(-328.893 -352.824)" fill="#fff"/>
      <path id="Path_2741" data-name="Path 2741" d="M530.546,607.623A1.623,1.623,0,1,1,528.923,606,1.633,1.633,0,0,1,530.546,607.623Z" transform="translate(-319.935 -361.783)" fill="#fff"/>
      <path id="Path_2742" data-name="Path 2742" d="M515,621.6a1.7,1.7,0,1,1-1.7-1.7A1.667,1.667,0,0,1,515,621.6Z" transform="translate(-310.301 -370.312)" fill="#fff"/>
      <circle id="Ellipse_341" data-name="Ellipse 341" cx="1.739" cy="1.739" r="1.739" transform="translate(194.885 254.534)" fill="#fff"/>
      <circle id="Ellipse_342" data-name="Ellipse 342" cx="1.816" cy="1.816" r="1.816" transform="translate(187.891 258.861)" fill="#fff"/>
      <circle id="Ellipse_343" data-name="Ellipse 343" cx="1.855" cy="1.855" r="1.855" transform="translate(180.627 262.725)" fill="#fff"/>
      <path id="Path_2743" data-name="Path 2743" d="M442.287,664.391a1.893,1.893,0,1,1-1.893-1.893A1.872,1.872,0,0,1,442.287,664.391Z" transform="translate(-265.446 -396.45)" fill="#fff"/>
      <path id="Path_2744" data-name="Path 2744" d="M422,671.571a1.971,1.971,0,0,1-1.932,1.971,2,2,0,0,1-1.971-1.971,1.979,1.979,0,0,1,1.971-1.971A1.946,1.946,0,0,1,422,671.571Z" transform="translate(-252.929 -400.808)" fill="#fff"/>
      <path id="Path_2745" data-name="Path 2745" d="M401.118,677.209a2,2,0,0,1-2.009,2.009,2.009,2.009,0,1,1,0-4.018A2,2,0,0,1,401.118,677.209Z" transform="translate(-240.043 -404.244)" fill="#fff"/>
      <path id="Path_2746" data-name="Path 2746" d="M379.8,681.148a2.048,2.048,0,1,1-2.048-2.048A2.087,2.087,0,0,1,379.8,681.148Z" transform="translate(-226.912 -406.637)" fill="#fff"/>
      <path id="Path_2747" data-name="Path 2747" d="M358.2,683.148a2.037,2.037,0,0,1-2.048,2.048,2.048,2.048,0,1,1,0-4.1A2.037,2.037,0,0,1,358.2,683.148Z" transform="translate(-213.658 -407.865)" fill="#fff"/>
      <circle id="Ellipse_344" data-name="Ellipse 344" cx="2.048" cy="2.048" r="2.048" transform="matrix(0.998, -0.055, 0.055, 0.998, 131.912, 273.204)" fill="#fff"/>
      <circle id="Ellipse_345" data-name="Ellipse 345" cx="2.048" cy="2.048" r="2.048" transform="translate(123.53 276.03) rotate(-85.935)" fill="#fff"/>
      <path id="Path_2748" data-name="Path 2748" d="M293.457,676.009a2.029,2.029,0,1,1-4.057,0A2,2,0,0,1,291.448,674,2.046,2.046,0,0,1,293.457,676.009Z" transform="translate(-173.958 -403.508)" fill="#fff"/>
      <path id="Path_2749" data-name="Path 2749" d="M272.518,670.609a2.009,2.009,0,1,1-2.009-2.009A2,2,0,0,1,272.518,670.609Z" transform="translate(-161.133 -400.195)" fill="#fff"/>
      <path id="Path_2750" data-name="Path 2750" d="M251.818,664.209a2.009,2.009,0,1,1-2.009-2.009A2,2,0,0,1,251.818,664.209Z" transform="translate(-148.432 -396.268)" fill="#fff"/>
      <circle id="Ellipse_346" data-name="Ellipse 346" cx="2.048" cy="2.048" r="2.048" transform="translate(91.486 262.957)" fill="#fff"/>
      <path id="Path_2751" data-name="Path 2751" d="M211.6,647.748a2.048,2.048,0,1,1-2.048-2.048A2.036,2.036,0,0,1,211.6,647.748Z" transform="translate(-123.703 -386.143)" fill="#fff"/>
      <circle id="Ellipse_347" data-name="Ellipse 347" cx="2.087" cy="2.087" r="2.087" transform="translate(76.301 255.577)" fill="#fff"/>
      <path id="Path_2752" data-name="Path 2752" d="M173.35,626.325a2.125,2.125,0,1,1-2.125-2.125A2.1,2.1,0,0,1,173.35,626.325Z" transform="translate(-100.141 -372.95)" fill="#fff"/>
      <path id="Path_2753" data-name="Path 2753" d="M155.128,613.964a2.164,2.164,0,1,1-2.164-2.164A2.16,2.16,0,0,1,155.128,613.964Z" transform="translate(-88.912 -365.342)" fill="#fff"/>
      <path id="Path_2754" data-name="Path 2754" d="M137.643,600.1a2.222,2.222,0,1,1-2.241-2.2A2.186,2.186,0,0,1,137.643,600.1Z" transform="translate(-78.112 -356.813)" fill="#fff"/>
      <path id="Path_2755" data-name="Path 2755" d="M122.182,584.141a2.241,2.241,0,1,1-2.241-2.241A2.218,2.218,0,0,1,122.182,584.141Z" transform="translate(-68.601 -346.995)" fill="#fff"/>
      <path id="Path_2756" data-name="Path 2756" d="M109.3,566.2a2.2,2.2,0,1,1-4.4,0,2.177,2.177,0,0,1,2.2-2.2A2.227,2.227,0,0,1,109.3,566.2Z" transform="translate(-60.747 -336.011)" fill="#fff"/>
      <circle id="Ellipse_348" data-name="Ellipse 348" cx="2.125" cy="2.125" r="2.125" transform="translate(40.173 220.531)" fill="#fff"/>
      <circle id="Ellipse_349" data-name="Ellipse 349" cx="2.048" cy="2.048" r="2.048" transform="translate(36.85 212.803)" fill="#fff"/>
      <circle id="Ellipse_350" data-name="Ellipse 350" cx="1.971" cy="1.971" r="1.971" transform="translate(33.952 205.037)" fill="#fff"/>
      <path id="Path_2757" data-name="Path 2757" d="M76.087,486.193a1.893,1.893,0,1,1-1.893-1.893A1.922,1.922,0,0,1,76.087,486.193Z" transform="translate(-40.744 -287.107)" fill="#fff"/>
      <path id="Path_2758" data-name="Path 2758" d="M70.909,465.455a1.88,1.88,0,0,1-1.855,1.855,1.855,1.855,0,0,1-1.855-1.855,1.831,1.831,0,0,1,1.855-1.855A1.855,1.855,0,0,1,70.909,465.455Z" transform="translate(-37.614 -274.405)" fill="#fff"/>
      <path id="Path_2759" data-name="Path 2759" d="M67.593,444.577a1.814,1.814,0,0,1-1.816,1.816,1.8,1.8,0,0,1,0-3.593A1.806,1.806,0,0,1,67.593,444.577Z" transform="translate(-35.651 -261.642)" fill="#fff"/>
      <circle id="Ellipse_351" data-name="Ellipse 351" cx="1.739" cy="1.739" r="1.739" transform="translate(27.731 173.082)" fill="#fff"/>
      <circle id="Ellipse_352" data-name="Ellipse 352" cx="1.7" cy="1.7" r="1.7" transform="translate(27.577 165.007)" fill="#fff"/>
      <circle id="Ellipse_353" data-name="Ellipse 353" cx="1.661" cy="1.661" r="1.661" transform="translate(27.057 158.676) rotate(-45)" fill="#fff"/>
      <path id="Path_2760" data-name="Path 2760" d="M66.823,361.161a1.661,1.661,0,1,1-1.661-1.661A1.7,1.7,0,0,1,66.823,361.161Z" transform="translate(-35.344 -210.529)" fill="#fff"/>
      <circle id="Ellipse_354" data-name="Ellipse 354" cx="1.661" cy="1.661" r="1.661" transform="translate(29.122 141.012)" fill="#fff"/>
      <path id="Path_2761" data-name="Path 2761" d="M73.646,320.423a1.623,1.623,0,1,1-1.623-1.623A1.633,1.633,0,0,1,73.646,320.423Z" transform="translate(-39.578 -185.555)" fill="#fff"/>
      <path id="Path_2762" data-name="Path 2762" d="M79.446,300.623A1.623,1.623,0,1,1,77.823,299,1.608,1.608,0,0,1,79.446,300.623Z" transform="translate(-43.137 -173.405)" fill="#fff"/>
      <path id="Path_2763" data-name="Path 2763" d="M86.568,281.282a1.584,1.584,0,1,1-1.584-1.584A1.567,1.567,0,0,1,86.568,281.282Z" transform="translate(-47.555 -161.56)" fill="#fff"/>
      <circle id="Ellipse_355" data-name="Ellipse 355" cx="1.584" cy="1.584" r="1.584" transform="translate(38.859 110.757)" fill="#fff"/>
      <circle id="Ellipse_356" data-name="Ellipse 356" cx="1.623" cy="1.623" r="1.623" transform="translate(42.028 103.377)" fill="#fff"/>
      <path id="Path_2764" data-name="Path 2764" d="M112.423,224.761a1.661,1.661,0,1,1-1.661-1.661A1.674,1.674,0,0,1,112.423,224.761Z" transform="translate(-63.324 -126.833)" fill="#fff"/>
      <path id="Path_2765" data-name="Path 2765" d="M124.223,207.561a1.661,1.661,0,1,1-1.661-1.661A1.674,1.674,0,0,1,124.223,207.561Z" transform="translate(-70.565 -116.279)" fill="#fff"/>
      <circle id="Ellipse_357" data-name="Ellipse 357" cx="1.661" cy="1.661" r="1.661" transform="translate(55.706 83.671)" fill="#fff"/>
      <path id="Path_2766" data-name="Path 2766" d="M153.868,178.684a1.584,1.584,0,1,1-1.584-1.584A1.567,1.567,0,0,1,153.868,178.684Z" transform="translate(-88.85 -98.607)" fill="#fff"/>
      <path id="Path_2767" data-name="Path 2767" d="M171.014,167.107a1.485,1.485,0,0,1-1.507,1.507,1.507,1.507,0,1,1,0-3.014A1.561,1.561,0,0,1,171.014,167.107Z" transform="translate(-99.466 -91.55)" fill="#fff"/>
      <path id="Path_2768" data-name="Path 2768" d="M189.482,157.991a1.391,1.391,0,1,1-1.391-1.391A1.41,1.41,0,0,1,189.482,157.991Z" transform="translate(-110.94 -86.028)" fill="#fff"/>
      <path id="Path_2769" data-name="Path 2769" d="M208.773,151.034a1.236,1.236,0,1,1-1.236-1.236A1.221,1.221,0,0,1,208.773,151.034Z" transform="translate(-122.967 -81.852)" fill="#fff"/>
      <path id="Path_2770" data-name="Path 2770" d="M228.041,145.321a1.121,1.121,0,1,1-1.121-1.121A1.174,1.174,0,0,1,228.041,145.321Z" transform="translate(-134.932 -78.419)" fill="#fff"/>
      <path id="Path_2771" data-name="Path 2771" d="M247.109,140.6a1,1,0,1,1-1-1A1.023,1.023,0,0,1,247.109,140.6Z" transform="translate(-146.775 -75.596)" fill="#fff"/>
      <path id="Path_2772" data-name="Path 2772" d="M265.855,136.227a.927.927,0,1,1-.927-.927A.94.94,0,0,1,265.855,136.227Z" transform="translate(-158.372 -72.958)" fill="#fff"/>
      <path id="Path_2773" data-name="Path 2773" d="M284.6,132.746a.85.85,0,1,1-.85-.85A.811.811,0,0,1,284.6,132.746Z" transform="translate(-169.969 -70.867)" fill="#fff"/>
      <path id="Path_2774" data-name="Path 2774" d="M303.223,130.111a.811.811,0,1,1-.811-.811A.816.816,0,0,1,303.223,130.111Z" transform="translate(-181.444 -69.276)" fill="#fff"/>
      <path id="Path_2775" data-name="Path 2775" d="M321.845,128.573a.773.773,0,1,1-.773-.773A.775.775,0,0,1,321.845,128.573Z" transform="translate(-192.918 -68.356)" fill="#fff"/>
      <path id="Path_2776" data-name="Path 2776" d="M340.368,128.434a.734.734,0,1,1-.734-.734A.759.759,0,0,1,340.368,128.434Z" transform="translate(-204.331 -68.294)" fill="#fff"/>
      <path id="Path_2777" data-name="Path 2777" d="M358.891,129.3a.7.7,0,1,1-.7-.7A.693.693,0,0,1,358.891,129.3Z" transform="translate(-215.744 -68.847)" fill="#fff"/>
      <path id="Path_2778" data-name="Path 2778" d="M377.191,130.6a.7.7,0,1,1-.7-.7A.693.693,0,0,1,377.191,130.6Z" transform="translate(-226.973 -69.644)" fill="#fff"/>
      <path id="Path_2779" data-name="Path 2779" d="M395.391,133a.7.7,0,1,1-.7-.7A.693.693,0,0,1,395.391,133Z" transform="translate(-238.141 -71.117)" fill="#fff"/>
      <path id="Path_2780" data-name="Path 2780" d="M413.391,136.5a.7.7,0,1,1-.7-.7A.693.693,0,0,1,413.391,136.5Z" transform="translate(-249.186 -73.265)" fill="#fff"/>
      <path id="Path_2781" data-name="Path 2781" d="M431.291,141.1a.7.7,0,1,1-.7-.7A.693.693,0,0,1,431.291,141.1Z" transform="translate(-260.169 -76.087)" fill="#fff"/>
      <path id="Path_2782" data-name="Path 2782" d="M448.968,146.334a.734.734,0,1,1-.734-.734A.734.734,0,0,1,448.968,146.334Z" transform="translate(-270.969 -79.278)" fill="#fff"/>
      <path id="Path_2783" data-name="Path 2783" d="M466.445,152.373a.773.773,0,1,1-.773-.773A.775.775,0,0,1,466.445,152.373Z" transform="translate(-281.646 -82.96)" fill="#fff"/>
      <path id="Path_2784" data-name="Path 2784" d="M483.623,159.707a.816.816,0,0,1-.811.811.811.811,0,1,1,0-1.623A.771.771,0,0,1,483.623,159.707Z" transform="translate(-292.138 -87.435)" fill="#fff"/>
      <path id="Path_2785" data-name="Path 2785" d="M500.1,168.55a.85.85,0,1,1-.85-.85A.858.858,0,0,1,500.1,168.55Z" transform="translate(-302.202 -92.839)" fill="#fff"/>
      <path id="Path_2786" data-name="Path 2786" d="M515.477,179.35a.89.89,0,1,1-.889-.85A.843.843,0,0,1,515.477,179.35Z" transform="translate(-311.59 -99.466)" fill="#fff"/>
      <path id="Path_2787" data-name="Path 2787" d="M529.4,192.05a.85.85,0,1,1-.85-.85A.858.858,0,0,1,529.4,192.05Z" transform="translate(-320.18 -107.259)" fill="#fff"/>
      <path id="Path_2788" data-name="Path 2788" d="M541.723,206.211a.816.816,0,0,1-.811.811.811.811,0,1,1,.811-.811Z" transform="translate(-327.789 -115.972)" fill="#fff"/>
      <path id="Path_2789" data-name="Path 2789" d="M553.046,221.173a.773.773,0,1,1-.773-.773A.775.775,0,0,1,553.046,221.173Z" transform="translate(-334.784 -125.176)" fill="#fff"/>
      <circle id="Ellipse_358" data-name="Ellipse 358" cx="0.773" cy="0.773" r="0.773" transform="translate(220.928 101.02)" fill="#fff"/>
      <path id="Path_2790" data-name="Path 2790" d="M574.846,251.273a.773.773,0,1,1-.773-.773A.751.751,0,0,1,574.846,251.273Z" transform="translate(-348.161 -143.645)" fill="#fff"/>
      <path id="Path_2791" data-name="Path 2791" d="M585.4,266.55a.85.85,0,1,1-.85-.85A.858.858,0,0,1,585.4,266.55Z" transform="translate(-354.542 -152.972)" fill="#fff"/>
      <path id="Path_2792" data-name="Path 2792" d="M595.277,282.689a.874.874,0,0,1-.889.889.9.9,0,0,1-.889-.889.889.889,0,1,1,1.777,0Z" transform="translate(-360.556 -162.851)" fill="#fff"/>
      <path id="Path_2793" data-name="Path 2793" d="M604.332,299.466a.966.966,0,1,1-.966-.966A.981.981,0,0,1,604.332,299.466Z" transform="translate(-366.017 -173.099)" fill="#fff"/>
      <circle id="Ellipse_359" data-name="Ellipse 359" cx="1.082" cy="1.082" r="1.082" transform="translate(239.187 132.538) rotate(-22.5)" fill="#fff"/>
      <path id="Path_2794" data-name="Path 2794" d="M619.618,334.959a1.162,1.162,0,0,1-1.159,1.159,1.139,1.139,0,0,1-1.159-1.159,1.162,1.162,0,0,1,1.159-1.159A1.216,1.216,0,0,1,619.618,334.959Z" transform="translate(-375.159 -194.759)" fill="#fff"/>
      <path id="Path_2795" data-name="Path 2795" d="M624.573,353.936a1.221,1.221,0,0,1-1.237,1.236,1.236,1.236,0,0,1,0-2.473A1.271,1.271,0,0,1,624.573,353.936Z" transform="translate(-378.105 -206.356)" fill="#fff"/>
      <path id="Path_2796" data-name="Path 2796" d="M627.75,373.475a1.275,1.275,0,1,1-1.275-1.275A1.286,1.286,0,0,1,627.75,373.475Z" transform="translate(-380.007 -218.321)" fill="#fff"/>
      <circle id="Ellipse_360" data-name="Ellipse 360" cx="1.314" cy="1.314" r="1.314" transform="translate(245.303 163.895) rotate(-80.782)" fill="#fff"/>
      <path id="Path_2797" data-name="Path 2797" d="M627.427,413.114a1.314,1.314,0,1,1-1.314-1.314A1.3,1.3,0,0,1,627.427,413.114Z" transform="translate(-379.761 -242.62)" fill="#fff"/>
      <path id="Path_2798" data-name="Path 2798" d="M624.527,432.814a1.314,1.314,0,1,1-1.314-1.314A1.3,1.3,0,0,1,624.527,432.814Z" transform="translate(-377.982 -254.708)" fill="#fff"/>
      <path id="Path_2799" data-name="Path 2799" d="M620.327,452.214a1.314,1.314,0,1,1-1.314-1.314A1.3,1.3,0,0,1,620.327,452.214Z" transform="translate(-375.405 -266.612)" fill="#fff"/>
      <circle id="Ellipse_361" data-name="Ellipse 361" cx="2.434" cy="2.434" r="2.434" transform="translate(270.998 168.67) rotate(-67.5)" fill="#fff"/>
      <path id="Path_2800" data-name="Path 2800" d="M697.846,424.373a2.465,2.465,0,0,1-2.473,2.473,2.49,2.49,0,0,1-2.473-2.473,2.473,2.473,0,1,1,4.946,0Z" transform="translate(-421.548 -248.818)" fill="#fff"/>
      <path id="Path_2801" data-name="Path 2801" d="M695.146,445.373a2.473,2.473,0,1,1-2.473-2.473A2.465,2.465,0,0,1,695.146,445.373Z" transform="translate(-419.891 -261.703)" fill="#fff"/>
      <path id="Path_2802" data-name="Path 2802" d="M690.146,466.073a2.473,2.473,0,1,1-4.946,0,2.465,2.465,0,0,1,2.473-2.473A2.49,2.49,0,0,1,690.146,466.073Z" transform="translate(-416.823 -274.405)" fill="#fff"/>
      <circle id="Ellipse_362" data-name="Ellipse 362" cx="2.434" cy="2.434" r="2.434" transform="translate(265.358 197.38) rotate(-9.218)" fill="#fff"/>
      <circle id="Ellipse_363" data-name="Ellipse 363" cx="2.396" cy="2.396" r="2.396" transform="translate(262.349 204.419)" fill="#fff"/>
      <path id="Path_2803" data-name="Path 2803" d="M664.037,523.918a2.318,2.318,0,1,1-2.318-2.318A2.325,2.325,0,0,1,664.037,523.918Z" transform="translate(-400.992 -309.994)" fill="#fff"/>
      <path id="Path_2804" data-name="Path 2804" d="M652.382,541.441a2.241,2.241,0,1,1-2.241-2.241A2.243,2.243,0,0,1,652.382,541.441Z" transform="translate(-393.936 -320.794)" fill="#fff"/>
      <circle id="Ellipse_364" data-name="Ellipse 364" cx="2.164" cy="2.164" r="2.164" transform="translate(249.134 224.859)" fill="#fff"/>
      <path id="Path_2805" data-name="Path 2805" d="M626.373,573.786a2.086,2.086,0,1,1-2.086-2.086A2.078,2.078,0,0,1,626.373,573.786Z" transform="translate(-378.166 -340.736)" fill="#fff"/>
      <path id="Path_2806" data-name="Path 2806" d="M612.6,588.948a2.048,2.048,0,1,1-2.048-2.048A2.037,2.037,0,0,1,612.6,588.948Z" transform="translate(-369.76 -350.063)" fill="#fff"/>
      <path id="Path_2807" data-name="Path 2807" d="M598.218,603.309a2.009,2.009,0,1,1-2.009-2.009A2,2,0,0,1,598.218,603.309Z" transform="translate(-360.985 -358.899)" fill="#fff"/>
      <path id="Path_2808" data-name="Path 2808" d="M583.341,616.87a1.971,1.971,0,1,1-1.971-1.971A1.979,1.979,0,0,1,583.341,616.87Z" transform="translate(-351.904 -367.244)" fill="#fff"/>
      <path id="Path_2809" data-name="Path 2809" d="M567.864,629.632a1.932,1.932,0,1,1-1.932-1.932A1.963,1.963,0,0,1,567.864,629.632Z" transform="translate(-342.454 -375.098)" fill="#fff"/>
      <path id="Path_2810" data-name="Path 2810" d="M551.687,641.393a1.893,1.893,0,1,1-1.893-1.893A1.9,1.9,0,0,1,551.687,641.393Z" transform="translate(-332.575 -382.339)" fill="#fff"/>
      <path id="Path_2811" data-name="Path 2811" d="M534.987,652.393a1.893,1.893,0,1,1-1.893-1.893A1.9,1.9,0,0,1,534.987,652.393Z" transform="translate(-322.328 -389.088)" fill="#fff"/>
      <path id="Path_2812" data-name="Path 2812" d="M517.709,662.255a1.855,1.855,0,0,1-3.709,0,1.881,1.881,0,0,1,1.855-1.855A1.831,1.831,0,0,1,517.709,662.255Z" transform="translate(-311.774 -395.163)" fill="#fff"/>
      <circle id="Ellipse_365" data-name="Ellipse 365" cx="1.816" cy="1.816" r="1.816" transform="translate(195.387 268.599)" fill="#fff"/>
      <circle id="Ellipse_366" data-name="Ellipse 366" cx="1.816" cy="1.816" r="1.816" transform="translate(188.225 275.005) rotate(-88.093)" fill="#fff"/>
      <path id="Path_2813" data-name="Path 2813" d="M462.816,684.177a1.758,1.758,0,0,1-3.516,0,1.758,1.758,0,1,1,3.516,0Z" transform="translate(-278.21 -408.662)" fill="#fff"/>
      <path id="Path_2814" data-name="Path 2814" d="M443.8,688.7a1.69,1.69,0,0,1-1.7,1.7,1.7,1.7,0,0,1,0-3.4A1.69,1.69,0,0,1,443.8,688.7Z" transform="translate(-266.612 -411.485)" fill="#fff"/>
      <circle id="Ellipse_367" data-name="Ellipse 367" cx="1.661" cy="1.661" r="1.661" transform="translate(166.369 276.829)" fill="#fff"/>
      <path id="Path_2815" data-name="Path 2815" d="M405.246,693.923a1.623,1.623,0,1,1-1.623-1.623A1.633,1.633,0,0,1,405.246,693.923Z" transform="translate(-243.05 -414.737)" fill="#fff"/>
      <path id="Path_2816" data-name="Path 2816" d="M385.968,694.784a1.584,1.584,0,0,1-3.168,0,1.584,1.584,0,1,1,3.168,0Z" transform="translate(-231.269 -415.289)" fill="#fff"/>
      <path id="Path_2817" data-name="Path 2817" d="M366.814,694.4a1.507,1.507,0,1,1-1.507-1.507A1.462,1.462,0,0,1,366.814,694.4Z" transform="translate(-219.61 -415.103)" fill="#fff"/>
      <path id="Path_2818" data-name="Path 2818" d="M347.837,692.668a1.468,1.468,0,1,1-1.468-1.468A1.468,1.468,0,0,1,347.837,692.668Z" transform="translate(-208.013 -414.062)" fill="#fff"/>
      <path id="Path_2819" data-name="Path 2819" d="M329.059,689.83a1.43,1.43,0,0,1-2.859,0,1.4,1.4,0,0,1,1.43-1.43A1.451,1.451,0,0,1,329.059,689.83Z" transform="translate(-196.538 -412.344)" fill="#fff"/>
      <path id="Path_2820" data-name="Path 2820" d="M310.582,686.691a1.391,1.391,0,1,1-1.391-1.391A1.437,1.437,0,0,1,310.582,686.691Z" transform="translate(-185.248 -410.442)" fill="#fff"/>
      <path id="Path_2821" data-name="Path 2821" d="M292.182,683.291a1.391,1.391,0,1,1-1.391-1.391A1.385,1.385,0,0,1,292.182,683.291Z" transform="translate(-173.958 -408.356)" fill="#fff"/>
      <circle id="Ellipse_368" data-name="Ellipse 368" cx="1.391" cy="1.391" r="1.391" transform="translate(108.333 272.192)" fill="#fff"/>
      <path id="Path_2822" data-name="Path 2822" d="M255.459,675.53a1.43,1.43,0,1,1-1.43-1.43A1.452,1.452,0,0,1,255.459,675.53Z" transform="translate(-151.377 -403.569)" fill="#fff"/>
      <path id="Path_2823" data-name="Path 2823" d="M237.237,670.368a1.468,1.468,0,1,1-1.468-1.468A1.493,1.493,0,0,1,237.237,670.368Z" transform="translate(-140.148 -400.379)" fill="#fff"/>
      <path id="Path_2824" data-name="Path 2824" d="M219.214,664.107a1.507,1.507,0,1,1-1.507-1.507A1.509,1.509,0,0,1,219.214,664.107Z" transform="translate(-129.042 -396.513)" fill="#fff"/>
      <path id="Path_2825" data-name="Path 2825" d="M201.391,656.843a1.546,1.546,0,1,1-1.546-1.546A1.5,1.5,0,0,1,201.391,656.843Z" transform="translate(-118.058 -392.031)" fill="#fff"/>
      <circle id="Ellipse_369" data-name="Ellipse 369" cx="1.623" cy="1.623" r="1.623" transform="matrix(0.995, -0.099, 0.099, 0.995, 73.287, 260.14)" fill="#fff"/>
      <circle id="Ellipse_370" data-name="Ellipse 370" cx="1.661" cy="1.661" r="1.661" transform="translate(66.757 256.466)" fill="#fff"/>
      <path id="Path_2826" data-name="Path 2826" d="M149.678,629.339a1.739,1.739,0,1,1-1.739-1.739A1.732,1.732,0,0,1,149.678,629.339Z" transform="translate(-86.089 -375.037)" fill="#fff"/>
      <path id="Path_2827" data-name="Path 2827" d="M133.455,618.077a1.806,1.806,0,0,1-1.777,1.816,1.8,1.8,0,1,1,1.777-1.816Z" transform="translate(-76.087 -368.103)" fill="#fff"/>
      <path id="Path_2828" data-name="Path 2828" d="M117.509,605.955a1.855,1.855,0,1,1-1.855-1.855A1.855,1.855,0,0,1,117.509,605.955Z" transform="translate(-66.208 -360.617)" fill="#fff"/>
      <circle id="Ellipse_371" data-name="Ellipse 371" cx="1.932" cy="1.932" r="1.932" transform="translate(41.796 238.228)" fill="#fff"/>
      <circle id="Ellipse_372" data-name="Ellipse 372" cx="1.971" cy="1.971" r="1.971" transform="translate(36.232 232.664)" fill="#fff"/>
      <path id="Path_2829" data-name="Path 2829" d="M75,562.648a2.048,2.048,0,1,1-2.048-2.048A2.061,2.061,0,0,1,75,562.648Z" transform="translate(-39.884 -333.925)" fill="#fff"/>
      <circle id="Ellipse_373" data-name="Ellipse 373" cx="2.087" cy="2.087" r="2.087" transform="translate(25.885 220.74) rotate(-9.218)" fill="#fff"/>
      <path id="Path_2830" data-name="Path 2830" d="M51.65,529.025a2.119,2.119,0,0,1-2.125,2.125,2.125,2.125,0,1,1,0-4.25A2.119,2.119,0,0,1,51.65,529.025Z" transform="translate(-25.465 -313.247)" fill="#fff"/>
      <path id="Path_2831" data-name="Path 2831" d="M41.566,510.8a2.2,2.2,0,0,1-2.2,2.2,2.169,2.169,0,0,1-2.164-2.2,2.193,2.193,0,0,1,2.164-2.2A2.226,2.226,0,0,1,41.566,510.8Z" transform="translate(-19.206 -302.018)" fill="#fff"/>
      <circle id="Ellipse_374" data-name="Ellipse 374" cx="2.241" cy="2.241" r="2.241" transform="translate(14.555 199.318)" fill="#fff"/>
      <path id="Path_2832" data-name="Path 2832" d="M24.859,472.78a2.28,2.28,0,1,1-2.28-2.28A2.26,2.26,0,0,1,24.859,472.78Z" transform="translate(-8.836 -278.639)" fill="#fff"/>
      <circle id="Ellipse_375" data-name="Ellipse 375" cx="2.318" cy="2.318" r="2.318" transform="translate(8.024 186.44) rotate(-45)" fill="#fff"/>
      <path id="Path_2833" data-name="Path 2833" d="M14.037,432.418a2.318,2.318,0,1,1-2.318-2.318A2.325,2.325,0,0,1,14.037,432.418Z" transform="translate(-2.148 -253.849)" fill="#fff"/>
      <path id="Path_2834" data-name="Path 2834" d="M11.437,411.618a2.359,2.359,0,0,1-2.318,2.357,2.338,2.338,0,1,1,2.318-2.357Z" transform="translate(-0.552 -241.086)" fill="#fff"/>
      <path id="Path_2835" data-name="Path 2835" d="M10.537,390.818A2.318,2.318,0,1,1,8.218,388.5,2.3,2.3,0,0,1,10.537,390.818Z" transform="translate(0 -228.323)" fill="#fff"/>
      <path id="Path_2836" data-name="Path 2836" d="M10.737,369.918A2.318,2.318,0,1,1,8.418,367.6,2.3,2.3,0,0,1,10.737,369.918Z" transform="translate(-0.123 -215.499)" fill="#fff"/>
      <path id="Path_2837" data-name="Path 2837" d="M12.037,349.018A2.318,2.318,0,1,1,9.718,346.7,2.325,2.325,0,0,1,12.037,349.018Z" transform="translate(-0.92 -202.674)" fill="#fff"/>
      <path id="Path_2838" data-name="Path 2838" d="M14.075,328.218a2.325,2.325,0,0,1-2.318,2.318A2.359,2.359,0,0,1,9.4,328.218a2.334,2.334,0,0,1,2.357-2.318A2.3,2.3,0,0,1,14.075,328.218Z" transform="translate(-2.148 -189.911)" fill="#fff"/>
      <path id="Path_2839" data-name="Path 2839" d="M16.714,307.357a2.366,2.366,0,0,1-2.357,2.357A2.342,2.342,0,0,1,12,307.357,2.366,2.366,0,0,1,14.357,305,2.342,2.342,0,0,1,16.714,307.357Z" transform="translate(-3.743 -177.087)" fill="#fff"/>
      <path id="Path_2840" data-name="Path 2840" d="M20.691,286.6a2.4,2.4,0,1,1-2.4-2.4A2.408,2.408,0,0,1,20.691,286.6Z" transform="translate(-6.136 -164.324)" fill="#fff"/>
      <path id="Path_2841" data-name="Path 2841" d="M25.969,266.134a2.434,2.434,0,1,1-2.434-2.434A2.424,2.424,0,0,1,25.969,266.134Z" transform="translate(-9.327 -151.745)" fill="#fff"/>
      <path id="Path_2842" data-name="Path 2842" d="M33.169,246.134a2.434,2.434,0,1,1-2.434-2.434A2.449,2.449,0,0,1,33.169,246.134Z" transform="translate(-13.745 -139.473)" fill="#fff"/>
      <path id="Path_2843" data-name="Path 2843" d="M41.546,226.734a2.473,2.473,0,1,1-2.473-2.434A2.433,2.433,0,0,1,41.546,226.734Z" transform="translate(-18.838 -127.569)" fill="#fff"/>
      <path id="Path_2844" data-name="Path 2844" d="M51.246,207.873a2.473,2.473,0,1,1-2.473-2.473A2.441,2.441,0,0,1,51.246,207.873Z" transform="translate(-24.79 -115.972)" fill="#fff"/>
      <path id="Path_2845" data-name="Path 2845" d="M62.146,189.673a2.473,2.473,0,1,1-2.473-2.473A2.441,2.441,0,0,1,62.146,189.673Z" transform="translate(-31.478 -104.804)" fill="#fff"/>
      <path id="Path_2846" data-name="Path 2846" d="M74.046,171.973a2.49,2.49,0,0,1-2.473,2.473,2.465,2.465,0,0,1-2.473-2.473,2.473,2.473,0,0,1,4.946,0Z" transform="translate(-38.78 -93.943)" fill="#fff"/>
      <path id="Path_2847" data-name="Path 2847" d="M86.723,154.912a2.512,2.512,0,1,1-2.512-2.512A2.507,2.507,0,0,1,86.723,154.912Z" transform="translate(-46.511 -83.451)" fill="#fff"/>
      <path id="Path_2848" data-name="Path 2848" d="M100.423,138.412a2.512,2.512,0,1,1-2.512-2.512A2.507,2.507,0,0,1,100.423,138.412Z" transform="translate(-54.918 -73.326)" fill="#fff"/>
      <path id="Path_2849" data-name="Path 2849" d="M114.5,122.189a2.55,2.55,0,0,1-5.1,0,2.55,2.55,0,1,1,5.1,0Z" transform="translate(-63.508 -63.324)" fill="#fff"/>
      <circle id="Ellipse_376" data-name="Ellipse 376" cx="2.627" cy="2.627" r="2.627" transform="translate(51.153 54.903) rotate(-80.782)" fill="#fff"/>
      <path id="Path_2850" data-name="Path 2850" d="M144.909,91.1a2.7,2.7,0,1,1-2.7-2.7A2.713,2.713,0,0,1,144.909,91.1Z" transform="translate(-81.978 -44.18)" fill="#fff"/>
      <circle id="Ellipse_377" data-name="Ellipse 377" cx="2.743" cy="2.743" r="2.743" transform="translate(63.218 43.079) rotate(-67.5)" fill="#fff"/>
      <circle id="Ellipse_378" data-name="Ellipse 378" cx="2.782" cy="2.782" r="2.782" transform="translate(71.084 34.135)" fill="#fff"/>
      <path id="Path_2851" data-name="Path 2851" d="M199.564,54.782A2.782,2.782,0,1,1,196.782,52,2.77,2.77,0,0,1,199.564,54.782Z" transform="translate(-115.42 -21.844)" fill="#fff"/>
      <circle id="Ellipse_379" data-name="Ellipse 379" cx="2.782" cy="2.782" r="2.782" transform="translate(85.186 29.545) rotate(-45)" fill="#fff"/>
      <path id="Path_2852" data-name="Path 2852" d="M240.364,38.482a2.782,2.782,0,1,1-2.782-2.782A2.77,2.77,0,0,1,240.364,38.482Z" transform="translate(-140.455 -11.843)" fill="#fff"/>
      <path id="Path_2853" data-name="Path 2853" d="M261.3,31.882a2.8,2.8,0,1,1-2.782-2.782A2.8,2.8,0,0,1,261.3,31.882Z" transform="translate(-153.279 -7.793)" fill="#fff"/>
      <circle id="Ellipse_380" data-name="Ellipse 380" cx="2.821" cy="2.821" r="2.821" transform="translate(109.457 22.008) rotate(-45)" fill="#fff"/>
      <path id="Path_2854" data-name="Path 2854" d="M304.241,22.321a2.821,2.821,0,1,1-2.821-2.821A2.836,2.836,0,0,1,304.241,22.321Z" transform="translate(-179.603 -1.902)" fill="#fff"/>
      <path id="Path_2855" data-name="Path 2855" d="M326.141,19.921a2.821,2.821,0,1,1-2.821-2.821A2.836,2.836,0,0,1,326.141,19.921Z" transform="translate(-193.041 -0.43)" fill="#fff"/>
      <path id="Path_2856" data-name="Path 2856" d="M348.141,19.221a2.821,2.821,0,1,1-2.821-2.821A2.788,2.788,0,0,1,348.141,19.221Z" transform="translate(-206.54 0)" fill="#fff"/>
      <path id="Path_2857" data-name="Path 2857" d="M370.141,20.121a2.821,2.821,0,1,1-2.821-2.821A2.836,2.836,0,0,1,370.141,20.121Z" transform="translate(-220.04 -0.552)" fill="#fff"/>
      <circle id="Ellipse_381" data-name="Ellipse 381" cx="2.782" cy="2.782" r="2.782" transform="translate(152.405 22.577) rotate(-76.714)" fill="#fff"/>
      <circle id="Ellipse_382" data-name="Ellipse 382" cx="2.782" cy="2.782" r="2.782" transform="translate(160.491 20.376) rotate(-22.5)" fill="#fff"/>
      <path id="Path_2858" data-name="Path 2858" d="M435.164,30.882a2.782,2.782,0,1,1-2.782-2.782A2.77,2.77,0,0,1,435.164,30.882Z" transform="translate(-259.985 -7.179)" fill="#fff"/>
      <path id="Path_2859" data-name="Path 2859" d="M456.364,36.482a2.782,2.782,0,1,1-2.782-2.782A2.77,2.77,0,0,1,456.364,36.482Z" transform="translate(-272.994 -10.615)" fill="#fff"/>
      <path id="Path_2860" data-name="Path 2860" d="M477.164,43.282a2.782,2.782,0,1,1-2.782-2.782A2.821,2.821,0,0,1,477.164,43.282Z" transform="translate(-285.757 -14.788)" fill="#fff"/>
      <path id="Path_2861" data-name="Path 2861" d="M497.464,51.682a2.782,2.782,0,1,1-2.782-2.782A2.77,2.77,0,0,1,497.464,51.682Z" transform="translate(-298.213 -19.942)" fill="#fff"/>
      <path id="Path_2862" data-name="Path 2862" d="M517.087,61.642a2.743,2.743,0,1,1-2.743-2.743A2.705,2.705,0,0,1,517.087,61.642Z" transform="translate(-310.301 -26.077)" fill="#fff"/>
      <path id="Path_2863" data-name="Path 2863" d="M535.648,73.143a2.713,2.713,0,0,1-2.7,2.7,2.724,2.724,0,1,1,2.7-2.7Z" transform="translate(-321.714 -33.135)" fill="#fff"/>
      <circle id="Ellipse_383" data-name="Ellipse 383" cx="2.705" cy="2.705" r="2.705" transform="translate(215.286 42.288)" fill="#fff"/>
      <path id="Path_2864" data-name="Path 2864" d="M569.755,100.527a2.628,2.628,0,1,1-2.628-2.627A2.606,2.606,0,0,1,569.755,100.527Z" transform="translate(-342.761 -50.009)" fill="#fff"/>
      <path id="Path_2865" data-name="Path 2865" d="M584.778,116.189a2.589,2.589,0,1,1-2.589-2.589A2.589,2.589,0,0,1,584.778,116.189Z" transform="translate(-352.026 -59.643)" fill="#fff"/>
      <path id="Path_2866" data-name="Path 2866" d="M598.823,132.612a2.512,2.512,0,1,1-2.512-2.512A2.507,2.507,0,0,1,598.823,132.612Z" transform="translate(-360.74 -69.767)" fill="#fff"/>
      <path id="Path_2867" data-name="Path 2867" d="M611.669,149.934a2.434,2.434,0,1,1-2.434-2.434A2.424,2.424,0,0,1,611.669,149.934Z" transform="translate(-368.717 -80.444)" fill="#fff"/>
      <circle id="Ellipse_384" data-name="Ellipse 384" cx="2.357" cy="2.357" r="2.357" transform="translate(242.527 74.088)" fill="#fff"/>
      <circle id="Ellipse_385" data-name="Ellipse 385" cx="2.28" cy="2.28" r="2.28" transform="translate(245.517 83.633) rotate(-45)" fill="#fff"/>
      <path id="Path_2868" data-name="Path 2868" d="M641.9,205.9a2.2,2.2,0,0,1-2.2,2.2,2.227,2.227,0,0,1-2.2-2.2,2.2,2.2,0,0,1,2.2-2.2A2.177,2.177,0,0,1,641.9,205.9Z" transform="translate(-387.554 -114.929)" fill="#fff"/>
      <path id="Path_2869" data-name="Path 2869" d="M650.089,225.025a2.145,2.145,0,1,1-2.164-2.125A2.152,2.152,0,0,1,650.089,225.025Z" transform="translate(-392.647 -126.71)" fill="#fff"/>
      <path id="Path_2870" data-name="Path 2870" d="M657.75,244.025a2.119,2.119,0,0,1-2.125,2.125,2.125,2.125,0,1,1,0-4.25A2.119,2.119,0,0,1,657.75,244.025Z" transform="translate(-397.372 -138.368)" fill="#fff"/>
      <circle id="Ellipse_386" data-name="Ellipse 386" cx="2.087" cy="2.087" r="2.087" transform="translate(258.876 111.192) rotate(-9.218)" fill="#fff"/>
      <circle id="Ellipse_387" data-name="Ellipse 387" cx="2.125" cy="2.125" r="2.125" transform="translate(262.156 118.137)" fill="#fff"/>
      <circle id="Ellipse_388" data-name="Ellipse 388" cx="2.202" cy="2.202" r="2.202" transform="translate(264.899 125.479)" fill="#fff"/>
      <path id="Path_2871" data-name="Path 2871" d="M686.982,320.639a2.241,2.241,0,1,1-2.241-2.241A2.195,2.195,0,0,1,686.982,320.639Z" transform="translate(-415.167 -185.308)" fill="#fff"/>
      <path id="Path_2872" data-name="Path 2872" d="M692,340.78a2.3,2.3,0,1,1-2.318-2.28A2.268,2.268,0,0,1,692,340.78Z" transform="translate(-418.173 -197.643)" fill="#fff"/>
      <path id="Path_2873" data-name="Path 2873" d="M695.614,361.257a2.357,2.357,0,1,1-4.714,0,2.357,2.357,0,1,1,4.714,0Z" transform="translate(-420.321 -210.16)" fill="#fff"/>
      <path id="Path_2874" data-name="Path 2874" d="M697.891,382.2a2.4,2.4,0,1,1-2.4-2.4A2.408,2.408,0,0,1,697.891,382.2Z" transform="translate(-421.671 -222.985)" fill="#fff"/>
      <circle id="Ellipse_389" data-name="Ellipse 389" cx="2.434" cy="2.434" r="2.434" transform="translate(270.998 168.67) rotate(-67.5)" fill="#fff"/>
      <path id="Path_2875" data-name="Path 2875" d="M697.846,424.373a2.465,2.465,0,0,1-2.473,2.473,2.49,2.49,0,0,1-2.473-2.473,2.473,2.473,0,1,1,4.946,0Z" transform="translate(-421.548 -248.818)" fill="#fff"/>
    </g>
  </g>
</svg>
