<svg xmlns="http://www.w3.org/2000/svg" width="448.204" height="437.009" viewBox="0 0 448.204 437.009">
  <g id="Footer_pattern_-_Left" data-name="Footer pattern - Left" transform="translate(0 0)">
    <g id="pattern" transform="translate(-5.9 -16.4)" style="isolation: isolate">
      <path id="Path_2499" data-name="Path 2499" d="M339.069,395.335a2.935,2.935,0,1,1-2.935-2.935A2.887,2.887,0,0,1,339.069,395.335Z" transform="translate(-118.493 -136.123)" fill="#fff"/>
      <circle id="Ellipse_233" data-name="Ellipse 233" cx="4.402" cy="4.402" r="4.402" transform="translate(208.804 254.183) rotate(-80.782)" fill="#fff"/>
      <path id="Path_2500" data-name="Path 2500" d="M339.77,366.285a4.785,4.785,0,1,1-4.785-4.785A4.778,4.778,0,0,1,339.77,366.285Z" transform="translate(-117.406 -124.937)" fill="#fff"/>
      <path id="Path_2501" data-name="Path 2501" d="M353.942,359.421a4.721,4.721,0,1,1-4.721-4.721A4.71,4.71,0,0,1,353.942,359.421Z" transform="translate(-122.584 -122.475)" fill="#fff"/>
      <path id="Path_2502" data-name="Path 2502" d="M368.676,363.938a4.338,4.338,0,1,1-4.338-4.338A4.343,4.343,0,0,1,368.676,363.938Z" transform="translate(-128.195 -124.249)" fill="#fff"/>
      <path id="Path_2503" data-name="Path 2503" d="M377.549,376.374a4.274,4.274,0,1,1-4.274-4.274A4.275,4.275,0,0,1,377.549,376.374Z" transform="translate(-131.453 -128.774)" fill="#fff"/>
      <circle id="Ellipse_234" data-name="Ellipse 234" cx="3.381" cy="3.381" r="3.381" transform="translate(236.544 254.185) rotate(-9.218)" fill="#fff"/>
      <circle id="Ellipse_235" data-name="Ellipse 235" cx="3.19" cy="3.19" r="3.19" transform="translate(230.322 260.785) rotate(-9.218)" fill="#fff"/>
      <path id="Path_2504" data-name="Path 2504" d="M350.666,402.533a2.233,2.233,0,1,1-2.233-2.233A2.219,2.219,0,0,1,350.666,402.533Z" transform="translate(-123.199 -138.983)" fill="#fff"/>
      <path id="Path_2505" data-name="Path 2505" d="M339.069,395.335a2.935,2.935,0,1,1-2.935-2.935A2.887,2.887,0,0,1,339.069,395.335Z" transform="translate(-118.493 -136.123)" fill="#fff"/>
      <circle id="Ellipse_236" data-name="Ellipse 236" cx="4.402" cy="4.402" r="4.402" transform="translate(208.804 254.183) rotate(-80.782)" fill="#fff"/>
      <path id="Path_2506" data-name="Path 2506" d="M370.911,434.855a3.955,3.955,0,1,1-3.955-3.955A3.975,3.975,0,0,1,370.911,434.855Z" transform="translate(-129.281 -150.062)" fill="#fff"/>
      <circle id="Ellipse_237" data-name="Ellipse 237" cx="3.955" cy="3.955" r="3.955" transform="translate(217.776 288.87) rotate(-80.782)" fill="#fff"/>
      <path id="Path_2507" data-name="Path 2507" d="M324.366,427.083A4.083,4.083,0,1,1,320.283,423,4.112,4.112,0,0,1,324.366,427.083Z" transform="translate(-112.338 -147.202)" fill="#fff"/>
      <circle id="Ellipse_238" data-name="Ellipse 238" cx="4.402" cy="4.402" r="4.402" transform="matrix(0.099, -0.995, 0.995, 0.099, 192.154, 272.629)" fill="#fff"/>
      <circle id="Ellipse_239" data-name="Ellipse 239" cx="4.657" cy="4.657" r="4.657" transform="matrix(0.099, -0.995, 0.995, 0.099, 186.97, 257.655)" fill="#fff"/>
      <path id="Path_2508" data-name="Path 2508" d="M302.19,359.2a5.3,5.3,0,1,1-5.3-5.3A5.282,5.282,0,0,1,302.19,359.2Z" transform="translate(-103.432 -122.185)" fill="#fff"/>
      <path id="Path_2509" data-name="Path 2509" d="M316.411,336.306a5.806,5.806,0,1,1-5.806-5.806A5.746,5.746,0,0,1,316.411,336.306Z" transform="translate(-108.211 -113.714)" fill="#fff"/>
      <path id="Path_2510" data-name="Path 2510" d="M340.814,327.657A4.657,4.657,0,1,1,336.157,323,4.642,4.642,0,0,1,340.814,327.657Z" transform="translate(-117.877 -110.999)" fill="#fff"/>
      <path id="Path_2511" data-name="Path 2511" d="M365.211,329.455a3.955,3.955,0,1,1-3.955-3.955A3.934,3.934,0,0,1,365.211,329.455Z" transform="translate(-127.217 -111.904)" fill="#fff"/>
      <path id="Path_2512" data-name="Path 2512" d="M384.842,342.371a2.871,2.871,0,1,1-2.871-2.871A2.859,2.859,0,0,1,384.842,342.371Z" transform="translate(-135.11 -116.972)" fill="#fff"/>
      <circle id="Ellipse_240" data-name="Ellipse 240" cx="2.935" cy="2.935" r="2.935" transform="translate(253.496 233.118)" fill="#fff"/>
      <circle id="Ellipse_241" data-name="Ellipse 241" cx="2.998" cy="2.998" r="2.998" transform="translate(257.515 246.835)" fill="#fff"/>
      <circle id="Ellipse_242" data-name="Ellipse 242" cx="3.126" cy="3.126" r="3.126" transform="translate(255.219 260.997)" fill="#fff"/>
      <circle id="Ellipse_243" data-name="Ellipse 243" cx="4.083" cy="4.083" r="4.083" transform="translate(246.641 280.93) rotate(-80.782)" fill="#fff"/>
      <path id="Path_2513" data-name="Path 2513" d="M370.911,434.855a3.955,3.955,0,1,1-3.955-3.955A3.975,3.975,0,0,1,370.911,434.855Z" transform="translate(-129.281 -150.062)" fill="#fff"/>
      <path id="Path_2514" data-name="Path 2514" d="M422.9,428.5a3,3,0,1,1-3-3A2.995,2.995,0,0,1,422.9,428.5Z" transform="translate(-148.794 -148.107)" fill="#fff"/>
      <circle id="Ellipse_244" data-name="Ellipse 244" cx="2.679" cy="2.679" r="2.679" transform="translate(256.686 288.685)" fill="#fff"/>
      <path id="Path_2515" data-name="Path 2515" d="M382.276,456.988a2.488,2.488,0,0,1-4.976,0,2.533,2.533,0,0,1,2.488-2.488A2.491,2.491,0,0,1,382.276,456.988Z" transform="translate(-134.458 -158.606)" fill="#fff"/>
      <path id="Path_2516" data-name="Path 2516" d="M358.231,462.216a2.616,2.616,0,1,1-2.616-2.616A2.587,2.587,0,0,1,358.231,462.216Z" transform="translate(-125.661 -160.452)" fill="#fff"/>
      <path id="Path_2517" data-name="Path 2517" d="M333.325,461.362a3.062,3.062,0,1,1-3.062-3.062A3.063,3.063,0,0,1,333.325,461.362Z" transform="translate(-116.32 -159.981)" fill="#fff"/>
      <path id="Path_2518" data-name="Path 2518" d="M309.535,451.917a3.317,3.317,0,1,1-3.317-3.317A3.335,3.335,0,0,1,309.535,451.917Z" transform="translate(-107.523 -156.47)" fill="#fff"/>
      <path id="Path_2519" data-name="Path 2519" d="M287.094,436.747a4.147,4.147,0,1,1-4.147-4.147A4.139,4.139,0,0,1,287.094,436.747Z" transform="translate(-98.798 -150.677)" fill="#fff"/>
      <circle id="Ellipse_245" data-name="Ellipse 245" cx="4.785" cy="4.785" r="4.785" transform="translate(168.71 266.739)" fill="#fff"/>
      <circle id="Ellipse_246" data-name="Ellipse 246" cx="5.359" cy="5.359" r="5.359" transform="translate(161.738 249.293) rotate(-9.218)" fill="#fff"/>
      <path id="Path_2520" data-name="Path 2520" d="M262.394,354.6a6,6,0,1,1-6-6A5.99,5.99,0,0,1,262.394,354.6Z" transform="translate(-88.516 -120.267)" fill="#fff"/>
      <circle id="Ellipse_247" data-name="Ellipse 247" cx="6.125" cy="6.125" r="6.125" transform="translate(168.83 211.28) rotate(-9.218)" fill="#fff"/>
      <path id="Path_2521" data-name="Path 2521" d="M296.911,305.069a5.806,5.806,0,1,1-5.806-5.869A5.827,5.827,0,0,1,296.911,305.069Z" transform="translate(-101.151 -102.382)" fill="#fff"/>
      <path id="Path_2522" data-name="Path 2522" d="M323.973,292.287a5.487,5.487,0,1,1-5.487-5.487A5.486,5.486,0,0,1,323.973,292.287Z" transform="translate(-111.18 -97.893)" fill="#fff"/>
      <circle id="Ellipse_248" data-name="Ellipse 248" cx="4.657" cy="4.657" r="4.657" transform="translate(221.47 189.29)" fill="#fff"/>
      <path id="Path_2523" data-name="Path 2523" d="M379.556,300.328a3.828,3.828,0,1,1-3.828-3.828A3.8,3.8,0,0,1,379.556,300.328Z" transform="translate(-132.503 -101.405)" fill="#fff"/>
      <circle id="Ellipse_249" data-name="Ellipse 249" cx="3.445" cy="3.445" r="3.445" transform="matrix(0.099, -0.995, 0.995, 0.099, 254.098, 210.468)" fill="#fff"/>
      <path id="Path_2524" data-name="Path 2524" d="M418.087,334.343a2.743,2.743,0,1,1-2.743-2.743A2.764,2.764,0,0,1,418.087,334.343Z" transform="translate(-147.238 -114.112)" fill="#fff"/>
      <path id="Path_2525" data-name="Path 2525" d="M428.249,356.924a2.424,2.424,0,1,1-2.424-2.424A2.509,2.509,0,0,1,428.249,356.924Z" transform="translate(-151.148 -122.403)" fill="#fff"/>
      <path id="Path_2526" data-name="Path 2526" d="M434.459,380.579a2.68,2.68,0,1,1-2.68-2.68A2.738,2.738,0,0,1,434.459,380.579Z" transform="translate(-153.211 -130.874)" fill="#fff"/>
      <circle id="Ellipse_250" data-name="Ellipse 250" cx="2.935" cy="2.935" r="2.935" transform="translate(274.804 262.72)" fill="#fff"/>
      <path id="Path_2527" data-name="Path 2527" d="M422.9,428.5a3,3,0,1,1-3-3A2.995,2.995,0,0,1,422.9,428.5Z" transform="translate(-148.794 -148.107)" fill="#fff"/>
      <path id="Path_2528" data-name="Path 2528" d="M465.683,426.892a3.867,3.867,0,0,1-3.892,3.892,3.907,3.907,0,0,1-3.892-3.892A3.867,3.867,0,0,1,461.792,423,3.907,3.907,0,0,1,465.683,426.892Z" transform="translate(-163.638 -147.202)" fill="#fff"/>
      <circle id="Ellipse_251" data-name="Ellipse 251" cx="4.083" cy="4.083" r="4.083" transform="translate(286.096 292.13)" fill="#fff"/>
      <path id="Path_2529" data-name="Path 2529" d="M434.621,474.811a4.211,4.211,0,1,1-8.421,0,4.211,4.211,0,0,1,8.421,0Z" transform="translate(-152.161 -164.434)" fill="#fff"/>
      <path id="Path_2530" data-name="Path 2530" d="M411.587,493.093a4.593,4.593,0,1,1-4.593-4.593A4.574,4.574,0,0,1,411.587,493.093Z" transform="translate(-143.545 -170.915)" fill="#fff"/>
      <path id="Path_2531" data-name="Path 2531" d="M383.459,502.93a4.53,4.53,0,1,1-4.53-4.53A4.547,4.547,0,0,1,383.459,502.93Z" transform="translate(-133.408 -174.499)" fill="#fff"/>
      <path id="Path_2532" data-name="Path 2532" d="M353.694,503.146A4.147,4.147,0,1,1,349.547,499,4.06,4.06,0,0,1,353.694,503.146Z" transform="translate(-122.909 -174.715)" fill="#fff"/>
      <path id="Path_2533" data-name="Path 2533" d="M326.09,493.945a3.445,3.445,0,1,1-3.445-3.445A3.431,3.431,0,0,1,326.09,493.945Z" transform="translate(-113.424 -171.639)" fill="#fff"/>
      <path id="Path_2534" data-name="Path 2534" d="M302.342,479.871A2.871,2.871,0,1,1,299.471,477,2.943,2.943,0,0,1,302.342,479.871Z" transform="translate(-105.242 -166.751)" fill="#fff"/>
      <path id="Path_2535" data-name="Path 2535" d="M283.221,461.859a2.36,2.36,0,0,1-4.721,0,2.4,2.4,0,0,1,2.361-2.361A2.279,2.279,0,0,1,283.221,461.859Z" transform="translate(-98.69 -160.414)" fill="#fff"/>
      <path id="Path_2536" data-name="Path 2536" d="M268.074,441.369a2.137,2.137,0,1,1-2.169-2.169A2.235,2.235,0,0,1,268.074,441.369Z" transform="translate(-93.368 -153.066)" fill="#fff"/>
      <path id="Path_2537" data-name="Path 2537" d="M256.538,418.969a2.169,2.169,0,1,1-2.169-2.169A2.151,2.151,0,0,1,256.538,418.969Z" transform="translate(-89.168 -144.957)" fill="#fff"/>
      <path id="Path_2538" data-name="Path 2538" d="M251.038,394.269a2.169,2.169,0,1,1-2.169-2.169A2.192,2.192,0,0,1,251.038,394.269Z" transform="translate(-87.177 -136.015)" fill="#fff"/>
      <path id="Path_2539" data-name="Path 2539" d="M249.649,368.624a2.424,2.424,0,1,1-2.424-2.424A2.423,2.423,0,0,1,249.649,368.624Z" transform="translate(-86.489 -126.638)" fill="#fff"/>
      <path id="Path_2540" data-name="Path 2540" d="M252.3,341.7a3,3,0,1,1-3-3A2.995,2.995,0,0,1,252.3,341.7Z" transform="translate(-87.032 -116.682)" fill="#fff"/>
      <path id="Path_2541" data-name="Path 2541" d="M264.28,317.426a3.19,3.19,0,1,1-6.38,0,3.106,3.106,0,0,1,3.19-3.126A3.145,3.145,0,0,1,264.28,317.426Z" transform="translate(-91.232 -107.849)" fill="#fff"/>
      <circle id="Ellipse_252" data-name="Ellipse 252" cx="3.062" cy="3.062" r="3.062" transform="translate(178.917 194.202)" fill="#fff"/>
      <circle id="Ellipse_253" data-name="Ellipse 253" cx="2.743" cy="2.743" r="2.743" transform="translate(194.292 186.419)" fill="#fff"/>
      <path id="Path_2542" data-name="Path 2542" d="M331.849,279.324a2.424,2.424,0,1,1-2.424-2.424A2.423,2.423,0,0,1,331.849,279.324Z" transform="translate(-116.248 -94.309)" fill="#fff"/>
      <path id="Path_2543" data-name="Path 2543" d="M357.476,276.488A2.488,2.488,0,1,1,354.988,274,2.451,2.451,0,0,1,357.476,276.488Z" transform="translate(-125.48 -93.259)" fill="#fff"/>
      <circle id="Ellipse_254" data-name="Ellipse 254" cx="2.552" cy="2.552" r="2.552" transform="translate(242.701 183.564) rotate(-22.5)" fill="#fff"/>
      <path id="Path_2544" data-name="Path 2544" d="M408.059,287.979a2.679,2.679,0,1,1-2.679-2.68A2.7,2.7,0,0,1,408.059,287.979Z" transform="translate(-143.654 -97.35)" fill="#fff"/>
      <circle id="Ellipse_255" data-name="Ellipse 255" cx="2.998" cy="2.998" r="2.998" transform="translate(273.337 196.371)" fill="#fff"/>
      <circle id="Ellipse_256" data-name="Ellipse 256" cx="3.254" cy="3.254" r="3.254" transform="translate(284.37 213.385) rotate(-67.5)" fill="#fff"/>
      <circle id="Ellipse_257" data-name="Ellipse 257" cx="3.509" cy="3.509" r="3.509" transform="translate(294.007 223.357)" fill="#fff"/>
      <path id="Path_2545" data-name="Path 2545" d="M471.245,371.273a3.573,3.573,0,1,1-3.573-3.573A3.567,3.567,0,0,1,471.245,371.273Z" transform="translate(-165.882 -127.181)" fill="#fff"/>
      <path id="Path_2546" data-name="Path 2546" d="M471.9,399.3a3.758,3.758,0,0,1-3.7,3.764,3.732,3.732,0,1,1,3.7-3.764Z" transform="translate(-166.027 -137.282)" fill="#fff"/>
      <path id="Path_2547" data-name="Path 2547" d="M465.683,426.892a3.867,3.867,0,0,1-3.892,3.892,3.907,3.907,0,0,1-3.892-3.892A3.867,3.867,0,0,1,461.792,423,3.907,3.907,0,0,1,465.683,426.892Z" transform="translate(-163.638 -147.202)" fill="#fff"/>
      <path id="Path_2548" data-name="Path 2548" d="M518.911,433.1a5.806,5.806,0,1,1-5.805-5.806A5.746,5.746,0,0,1,518.911,433.1Z" transform="translate(-181.522 -148.758)" fill="#fff"/>
      <path id="Path_2549" data-name="Path 2549" d="M504.492,462.014a5.646,5.646,0,1,1-5.614-5.614A5.582,5.582,0,0,1,504.492,462.014Z" transform="translate(-176.417 -159.293)" fill="#fff"/>
      <path id="Path_2550" data-name="Path 2550" d="M485.473,487.687a5.487,5.487,0,1,1-5.487-5.487A5.486,5.486,0,0,1,485.473,487.687Z" transform="translate(-169.648 -168.634)" fill="#fff"/>
      <path id="Path_2551" data-name="Path 2551" d="M462.546,509.623a5.423,5.423,0,1,1-5.423-5.423A5.418,5.418,0,0,1,462.546,509.623Z" transform="translate(-161.393 -176.598)" fill="#fff"/>
      <path id="Path_2552" data-name="Path 2552" d="M435.79,526.2a5.3,5.3,0,1,1-5.3-5.3A5.282,5.282,0,0,1,435.79,526.2Z" transform="translate(-151.799 -182.644)" fill="#fff"/>
      <path id="Path_2553" data-name="Path 2553" d="M406.508,537.1a5.1,5.1,0,1,1-5.1-5.1A5.119,5.119,0,0,1,406.508,537.1Z" transform="translate(-141.337 -186.663)" fill="#fff"/>
      <path id="Path_2554" data-name="Path 2554" d="M376.207,543.7a5.1,5.1,0,1,1-5.1-5.1A5.119,5.119,0,0,1,376.207,543.7Z" transform="translate(-130.367 -189.052)" fill="#fff"/>
      <path id="Path_2555" data-name="Path 2555" d="M345.263,545.331a5.231,5.231,0,1,1-5.231-5.231A5.3,5.3,0,0,1,345.263,545.331Z" transform="translate(-119.072 -189.595)" fill="#fff"/>
      <circle id="Ellipse_258" data-name="Ellipse 258" cx="5.423" cy="5.423" r="5.423" transform="translate(194.801 358.43) rotate(-80.782)" fill="#fff"/>
      <path id="Path_2556" data-name="Path 2556" d="M284.173,532.086a5.487,5.487,0,1,1-5.487-5.487A5.406,5.406,0,0,1,284.173,532.086Z" transform="translate(-96.771 -184.707)" fill="#fff"/>
      <path id="Path_2557" data-name="Path 2557" d="M258.663,513.431a5.231,5.231,0,1,1-5.231-5.231A5.255,5.255,0,0,1,258.663,513.431Z" transform="translate(-87.72 -178.047)" fill="#fff"/>
      <circle id="Ellipse_259" data-name="Ellipse 259" cx="5.104" cy="5.104" r="5.104" transform="translate(146.508 316.373)" fill="#fff"/>
      <path id="Path_2558" data-name="Path 2558" d="M219.225,466.312a4.912,4.912,0,1,1-4.912-4.912A4.914,4.914,0,0,1,219.225,466.312Z" transform="translate(-73.673 -161.104)" fill="#fff"/>
      <path id="Path_2559" data-name="Path 2559" d="M208.014,438.057a4.657,4.657,0,1,1-4.657-4.657A4.683,4.683,0,0,1,208.014,438.057Z" transform="translate(-69.799 -150.967)" fill="#fff"/>
      <path id="Path_2560" data-name="Path 2560" d="M203.04,408.6a4.37,4.37,0,1,1-4.338-4.4A4.4,4.4,0,0,1,203.04,408.6Z" transform="translate(-68.207 -140.395)" fill="#fff"/>
      <path id="Path_2561" data-name="Path 2561" d="M205.956,379.627a3.828,3.828,0,1,1-3.828-3.828A3.759,3.759,0,0,1,205.956,379.627Z" transform="translate(-69.655 -130.113)" fill="#fff"/>
      <path id="Path_2562" data-name="Path 2562" d="M216.252,353.226a3.126,3.126,0,1,1-3.126-3.126A3.131,3.131,0,0,1,216.252,353.226Z" transform="translate(-73.89 -120.81)" fill="#fff"/>
      <circle id="Ellipse_260" data-name="Ellipse 260" cx="2.424" cy="2.424" r="2.424" transform="translate(145.998 215.191)" fill="#fff"/>
      <path id="Path_2563" data-name="Path 2563" d="M245.311,309.805a2.105,2.105,0,1,1-2.105-2.105A2.083,2.083,0,0,1,245.311,309.805Z" transform="translate(-85.15 -105.46)" fill="#fff"/>
      <path id="Path_2564" data-name="Path 2564" d="M262.328,291.512a1.914,1.914,0,0,1-3.828,0,1.962,1.962,0,0,1,1.914-1.914A1.843,1.843,0,0,1,262.328,291.512Z" transform="translate(-91.449 -98.905)" fill="#fff"/>
      <path id="Path_2565" data-name="Path 2565" d="M283.017,278.159a1.659,1.659,0,1,1-1.659-1.659A1.689,1.689,0,0,1,283.017,278.159Z" transform="translate(-99.124 -94.164)" fill="#fff"/>
      <circle id="Ellipse_261" data-name="Ellipse 261" cx="1.595" cy="1.595" r="1.595" transform="translate(194.42 175.254)" fill="#fff"/>
      <path id="Path_2566" data-name="Path 2566" d="M326.955,255.578a1.978,1.978,0,1,1-1.978-1.978A1.988,1.988,0,0,1,326.955,255.578Z" transform="translate(-114.8 -85.874)" fill="#fff"/>
      <path id="Path_2567" data-name="Path 2567" d="M351.859,245.079a2.679,2.679,0,1,1-2.679-2.679A2.7,2.7,0,0,1,351.859,245.079Z" transform="translate(-123.308 -81.819)" fill="#fff"/>
      <circle id="Ellipse_262" data-name="Ellipse 262" cx="3.509" cy="3.509" r="3.509" transform="translate(239.971 155.733)" fill="#fff"/>
      <path id="Path_2568" data-name="Path 2568" d="M408.383,241.492a3.892,3.892,0,1,1-3.892-3.892A3.907,3.907,0,0,1,408.383,241.492Z" transform="translate(-142.893 -80.081)" fill="#fff"/>
      <path id="Path_2569" data-name="Path 2569" d="M434.738,253.019A4.019,4.019,0,1,1,430.719,249,4,4,0,0,1,434.738,253.019Z" transform="translate(-152.342 -84.208)" fill="#fff"/>
      <path id="Path_2570" data-name="Path 2570" d="M458.266,269.783a4.083,4.083,0,1,1-8.166,0,4.083,4.083,0,1,1,8.166,0Z" transform="translate(-160.814 -90.254)" fill="#fff"/>
      <path id="Path_2571" data-name="Path 2571" d="M478.794,290.411a4.147,4.147,0,0,1-8.294,0,4.193,4.193,0,0,1,4.147-4.211A4.236,4.236,0,0,1,478.794,290.411Z" transform="translate(-168.199 -97.676)" fill="#fff"/>
      <path id="Path_2572" data-name="Path 2572" d="M499.342,312.52a4.721,4.721,0,1,1-4.721-4.721A4.71,4.71,0,0,1,499.342,312.52Z" transform="translate(-175.223 -105.495)" fill="#fff"/>
      <path id="Path_2573" data-name="Path 2573" d="M513.408,339.6a5.1,5.1,0,1,1-5.1-5.1A5.119,5.119,0,0,1,513.408,339.6Z" transform="translate(-180.038 -115.162)" fill="#fff"/>
      <path id="Path_2574" data-name="Path 2574" d="M523.2,369.55a5.55,5.55,0,1,1-5.55-5.55A5.554,5.554,0,0,1,523.2,369.55Z" transform="translate(-183.26 -125.842)" fill="#fff"/>
      <path id="Path_2575" data-name="Path 2575" d="M525.611,401.5a5.806,5.806,0,1,1-5.806-5.806A5.746,5.746,0,0,1,525.611,401.5Z" transform="translate(-183.948 -137.317)" fill="#fff"/>
      <path id="Path_2576" data-name="Path 2576" d="M518.911,433.1a5.806,5.806,0,1,1-5.805-5.806A5.746,5.746,0,0,1,518.911,433.1Z" transform="translate(-181.522 -148.758)" fill="#fff"/>
      <circle id="Ellipse_263" data-name="Ellipse 263" cx="4.976" cy="4.976" r="4.976" transform="translate(343.769 278.797)" fill="#fff"/>
      <circle id="Ellipse_264" data-name="Ellipse 264" cx="4.849" cy="4.849" r="4.849" transform="translate(335.584 304.195) rotate(-67.5)" fill="#fff"/>
      <path id="Path_2577" data-name="Path 2577" d="M518.514,485.757a4.657,4.657,0,1,1-4.657-4.657A4.642,4.642,0,0,1,518.514,485.757Z" transform="translate(-182.21 -168.236)" fill="#fff"/>
      <path id="Path_2578" data-name="Path 2578" d="M499.559,508.33a4.53,4.53,0,1,1-4.53-4.53A4.547,4.547,0,0,1,499.559,508.33Z" transform="translate(-175.44 -176.454)" fill="#fff"/>
      <circle id="Ellipse_265" data-name="Ellipse 265" cx="4.466" cy="4.466" r="4.466" transform="translate(301.471 340.042)" fill="#fff"/>
      <path id="Path_2579" data-name="Path 2579" d="M454.232,544.666a4.466,4.466,0,1,1-4.466-4.466A4.438,4.438,0,0,1,454.232,544.666Z" transform="translate(-159.076 -189.632)" fill="#fff"/>
      <path id="Path_2580" data-name="Path 2580" d="M428.232,557.666a4.466,4.466,0,1,1-4.466-4.466A4.479,4.479,0,0,1,428.232,557.666Z" transform="translate(-149.663 -194.338)" fill="#fff"/>
      <circle id="Ellipse_266" data-name="Ellipse 266" cx="4.338" cy="4.338" r="4.338" transform="translate(252.029 364.03)" fill="#fff"/>
      <circle id="Ellipse_267" data-name="Ellipse 267" cx="4.211" cy="4.211" r="4.211" transform="translate(233.91 365.88)" fill="#fff"/>
      <path id="Path_2581" data-name="Path 2581" d="M343.266,567.683a4.083,4.083,0,1,1-8.166,0,4.083,4.083,0,1,1,8.166,0Z" transform="translate(-119.18 -198.103)" fill="#fff"/>
      <circle id="Ellipse_268" data-name="Ellipse 268" cx="4.147" cy="4.147" r="4.147" transform="translate(197.606 370.892) rotate(-85.935)" fill="#fff"/>
      <path id="Path_2582" data-name="Path 2582" d="M287.93,555.147a4.125,4.125,0,0,1-4.083,4.147,4.147,4.147,0,0,1,0-8.294A4.085,4.085,0,0,1,287.93,555.147Z" transform="translate(-99.124 -193.542)" fill="#fff"/>
      <path id="Path_2583" data-name="Path 2583" d="M263.511,540.855a3.955,3.955,0,1,1-3.955-3.955A3.975,3.975,0,0,1,263.511,540.855Z" transform="translate(-90.399 -188.437)" fill="#fff"/>
      <circle id="Ellipse_269" data-name="Ellipse 269" cx="3.7" cy="3.7" r="3.7" transform="translate(151.804 337.299)" fill="#fff"/>
      <circle id="Ellipse_270" data-name="Ellipse 270" cx="3.509" cy="3.509" r="3.509" transform="translate(139.244 325.847) rotate(-22.5)" fill="#fff"/>
      <path id="Path_2584" data-name="Path 2584" d="M209.707,479.154a3.254,3.254,0,1,1-3.254-3.254A3.267,3.267,0,0,1,209.707,479.154Z" transform="translate(-71.429 -166.353)" fill="#fff"/>
      <circle id="Ellipse_271" data-name="Ellipse 271" cx="2.998" cy="2.998" r="2.998" transform="translate(124.373 298.817) rotate(-67.5)" fill="#fff"/>
      <path id="Path_2585" data-name="Path 2585" d="M190.769,429.835a2.935,2.935,0,1,1-5.869,0,2.927,2.927,0,0,1,2.935-2.935A2.968,2.968,0,0,1,190.769,429.835Z" transform="translate(-64.803 -148.613)" fill="#fff"/>
      <circle id="Ellipse_272" data-name="Ellipse 272" cx="2.743" cy="2.743" r="2.743" transform="translate(117.581 266.129) rotate(-67.5)" fill="#fff"/>
      <path id="Path_2586" data-name="Path 2586" d="M189.2,378.352a2.552,2.552,0,1,1-2.552-2.552A2.519,2.519,0,0,1,189.2,378.352Z" transform="translate(-64.514 -130.114)" fill="#fff"/>
      <path id="Path_2587" data-name="Path 2587" d="M192.576,353.188a2.451,2.451,0,0,1-2.488,2.488,2.488,2.488,0,0,1,0-4.976A2.451,2.451,0,0,1,192.576,353.188Z" transform="translate(-65.781 -121.027)" fill="#fff"/>
      <circle id="Ellipse_273" data-name="Ellipse 273" cx="2.552" cy="2.552" r="2.552" transform="translate(124.866 215.018) rotate(-22.5)" fill="#fff"/>
      <circle id="Ellipse_274" data-name="Ellipse 274" cx="2.679" cy="2.679" r="2.679" transform="translate(131.07 198.349)" fill="#fff"/>
      <path id="Path_2588" data-name="Path 2588" d="M220.014,281.607a2.807,2.807,0,1,1-2.807-2.807A2.791,2.791,0,0,1,220.014,281.607Z" transform="translate(-75.483 -94.997)" fill="#fff"/>
      <path id="Path_2589" data-name="Path 2589" d="M235.969,260.635a2.927,2.927,0,0,1-2.935,2.935,2.968,2.968,0,0,1-2.935-2.935,2.927,2.927,0,0,1,2.935-2.935A2.968,2.968,0,0,1,235.969,260.635Z" transform="translate(-81.167 -87.358)" fill="#fff"/>
      <path id="Path_2590" data-name="Path 2590" d="M254.207,240.854a3.254,3.254,0,1,1-3.254-3.254A3.31,3.31,0,0,1,254.207,240.854Z" transform="translate(-87.539 -80.081)" fill="#fff"/>
      <path id="Path_2591" data-name="Path 2591" d="M276.362,225.381A3.381,3.381,0,1,1,272.981,222,3.363,3.363,0,0,1,276.362,225.381Z" transform="translate(-95.467 -74.433)" fill="#fff"/>
      <path id="Path_2592" data-name="Path 2592" d="M301.09,214.345a3.445,3.445,0,1,1-3.445-3.445A3.431,3.431,0,0,1,301.09,214.345Z" transform="translate(-104.373 -70.415)" fill="#fff"/>
      <circle id="Ellipse_275" data-name="Ellipse 275" cx="3.509" cy="3.509" r="3.509" transform="translate(205.061 139.205) rotate(-45)" fill="#fff"/>
      <path id="Path_2593" data-name="Path 2593" d="M354.645,204.073a3.573,3.573,0,1,1-3.573-3.573A3.567,3.567,0,0,1,354.645,204.073Z" transform="translate(-123.67 -66.65)" fill="#fff"/>
      <path id="Path_2594" data-name="Path 2594" d="M382.1,204.7a3.7,3.7,0,1,1-3.7-3.7A3.663,3.663,0,0,1,382.1,204.7Z" transform="translate(-133.517 -66.831)" fill="#fff"/>
      <path id="Path_2595" data-name="Path 2595" d="M409.783,208.392a3.867,3.867,0,0,1-3.892,3.892,3.892,3.892,0,1,1,0-7.783A3.867,3.867,0,0,1,409.783,208.392Z" transform="translate(-143.4 -68.098)" fill="#fff"/>
      <path id="Path_2596" data-name="Path 2596" d="M437.949,214.411a4.275,4.275,0,1,1-4.274-4.211A4.221,4.221,0,0,1,437.949,214.411Z" transform="translate(-153.32 -70.162)" fill="#fff"/>
      <path id="Path_2597" data-name="Path 2597" d="M465.487,224.893a4.593,4.593,0,1,1-4.593-4.593A4.574,4.574,0,0,1,465.487,224.893Z" transform="translate(-163.058 -73.818)" fill="#fff"/>
      <circle id="Ellipse_276" data-name="Ellipse 276" cx="4.721" cy="4.721" r="4.721" transform="translate(308.298 157.455)" fill="#fff"/>
      <path id="Path_2598" data-name="Path 2598" d="M508.114,264.957a4.657,4.657,0,1,1-4.657-4.657A4.683,4.683,0,0,1,508.114,264.957Z" transform="translate(-178.445 -88.299)" fill="#fff"/>
      <path id="Path_2599" data-name="Path 2599" d="M522.859,290.33a4.53,4.53,0,1,1-4.53-4.53A4.467,4.467,0,0,1,522.859,290.33Z" transform="translate(-183.875 -97.531)" fill="#fff"/>
      <circle id="Ellipse_277" data-name="Ellipse 277" cx="4.466" cy="4.466" r="4.466" transform="translate(337.517 205.303)" fill="#fff"/>
      <path id="Path_2600" data-name="Path 2600" d="M544.087,344.593A4.593,4.593,0,1,1,539.493,340,4.574,4.574,0,0,1,544.087,344.593Z" transform="translate(-191.514 -117.153)" fill="#fff"/>
      <path id="Path_2601" data-name="Path 2601" d="M548.942,373.621a4.721,4.721,0,1,1-4.721-4.721A4.71,4.71,0,0,1,548.942,373.621Z" transform="translate(-193.179 -127.616)" fill="#fff"/>
      <circle id="Ellipse_278" data-name="Ellipse 278" cx="4.849" cy="4.849" r="4.849" transform="translate(344.973 262.268) rotate(-22.5)" fill="#fff"/>
      <circle id="Ellipse_279" data-name="Ellipse 279" cx="4.976" cy="4.976" r="4.976" transform="translate(343.769 278.797)" fill="#fff"/>
      <path id="Path_2602" data-name="Path 2602" d="M534.7,460.649a4.849,4.849,0,1,1-4.849-4.849A4.846,4.846,0,0,1,534.7,460.649Z" transform="translate(-187.93 -159.076)" fill="#fff"/>
      <circle id="Ellipse_280" data-name="Ellipse 280" cx="5.423" cy="5.423" r="5.423" transform="matrix(0.099, -0.995, 0.995, 0.099, 368.942, 291.743)" fill="#fff"/>
      <path id="Path_2603" data-name="Path 2603" d="M577.518,465.559a5.359,5.359,0,1,1-5.359-5.359A5.391,5.391,0,0,1,577.518,465.559Z" transform="translate(-203.063 -160.669)" fill="#fff"/>
      <circle id="Ellipse_281" data-name="Ellipse 281" cx="5.168" cy="5.168" r="5.168" transform="translate(353.897 325.629) rotate(-80.782)" fill="#fff"/>
      <circle id="Ellipse_282" data-name="Ellipse 282" cx="4.976" cy="4.976" r="4.976" transform="translate(342.723 340.304) rotate(-80.782)" fill="#fff"/>
      <circle id="Ellipse_283" data-name="Ellipse 283" cx="4.785" cy="4.785" r="4.785" transform="translate(330.207 353.47) rotate(-80.782)" fill="#fff"/>
      <path id="Path_2604" data-name="Path 2604" d="M503.742,555.021a4.721,4.721,0,1,1-4.721-4.721A4.71,4.71,0,0,1,503.742,555.021Z" transform="translate(-176.816 -193.288)" fill="#fff"/>
      <path id="Path_2605" data-name="Path 2605" d="M480.942,572.121a4.721,4.721,0,1,1-4.721-4.721A4.71,4.71,0,0,1,480.942,572.121Z" transform="translate(-168.561 -199.479)" fill="#fff"/>
      <circle id="Ellipse_284" data-name="Ellipse 284" cx="4.657" cy="4.657" r="4.657" transform="translate(286.473 385.186) rotate(-85.935)" fill="#fff"/>
      <path id="Path_2606" data-name="Path 2606" d="M428.268,593.166a4.411,4.411,0,0,1-4.4,4.4,4.434,4.434,0,1,1,4.4-4.4Z" transform="translate(-149.7 -207.19)" fill="#fff"/>
      <path id="Path_2607" data-name="Path 2607" d="M400.421,597.311a4.211,4.211,0,1,1-4.211-4.211A4.207,4.207,0,0,1,400.421,597.311Z" transform="translate(-139.78 -208.783)" fill="#fff"/>
      <circle id="Ellipse_285" data-name="Ellipse 285" cx="3.764" cy="3.764" r="3.764" transform="matrix(0.995, -0.099, 0.099, 0.995, 234.637, 383.737)" fill="#fff"/>
      <path id="Path_2608" data-name="Path 2608" d="M345.907,588.954a3.254,3.254,0,1,1-3.254-3.254A3.267,3.267,0,0,1,345.907,588.954Z" transform="translate(-120.737 -206.104)" fill="#fff"/>
      <circle id="Ellipse_286" data-name="Ellipse 286" cx="2.871" cy="2.871" r="2.871" transform="translate(203.224 374.684)" fill="#fff"/>
      <path id="Path_2609" data-name="Path 2609" d="M297.259,572.279a2.679,2.679,0,1,1-2.679-2.68A2.7,2.7,0,0,1,297.259,572.279Z" transform="translate(-103.541 -200.275)" fill="#fff"/>
      <path id="Path_2610" data-name="Path 2610" d="M274.976,561.388a2.488,2.488,0,1,1-2.488-2.488A2.451,2.451,0,0,1,274.976,561.388Z" transform="translate(-95.612 -196.402)" fill="#fff"/>
      <path id="Path_2611" data-name="Path 2611" d="M254.321,548.36a2.36,2.36,0,1,1-4.721,0,2.36,2.36,0,0,1,4.721,0Z" transform="translate(-88.227 -191.731)" fill="#fff"/>
      <path id="Path_2612" data-name="Path 2612" d="M233.949,535.024a2.424,2.424,0,1,1-2.424-2.424A2.423,2.423,0,0,1,233.949,535.024Z" transform="translate(-80.805 -186.88)" fill="#fff"/>
      <circle id="Ellipse_287" data-name="Ellipse 287" cx="2.679" cy="2.679" r="2.679" transform="translate(134.615 341.85) rotate(-85.935)" fill="#fff"/>
      <path id="Path_2613" data-name="Path 2613" d="M195.442,503.371a2.871,2.871,0,1,1-2.871-2.871A2.859,2.859,0,0,1,195.442,503.371Z" transform="translate(-66.541 -175.259)" fill="#fff"/>
      <circle id="Ellipse_288" data-name="Ellipse 288" cx="2.871" cy="2.871" r="2.871" transform="translate(114.419 311.844)" fill="#fff"/>
      <path id="Path_2614" data-name="Path 2614" d="M170.542,459.871A2.871,2.871,0,1,1,167.671,457,2.859,2.859,0,0,1,170.542,459.871Z" transform="translate(-57.527 -159.511)" fill="#fff"/>
      <circle id="Ellipse_289" data-name="Ellipse 289" cx="2.935" cy="2.935" r="2.935" transform="translate(100.568 283.727) rotate(-22.5)" fill="#fff"/>
      <path id="Path_2615" data-name="Path 2615" d="M154.525,411.762a3.023,3.023,0,0,1-3.062,3.062,3.062,3.062,0,1,1,0-6.124A3.023,3.023,0,0,1,154.525,411.762Z" transform="translate(-51.589 -142.025)" fill="#fff"/>
      <path id="Path_2616" data-name="Path 2616" d="M149.607,386.254A3.254,3.254,0,1,1,146.354,383,3.267,3.267,0,0,1,149.607,386.254Z" transform="translate(-49.671 -132.72)" fill="#fff"/>
      <path id="Path_2617" data-name="Path 2617" d="M148.69,360.045a3.445,3.445,0,1,1-3.445-3.445A3.431,3.431,0,0,1,148.69,360.045Z" transform="translate(-49.2 -123.163)" fill="#fff"/>
      <circle id="Ellipse_290" data-name="Ellipse 290" cx="3.509" cy="3.509" r="3.509" transform="translate(93.763 218.404) rotate(-22.5)" fill="#fff"/>
      <path id="Path_2618" data-name="Path 2618" d="M159.145,308.473a3.573,3.573,0,1,1-3.573-3.573A3.567,3.567,0,0,1,159.145,308.473Z" transform="translate(-52.893 -104.446)" fill="#fff"/>
      <circle id="Ellipse_291" data-name="Ellipse 291" cx="3.7" cy="3.7" r="3.7" transform="translate(105.104 184.505)" fill="#fff"/>
      <path id="Path_2619" data-name="Path 2619" d="M181.628,260.164a3.764,3.764,0,1,1-3.764-3.764A3.771,3.771,0,0,1,181.628,260.164Z" transform="translate(-60.894 -86.887)" fill="#fff"/>
      <path id="Path_2620" data-name="Path 2620" d="M197.656,238.528a3.828,3.828,0,1,1-3.828-3.828A3.839,3.839,0,0,1,197.656,238.528Z" transform="translate(-66.65 -79.031)" fill="#fff"/>
      <circle id="Ellipse_292" data-name="Ellipse 292" cx="3.892" cy="3.892" r="3.892" transform="translate(134.753 150.455) rotate(-80.782)" fill="#fff"/>
      <path id="Path_2621" data-name="Path 2621" d="M238.083,203.092a3.892,3.892,0,1,1-3.892-3.892A3.867,3.867,0,0,1,238.083,203.092Z" transform="translate(-81.24 -66.179)" fill="#fff"/>
      <path id="Path_2622" data-name="Path 2622" d="M262.056,190.928a3.785,3.785,0,0,1-3.828,3.764,3.8,3.8,0,1,1,3.828-3.764Z" transform="translate(-89.965 -61.799)" fill="#fff"/>
      <circle id="Ellipse_293" data-name="Ellipse 293" cx="3.636" cy="3.636" r="3.636" transform="translate(179.543 124.291) rotate(-45)" fill="#fff"/>
      <path id="Path_2623" data-name="Path 2623" d="M314.28,182.69a3.19,3.19,0,1,1-3.19-3.19A3.2,3.2,0,0,1,314.28,182.69Z" transform="translate(-109.333 -59.047)" fill="#fff"/>
      <path id="Path_2624" data-name="Path 2624" d="M340.059,186.179a2.679,2.679,0,1,1-2.679-2.679A2.655,2.655,0,0,1,340.059,186.179Z" transform="translate(-119.036 -60.495)" fill="#fff"/>
      <path id="Path_2625" data-name="Path 2625" d="M364.676,189.088a2.451,2.451,0,0,1-2.488,2.488,2.488,2.488,0,1,1,0-4.976A2.451,2.451,0,0,1,364.676,189.088Z" transform="translate(-128.086 -61.618)" fill="#fff"/>
      <path id="Path_2626" data-name="Path 2626" d="M389.2,190.852a2.552,2.552,0,1,1-2.552-2.552A2.559,2.559,0,0,1,389.2,190.852Z" transform="translate(-136.92 -62.233)" fill="#fff"/>
      <circle id="Ellipse_294" data-name="Ellipse 294" cx="2.616" cy="2.616" r="2.616" transform="translate(262.619 128.81)" fill="#fff"/>
      <path id="Path_2627" data-name="Path 2627" d="M437.286,202.643a2.743,2.743,0,1,1-2.743-2.743A2.723,2.723,0,0,1,437.286,202.643Z" transform="translate(-154.189 -66.433)" fill="#fff"/>
      <path id="Path_2628" data-name="Path 2628" d="M461.133,211.3a2.982,2.982,0,0,1-2.935,3,3.036,3.036,0,0,1-3-3,2.967,2.967,0,1,1,5.933,0Z" transform="translate(-162.66 -69.474)" fill="#fff"/>
      <circle id="Ellipse_295" data-name="Ellipse 295" cx="3.317" cy="3.317" r="3.317" transform="translate(305.842 148.863) rotate(-45)" fill="#fff"/>
      <circle id="Ellipse_296" data-name="Ellipse 296" cx="3.573" cy="3.573" r="3.573" transform="translate(321.121 154.584)" fill="#fff"/>
      <circle id="Ellipse_297" data-name="Ellipse 297" cx="3.764" cy="3.764" r="3.764" transform="translate(333.051 166.323)" fill="#fff"/>
      <path id="Path_2629" data-name="Path 2629" d="M541.428,277.263a3.771,3.771,0,0,1-3.764,3.764,3.731,3.731,0,0,1-3.764-3.764,3.771,3.771,0,0,1,3.764-3.764A3.73,3.73,0,0,1,541.428,277.263Z" transform="translate(-191.152 -93.077)" fill="#fff"/>
      <circle id="Ellipse_298" data-name="Ellipse 298" cx="3.892" cy="3.892" r="3.892" transform="translate(349.807 201.265) rotate(-67.5)" fill="#fff"/>
      <path id="Path_2630" data-name="Path 2630" d="M566.366,325.283a4.083,4.083,0,0,1-8.166,0,4.112,4.112,0,0,1,4.083-4.083A4.031,4.031,0,0,1,566.366,325.283Z" transform="translate(-199.949 -110.347)" fill="#fff"/>
      <path id="Path_2631" data-name="Path 2631" d="M575.9,351.338a4.4,4.4,0,0,1-8.8,0,4.4,4.4,0,0,1,8.8,0Z" transform="translate(-203.171 -119.687)" fill="#fff"/>
      <path id="Path_2632" data-name="Path 2632" d="M583.042,378.921a4.721,4.721,0,1,1-4.721-4.721A4.71,4.71,0,0,1,583.042,378.921Z" transform="translate(-205.525 -129.534)" fill="#fff"/>
      <path id="Path_2633" data-name="Path 2633" d="M587.807,407.8a5.1,5.1,0,1,1-5.1-5.1A5.119,5.119,0,0,1,587.807,407.8Z" transform="translate(-206.973 -139.852)" fill="#fff"/>
      <circle id="Ellipse_299" data-name="Ellipse 299" cx="5.423" cy="5.423" r="5.423" transform="matrix(0.099, -0.995, 0.995, 0.099, 368.942, 291.743)" fill="#fff"/>
      <path id="Path_2634" data-name="Path 2634" d="M577.249,403.024a2.424,2.424,0,1,1-2.424-2.424A2.509,2.509,0,0,1,577.249,403.024Z" transform="translate(-205.09 -139.092)" fill="#fff"/>
      <path id="Path_2635" data-name="Path 2635" d="M575.376,425.988a2.533,2.533,0,0,1-2.488,2.488,2.488,2.488,0,0,1,0-4.976A2.451,2.451,0,0,1,575.376,425.988Z" transform="translate(-204.366 -147.383)" fill="#fff"/>
      <path id="Path_2636" data-name="Path 2636" d="M570.9,448.652a2.552,2.552,0,1,1-2.552-2.552A2.559,2.559,0,0,1,570.9,448.652Z" transform="translate(-202.701 -155.564)" fill="#fff"/>
      <circle id="Ellipse_300" data-name="Ellipse 300" cx="2.616" cy="2.616" r="2.616" transform="translate(358.363 309.467) rotate(-80.782)" fill="#fff"/>
      <circle id="Ellipse_301" data-name="Ellipse 301" cx="2.679" cy="2.679" r="2.679" transform="translate(352.502 318.816) rotate(-9.218)" fill="#fff"/>
      <path id="Path_2637" data-name="Path 2637" d="M543.787,512.843a2.743,2.743,0,1,1-2.743-2.743A2.807,2.807,0,0,1,543.787,512.843Z" transform="translate(-192.745 -178.734)" fill="#fff"/>
      <circle id="Ellipse_302" data-name="Ellipse 302" cx="2.807" cy="2.807" r="2.807" transform="matrix(0.995, -0.099, 0.099, 0.995, 336.475, 343.827)" fill="#fff"/>
      <path id="Path_2638" data-name="Path 2638" d="M514.642,549.871A2.871,2.871,0,1,1,511.771,547,2.9,2.9,0,0,1,514.642,549.871Z" transform="translate(-182.101 -192.093)" fill="#fff"/>
      <circle id="Ellipse_303" data-name="Ellipse 303" cx="2.998" cy="2.998" r="2.998" transform="translate(315.826 365.497)" fill="#fff"/>
      <ellipse id="Ellipse_304" data-name="Ellipse 304" cx="3.062" cy="3.126" rx="3.062" ry="3.126" transform="translate(303.685 381.17) rotate(-85.935)" fill="#fff"/>
      <path id="Path_2639" data-name="Path 2639" d="M459.08,595.29a3.19,3.19,0,1,1-3.19-3.19A3.2,3.2,0,0,1,459.08,595.29Z" transform="translate(-161.755 -208.421)" fill="#fff"/>
      <path id="Path_2640" data-name="Path 2640" d="M437.171,605.917a3.286,3.286,0,1,1-3.254-3.317A3.267,3.267,0,0,1,437.171,605.917Z" transform="translate(-153.754 -212.222)" fill="#fff"/>
      <circle id="Ellipse_305" data-name="Ellipse 305" cx="3.317" cy="3.317" r="3.317" transform="translate(262.045 395.418)" fill="#fff"/>
      <circle id="Ellipse_306" data-name="Ellipse 306" cx="3.445" cy="3.445" r="3.445" transform="matrix(0.995, -0.099, 0.099, 0.995, 246.402, 399.974)" fill="#fff"/>
      <path id="Path_2641" data-name="Path 2641" d="M365.973,625.936a3.636,3.636,0,1,1-3.636-3.636A3.635,3.635,0,0,1,365.973,625.936Z" transform="translate(-127.724 -219.354)" fill="#fff"/>
      <path id="Path_2642" data-name="Path 2642" d="M340.756,628.228a3.828,3.828,0,1,1-3.828-3.828A3.8,3.8,0,0,1,340.756,628.228Z" transform="translate(-118.456 -220.115)" fill="#fff"/>
      <path id="Path_2643" data-name="Path 2643" d="M315.656,625.728a3.828,3.828,0,1,1-3.828-3.828A3.839,3.839,0,0,1,315.656,625.728Z" transform="translate(-109.369 -219.209)" fill="#fff"/>
      <path id="Path_2644" data-name="Path 2644" d="M291.128,618.964a3.771,3.771,0,0,1-3.764,3.764,3.764,3.764,0,0,1,0-7.528A3.771,3.771,0,0,1,291.128,618.964Z" transform="translate(-100.536 -216.784)" fill="#fff"/>
      <circle id="Ellipse_307" data-name="Ellipse 307" cx="3.7" cy="3.7" r="3.7" transform="translate(168.136 392.802)" fill="#fff"/>
      <path id="Path_2645" data-name="Path 2645" d="M244.7,599.9a3.7,3.7,0,1,1-3.7-3.7A3.7,3.7,0,0,1,244.7,599.9Z" transform="translate(-83.774 -209.905)" fill="#fff"/>
      <circle id="Ellipse_308" data-name="Ellipse 308" cx="3.636" cy="3.636" r="3.636" transform="translate(139.386 384.639) rotate(-80.782)" fill="#fff"/>
      <path id="Path_2646" data-name="Path 2646" d="M204.318,570.509a3.5,3.5,0,0,1-3.509,3.509,3.509,3.509,0,1,1,0-7.018A3.5,3.5,0,0,1,204.318,570.509Z" transform="translate(-69.293 -199.334)" fill="#fff"/>
      <path id="Path_2647" data-name="Path 2647" d="M188.335,551.417a3.3,3.3,0,0,1-3.317,3.317,3.335,3.335,0,0,1-3.317-3.317,3.317,3.317,0,1,1,6.635,0Z" transform="translate(-63.645 -192.492)" fill="#fff"/>
      <path id="Path_2648" data-name="Path 2648" d="M174.388,531.326a3.131,3.131,0,0,1-3.126,3.126,3.077,3.077,0,0,1-3.062-3.126,3.094,3.094,0,1,1,6.188,0Z" transform="translate(-58.758 -185.287)" fill="#fff"/>
      <circle id="Ellipse_309" data-name="Ellipse 309" cx="2.998" cy="2.998" r="2.998" transform="translate(101.595 329.898)" fill="#fff"/>
      <path id="Path_2649" data-name="Path 2649" d="M151.578,489.307a2.839,2.839,0,1,1-5.678,0,2.839,2.839,0,0,1,5.678,0Z" transform="translate(-50.684 -170.191)" fill="#fff"/>
      <path id="Path_2650" data-name="Path 2650" d="M143.959,466.979a2.679,2.679,0,1,1-2.679-2.679A2.7,2.7,0,0,1,143.959,466.979Z" transform="translate(-48.041 -162.153)" fill="#fff"/>
      <path id="Path_2651" data-name="Path 2651" d="M138.131,444.352a2.616,2.616,0,0,1-5.231,0,2.574,2.574,0,0,1,2.616-2.552A2.615,2.615,0,0,1,138.131,444.352Z" transform="translate(-45.978 -154.008)" fill="#fff"/>
      <path id="Path_2652" data-name="Path 2652" d="M133.2,421.75a2.552,2.552,0,1,1-2.552-2.552A2.481,2.481,0,0,1,133.2,421.75Z" transform="translate(-44.24 -145.824)" fill="#fff"/>
      <path id="Path_2653" data-name="Path 2653" d="M129.159,398.714a2.679,2.679,0,0,1-5.359,0,2.641,2.641,0,0,1,2.679-2.616A2.565,2.565,0,0,1,129.159,398.714Z" transform="translate(-42.683 -137.462)" fill="#fff"/>
      <path id="Path_2654" data-name="Path 2654" d="M127.387,375.243a2.743,2.743,0,1,1-2.743-2.743A2.723,2.723,0,0,1,127.387,375.243Z" transform="translate(-41.996 -128.919)" fill="#fff"/>
      <path id="Path_2655" data-name="Path 2655" d="M128.614,351.707a2.807,2.807,0,1,1-2.807-2.807A2.791,2.791,0,0,1,128.614,351.707Z" transform="translate(-42.394 -120.375)" fill="#fff"/>
      <path id="Path_2656" data-name="Path 2656" d="M132.914,328.407a2.807,2.807,0,1,1-2.807-2.807A2.832,2.832,0,0,1,132.914,328.407Z" transform="translate(-43.951 -111.94)" fill="#fff"/>
      <path id="Path_2657" data-name="Path 2657" d="M139.714,305.807A2.807,2.807,0,1,1,136.907,303,2.832,2.832,0,0,1,139.714,305.807Z" transform="translate(-46.412 -103.758)" fill="#fff"/>
      <circle id="Ellipse_310" data-name="Ellipse 310" cx="2.807" cy="2.807" r="2.807" transform="translate(93.043 190.447) rotate(-80.782)" fill="#fff"/>
      <circle id="Ellipse_311" data-name="Ellipse 311" cx="2.743" cy="2.743" r="2.743" transform="translate(101.149 172.447)" fill="#fff"/>
      <path id="Path_2658" data-name="Path 2658" d="M174.859,244.979a2.679,2.679,0,1,1-2.679-2.679A2.7,2.7,0,0,1,174.859,244.979Z" transform="translate(-59.228 -81.783)" fill="#fff"/>
      <path id="Path_2659" data-name="Path 2659" d="M190.359,227.479a2.679,2.679,0,1,1-2.679-2.679A2.655,2.655,0,0,1,190.359,227.479Z" transform="translate(-64.84 -75.447)" fill="#fff"/>
      <path id="Path_2660" data-name="Path 2660" d="M206.587,210.443a2.743,2.743,0,1,1-2.743-2.743A2.764,2.764,0,0,1,206.587,210.443Z" transform="translate(-70.668 -69.256)" fill="#fff"/>
      <circle id="Ellipse_312" data-name="Ellipse 312" cx="2.935" cy="2.935" r="2.935" transform="translate(141.086 127.662)" fill="#fff"/>
      <path id="Path_2661" data-name="Path 2661" d="M242.625,178.662a3.062,3.062,0,1,1-3.062-3.062A3.063,3.063,0,0,1,242.625,178.662Z" transform="translate(-83.484 -57.635)" fill="#fff"/>
      <path id="Path_2662" data-name="Path 2662" d="M263.68,166.79a3.19,3.19,0,1,1-3.19-3.19A3.159,3.159,0,0,1,263.68,166.79Z" transform="translate(-91.014 -53.291)" fill="#fff"/>
      <circle id="Ellipse_313" data-name="Ellipse 313" cx="3.19" cy="3.19" r="3.19" transform="translate(180.132 110.412) rotate(-76.714)" fill="#fff"/>
      <circle id="Ellipse_314" data-name="Ellipse 314" cx="3.19" cy="3.19" r="3.19" transform="translate(195.76 100.931)" fill="#fff"/>
      <path id="Path_2663" data-name="Path 2663" d="M333.88,148.054a3.19,3.19,0,0,1-6.38,0,3.255,3.255,0,0,1,3.19-3.254A3.342,3.342,0,0,1,333.88,148.054Z" transform="translate(-116.429 -46.485)" fill="#fff"/>
      <path id="Path_2664" data-name="Path 2664" d="M358.207,146.017a3.254,3.254,0,1,1-6.507,0,3.323,3.323,0,0,1,3.254-3.317A3.281,3.281,0,0,1,358.207,146.017Z" transform="translate(-125.19 -45.724)" fill="#fff"/>
      <path id="Path_2665" data-name="Path 2665" d="M382.762,145.681a3.381,3.381,0,1,1-3.381-3.381A3.4,3.4,0,0,1,382.762,145.681Z" transform="translate(-133.987 -45.58)" fill="#fff"/>
      <path id="Path_2666" data-name="Path 2666" d="M407.29,148.845a3.445,3.445,0,1,1-3.445-3.445A3.431,3.431,0,0,1,407.29,148.845Z" transform="translate(-142.821 -46.702)" fill="#fff"/>
      <path id="Path_2667" data-name="Path 2667" d="M430.562,156.681a3.381,3.381,0,1,1-6.762,0,3.381,3.381,0,1,1,6.762,0Z" transform="translate(-151.293 -49.562)" fill="#fff"/>
      <path id="Path_2668" data-name="Path 2668" d="M452.18,168.29a3.19,3.19,0,1,1-3.19-3.19A3.2,3.2,0,0,1,452.18,168.29Z" transform="translate(-159.257 -53.834)" fill="#fff"/>
      <path id="Path_2669" data-name="Path 2669" d="M472.361,181.8a3.063,3.063,0,0,1-3.062,3.062,3.031,3.031,0,0,1,0-6.061A3.05,3.05,0,0,1,472.361,181.8Z" transform="translate(-166.679 -58.794)" fill="#fff"/>
      <circle id="Ellipse_315" data-name="Ellipse 315" cx="2.935" cy="2.935" r="2.935" transform="translate(311.361 134.322) rotate(-76.714)" fill="#fff"/>
      <circle id="Ellipse_316" data-name="Ellipse 316" cx="2.871" cy="2.871" r="2.871" transform="translate(323.008 144.566) rotate(-80.782)" fill="#fff"/>
      <path id="Path_2670" data-name="Path 2670" d="M525.714,229.107a2.807,2.807,0,0,1-5.614,0,2.807,2.807,0,0,1,5.614,0Z" transform="translate(-186.156 -75.99)" fill="#fff"/>
      <circle id="Ellipse_317" data-name="Ellipse 317" cx="2.807" cy="2.807" r="2.807" transform="translate(343.131 162.24)" fill="#fff"/>
      <path id="Path_2671" data-name="Path 2671" d="M551.987,268.143a2.743,2.743,0,1,1-2.743-2.743A2.723,2.723,0,0,1,551.987,268.143Z" transform="translate(-195.714 -90.146)" fill="#fff"/>
      <path id="Path_2672" data-name="Path 2672" d="M561.531,289.616A2.616,2.616,0,1,1,558.916,287,2.627,2.627,0,0,1,561.531,289.616Z" transform="translate(-199.262 -97.965)" fill="#fff"/>
      <path id="Path_2673" data-name="Path 2673" d="M568.4,311.852a2.552,2.552,0,1,1-2.552-2.552A2.6,2.6,0,0,1,568.4,311.852Z" transform="translate(-201.796 -106.039)" fill="#fff"/>
      <path id="Path_2674" data-name="Path 2674" d="M572.749,334.624a2.424,2.424,0,1,1-2.424-2.424A2.423,2.423,0,0,1,572.749,334.624Z" transform="translate(-203.461 -114.329)" fill="#fff"/>
      <path id="Path_2675" data-name="Path 2675" d="M575.621,357.36a2.361,2.361,0,1,1-2.36-2.36A2.355,2.355,0,0,1,575.621,357.36Z" transform="translate(-204.547 -122.584)" fill="#fff"/>
      <path id="Path_2676" data-name="Path 2676" d="M577.221,380.16a2.36,2.36,0,0,1-4.721,0,2.36,2.36,0,1,1,4.721,0Z" transform="translate(-205.126 -130.838)" fill="#fff"/>
      <path id="Path_2677" data-name="Path 2677" d="M577.249,403.024a2.424,2.424,0,1,1-2.424-2.424A2.509,2.509,0,0,1,577.249,403.024Z" transform="translate(-205.09 -139.092)" fill="#fff"/>
      <path id="Path_2678" data-name="Path 2678" d="M575.376,425.988a2.533,2.533,0,0,1-2.488,2.488,2.488,2.488,0,0,1,0-4.976A2.451,2.451,0,0,1,575.376,425.988Z" transform="translate(-204.366 -147.383)" fill="#fff"/>
      <circle id="Ellipse_318" data-name="Ellipse 318" cx="2.807" cy="2.807" r="2.807" transform="translate(386.89 285.797) rotate(-80.782)" fill="#fff"/>
      <path id="Path_2679" data-name="Path 2679" d="M606.869,455.735a2.935,2.935,0,0,1-5.869,0,2.927,2.927,0,0,1,2.935-2.935A2.969,2.969,0,0,1,606.869,455.735Z" transform="translate(-215.444 -157.99)" fill="#fff"/>
      <path id="Path_2680" data-name="Path 2680" d="M601.525,477.662a3.062,3.062,0,0,1-6.125,0,3.023,3.023,0,0,1,3.062-3.062A3.1,3.1,0,0,1,601.525,477.662Z" transform="translate(-213.417 -165.882)" fill="#fff"/>
      <path id="Path_2681" data-name="Path 2681" d="M593.425,498.862a3.062,3.062,0,1,1-3.062-3.062A3.1,3.1,0,0,1,593.425,498.862Z" transform="translate(-210.485 -173.557)" fill="#fff"/>
      <path id="Path_2682" data-name="Path 2682" d="M583.152,519.226a3.126,3.126,0,1,1-3.126-3.126A3.131,3.131,0,0,1,583.152,519.226Z" transform="translate(-206.719 -180.907)" fill="#fff"/>
      <circle id="Ellipse_319" data-name="Ellipse 319" cx="3.19" cy="3.19" r="3.19" transform="translate(362.065 353.401) rotate(-80.782)" fill="#fff"/>
      <circle id="Ellipse_320" data-name="Ellipse 320" cx="3.19" cy="3.19" r="3.19" transform="translate(353.912 359.372)" fill="#fff"/>
      <path id="Path_2683" data-name="Path 2683" d="M543.135,574.952a3.3,3.3,0,0,1-3.317,3.317,3.335,3.335,0,0,1-3.317-3.317,3.281,3.281,0,0,1,3.317-3.254A3.24,3.24,0,0,1,543.135,574.952Z" transform="translate(-192.093 -201.034)" fill="#fff"/>
      <path id="Path_2684" data-name="Path 2684" d="M526.762,591.281a3.363,3.363,0,0,1-3.381,3.381,3.381,3.381,0,1,1,3.381-3.381Z" transform="translate(-186.12 -206.9)" fill="#fff"/>
      <path id="Path_2685" data-name="Path 2685" d="M508.663,605.78a3.381,3.381,0,1,1-3.381-3.381A3.323,3.323,0,0,1,508.663,605.78Z" transform="translate(-179.567 -212.149)" fill="#fff"/>
      <circle id="Ellipse_321" data-name="Ellipse 321" cx="3.381" cy="3.381" r="3.381" transform="translate(309.049 403.917) rotate(-80.782)" fill="#fff"/>
      <path id="Path_2686" data-name="Path 2686" d="M467.407,626.852a3.323,3.323,0,0,1-3.254,3.317,3.286,3.286,0,0,1,0-6.571A3.188,3.188,0,0,1,467.407,626.852Z" transform="translate(-164.724 -219.824)" fill="#fff"/>
      <path id="Path_2687" data-name="Path 2687" d="M445.216,633.39a3.2,3.2,0,0,1-3.19,3.19,3.145,3.145,0,0,1-3.126-3.19,3.186,3.186,0,0,1,3.126-3.19A3.285,3.285,0,0,1,445.216,633.39Z" transform="translate(-156.759 -222.214)" fill="#fff"/>
      <path id="Path_2688" data-name="Path 2688" d="M422.4,637.1a3,3,0,1,1-3-3A3,3,0,0,1,422.4,637.1Z" transform="translate(-148.614 -223.626)" fill="#fff"/>
      <circle id="Ellipse_322" data-name="Ellipse 322" cx="2.807" cy="2.807" r="2.807" transform="translate(253.496 411.431)" fill="#fff"/>
      <path id="Path_2689" data-name="Path 2689" d="M377.231,638.116a2.616,2.616,0,1,1-2.616-2.616A2.67,2.67,0,0,1,377.231,638.116Z" transform="translate(-132.539 -224.133)" fill="#fff"/>
      <circle id="Ellipse_323" data-name="Ellipse 323" cx="2.488" cy="2.488" r="2.488" transform="translate(225.553 410.857)" fill="#fff"/>
      <circle id="Ellipse_324" data-name="Ellipse 324" cx="2.488" cy="2.488" r="2.488" transform="matrix(0.995, -0.099, 0.099, 0.995, 211.408, 410.272)" fill="#fff"/>
      <path id="Path_2690" data-name="Path 2690" d="M311.74,633.652a2.52,2.52,0,1,1-2.488-2.552A2.547,2.547,0,0,1,311.74,633.652Z" transform="translate(-108.899 -222.54)" fill="#fff"/>
      <path id="Path_2691" data-name="Path 2691" d="M290.2,629.552A2.552,2.552,0,1,1,287.652,627,2.559,2.559,0,0,1,290.2,629.552Z" transform="translate(-101.079 -221.056)" fill="#fff"/>
      <circle id="Ellipse_325" data-name="Ellipse 325" cx="2.616" cy="2.616" r="2.616" transform="translate(170.496 402.053)" fill="#fff"/>
      <circle id="Ellipse_326" data-name="Ellipse 326" cx="2.679" cy="2.679" r="2.679" transform="translate(156.708 402.449) rotate(-80.782)" fill="#fff"/>
      <path id="Path_2692" data-name="Path 2692" d="M227.414,608.607a2.807,2.807,0,1,1-2.807-2.807A2.832,2.832,0,0,1,227.414,608.607Z" transform="translate(-78.162 -213.381)" fill="#fff"/>
      <circle id="Ellipse_327" data-name="Ellipse 327" cx="2.935" cy="2.935" r="2.935" transform="translate(130.559 386.04)" fill="#fff"/>
      <path id="Path_2693" data-name="Path 2693" d="M188.161,586.362a3.009,3.009,0,0,1-3.062,3,2.955,2.955,0,0,1-3-3,3.05,3.05,0,0,1,3-3.062A3.1,3.1,0,0,1,188.161,586.362Z" transform="translate(-63.79 -205.235)" fill="#fff"/>
      <path id="Path_2694" data-name="Path 2694" d="M170.825,571.762a3.023,3.023,0,0,1-3.062,3.062,3.062,3.062,0,1,1,3.062-3.062Z" transform="translate(-57.49 -199.949)" fill="#fff"/>
      <path id="Path_2695" data-name="Path 2695" d="M154.652,555.726a3.126,3.126,0,1,1-3.126-3.126A3.131,3.131,0,0,1,154.652,555.726Z" transform="translate(-51.589 -194.121)" fill="#fff"/>
      <path id="Path_2696" data-name="Path 2696" d="M139.48,538.49a3.19,3.19,0,1,1-3.19-3.19A3.2,3.2,0,0,1,139.48,538.49Z" transform="translate(-46.05 -187.858)" fill="#fff"/>
      <circle id="Ellipse_328" data-name="Ellipse 328" cx="3.317" cy="3.317" r="3.317" transform="translate(77.799 335.831)" fill="#fff"/>
      <path id="Path_2697" data-name="Path 2697" d="M111.49,501.345a3.445,3.445,0,1,1-3.445-3.445A3.431,3.431,0,0,1,111.49,501.345Z" transform="translate(-35.732 -174.318)" fill="#fff"/>
      <path id="Path_2698" data-name="Path 2698" d="M99.073,481.036a3.636,3.636,0,1,1-3.636-3.636A3.676,3.676,0,0,1,99.073,481.036Z" transform="translate(-31.098 -166.896)" fill="#fff"/>
      <path id="Path_2699" data-name="Path 2699" d="M88.556,459.428a3.828,3.828,0,1,1-3.828-3.828A3.8,3.8,0,0,1,88.556,459.428Z" transform="translate(-27.152 -159.004)" fill="#fff"/>
      <path id="Path_2700" data-name="Path 2700" d="M80.711,436.455a3.955,3.955,0,1,1-3.955-3.955A3.975,3.975,0,0,1,80.711,436.455Z" transform="translate(-24.22 -150.641)" fill="#fff"/>
      <path id="Path_2701" data-name="Path 2701" d="M75.4,412.683a4.051,4.051,0,1,1-4.083-4.083A4.154,4.154,0,0,1,75.4,412.683Z" transform="translate(-22.229 -141.988)" fill="#fff"/>
      <path id="Path_2702" data-name="Path 2702" d="M72.594,388.483a4.147,4.147,0,0,1-8.294,0,4.147,4.147,0,0,1,8.294,0Z" transform="translate(-21.143 -133.227)" fill="#fff"/>
      <path id="Path_2703" data-name="Path 2703" d="M72.194,364.046a4.147,4.147,0,1,1-4.147-4.147A4.139,4.139,0,0,1,72.194,364.046Z" transform="translate(-20.998 -124.357)" fill="#fff"/>
      <path id="Path_2704" data-name="Path 2704" d="M74.321,339.611a4.211,4.211,0,1,1-4.211-4.211A4.206,4.206,0,0,1,74.321,339.611Z" transform="translate(-21.722 -115.488)" fill="#fff"/>
      <path id="Path_2705" data-name="Path 2705" d="M79.021,315.511a4.211,4.211,0,1,1-4.211-4.211A4.248,4.248,0,0,1,79.021,315.511Z" transform="translate(-23.423 -106.763)" fill="#fff"/>
      <path id="Path_2706" data-name="Path 2706" d="M86.294,292.146A4.147,4.147,0,1,1,82.147,288,4.06,4.06,0,0,1,86.294,292.146Z" transform="translate(-26.102 -98.327)" fill="#fff"/>
      <path id="Path_2707" data-name="Path 2707" d="M96.13,269.747a4.115,4.115,0,0,1-8.23,0,4.115,4.115,0,1,1,8.23,0Z" transform="translate(-29.687 -90.218)" fill="#fff"/>
      <path id="Path_2708" data-name="Path 2708" d="M107.466,248.183a4.07,4.07,0,0,1-4.083,4.083,4.083,4.083,0,1,1,4.083-4.083Z" transform="translate(-33.814 -82.434)" fill="#fff"/>
      <path id="Path_2709" data-name="Path 2709" d="M120.738,227.919a4.019,4.019,0,1,1-4.019-4.019A4,4,0,0,1,120.738,227.919Z" transform="translate(-38.665 -75.121)" fill="#fff"/>
      <path id="Path_2710" data-name="Path 2710" d="M136.011,209.155a3.955,3.955,0,1,1-3.955-3.955A3.975,3.975,0,0,1,136.011,209.155Z" transform="translate(-44.24 -68.351)" fill="#fff"/>
      <path id="Path_2711" data-name="Path 2711" d="M152.683,191.792a3.892,3.892,0,0,1-7.783,0,3.907,3.907,0,0,1,3.892-3.892A3.993,3.993,0,0,1,152.683,191.792Z" transform="translate(-50.322 -62.088)" fill="#fff"/>
      <circle id="Ellipse_329" data-name="Ellipse 329" cx="3.892" cy="3.892" r="3.892" transform="translate(103.949 117.591) rotate(-31.714)" fill="#fff"/>
      <circle id="Ellipse_330" data-name="Ellipse 330" cx="3.955" cy="3.955" r="3.955" transform="translate(115.025 109.566) rotate(-58.286)" fill="#fff"/>
      <path id="Path_2712" data-name="Path 2712" d="M206.366,143.083a4.07,4.07,0,0,1-4.083,4.083,4.112,4.112,0,0,1-4.083-4.083A4.07,4.07,0,0,1,202.283,139,4.112,4.112,0,0,1,206.366,143.083Z" transform="translate(-69.618 -44.385)" fill="#fff"/>
      <path id="Path_2713" data-name="Path 2713" d="M227.366,130.783a4.083,4.083,0,1,1-4.083-4.083A4.112,4.112,0,0,1,227.366,130.783Z" transform="translate(-77.221 -39.932)" fill="#fff"/>
      <circle id="Ellipse_331" data-name="Ellipse 331" cx="4.019" cy="4.019" r="4.019" transform="translate(156.333 80.835)" fill="#fff"/>
      <path id="Path_2714" data-name="Path 2714" d="M273.011,114.555a3.955,3.955,0,1,1-3.955-3.955A3.975,3.975,0,0,1,273.011,114.555Z" transform="translate(-93.838 -34.103)" fill="#fff"/>
      <circle id="Ellipse_332" data-name="Ellipse 332" cx="3.828" cy="3.828" r="3.828" transform="translate(186.573 74.136)" fill="#fff"/>
      <path id="Path_2715" data-name="Path 2715" d="M320.7,109.6a3.7,3.7,0,1,1-3.7-3.7A3.745,3.745,0,0,1,320.7,109.6Z" transform="translate(-111.288 -32.402)" fill="#fff"/>
      <path id="Path_2716" data-name="Path 2716" d="M344.418,111.109a3.509,3.509,0,1,1-3.509-3.509A3.583,3.583,0,0,1,344.418,111.109Z" transform="translate(-120.013 -33.017)" fill="#fff"/>
      <path id="Path_2717" data-name="Path 2717" d="M367.535,115.117a3.335,3.335,0,0,1-3.317,3.317,3.317,3.317,0,1,1,3.317-3.317Z" transform="translate(-128.521 -34.538)" fill="#fff"/>
      <path id="Path_2718" data-name="Path 2718" d="M389.925,121.161a3.062,3.062,0,1,1-6.125,0,3.1,3.1,0,0,1,3.062-3.062A2.985,2.985,0,0,1,389.925,121.161Z" transform="translate(-136.811 -36.817)" fill="#fff"/>
      <path id="Path_2719" data-name="Path 2719" d="M411.605,128.335a2.9,2.9,0,0,1-5.806,0,2.914,2.914,0,0,1,2.871-2.935A3.012,3.012,0,0,1,411.605,128.335Z" transform="translate(-144.776 -39.461)" fill="#fff"/>
      <circle id="Ellipse_333" data-name="Ellipse 333" cx="2.807" cy="2.807" r="2.807" transform="translate(274.185 95.88) rotate(-80.782)" fill="#fff"/>
      <path id="Path_2720" data-name="Path 2720" d="M453.514,143.707a2.807,2.807,0,1,1-2.807-2.807A2.791,2.791,0,0,1,453.514,143.707Z" transform="translate(-160.017 -45.073)" fill="#fff"/>
      <path id="Path_2721" data-name="Path 2721" d="M473.814,153.007a2.807,2.807,0,1,1-2.807-2.807A2.791,2.791,0,0,1,473.814,153.007Z" transform="translate(-167.367 -48.44)" fill="#fff"/>
      <path id="Path_2722" data-name="Path 2722" d="M492.786,164.643a2.743,2.743,0,1,1-2.743-2.743A2.723,2.723,0,0,1,492.786,164.643Z" transform="translate(-174.281 -52.675)" fill="#fff"/>
      <path id="Path_2723" data-name="Path 2723" d="M509.859,178.779a2.679,2.679,0,1,1-2.679-2.679A2.7,2.7,0,0,1,509.859,178.779Z" transform="translate(-180.508 -57.816)" fill="#fff"/>
      <path id="Path_2724" data-name="Path 2724" d="M525.076,194.988a2.488,2.488,0,0,1-4.976,0,2.488,2.488,0,0,1,4.976,0Z" transform="translate(-186.156 -63.754)" fill="#fff"/>
      <circle id="Ellipse_334" data-name="Ellipse 334" cx="2.36" cy="2.36" r="2.36" transform="translate(342.556 139.975)" fill="#fff"/>
      <path id="Path_2725" data-name="Path 2725" d="M549.538,231.069a2.169,2.169,0,1,1-2.169-2.169A2.151,2.151,0,0,1,549.538,231.069Z" transform="translate(-195.243 -76.931)" fill="#fff"/>
      <path id="Path_2726" data-name="Path 2726" d="M558.955,250.278a1.978,1.978,0,1,1-1.978-1.978A1.988,1.988,0,0,1,558.955,250.278Z" transform="translate(-198.791 -83.955)" fill="#fff"/>
      <path id="Path_2727" data-name="Path 2727" d="M567.7,269.45a1.85,1.85,0,1,1-1.85-1.85A1.851,1.851,0,0,1,567.7,269.45Z" transform="translate(-202.049 -90.942)" fill="#fff"/>
      <path id="Path_2728" data-name="Path 2728" d="M576.136,288.45a1.852,1.852,0,0,1-1.85,1.85,1.8,1.8,0,0,1-1.786-1.85,1.839,1.839,0,0,1,1.786-1.85A1.812,1.812,0,0,1,576.136,288.45Z" transform="translate(-205.126 -97.821)" fill="#fff"/>
      <circle id="Ellipse_335" data-name="Ellipse 335" cx="1.85" cy="1.85" r="1.85" transform="translate(372.669 200.901)" fill="#fff"/>
      <path id="Path_2729" data-name="Path 2729" d="M591.855,326.978A1.978,1.978,0,1,1,589.878,325,1.947,1.947,0,0,1,591.855,326.978Z" transform="translate(-210.702 -111.723)" fill="#fff"/>
      <circle id="Ellipse_336" data-name="Ellipse 336" cx="2.105" cy="2.105" r="2.105" transform="translate(380.962 226.101)" fill="#fff"/>
      <path id="Path_2730" data-name="Path 2730" d="M603.066,367.933a2.233,2.233,0,1,1-2.233-2.233A2.26,2.26,0,0,1,603.066,367.933Z" transform="translate(-214.575 -126.457)" fill="#fff"/>
      <circle id="Ellipse_337" data-name="Ellipse 337" cx="2.36" cy="2.36" r="2.36" transform="translate(385.414 253.859) rotate(-22.5)" fill="#fff"/>
      <ellipse id="Ellipse_338" data-name="Ellipse 338" cx="2.616" cy="2.552" rx="2.616" ry="2.552" transform="translate(387.013 271.32) rotate(-80.782)" fill="#fff"/>
      <circle id="Ellipse_339" data-name="Ellipse 339" cx="2.807" cy="2.807" r="2.807" transform="translate(386.89 285.797) rotate(-80.782)" fill="#fff"/>
      <path id="Path_2731" data-name="Path 2731" d="M606.869,455.735a2.935,2.935,0,0,1-5.869,0,2.927,2.927,0,0,1,2.935-2.935A2.969,2.969,0,0,1,606.869,455.735Z" transform="translate(-215.444 -157.99)" fill="#fff"/>
      <path id="Path_2732" data-name="Path 2732" d="M626.238,433.669a2.169,2.169,0,1,1-2.169-2.169A2.151,2.151,0,0,1,626.238,433.669Z" transform="translate(-223.011 -150.279)" fill="#fff"/>
      <path id="Path_2733" data-name="Path 2733" d="M622.038,453.069a2.169,2.169,0,1,1-2.169-2.169A2.151,2.151,0,0,1,622.038,453.069Z" transform="translate(-221.49 -157.302)" fill="#fff"/>
      <path id="Path_2734" data-name="Path 2734" d="M617.038,472.369a2.169,2.169,0,1,1-2.169-2.169A2.151,2.151,0,0,1,617.038,472.369Z" transform="translate(-219.68 -164.289)" fill="#fff"/>
      <path id="Path_2735" data-name="Path 2735" d="M611.33,491.533a2.287,2.287,0,0,1-2.3,2.3,2.265,2.265,0,0,1,0-4.53A2.274,2.274,0,0,1,611.33,491.533Z" transform="translate(-217.544 -171.204)" fill="#fff"/>
      <path id="Path_2736" data-name="Path 2736" d="M604.921,510.66a2.355,2.355,0,0,1-2.361,2.361,2.361,2.361,0,0,1,0-4.721A2.355,2.355,0,0,1,604.921,510.66Z" transform="translate(-215.155 -178.083)" fill="#fff"/>
      <path id="Path_2737" data-name="Path 2737" d="M596.776,529.288a2.488,2.488,0,1,1-2.488-2.488A2.533,2.533,0,0,1,596.776,529.288Z" transform="translate(-212.114 -184.78)" fill="#fff"/>
      <circle id="Ellipse_340" data-name="Ellipse 340" cx="2.488" cy="2.488" r="2.488" transform="translate(372.654 357.736) rotate(-80.782)" fill="#fff"/>
      <path id="Path_2738" data-name="Path 2738" d="M574.2,563.252a2.552,2.552,0,1,1-2.552-2.552A2.559,2.559,0,0,1,574.2,563.252Z" transform="translate(-203.896 -197.053)" fill="#fff"/>
      <path id="Path_2739" data-name="Path 2739" d="M561,578.852a2.552,2.552,0,1,1-2.552-2.552A2.559,2.559,0,0,1,561,578.852Z" transform="translate(-199.117 -202.701)" fill="#fff"/>
      <path id="Path_2740" data-name="Path 2740" d="M547.131,594.016a2.616,2.616,0,1,1-2.616-2.616A2.587,2.587,0,0,1,547.131,594.016Z" transform="translate(-194.048 -208.168)" fill="#fff"/>
      <path id="Path_2741" data-name="Path 2741" d="M532.659,608.68a2.68,2.68,0,1,1-2.68-2.68A2.7,2.7,0,0,1,532.659,608.68Z" transform="translate(-188.763 -213.453)" fill="#fff"/>
      <path id="Path_2742" data-name="Path 2742" d="M517.214,622.707a2.807,2.807,0,1,1-2.807-2.807A2.752,2.752,0,0,1,517.214,622.707Z" transform="translate(-183.079 -218.485)" fill="#fff"/>
      <circle id="Ellipse_341" data-name="Ellipse 341" cx="2.871" cy="2.871" r="2.871" transform="translate(317.931 409.581)" fill="#fff"/>
      <circle id="Ellipse_342" data-name="Ellipse 342" cx="2.998" cy="2.998" r="2.998" transform="translate(306.384 416.726)" fill="#fff"/>
      <circle id="Ellipse_343" data-name="Ellipse 343" cx="3.062" cy="3.062" r="3.062" transform="translate(294.39 423.106)" fill="#fff"/>
      <path id="Path_2743" data-name="Path 2743" d="M444.752,665.625a3.126,3.126,0,1,1-3.126-3.126A3.091,3.091,0,0,1,444.752,665.625Z" transform="translate(-156.614 -233.907)" fill="#fff"/>
      <path id="Path_2744" data-name="Path 2744" d="M424.544,672.854a3.255,3.255,0,0,1-3.19,3.254,3.31,3.31,0,0,1-3.254-3.254,3.267,3.267,0,0,1,3.254-3.254A3.213,3.213,0,0,1,424.544,672.854Z" transform="translate(-149.229 -236.478)" fill="#fff"/>
      <path id="Path_2745" data-name="Path 2745" d="M403.735,678.517a3.3,3.3,0,0,1-3.317,3.317,3.317,3.317,0,0,1,0-6.635A3.3,3.3,0,0,1,403.735,678.517Z" transform="translate(-141.626 -238.506)" fill="#fff"/>
      <path id="Path_2746" data-name="Path 2746" d="M382.462,682.481a3.381,3.381,0,1,1-3.381-3.381A3.446,3.446,0,0,1,382.462,682.481Z" transform="translate(-133.879 -239.918)" fill="#fff"/>
      <path id="Path_2747" data-name="Path 2747" d="M360.863,684.481a3.363,3.363,0,0,1-3.381,3.381,3.381,3.381,0,1,1,0-6.762A3.363,3.363,0,0,1,360.863,684.481Z" transform="translate(-126.059 -240.642)" fill="#fff"/>
      <circle id="Ellipse_344" data-name="Ellipse 344" cx="3.381" cy="3.381" r="3.381" transform="matrix(0.998, -0.055, 0.055, 0.998, 213.957, 440.407)" fill="#fff"/>
      <circle id="Ellipse_345" data-name="Ellipse 345" cx="3.381" cy="3.381" r="3.381" transform="translate(200.118 445.073) rotate(-85.935)" fill="#fff"/>
      <path id="Path_2748" data-name="Path 2748" d="M296.1,677.318a3.35,3.35,0,1,1-6.7,0A3.309,3.309,0,0,1,292.781,674,3.378,3.378,0,0,1,296.1,677.318Z" transform="translate(-102.636 -238.071)" fill="#fff"/>
      <path id="Path_2749" data-name="Path 2749" d="M275.135,671.917a3.317,3.317,0,1,1-3.317-3.318A3.295,3.295,0,0,1,275.135,671.917Z" transform="translate(-95.069 -236.116)" fill="#fff"/>
      <path id="Path_2750" data-name="Path 2750" d="M254.435,665.517a3.317,3.317,0,1,1-3.317-3.317A3.295,3.295,0,0,1,254.435,665.517Z" transform="translate(-87.575 -233.799)" fill="#fff"/>
      <circle id="Ellipse_346" data-name="Ellipse 346" cx="3.381" cy="3.381" r="3.381" transform="translate(147.21 423.488)" fill="#fff"/>
      <path id="Path_2751" data-name="Path 2751" d="M214.262,649.081a3.381,3.381,0,1,1-3.381-3.381A3.363,3.363,0,0,1,214.262,649.081Z" transform="translate(-72.985 -227.826)" fill="#fff"/>
      <circle id="Ellipse_347" data-name="Ellipse 347" cx="3.445" cy="3.445" r="3.445" transform="translate(122.138 411.303)" fill="#fff"/>
      <path id="Path_2752" data-name="Path 2752" d="M176.118,627.709a3.509,3.509,0,1,1-3.509-3.509A3.459,3.459,0,0,1,176.118,627.709Z" transform="translate(-59.083 -220.042)" fill="#fff"/>
      <path id="Path_2753" data-name="Path 2753" d="M157.945,615.373a3.573,3.573,0,1,1-3.573-3.573A3.567,3.567,0,0,1,157.945,615.373Z" transform="translate(-52.458 -215.553)" fill="#fff"/>
      <path id="Path_2754" data-name="Path 2754" d="M140.537,601.536a3.668,3.668,0,1,1-3.7-3.636A3.61,3.61,0,0,1,140.537,601.536Z" transform="translate(-46.086 -210.521)" fill="#fff"/>
      <path id="Path_2755" data-name="Path 2755" d="M125.1,585.6a3.7,3.7,0,1,1-3.7-3.7A3.663,3.663,0,0,1,125.1,585.6Z" transform="translate(-40.475 -204.728)" fill="#fff"/>
      <path id="Path_2756" data-name="Path 2756" d="M112.173,567.636a3.636,3.636,0,1,1-7.273,0A3.6,3.6,0,0,1,108.536,564,3.676,3.676,0,0,1,112.173,567.636Z" transform="translate(-35.841 -198.248)" fill="#fff"/>
      <circle id="Ellipse_348" data-name="Ellipse 348" cx="3.509" cy="3.509" r="3.509" transform="translate(62.488 353.439)" fill="#fff"/>
      <circle id="Ellipse_349" data-name="Ellipse 349" cx="3.381" cy="3.381" r="3.381" transform="translate(57.001 340.68)" fill="#fff"/>
      <circle id="Ellipse_350" data-name="Ellipse 350" cx="3.254" cy="3.254" r="3.254" transform="translate(52.217 327.857)" fill="#fff"/>
      <path id="Path_2757" data-name="Path 2757" d="M78.552,487.426a3.126,3.126,0,1,1-3.126-3.126A3.173,3.173,0,0,1,78.552,487.426Z" transform="translate(-24.039 -169.394)" fill="#fff"/>
      <path id="Path_2758" data-name="Path 2758" d="M73.325,466.662a3.1,3.1,0,0,1-3.062,3.062,3.063,3.063,0,0,1-3.062-3.062,3.023,3.023,0,0,1,3.062-3.062A3.063,3.063,0,0,1,73.325,466.662Z" transform="translate(-22.192 -161.9)" fill="#fff"/>
      <path id="Path_2759" data-name="Path 2759" d="M69.933,445.735a3,3,0,0,1-3,3,2.967,2.967,0,0,1,0-5.933A2.982,2.982,0,0,1,69.933,445.735Z" transform="translate(-21.034 -154.37)" fill="#fff"/>
      <circle id="Ellipse_351" data-name="Ellipse 351" cx="2.871" cy="2.871" r="2.871" transform="translate(41.945 275.097)" fill="#fff"/>
      <circle id="Ellipse_352" data-name="Ellipse 352" cx="2.807" cy="2.807" r="2.807" transform="translate(41.69 261.763)" fill="#fff"/>
      <circle id="Ellipse_353" data-name="Ellipse 353" cx="2.743" cy="2.743" r="2.743" transform="translate(40.832 251.311) rotate(-45)" fill="#fff"/>
      <path id="Path_2760" data-name="Path 2760" d="M68.987,362.243a2.743,2.743,0,1,1-2.743-2.743A2.806,2.806,0,0,1,68.987,362.243Z" transform="translate(-20.853 -124.213)" fill="#fff"/>
      <circle id="Ellipse_354" data-name="Ellipse 354" cx="2.743" cy="2.743" r="2.743" transform="translate(44.242 222.145)" fill="#fff"/>
      <path id="Path_2761" data-name="Path 2761" d="M75.759,321.479a2.679,2.679,0,1,1-2.679-2.68A2.7,2.7,0,0,1,75.759,321.479Z" transform="translate(-23.351 -109.478)" fill="#fff"/>
      <path id="Path_2762" data-name="Path 2762" d="M81.559,301.68A2.679,2.679,0,1,1,78.879,299,2.655,2.655,0,0,1,81.559,301.68Z" transform="translate(-25.451 -102.31)" fill="#fff"/>
      <path id="Path_2763" data-name="Path 2763" d="M88.631,282.314a2.616,2.616,0,1,1-2.616-2.616A2.587,2.587,0,0,1,88.631,282.314Z" transform="translate(-28.057 -95.321)" fill="#fff"/>
      <circle id="Ellipse_355" data-name="Ellipse 355" cx="2.616" cy="2.616" r="2.616" transform="translate(60.319 172.192)" fill="#fff"/>
      <circle id="Ellipse_356" data-name="Ellipse 356" cx="2.679" cy="2.679" r="2.679" transform="translate(65.55 160.007)" fill="#fff"/>
      <path id="Path_2764" data-name="Path 2764" d="M114.587,225.843a2.743,2.743,0,1,1-2.743-2.743A2.764,2.764,0,0,1,114.587,225.843Z" transform="translate(-37.362 -74.832)" fill="#fff"/>
      <path id="Path_2765" data-name="Path 2765" d="M126.387,208.643a2.743,2.743,0,1,1-2.743-2.743A2.764,2.764,0,0,1,126.387,208.643Z" transform="translate(-41.634 -68.605)" fill="#fff"/>
      <circle id="Ellipse_357" data-name="Ellipse 357" cx="2.743" cy="2.743" r="2.743" transform="translate(88.134 127.47)" fill="#fff"/>
      <path id="Path_2766" data-name="Path 2766" d="M155.931,179.716a2.616,2.616,0,1,1-2.616-2.616A2.587,2.587,0,0,1,155.931,179.716Z" transform="translate(-52.422 -58.178)" fill="#fff"/>
      <path id="Path_2767" data-name="Path 2767" d="M172.976,168.088a2.451,2.451,0,0,1-2.488,2.488,2.488,2.488,0,1,1,0-4.976A2.578,2.578,0,0,1,172.976,168.088Z" transform="translate(-58.685 -54.015)" fill="#fff"/>
      <path id="Path_2768" data-name="Path 2768" d="M191.293,158.9a2.3,2.3,0,1,1-2.3-2.3A2.328,2.328,0,0,1,191.293,158.9Z" transform="translate(-65.455 -50.757)" fill="#fff"/>
      <path id="Path_2769" data-name="Path 2769" d="M210.383,151.84a2.042,2.042,0,1,1-2.042-2.042A2.015,2.015,0,0,1,210.383,151.84Z" transform="translate(-72.551 -48.293)" fill="#fff"/>
      <path id="Path_2770" data-name="Path 2770" d="M229.5,146.05a1.85,1.85,0,1,1-1.85-1.85A1.939,1.939,0,0,1,229.5,146.05Z" transform="translate(-79.611 -46.267)" fill="#fff"/>
      <path id="Path_2771" data-name="Path 2771" d="M248.417,141.259a1.659,1.659,0,1,1-1.659-1.659A1.689,1.689,0,0,1,248.417,141.259Z" transform="translate(-86.598 -44.602)" fill="#fff"/>
      <path id="Path_2772" data-name="Path 2772" d="M267.062,136.831a1.531,1.531,0,1,1-1.531-1.531A1.552,1.552,0,0,1,267.062,136.831Z" transform="translate(-93.44 -43.045)" fill="#fff"/>
      <path id="Path_2773" data-name="Path 2773" d="M285.707,133.3a1.4,1.4,0,1,1-1.4-1.4A1.339,1.339,0,0,1,285.707,133.3Z" transform="translate(-100.282 -41.812)" fill="#fff"/>
      <path id="Path_2774" data-name="Path 2774" d="M304.279,130.64a1.34,1.34,0,1,1-1.34-1.34A1.348,1.348,0,0,1,304.279,130.64Z" transform="translate(-107.052 -40.873)" fill="#fff"/>
      <path id="Path_2775" data-name="Path 2775" d="M322.852,129.076a1.276,1.276,0,1,1-1.276-1.276A1.28,1.28,0,0,1,322.852,129.076Z" transform="translate(-113.822 -40.33)" fill="#fff"/>
      <path id="Path_2776" data-name="Path 2776" d="M341.324,128.912a1.212,1.212,0,1,1-1.212-1.212A1.254,1.254,0,0,1,341.324,128.912Z" transform="translate(-120.556 -40.294)" fill="#fff"/>
      <path id="Path_2777" data-name="Path 2777" d="M359.8,129.748a1.148,1.148,0,1,1-1.148-1.148A1.144,1.144,0,0,1,359.8,129.748Z" transform="translate(-127.29 -40.62)" fill="#fff"/>
      <path id="Path_2778" data-name="Path 2778" d="M378.1,131.048a1.148,1.148,0,1,1-1.148-1.148A1.144,1.144,0,0,1,378.1,131.048Z" transform="translate(-133.915 -41.09)" fill="#fff"/>
      <path id="Path_2779" data-name="Path 2779" d="M396.3,133.448a1.148,1.148,0,1,1-1.148-1.148A1.144,1.144,0,0,1,396.3,133.448Z" transform="translate(-140.504 -41.959)" fill="#fff"/>
      <path id="Path_2780" data-name="Path 2780" d="M414.3,136.948a1.148,1.148,0,1,1-1.148-1.148A1.144,1.144,0,0,1,414.3,136.948Z" transform="translate(-147.021 -43.226)" fill="#fff"/>
      <path id="Path_2781" data-name="Path 2781" d="M432.2,141.548a1.148,1.148,0,1,1-1.148-1.148A1.144,1.144,0,0,1,432.2,141.548Z" transform="translate(-153.501 -44.892)" fill="#fff"/>
      <path id="Path_2782" data-name="Path 2782" d="M449.924,146.812a1.212,1.212,0,1,1-1.212-1.212A1.211,1.211,0,0,1,449.924,146.812Z" transform="translate(-159.873 -46.774)" fill="#fff"/>
      <path id="Path_2783" data-name="Path 2783" d="M467.452,152.876a1.276,1.276,0,1,1-1.276-1.276A1.28,1.28,0,0,1,467.452,152.876Z" transform="translate(-166.172 -48.947)" fill="#fff"/>
      <path id="Path_2784" data-name="Path 2784" d="M484.679,160.237a1.348,1.348,0,0,1-1.34,1.34,1.34,1.34,0,1,1,0-2.679A1.272,1.272,0,0,1,484.679,160.237Z" transform="translate(-172.363 -51.587)" fill="#fff"/>
      <path id="Path_2785" data-name="Path 2785" d="M501.207,169.1a1.4,1.4,0,1,1-1.4-1.4A1.416,1.416,0,0,1,501.207,169.1Z" transform="translate(-178.3 -54.775)" fill="#fff"/>
      <path id="Path_2786" data-name="Path 2786" d="M516.635,179.9a1.469,1.469,0,1,1-1.467-1.4A1.392,1.392,0,0,1,516.635,179.9Z" transform="translate(-183.839 -58.685)" fill="#fff"/>
      <path id="Path_2787" data-name="Path 2787" d="M530.507,192.6a1.4,1.4,0,1,1-1.4-1.4A1.416,1.416,0,0,1,530.507,192.6Z" transform="translate(-188.907 -63.283)" fill="#fff"/>
      <path id="Path_2788" data-name="Path 2788" d="M542.779,206.74a1.348,1.348,0,0,1-1.34,1.34,1.34,1.34,0,1,1,1.34-1.34Z" transform="translate(-193.397 -68.424)" fill="#fff"/>
      <path id="Path_2789" data-name="Path 2789" d="M554.052,221.676a1.276,1.276,0,1,1-1.276-1.276A1.28,1.28,0,0,1,554.052,221.676Z" transform="translate(-197.524 -73.854)" fill="#fff"/>
      <circle id="Ellipse_358" data-name="Ellipse 358" cx="1.276" cy="1.276" r="1.276" transform="translate(360.93 156.115)" fill="#fff"/>
      <path id="Path_2790" data-name="Path 2790" d="M575.852,251.776a1.276,1.276,0,1,1-1.276-1.276A1.24,1.24,0,0,1,575.852,251.776Z" transform="translate(-205.416 -84.751)" fill="#fff"/>
      <path id="Path_2791" data-name="Path 2791" d="M586.507,267.1a1.4,1.4,0,1,1-1.4-1.4A1.416,1.416,0,0,1,586.507,267.1Z" transform="translate(-209.181 -90.254)" fill="#fff"/>
      <path id="Path_2792" data-name="Path 2792" d="M596.435,283.267a1.444,1.444,0,0,1-1.467,1.467,1.484,1.484,0,0,1-1.467-1.467,1.467,1.467,0,1,1,2.935,0Z" transform="translate(-212.729 -96.083)" fill="#fff"/>
      <path id="Path_2793" data-name="Path 2793" d="M605.59,300.095a1.595,1.595,0,1,1-1.595-1.595A1.62,1.62,0,0,1,605.59,300.095Z" transform="translate(-215.951 -102.129)" fill="#fff"/>
      <circle id="Ellipse_359" data-name="Ellipse 359" cx="1.786" cy="1.786" r="1.786" transform="translate(391.078 208.155) rotate(-22.5)" fill="#fff"/>
      <path id="Path_2794" data-name="Path 2794" d="M621.128,335.714a1.919,1.919,0,0,1-1.914,1.914,1.88,1.88,0,0,1-1.914-1.914,1.919,1.919,0,0,1,1.914-1.914A2.008,2.008,0,0,1,621.128,335.714Z" transform="translate(-221.345 -114.908)" fill="#fff"/>
      <path id="Path_2795" data-name="Path 2795" d="M626.183,354.741a2.015,2.015,0,0,1-2.042,2.041,2.042,2.042,0,0,1,0-4.083A2.1,2.1,0,0,1,626.183,354.741Z" transform="translate(-223.083 -121.751)" fill="#fff"/>
      <path id="Path_2796" data-name="Path 2796" d="M629.411,374.305a2.105,2.105,0,1,1-2.105-2.105A2.124,2.124,0,0,1,629.411,374.305Z" transform="translate(-224.205 -128.81)" fill="#fff"/>
      <circle id="Ellipse_360" data-name="Ellipse 360" cx="2.169" cy="2.169" r="2.169" transform="translate(401.177 259.927) rotate(-80.782)" fill="#fff"/>
      <path id="Path_2797" data-name="Path 2797" d="M629.138,413.969a2.169,2.169,0,1,1-2.169-2.169A2.151,2.151,0,0,1,629.138,413.969Z" transform="translate(-224.061 -143.147)" fill="#fff"/>
      <path id="Path_2798" data-name="Path 2798" d="M626.238,433.669a2.169,2.169,0,1,1-2.169-2.169A2.151,2.151,0,0,1,626.238,433.669Z" transform="translate(-223.011 -150.279)" fill="#fff"/>
      <path id="Path_2799" data-name="Path 2799" d="M622.038,453.069a2.169,2.169,0,1,1-2.169-2.169A2.151,2.151,0,0,1,622.038,453.069Z" transform="translate(-221.49 -157.302)" fill="#fff"/>
      <circle id="Ellipse_361" data-name="Ellipse 361" cx="4.019" cy="4.019" r="4.019" transform="translate(443.601 267.812) rotate(-67.5)" fill="#fff"/>
      <path id="Path_2800" data-name="Path 2800" d="M701.066,425.983a4.07,4.07,0,0,1-4.083,4.083,4.112,4.112,0,0,1-4.083-4.083,4.083,4.083,0,1,1,8.166,0Z" transform="translate(-248.715 -146.803)" fill="#fff"/>
      <path id="Path_2801" data-name="Path 2801" d="M698.366,446.983a4.083,4.083,0,1,1-4.083-4.083A4.07,4.07,0,0,1,698.366,446.983Z" transform="translate(-247.737 -154.406)" fill="#fff"/>
      <path id="Path_2802" data-name="Path 2802" d="M693.366,467.683a4.083,4.083,0,1,1-8.166,0,4.07,4.07,0,0,1,4.083-4.083A4.112,4.112,0,0,1,693.366,467.683Z" transform="translate(-245.927 -161.9)" fill="#fff"/>
      <circle id="Ellipse_362" data-name="Ellipse 362" cx="4.019" cy="4.019" r="4.019" transform="translate(434.289 315.215) rotate(-9.218)" fill="#fff"/>
      <circle id="Ellipse_363" data-name="Ellipse 363" cx="3.955" cy="3.955" r="3.955" transform="translate(429.32 326.836)" fill="#fff"/>
      <path id="Path_2803" data-name="Path 2803" d="M667.056,525.428a3.828,3.828,0,1,1-3.828-3.828A3.839,3.839,0,0,1,667.056,525.428Z" transform="translate(-236.587 -182.898)" fill="#fff"/>
      <path id="Path_2804" data-name="Path 2804" d="M655.3,542.9a3.7,3.7,0,1,1-3.7-3.7A3.7,3.7,0,0,1,655.3,542.9Z" transform="translate(-232.424 -189.27)" fill="#fff"/>
      <circle id="Ellipse_364" data-name="Ellipse 364" cx="3.573" cy="3.573" r="3.573" transform="translate(407.502 360.585)" fill="#fff"/>
      <path id="Path_2805" data-name="Path 2805" d="M629.09,575.145a3.445,3.445,0,1,1-3.445-3.445A3.431,3.431,0,0,1,629.09,575.145Z" transform="translate(-223.119 -201.036)" fill="#fff"/>
      <path id="Path_2806" data-name="Path 2806" d="M615.262,590.281a3.381,3.381,0,1,1-3.381-3.381A3.363,3.363,0,0,1,615.262,590.281Z" transform="translate(-218.16 -206.538)" fill="#fff"/>
      <path id="Path_2807" data-name="Path 2807" d="M600.835,604.617a3.317,3.317,0,1,1-3.317-3.318A3.295,3.295,0,0,1,600.835,604.617Z" transform="translate(-212.983 -211.752)" fill="#fff"/>
      <path id="Path_2808" data-name="Path 2808" d="M585.907,618.154a3.254,3.254,0,1,1-3.254-3.254A3.267,3.267,0,0,1,585.907,618.154Z" transform="translate(-207.624 -216.675)" fill="#fff"/>
      <path id="Path_2809" data-name="Path 2809" d="M570.38,630.89a3.19,3.19,0,1,1-3.19-3.19A3.241,3.241,0,0,1,570.38,630.89Z" transform="translate(-202.049 -221.309)" fill="#fff"/>
      <path id="Path_2810" data-name="Path 2810" d="M554.152,642.626a3.126,3.126,0,1,1-3.126-3.126A3.131,3.131,0,0,1,554.152,642.626Z" transform="translate(-196.22 -225.581)" fill="#fff"/>
      <path id="Path_2811" data-name="Path 2811" d="M537.452,653.626a3.126,3.126,0,1,1-3.126-3.126A3.131,3.131,0,0,1,537.452,653.626Z" transform="translate(-190.175 -229.564)" fill="#fff"/>
      <path id="Path_2812" data-name="Path 2812" d="M520.125,663.462a3.062,3.062,0,0,1-6.125,0,3.1,3.1,0,0,1,3.062-3.062A3.023,3.023,0,0,1,520.125,663.462Z" transform="translate(-183.948 -233.148)" fill="#fff"/>
      <circle id="Ellipse_365" data-name="Ellipse 365" cx="2.998" cy="2.998" r="2.998" transform="translate(318.76 432.803)" fill="#fff"/>
      <circle id="Ellipse_366" data-name="Ellipse 366" cx="2.998" cy="2.998" r="2.998" transform="translate(306.935 443.38) rotate(-88.093)" fill="#fff"/>
      <path id="Path_2813" data-name="Path 2813" d="M465.105,685.335a2.9,2.9,0,0,1-5.805,0,2.9,2.9,0,1,1,5.805,0Z" transform="translate(-164.145 -241.112)" fill="#fff"/>
      <path id="Path_2814" data-name="Path 2814" d="M446.014,689.807a2.791,2.791,0,0,1-2.807,2.807,2.807,2.807,0,1,1,0-5.614A2.791,2.791,0,0,1,446.014,689.807Z" transform="translate(-157.302 -242.778)" fill="#fff"/>
      <circle id="Ellipse_367" data-name="Ellipse 367" cx="2.743" cy="2.743" r="2.743" transform="translate(270.849 446.391)" fill="#fff"/>
      <path id="Path_2815" data-name="Path 2815" d="M407.359,694.979a2.679,2.679,0,1,1-2.68-2.68A2.7,2.7,0,0,1,407.359,694.979Z" transform="translate(-143.4 -244.696)" fill="#fff"/>
      <path id="Path_2816" data-name="Path 2816" d="M388.031,695.816a2.616,2.616,0,0,1-5.231,0,2.616,2.616,0,0,1,5.231,0Z" transform="translate(-136.449 -245.022)" fill="#fff"/>
      <path id="Path_2817" data-name="Path 2817" d="M368.776,695.387a2.488,2.488,0,1,1-2.488-2.488A2.414,2.414,0,0,1,368.776,695.387Z" transform="translate(-129.571 -244.912)" fill="#fff"/>
      <path id="Path_2818" data-name="Path 2818" d="M349.749,693.624a2.424,2.424,0,1,1-2.424-2.424A2.423,2.423,0,0,1,349.749,693.624Z" transform="translate(-122.728 -244.298)" fill="#fff"/>
      <path id="Path_2819" data-name="Path 2819" d="M330.921,690.76a2.361,2.361,0,1,1-4.721,0,2.316,2.316,0,0,1,2.361-2.36A2.4,2.4,0,0,1,330.921,690.76Z" transform="translate(-115.958 -243.284)" fill="#fff"/>
      <path id="Path_2820" data-name="Path 2820" d="M312.393,687.6a2.3,2.3,0,1,1-2.3-2.3A2.372,2.372,0,0,1,312.393,687.6Z" transform="translate(-109.297 -242.162)" fill="#fff"/>
      <path id="Path_2821" data-name="Path 2821" d="M293.993,684.2a2.3,2.3,0,1,1-2.3-2.3A2.287,2.287,0,0,1,293.993,684.2Z" transform="translate(-102.636 -240.931)" fill="#fff"/>
      <circle id="Ellipse_368" data-name="Ellipse 368" cx="2.297" cy="2.297" r="2.297" transform="translate(175.026 438.736)" fill="#fff"/>
      <path id="Path_2822" data-name="Path 2822" d="M257.321,676.46a2.361,2.361,0,1,1-2.361-2.361A2.4,2.4,0,0,1,257.321,676.46Z" transform="translate(-89.313 -238.107)" fill="#fff"/>
      <path id="Path_2823" data-name="Path 2823" d="M239.149,671.324a2.424,2.424,0,1,1-2.424-2.424A2.465,2.465,0,0,1,239.149,671.324Z" transform="translate(-82.688 -236.225)" fill="#fff"/>
      <path id="Path_2824" data-name="Path 2824" d="M221.176,665.088a2.488,2.488,0,1,1-2.488-2.488A2.491,2.491,0,0,1,221.176,665.088Z" transform="translate(-76.135 -233.944)" fill="#fff"/>
      <path id="Path_2825" data-name="Path 2825" d="M203.4,657.85a2.552,2.552,0,1,1-2.552-2.552A2.481,2.481,0,0,1,203.4,657.85Z" transform="translate(-69.655 -231.3)" fill="#fff"/>
      <circle id="Ellipse_369" data-name="Ellipse 369" cx="2.679" cy="2.679" r="2.679" transform="matrix(0.995, -0.099, 0.099, 0.995, 117.162, 418.837)" fill="#fff"/>
      <circle id="Ellipse_370" data-name="Ellipse 370" cx="2.743" cy="2.743" r="2.743" transform="translate(106.38 412.77)" fill="#fff"/>
      <path id="Path_2826" data-name="Path 2826" d="M151.942,630.471a2.871,2.871,0,1,1-2.871-2.871A2.859,2.859,0,0,1,151.942,630.471Z" transform="translate(-50.793 -221.273)" fill="#fff"/>
      <path id="Path_2827" data-name="Path 2827" d="M135.769,619.235a2.982,2.982,0,0,1-2.935,3,2.967,2.967,0,1,1,2.935-3Z" transform="translate(-44.892 -217.182)" fill="#fff"/>
      <path id="Path_2828" data-name="Path 2828" d="M119.925,607.162a3.062,3.062,0,1,1-3.062-3.062A3.063,3.063,0,0,1,119.925,607.162Z" transform="translate(-39.063 -212.765)" fill="#fff"/>
      <circle id="Ellipse_371" data-name="Ellipse 371" cx="3.19" cy="3.19" r="3.19" transform="translate(65.167 382.658)" fill="#fff"/>
      <circle id="Ellipse_372" data-name="Ellipse 372" cx="3.254" cy="3.254" r="3.254" transform="translate(55.981 373.471)" fill="#fff"/>
      <path id="Path_2829" data-name="Path 2829" d="M77.662,563.981a3.381,3.381,0,1,1-3.381-3.381A3.4,3.4,0,0,1,77.662,563.981Z" transform="translate(-23.532 -197.017)" fill="#fff"/>
      <circle id="Ellipse_373" data-name="Ellipse 373" cx="3.445" cy="3.445" r="3.445" transform="translate(38.897 353.784) rotate(-9.218)" fill="#fff"/>
      <path id="Path_2830" data-name="Path 2830" d="M54.418,530.409a3.5,3.5,0,0,1-3.509,3.509,3.509,3.509,0,0,1,0-7.018A3.5,3.5,0,0,1,54.418,530.409Z" transform="translate(-15.024 -184.817)" fill="#fff"/>
      <path id="Path_2831" data-name="Path 2831" d="M44.409,512.236a3.635,3.635,0,0,1-3.636,3.636,3.581,3.581,0,0,1-3.573-3.636,3.622,3.622,0,0,1,3.573-3.636A3.676,3.676,0,0,1,44.409,512.236Z" transform="translate(-11.332 -178.191)" fill="#fff"/>
      <circle id="Ellipse_374" data-name="Ellipse 374" cx="3.7" cy="3.7" r="3.7" transform="translate(20.191 318.415)" fill="#fff"/>
      <path id="Path_2832" data-name="Path 2832" d="M27.828,474.264a3.764,3.764,0,1,1-3.764-3.764A3.731,3.731,0,0,1,27.828,474.264Z" transform="translate(-5.213 -164.398)" fill="#fff"/>
      <circle id="Ellipse_375" data-name="Ellipse 375" cx="3.828" cy="3.828" r="3.828" transform="translate(9.408 297.152) rotate(-45)" fill="#fff"/>
      <path id="Path_2833" data-name="Path 2833" d="M17.056,433.928a3.828,3.828,0,1,1-3.828-3.828A3.839,3.839,0,0,1,17.056,433.928Z" transform="translate(-1.267 -149.772)" fill="#fff"/>
      <path id="Path_2834" data-name="Path 2834" d="M14.456,413.128a3.894,3.894,0,0,1-3.828,3.892,3.86,3.86,0,1,1,3.828-3.892Z" transform="translate(-0.326 -142.242)" fill="#fff"/>
      <path id="Path_2835" data-name="Path 2835" d="M13.556,392.328A3.828,3.828,0,1,1,9.728,388.5,3.8,3.8,0,0,1,13.556,392.328Z" transform="translate(0 -134.712)" fill="#fff"/>
      <path id="Path_2836" data-name="Path 2836" d="M13.756,371.428A3.828,3.828,0,1,1,9.928,367.6,3.8,3.8,0,0,1,13.756,371.428Z" transform="translate(-0.072 -127.145)" fill="#fff"/>
      <path id="Path_2837" data-name="Path 2837" d="M15.056,350.528a3.828,3.828,0,1,1-3.828-3.828A3.839,3.839,0,0,1,15.056,350.528Z" transform="translate(-0.543 -119.579)" fill="#fff"/>
      <path id="Path_2838" data-name="Path 2838" d="M17.119,329.728a3.839,3.839,0,0,1-3.828,3.828A3.894,3.894,0,0,1,9.4,329.728a3.853,3.853,0,0,1,3.892-3.828A3.8,3.8,0,0,1,17.119,329.728Z" transform="translate(-1.267 -112.048)" fill="#fff"/>
      <path id="Path_2839" data-name="Path 2839" d="M19.783,308.892a3.907,3.907,0,0,1-3.892,3.892A3.867,3.867,0,0,1,12,308.892,3.907,3.907,0,0,1,15.892,305,3.867,3.867,0,0,1,19.783,308.892Z" transform="translate(-2.208 -104.482)" fill="#fff"/>
      <path id="Path_2840" data-name="Path 2840" d="M23.811,288.155a3.955,3.955,0,1,1-3.955-3.955A3.975,3.975,0,0,1,23.811,288.155Z" transform="translate(-3.62 -96.952)" fill="#fff"/>
      <path id="Path_2841" data-name="Path 2841" d="M29.138,267.719a4.019,4.019,0,1,1-4.019-4.019A4,4,0,0,1,29.138,267.719Z" transform="translate(-5.503 -89.53)" fill="#fff"/>
      <path id="Path_2842" data-name="Path 2842" d="M36.338,247.719a4.019,4.019,0,1,1-4.019-4.019A4.043,4.043,0,0,1,36.338,247.719Z" transform="translate(-8.109 -82.29)" fill="#fff"/>
      <path id="Path_2843" data-name="Path 2843" d="M44.766,228.319a4.084,4.084,0,1,1-4.083-4.019A4.017,4.017,0,0,1,44.766,228.319Z" transform="translate(-11.114 -75.266)" fill="#fff"/>
      <path id="Path_2844" data-name="Path 2844" d="M54.466,209.483a4.083,4.083,0,1,1-4.083-4.083A4.031,4.031,0,0,1,54.466,209.483Z" transform="translate(-14.626 -68.424)" fill="#fff"/>
      <path id="Path_2845" data-name="Path 2845" d="M65.366,191.283a4.083,4.083,0,1,1-4.083-4.083A4.031,4.031,0,0,1,65.366,191.283Z" transform="translate(-18.572 -61.835)" fill="#fff"/>
      <path id="Path_2846" data-name="Path 2846" d="M77.266,173.583a4.112,4.112,0,0,1-4.083,4.083,4.07,4.07,0,0,1-4.083-4.083,4.083,4.083,0,1,1,8.166,0Z" transform="translate(-22.88 -55.427)" fill="#fff"/>
      <path id="Path_2847" data-name="Path 2847" d="M89.994,156.547a4.147,4.147,0,1,1-4.147-4.147A4.139,4.139,0,0,1,89.994,156.547Z" transform="translate(-27.442 -49.236)" fill="#fff"/>
      <path id="Path_2848" data-name="Path 2848" d="M103.694,140.047a4.147,4.147,0,1,1-4.147-4.147A4.139,4.139,0,0,1,103.694,140.047Z" transform="translate(-32.402 -43.263)" fill="#fff"/>
      <path id="Path_2849" data-name="Path 2849" d="M117.821,123.874a4.211,4.211,0,0,1-8.421,0,4.211,4.211,0,1,1,8.421,0Z" transform="translate(-37.47 -37.362)" fill="#fff"/>
      <circle id="Ellipse_376" data-name="Ellipse 376" cx="4.338" cy="4.338" r="4.338" transform="translate(80.617 79.971) rotate(-80.782)" fill="#fff"/>
      <path id="Path_2850" data-name="Path 2850" d="M148.432,92.866a4.466,4.466,0,1,1-4.466-4.466A4.479,4.479,0,0,1,148.432,92.866Z" transform="translate(-48.367 -26.066)" fill="#fff"/>
      <circle id="Ellipse_377" data-name="Ellipse 377" cx="4.53" cy="4.53" r="4.53" transform="translate(100.537 60.45) rotate(-67.5)" fill="#fff"/>
      <circle id="Ellipse_378" data-name="Ellipse 378" cx="4.593" cy="4.593" r="4.593" transform="translate(113.525 45.683)" fill="#fff"/>
      <path id="Path_2851" data-name="Path 2851" d="M203.187,56.593A4.593,4.593,0,1,1,198.593,52,4.574,4.574,0,0,1,203.187,56.593Z" transform="translate(-68.098 -12.888)" fill="#fff"/>
      <circle id="Ellipse_379" data-name="Ellipse 379" cx="4.593" cy="4.593" r="4.593" transform="translate(136.809 38.103) rotate(-45)" fill="#fff"/>
      <path id="Path_2852" data-name="Path 2852" d="M243.987,40.293a4.593,4.593,0,1,1-4.593-4.593A4.574,4.574,0,0,1,243.987,40.293Z" transform="translate(-82.869 -6.987)" fill="#fff"/>
      <path id="Path_2853" data-name="Path 2853" d="M264.951,33.693a4.625,4.625,0,1,1-4.593-4.593A4.615,4.615,0,0,1,264.951,33.693Z" transform="translate(-90.435 -4.598)" fill="#fff"/>
      <circle id="Ellipse_380" data-name="Ellipse 380" cx="4.657" cy="4.657" r="4.657" transform="translate(176.882 25.659) rotate(-45)" fill="#fff"/>
      <path id="Path_2854" data-name="Path 2854" d="M307.914,24.157a4.657,4.657,0,1,1-4.657-4.657A4.683,4.683,0,0,1,307.914,24.157Z" transform="translate(-105.966 -1.122)" fill="#fff"/>
      <path id="Path_2855" data-name="Path 2855" d="M329.814,21.757a4.657,4.657,0,1,1-4.657-4.657A4.683,4.683,0,0,1,329.814,21.757Z" transform="translate(-113.895 -0.253)" fill="#fff"/>
      <path id="Path_2856" data-name="Path 2856" d="M351.814,21.057a4.657,4.657,0,1,1-4.657-4.657A4.6,4.6,0,0,1,351.814,21.057Z" transform="translate(-121.859 0)" fill="#fff"/>
      <path id="Path_2857" data-name="Path 2857" d="M373.814,21.957a4.657,4.657,0,1,1-4.657-4.657A4.683,4.683,0,0,1,373.814,21.957Z" transform="translate(-129.824 -0.326)" fill="#fff"/>
      <circle id="Ellipse_381" data-name="Ellipse 381" cx="4.593" cy="4.593" r="4.593" transform="translate(247.794 26.599) rotate(-76.714)" fill="#fff"/>
      <circle id="Ellipse_382" data-name="Ellipse 382" cx="4.593" cy="4.593" r="4.593" transform="translate(261.143 22.964) rotate(-22.5)" fill="#fff"/>
      <path id="Path_2858" data-name="Path 2858" d="M438.787,32.693a4.593,4.593,0,1,1-4.593-4.593A4.574,4.574,0,0,1,438.787,32.693Z" transform="translate(-153.392 -4.236)" fill="#fff"/>
      <path id="Path_2859" data-name="Path 2859" d="M459.987,38.293a4.593,4.593,0,1,1-4.593-4.593A4.574,4.574,0,0,1,459.987,38.293Z" transform="translate(-161.067 -6.263)" fill="#fff"/>
      <path id="Path_2860" data-name="Path 2860" d="M480.787,45.093a4.593,4.593,0,1,1-4.593-4.593A4.657,4.657,0,0,1,480.787,45.093Z" transform="translate(-168.598 -8.725)" fill="#fff"/>
      <path id="Path_2861" data-name="Path 2861" d="M501.087,53.493a4.593,4.593,0,1,1-4.593-4.593A4.574,4.574,0,0,1,501.087,53.493Z" transform="translate(-175.947 -11.766)" fill="#fff"/>
      <path id="Path_2862" data-name="Path 2862" d="M520.659,63.429a4.53,4.53,0,1,1-4.53-4.53A4.467,4.467,0,0,1,520.659,63.429Z" transform="translate(-183.079 -15.385)" fill="#fff"/>
      <path id="Path_2863" data-name="Path 2863" d="M539.2,74.93A4.479,4.479,0,0,1,534.73,79.4,4.5,4.5,0,1,1,539.2,74.93Z" transform="translate(-189.813 -19.55)" fill="#fff"/>
      <circle id="Ellipse_383" data-name="Ellipse 383" cx="4.466" cy="4.466" r="4.466" transform="translate(351.616 59.144)" fill="#fff"/>
      <path id="Path_2864" data-name="Path 2864" d="M573.176,102.238a4.338,4.338,0,1,1-4.338-4.338A4.3,4.3,0,0,1,573.176,102.238Z" transform="translate(-202.23 -29.505)" fill="#fff"/>
      <path id="Path_2865" data-name="Path 2865" d="M588.149,117.874a4.274,4.274,0,1,1-4.274-4.274A4.275,4.275,0,0,1,588.149,117.874Z" transform="translate(-207.697 -35.189)" fill="#fff"/>
      <path id="Path_2866" data-name="Path 2866" d="M602.094,134.247a4.147,4.147,0,1,1-4.147-4.147A4.139,4.139,0,0,1,602.094,134.247Z" transform="translate(-212.838 -41.163)" fill="#fff"/>
      <path id="Path_2867" data-name="Path 2867" d="M614.839,151.519a4.019,4.019,0,1,1-4.019-4.019A4,4,0,0,1,614.839,151.519Z" transform="translate(-217.544 -47.462)" fill="#fff"/>
      <circle id="Ellipse_384" data-name="Ellipse 384" cx="3.892" cy="3.892" r="3.892" transform="translate(396.592 111.649)" fill="#fff"/>
      <circle id="Ellipse_385" data-name="Ellipse 385" cx="3.764" cy="3.764" r="3.764" transform="translate(401.53 127.407) rotate(-45)" fill="#fff"/>
      <path id="Path_2868" data-name="Path 2868" d="M644.773,207.336a3.635,3.635,0,0,1-3.636,3.636,3.676,3.676,0,0,1-3.636-3.636,3.635,3.635,0,0,1,3.636-3.636A3.6,3.6,0,0,1,644.773,207.336Z" transform="translate(-228.658 -67.808)" fill="#fff"/>
      <path id="Path_2869" data-name="Path 2869" d="M652.881,226.409a3.541,3.541,0,1,1-3.573-3.509A3.554,3.554,0,0,1,652.881,226.409Z" transform="translate(-231.663 -74.759)" fill="#fff"/>
      <path id="Path_2870" data-name="Path 2870" d="M660.518,245.409a3.5,3.5,0,0,1-3.509,3.509,3.509,3.509,0,0,1,0-7.018A3.5,3.5,0,0,1,660.518,245.409Z" transform="translate(-234.451 -81.638)" fill="#fff"/>
      <circle id="Ellipse_386" data-name="Ellipse 386" cx="3.445" cy="3.445" r="3.445" transform="translate(423.586 172.91) rotate(-9.218)" fill="#fff"/>
      <circle id="Ellipse_387" data-name="Ellipse 387" cx="3.509" cy="3.509" r="3.509" transform="translate(429.001 184.377)" fill="#fff"/>
      <circle id="Ellipse_388" data-name="Ellipse 388" cx="3.636" cy="3.636" r="3.636" transform="translate(433.531 196.499)" fill="#fff"/>
      <path id="Path_2871" data-name="Path 2871" d="M689.9,322.1a3.7,3.7,0,1,1-3.7-3.7A3.624,3.624,0,0,1,689.9,322.1Z" transform="translate(-244.95 -109.332)" fill="#fff"/>
      <path id="Path_2872" data-name="Path 2872" d="M694.992,342.264a3.8,3.8,0,1,1-3.828-3.764A3.745,3.745,0,0,1,694.992,342.264Z" transform="translate(-246.724 -116.61)" fill="#fff"/>
      <path id="Path_2873" data-name="Path 2873" d="M698.683,362.792a3.892,3.892,0,1,1-7.783,0,3.892,3.892,0,1,1,7.783,0Z" transform="translate(-247.991 -123.995)" fill="#fff"/>
      <path id="Path_2874" data-name="Path 2874" d="M701.011,383.755a3.955,3.955,0,1,1-3.956-3.955A3.975,3.975,0,0,1,701.011,383.755Z" transform="translate(-248.787 -131.562)" fill="#fff"/>
      <circle id="Ellipse_389" data-name="Ellipse 389" cx="4.019" cy="4.019" r="4.019" transform="translate(443.601 267.812) rotate(-67.5)" fill="#fff"/>
      <path id="Path_2875" data-name="Path 2875" d="M701.066,425.983a4.07,4.07,0,0,1-4.083,4.083,4.112,4.112,0,0,1-4.083-4.083,4.083,4.083,0,1,1,8.166,0Z" transform="translate(-248.715 -146.803)" fill="#fff"/>
    </g>
  </g>
</svg>
