<svg xmlns="http://www.w3.org/2000/svg" width="405.563" height="395.433" viewBox="0 0 405.563 395.433">
  <g id="Hero_pattern" data-name="Hero pattern" transform="translate(0 0)">
    <path id="Path_4385" data-name="Path 4385" d="M91.894,104.622a2.655,2.655,0,1,1-2.655-2.655A2.613,2.613,0,0,1,91.894,104.622Z" transform="translate(102.359 115.088)" fill="#fff"/>
    <circle id="Ellipse_1018" data-name="Ellipse 1018" cx="3.983" cy="3.983" r="3.983" transform="translate(183.6 215.16) rotate(-80.782)" fill="#fff"/>
    <path id="Path_4386" data-name="Path 4386" d="M94.463,98.267a4.33,4.33,0,1,1-4.33-4.33A4.324,4.324,0,0,1,94.463,98.267Z" transform="translate(101.406 105.28)" fill="#fff"/>
    <path id="Path_4387" data-name="Path 4387" d="M98.063,96.442a4.272,4.272,0,1,1-4.272-4.272A4.262,4.262,0,0,1,98.063,96.442Z" transform="translate(105.945 103.122)" fill="#fff"/>
    <path id="Path_4388" data-name="Path 4388" d="M101.4,97.369a3.925,3.925,0,1,1-3.925-3.925A3.929,3.929,0,0,1,101.4,97.369Z" transform="translate(110.865 104.677)" fill="#fff"/>
    <path id="Path_4389" data-name="Path 4389" d="M103.622,100.559a3.868,3.868,0,1,1-3.868-3.868A3.868,3.868,0,0,1,103.622,100.559Z" transform="translate(113.722 108.645)" fill="#fff"/>
    <circle id="Ellipse_1019" data-name="Ellipse 1019" cx="3.06" cy="3.06" r="3.06" transform="translate(208.701 215.163) rotate(-9.218)" fill="#fff"/>
    <circle id="Ellipse_1020" data-name="Ellipse 1020" cx="2.886" cy="2.886" r="2.886" transform="translate(203.071 221.134) rotate(-9.218)" fill="#fff"/>
    <path id="Path_4390" data-name="Path 4390" d="M94,106.04a2.02,2.02,0,1,1-2.02-2.02A2.008,2.008,0,0,1,94,106.04Z" transform="translate(106.485 117.596)" fill="#fff"/>
    <path id="Path_4391" data-name="Path 4391" d="M91.894,104.622a2.655,2.655,0,1,1-2.655-2.655A2.613,2.613,0,0,1,91.894,104.622Z" transform="translate(102.359 115.088)" fill="#fff"/>
    <circle id="Ellipse_1021" data-name="Ellipse 1021" cx="3.983" cy="3.983" r="3.983" transform="translate(183.6 215.16) rotate(-80.782)" fill="#fff"/>
    <path id="Path_4392" data-name="Path 4392" d="M101.485,115.55a3.579,3.579,0,1,1-3.579-3.579A3.6,3.6,0,0,1,101.485,115.55Z" transform="translate(111.818 127.309)" fill="#fff"/>
    <circle id="Ellipse_1022" data-name="Ellipse 1022" cx="3.579" cy="3.579" r="3.579" transform="translate(191.718 246.548) rotate(-80.782)" fill="#fff"/>
    <path id="Path_4393" data-name="Path 4393" d="M89.555,113.613a3.695,3.695,0,1,1-3.695-3.695A3.72,3.72,0,0,1,89.555,113.613Z" transform="translate(96.962 124.802)" fill="#fff"/>
    <circle id="Ellipse_1023" data-name="Ellipse 1023" cx="3.983" cy="3.983" r="3.983" transform="translate(168.534 231.851) rotate(-84.345)" fill="#fff"/>
    <circle id="Ellipse_1024" data-name="Ellipse 1024" cx="4.214" cy="4.214" r="4.214" transform="translate(163.843 218.303) rotate(-84.345)" fill="#fff"/>
    <path id="Path_4394" data-name="Path 4394" d="M85.356,96.754a4.791,4.791,0,1,1-4.791-4.791A4.78,4.78,0,0,1,85.356,96.754Z" transform="translate(89.154 102.868)" fill="#fff"/>
    <path id="Path_4395" data-name="Path 4395" d="M89.71,91.135a5.253,5.253,0,1,1-5.253-5.253A5.2,5.2,0,0,1,89.71,91.135Z" transform="translate(93.344 95.44)" fill="#fff"/>
    <path id="Path_4396" data-name="Path 4396" d="M94.57,88.147a4.214,4.214,0,1,1-4.214-4.214A4.2,4.2,0,0,1,94.57,88.147Z" transform="translate(101.819 93.059)" fill="#fff"/>
    <path id="Path_4397" data-name="Path 4397" d="M100,88.162a3.579,3.579,0,1,1-3.579-3.579A3.56,3.56,0,0,1,100,88.162Z" transform="translate(110.008 93.853)" fill="#fff"/>
    <path id="Path_4398" data-name="Path 4398" d="M103.706,90.818a2.6,2.6,0,1,1-2.6-2.6A2.587,2.587,0,0,1,103.706,90.818Z" transform="translate(116.928 98.297)" fill="#fff"/>
    <circle id="Ellipse_1025" data-name="Ellipse 1025" cx="2.655" cy="2.655" r="2.655" transform="translate(224.04 196.1)" fill="#fff"/>
    <circle id="Ellipse_1026" data-name="Ellipse 1026" cx="2.713" cy="2.713" r="2.713" transform="translate(227.677 208.511)" fill="#fff"/>
    <circle id="Ellipse_1027" data-name="Ellipse 1027" cx="2.829" cy="2.829" r="2.829" transform="translate(225.599 221.327)" fill="#fff"/>
    <circle id="Ellipse_1028" data-name="Ellipse 1028" cx="3.695" cy="3.695" r="3.695" transform="translate(217.837 239.363) rotate(-80.782)" fill="#fff"/>
    <path id="Path_4399" data-name="Path 4399" d="M101.485,115.55a3.579,3.579,0,1,1-3.579-3.579A3.6,3.6,0,0,1,101.485,115.55Z" transform="translate(111.818 127.309)" fill="#fff"/>
    <path id="Path_4400" data-name="Path 4400" d="M113.76,113.281a2.713,2.713,0,1,1-2.713-2.713A2.71,2.71,0,0,1,113.76,113.281Z" transform="translate(128.927 125.595)" fill="#fff"/>
    <circle id="Ellipse_1029" data-name="Ellipse 1029" cx="2.425" cy="2.425" r="2.425" transform="translate(226.927 246.381)" fill="#fff"/>
    <path id="Path_4401" data-name="Path 4401" d="M102.546,120.355a2.251,2.251,0,1,1-4.5,0,2.292,2.292,0,0,1,2.251-2.251A2.254,2.254,0,0,1,102.546,120.355Z" transform="translate(116.357 134.8)" fill="#fff"/>
    <path id="Path_4402" data-name="Path 4402" d="M96.462,121.8a2.367,2.367,0,1,1-2.367-2.367A2.341,2.341,0,0,1,96.462,121.8Z" transform="translate(108.643 136.419)" fill="#fff"/>
    <path id="Path_4403" data-name="Path 4403" d="M90.566,121.862a2.771,2.771,0,1,1-2.771-2.771A2.772,2.772,0,0,1,90.566,121.862Z" transform="translate(100.454 136.006)" fill="#fff"/>
    <path id="Path_4404" data-name="Path 4404" d="M84.713,119.572a3,3,0,1,1-3-3A3.018,3.018,0,0,1,84.713,119.572Z" transform="translate(92.741 132.927)" fill="#fff"/>
    <path id="Path_4405" data-name="Path 4405" d="M79.952,116.165a3.752,3.752,0,1,1-3.752-3.752A3.745,3.745,0,0,1,79.952,116.165Z" transform="translate(85.091 127.849)" fill="#fff"/>
    <circle id="Ellipse_1030" data-name="Ellipse 1030" cx="4.33" cy="4.33" r="4.33" transform="translate(147.32 226.522)" fill="#fff"/>
    <circle id="Ellipse_1031" data-name="Ellipse 1031" cx="4.849" cy="4.849" r="4.849" transform="translate(141.012 210.736) rotate(-9.218)" fill="#fff"/>
    <path id="Path_4406" data-name="Path 4406" d="M75.92,96.011a5.426,5.426,0,1,1-5.426-5.426A5.42,5.42,0,0,1,75.92,96.011Z" transform="translate(76.076 101.185)" fill="#fff"/>
    <circle id="Ellipse_1032" data-name="Ellipse 1032" cx="5.542" cy="5.542" r="5.542" transform="translate(147.429 176.339) rotate(-9.218)" fill="#fff"/>
    <path id="Path_4407" data-name="Path 4407" d="M84.643,83.059a5.254,5.254,0,1,1-5.253-5.311A5.272,5.272,0,0,1,84.643,83.059Z" transform="translate(87.154 85.505)" fill="#fff"/>
    <path id="Path_4408" data-name="Path 4408" d="M91.263,79.491A4.965,4.965,0,1,1,86.3,74.526,4.964,4.964,0,0,1,91.263,79.491Z" transform="translate(95.947 81.569)" fill="#fff"/>
    <circle id="Ellipse_1033" data-name="Ellipse 1033" cx="4.214" cy="4.214" r="4.214" transform="translate(195.061 156.441)" fill="#fff"/>
    <path id="Path_4409" data-name="Path 4409" d="M103.567,80.51a3.464,3.464,0,1,1-3.464-3.464A3.437,3.437,0,0,1,103.567,80.51Z" transform="translate(114.643 84.648)" fill="#fff"/>
    <circle id="Ellipse_1034" data-name="Ellipse 1034" cx="3.117" cy="3.117" r="3.117" transform="translate(224.585 175.605) rotate(-84.345)" fill="#fff"/>
    <path id="Path_4410" data-name="Path 4410" d="M112.18,88.65a2.482,2.482,0,1,1-2.482-2.482A2.5,2.5,0,0,1,112.18,88.65Z" transform="translate(127.562 95.789)" fill="#fff"/>
    <path id="Path_4411" data-name="Path 4411" d="M114.409,94.312a2.194,2.194,0,1,1-2.194-2.194A2.27,2.27,0,0,1,114.409,94.312Z" transform="translate(130.99 103.058)" fill="#fff"/>
    <path id="Path_4412" data-name="Path 4412" d="M116.352,100.623a2.425,2.425,0,1,1-2.425-2.425A2.478,2.478,0,0,1,116.352,100.623Z" transform="translate(132.799 110.486)" fill="#fff"/>
    <circle id="Ellipse_1035" data-name="Ellipse 1035" cx="2.655" cy="2.655" r="2.655" transform="translate(243.321 222.885)" fill="#fff"/>
    <path id="Path_4413" data-name="Path 4413" d="M113.76,113.281a2.713,2.713,0,1,1-2.713-2.713A2.71,2.71,0,0,1,113.76,113.281Z" transform="translate(128.927 125.595)" fill="#fff"/>
    <path id="Path_4414" data-name="Path 4414" d="M126.03,113.44a3.5,3.5,0,0,1-3.521,3.521,3.535,3.535,0,0,1-3.521-3.521,3.5,3.5,0,0,1,3.521-3.521A3.535,3.535,0,0,1,126.03,113.44Z" transform="translate(141.941 124.802)" fill="#fff"/>
    <circle id="Ellipse_1036" data-name="Ellipse 1036" cx="3.695" cy="3.695" r="3.695" transform="translate(253.539 249.498)" fill="#fff"/>
    <path id="Path_4415" data-name="Path 4415" d="M118.37,126.1a3.81,3.81,0,1,1-7.62,0,3.81,3.81,0,1,1,7.62,0Z" transform="translate(131.879 139.911)" fill="#fff"/>
    <path id="Path_4416" data-name="Path 4416" d="M112.878,131.1a4.156,4.156,0,1,1-4.156-4.156A4.139,4.139,0,0,1,112.878,131.1Z" transform="translate(124.324 145.593)" fill="#fff"/>
    <path id="Path_4417" data-name="Path 4417" d="M105.487,133.61a4.1,4.1,0,1,1-4.1-4.1A4.114,4.114,0,0,1,105.487,133.61Z" transform="translate(115.436 148.735)" fill="#fff"/>
    <path id="Path_4418" data-name="Path 4418" d="M97.258,133.42a3.752,3.752,0,1,1-3.752-3.752A3.674,3.674,0,0,1,97.258,133.42Z" transform="translate(106.231 148.925)" fill="#fff"/>
    <path id="Path_4419" data-name="Path 4419" d="M89.18,130.576a3.117,3.117,0,1,1-3.117-3.117A3.1,3.1,0,0,1,89.18,130.576Z" transform="translate(97.915 146.227)" fill="#fff"/>
    <path id="Path_4420" data-name="Path 4420" d="M82.268,126.548a2.6,2.6,0,1,1-2.6-2.6A2.663,2.663,0,0,1,82.268,126.548Z" transform="translate(90.741 141.942)" fill="#fff"/>
    <path id="Path_4421" data-name="Path 4421" d="M76.641,121.54a2.136,2.136,0,0,1-4.272,0,2.169,2.169,0,0,1,2.136-2.136A2.062,2.062,0,0,1,76.641,121.54Z" transform="translate(84.996 136.386)" fill="#fff"/>
    <path id="Path_4422" data-name="Path 4422" d="M72.417,116.091a1.934,1.934,0,1,1-1.963-1.963A2.023,2.023,0,0,1,72.417,116.091Z" transform="translate(80.33 129.944)" fill="#fff"/>
    <path id="Path_4423" data-name="Path 4423" d="M69.461,110.27a1.963,1.963,0,1,1-1.963-1.963A1.947,1.947,0,0,1,69.461,110.27Z" transform="translate(76.647 122.833)" fill="#fff"/>
    <path id="Path_4424" data-name="Path 4424" d="M68.031,103.852a1.963,1.963,0,1,1-1.963-1.963A1.983,1.983,0,0,1,68.031,103.852Z" transform="translate(74.902 114.993)" fill="#fff"/>
    <path id="Path_4425" data-name="Path 4425" d="M68,97.352a2.194,2.194,0,1,1-2.194-2.194A2.193,2.193,0,0,1,68,97.352Z" transform="translate(74.299 106.772)" fill="#fff"/>
    <path id="Path_4426" data-name="Path 4426" d="M69.428,90.726a2.713,2.713,0,1,1-2.713-2.713A2.71,2.71,0,0,1,69.428,90.726Z" transform="translate(74.775 98.043)" fill="#fff"/>
    <path id="Path_4427" data-name="Path 4427" d="M72.789,84.5a2.886,2.886,0,0,1-5.773,0A2.81,2.81,0,0,1,69.9,81.672,2.846,2.846,0,0,1,72.789,84.5Z" transform="translate(78.457 90.298)" fill="#fff"/>
    <circle id="Ellipse_1037" data-name="Ellipse 1037" cx="2.771" cy="2.771" r="2.771" transform="translate(156.557 160.886)" fill="#fff"/>
    <circle id="Ellipse_1038" data-name="Ellipse 1038" cx="2.482" cy="2.482" r="2.482" transform="translate(170.469 153.844)" fill="#fff"/>
    <path id="Path_4428" data-name="Path 4428" d="M89.36,74.147a2.194,2.194,0,1,1-2.194-2.194A2.193,2.193,0,0,1,89.36,74.147Z" transform="translate(100.391 78.426)" fill="#fff"/>
    <path id="Path_4429" data-name="Path 4429" d="M96.1,73.451A2.251,2.251,0,1,1,93.85,71.2,2.218,2.218,0,0,1,96.1,73.451Z" transform="translate(108.485 77.506)" fill="#fff"/>
    <circle id="Ellipse_1039" data-name="Ellipse 1039" cx="2.309" cy="2.309" r="2.309" transform="translate(214.272 151.26) rotate(-22.5)" fill="#fff"/>
    <path id="Path_4430" data-name="Path 4430" d="M109.492,76.561a2.425,2.425,0,1,1-2.425-2.425A2.439,2.439,0,0,1,109.492,76.561Z" transform="translate(124.419 81.093)" fill="#fff"/>
    <circle id="Ellipse_1040" data-name="Ellipse 1040" cx="2.713" cy="2.713" r="2.713" transform="translate(241.993 162.849)" fill="#fff"/>
    <circle id="Ellipse_1041" data-name="Ellipse 1041" cx="2.944" cy="2.944" r="2.944" transform="translate(251.977 178.244) rotate(-67.5)" fill="#fff"/>
    <circle id="Ellipse_1042" data-name="Ellipse 1042" cx="3.175" cy="3.175" r="3.175" transform="translate(260.697 187.268)" fill="#fff"/>
    <path id="Path_4431" data-name="Path 4431" d="M127.064,98.781a3.233,3.233,0,1,1-3.233-3.233A3.227,3.227,0,0,1,127.064,98.781Z" transform="translate(143.909 107.248)" fill="#fff"/>
    <path id="Path_4432" data-name="Path 4432" d="M127.4,106.146a3.4,3.4,0,0,1-3.348,3.406,3.377,3.377,0,1,1,3.348-3.406Z" transform="translate(144.036 116.104)" fill="#fff"/>
    <path id="Path_4433" data-name="Path 4433" d="M126.03,113.44a3.5,3.5,0,0,1-3.521,3.521,3.535,3.535,0,0,1-3.521-3.521,3.5,3.5,0,0,1,3.521-3.521A3.535,3.535,0,0,1,126.03,113.44Z" transform="translate(141.941 124.802)" fill="#fff"/>
    <path id="Path_4434" data-name="Path 4434" d="M142.33,116.289a5.253,5.253,0,1,1-5.253-5.253A5.2,5.2,0,0,1,142.33,116.289Z" transform="translate(157.621 126.166)" fill="#fff"/>
    <path id="Path_4435" data-name="Path 4435" d="M138.378,123.677a5.109,5.109,0,1,1-5.08-5.08A5.051,5.051,0,0,1,138.378,123.677Z" transform="translate(153.146 135.403)" fill="#fff"/>
    <path id="Path_4436" data-name="Path 4436" d="M133.23,130.266a4.965,4.965,0,1,1-4.965-4.965A4.964,4.964,0,0,1,133.23,130.266Z" transform="translate(147.21 143.593)" fill="#fff"/>
    <path id="Path_4437" data-name="Path 4437" d="M127.19,135.925a4.907,4.907,0,1,1-4.907-4.907A4.9,4.9,0,0,1,127.19,135.925Z" transform="translate(139.973 150.576)" fill="#fff"/>
    <path id="Path_4438" data-name="Path 4438" d="M120.073,140.149a4.791,4.791,0,1,1-4.791-4.791A4.78,4.78,0,0,1,120.073,140.149Z" transform="translate(131.561 155.877)" fill="#fff"/>
    <path id="Path_4439" data-name="Path 4439" d="M112.217,142.861a4.618,4.618,0,1,1-4.618-4.618A4.632,4.632,0,0,1,112.217,142.861Z" transform="translate(122.388 159.4)" fill="#fff"/>
    <path id="Path_4440" data-name="Path 4440" d="M104.343,144.576a4.618,4.618,0,1,1-4.618-4.618A4.632,4.632,0,0,1,104.343,144.576Z" transform="translate(112.77 161.495)" fill="#fff"/>
    <path id="Path_4441" data-name="Path 4441" d="M96.466,145.081a4.734,4.734,0,1,1-4.734-4.734A4.793,4.793,0,0,1,96.466,145.081Z" transform="translate(102.866 161.971)" fill="#fff"/>
    <circle id="Ellipse_1043" data-name="Ellipse 1043" cx="4.907" cy="4.907" r="4.907" transform="translate(170.929 309.49) rotate(-80.782)" fill="#fff"/>
    <path id="Path_4442" data-name="Path 4442" d="M80.921,141.8a4.965,4.965,0,1,1-4.965-4.965A4.892,4.892,0,0,1,80.921,141.8Z" transform="translate(83.313 157.686)" fill="#fff"/>
    <path id="Path_4443" data-name="Path 4443" d="M73.963,136.792a4.734,4.734,0,1,1-4.734-4.734A4.755,4.755,0,0,1,73.963,136.792Z" transform="translate(75.378 151.846)" fill="#fff"/>
    <circle id="Ellipse_1044" data-name="Ellipse 1044" cx="4.618" cy="4.618" r="4.618" transform="translate(127.231 271.434)" fill="#fff"/>
    <path id="Path_4444" data-name="Path 4444" d="M63.3,124.342a4.445,4.445,0,1,1-4.445-4.445A4.447,4.447,0,0,1,63.3,124.342Z" transform="translate(63.062 136.99)" fill="#fff"/>
    <path id="Path_4445" data-name="Path 4445" d="M60.061,116.835a4.214,4.214,0,1,1-4.214-4.214A4.238,4.238,0,0,1,60.061,116.835Z" transform="translate(59.665 128.103)" fill="#fff"/>
    <path id="Path_4446" data-name="Path 4446" d="M58.4,109.016a3.954,3.954,0,1,1-3.925-3.983A3.979,3.979,0,0,1,58.4,109.016Z" transform="translate(58.269 118.834)" fill="#fff"/>
    <path id="Path_4447" data-name="Path 4447" d="M58.456,101.118a3.464,3.464,0,1,1-3.464-3.464A3.4,3.4,0,0,1,58.456,101.118Z" transform="translate(59.539 109.818)" fill="#fff"/>
    <path id="Path_4448" data-name="Path 4448" d="M60.227,93.8A2.829,2.829,0,1,1,57.4,90.975,2.833,2.833,0,0,1,60.227,93.8Z" transform="translate(63.252 101.661)" fill="#fff"/>
    <circle id="Ellipse_1045" data-name="Ellipse 1045" cx="2.194" cy="2.194" r="2.194" transform="translate(126.769 179.879)" fill="#fff"/>
    <path id="Path_4449" data-name="Path 4449" d="M66.461,81.862a1.9,1.9,0,1,1-1.9-1.9A1.885,1.885,0,0,1,66.461,81.862Z" transform="translate(73.124 88.203)" fill="#fff"/>
    <path id="Path_4450" data-name="Path 4450" d="M70.636,76.987a1.732,1.732,0,0,1-3.464,0A1.776,1.776,0,0,1,68.9,75.255,1.667,1.667,0,0,1,70.636,76.987Z" transform="translate(78.647 82.456)" fill="#fff"/>
    <path id="Path_4451" data-name="Path 4451" d="M75.683,73.351a1.5,1.5,0,1,1-1.5-1.5A1.528,1.528,0,0,1,75.683,73.351Z" transform="translate(85.377 78.299)" fill="#fff"/>
    <circle id="Ellipse_1046" data-name="Ellipse 1046" cx="1.443" cy="1.443" r="1.443" transform="translate(170.585 143.741)" fill="#fff"/>
    <path id="Path_4452" data-name="Path 4452" d="M87.512,67.689a1.79,1.79,0,1,1-1.79-1.79A1.8,1.8,0,0,1,87.512,67.689Z" transform="translate(99.121 71.031)" fill="#fff"/>
    <path id="Path_4453" data-name="Path 4453" d="M94.889,65.413a2.425,2.425,0,1,1-2.425-2.425A2.439,2.439,0,0,1,94.889,65.413Z" transform="translate(106.58 67.475)" fill="#fff"/>
    <circle id="Ellipse_1047" data-name="Ellipse 1047" cx="3.175" cy="3.175" r="3.175" transform="translate(211.802 126.077)" fill="#fff"/>
    <path id="Path_4454" data-name="Path 4454" d="M111.14,65.263a3.521,3.521,0,1,1-3.521-3.521A3.535,3.535,0,0,1,111.14,65.263Z" transform="translate(123.753 65.952)" fill="#fff"/>
    <path id="Path_4455" data-name="Path 4455" d="M118.153,68.34a3.637,3.637,0,1,1-3.637-3.637A3.622,3.622,0,0,1,118.153,68.34Z" transform="translate(132.037 69.57)" fill="#fff"/>
    <path id="Path_4456" data-name="Path 4456" d="M124.349,72.738a3.695,3.695,0,1,1-7.389,0,3.695,3.695,0,1,1,7.389,0Z" transform="translate(139.465 74.871)" fill="#fff"/>
    <path id="Path_4457" data-name="Path 4457" d="M129.766,78.18a3.752,3.752,0,1,1-7.5,0,3.794,3.794,0,0,1,3.752-3.81A3.833,3.833,0,0,1,129.766,78.18Z" transform="translate(145.94 81.378)" fill="#fff"/>
    <path id="Path_4458" data-name="Path 4458" d="M135.846,84.256a4.272,4.272,0,1,1-4.272-4.272A4.262,4.262,0,0,1,135.846,84.256Z" transform="translate(152.098 88.234)" fill="#fff"/>
    <path id="Path_4459" data-name="Path 4459" d="M139.995,91.539a4.618,4.618,0,1,1-4.618-4.618A4.632,4.632,0,0,1,139.995,91.539Z" transform="translate(156.32 96.71)" fill="#fff"/>
    <path id="Path_4460" data-name="Path 4460" d="M143.116,99.609a5.022,5.022,0,1,1-5.022-5.022A5.026,5.026,0,0,1,143.116,99.609Z" transform="translate(159.145 106.073)" fill="#fff"/>
    <path id="Path_4461" data-name="Path 4461" d="M144.071,108.078a5.253,5.253,0,1,1-5.253-5.253A5.2,5.2,0,0,1,144.071,108.078Z" transform="translate(159.748 116.135)" fill="#fff"/>
    <path id="Path_4462" data-name="Path 4462" d="M142.33,116.289a5.253,5.253,0,1,1-5.253-5.253A5.2,5.2,0,0,1,142.33,116.289Z" transform="translate(157.621 126.166)" fill="#fff"/>
    <circle id="Ellipse_1048" data-name="Ellipse 1048" cx="4.503" cy="4.503" r="4.503" transform="translate(305.724 237.433)" fill="#fff"/>
    <circle id="Ellipse_1049" data-name="Ellipse 1049" cx="4.387" cy="4.387" r="4.387" transform="translate(298.319 260.414) rotate(-67.5)" fill="#fff"/>
    <path id="Path_4463" data-name="Path 4463" d="M140.746,129.23a4.214,4.214,0,1,1-4.214-4.214A4.2,4.2,0,0,1,140.746,129.23Z" transform="translate(158.224 143.243)" fill="#fff"/>
    <path id="Path_4464" data-name="Path 4464" d="M135.656,135.013a4.1,4.1,0,1,1-4.1-4.1A4.114,4.114,0,0,1,135.656,135.013Z" transform="translate(152.289 150.449)" fill="#fff"/>
    <circle id="Ellipse_1050" data-name="Ellipse 1050" cx="4.041" cy="4.041" r="4.041" transform="translate(267.451 292.851)" fill="#fff"/>
    <path id="Path_4465" data-name="Path 4465" d="M123.795,144.414a4.041,4.041,0,1,1-4.041-4.041A4.016,4.016,0,0,1,123.795,144.414Z" transform="translate(137.941 162.003)" fill="#fff"/>
    <path id="Path_4466" data-name="Path 4466" d="M117.039,147.792A4.041,4.041,0,1,1,113,143.751,4.053,4.053,0,0,1,117.039,147.792Z" transform="translate(129.688 166.13)" fill="#fff"/>
    <circle id="Ellipse_1051" data-name="Ellipse 1051" cx="3.925" cy="3.925" r="3.925" transform="translate(222.712 314.557)" fill="#fff"/>
    <circle id="Ellipse_1052" data-name="Ellipse 1052" cx="3.81" cy="3.81" r="3.81" transform="translate(206.318 316.231)" fill="#fff"/>
    <path id="Path_4467" data-name="Path 4467" d="M94.466,150.148a3.695,3.695,0,1,1-7.389,0,3.695,3.695,0,1,1,7.389,0Z" transform="translate(102.962 169.431)" fill="#fff"/>
    <circle id="Ellipse_1053" data-name="Ellipse 1053" cx="3.752" cy="3.752" r="3.752" transform="translate(173.468 320.766) rotate(-85.935)" fill="#fff"/>
    <path id="Path_4468" data-name="Path 4468" d="M80.128,146.932a3.733,3.733,0,0,1-3.695,3.752,3.752,3.752,0,1,1,0-7.5A3.7,3.7,0,0,1,80.128,146.932Z" transform="translate(85.377 165.431)" fill="#fff"/>
    <path id="Path_4469" data-name="Path 4469" d="M73.577,143.095A3.579,3.579,0,1,1,70,139.516,3.6,3.6,0,0,1,73.577,143.095Z" transform="translate(77.727 160.956)" fill="#fff"/>
    <circle id="Ellipse_1054" data-name="Ellipse 1054" cx="3.348" cy="3.348" r="3.348" transform="translate(132.023 290.369)" fill="#fff"/>
    <circle id="Ellipse_1055" data-name="Ellipse 1055" cx="3.175" cy="3.175" r="3.175" transform="translate(120.658 280.006) rotate(-22.5)" fill="#fff"/>
    <path id="Path_4470" data-name="Path 4470" d="M58.691,126.609a2.944,2.944,0,1,1-2.944-2.944A2.956,2.956,0,0,1,58.691,126.609Z" transform="translate(61.094 141.593)" fill="#fff"/>
    <circle id="Ellipse_1056" data-name="Ellipse 1056" cx="2.713" cy="2.713" r="2.713" transform="translate(107.202 255.549) rotate(-67.5)" fill="#fff"/>
    <path id="Path_4471" data-name="Path 4471" d="M53.358,113.587a2.655,2.655,0,0,1-5.311,0,2.648,2.648,0,0,1,2.655-2.655A2.686,2.686,0,0,1,53.358,113.587Z" transform="translate(55.285 126.039)" fill="#fff"/>
    <circle id="Ellipse_1057" data-name="Ellipse 1057" cx="2.482" cy="2.482" r="2.482" transform="translate(101.056 225.97) rotate(-67.5)" fill="#fff"/>
    <path id="Path_4472" data-name="Path 4472" d="M52.457,99.962a2.309,2.309,0,1,1-2.309-2.309A2.279,2.279,0,0,1,52.457,99.962Z" transform="translate(55.031 109.819)" fill="#fff"/>
    <path id="Path_4473" data-name="Path 4473" d="M53.251,93.382A2.218,2.218,0,0,1,51,95.634a2.251,2.251,0,1,1,0-4.5A2.218,2.218,0,0,1,53.251,93.382Z" transform="translate(56.142 101.852)" fill="#fff"/>
    <circle id="Ellipse_1058" data-name="Ellipse 1058" cx="2.309" cy="2.309" r="2.309" transform="translate(107.648 179.722) rotate(-22.5)" fill="#fff"/>
    <circle id="Ellipse_1059" data-name="Ellipse 1059" cx="2.425" cy="2.425" r="2.425" transform="translate(113.261 164.638)" fill="#fff"/>
    <path id="Path_4474" data-name="Path 4474" d="M60.793,74.987a2.54,2.54,0,1,1-2.54-2.54A2.525,2.525,0,0,1,60.793,74.987Z" transform="translate(64.649 79.029)" fill="#fff"/>
    <path id="Path_4475" data-name="Path 4475" d="M65.1,69.62a2.648,2.648,0,0,1-2.655,2.655,2.686,2.686,0,0,1-2.655-2.655,2.648,2.648,0,0,1,2.655-2.655A2.686,2.686,0,0,1,65.1,69.62Z" transform="translate(69.632 72.332)" fill="#fff"/>
    <path id="Path_4476" data-name="Path 4476" d="M70.254,64.685a2.944,2.944,0,1,1-2.944-2.944A3,3,0,0,1,70.254,64.685Z" transform="translate(75.219 65.952)" fill="#fff"/>
    <path id="Path_4477" data-name="Path 4477" d="M76.176,60.747a3.06,3.06,0,1,1-3.06-3.06A3.043,3.043,0,0,1,76.176,60.747Z" transform="translate(82.171 61)" fill="#fff"/>
    <path id="Path_4478" data-name="Path 4478" d="M82.684,57.92A3.117,3.117,0,1,1,79.566,54.8,3.1,3.1,0,0,1,82.684,57.92Z" transform="translate(89.979 57.477)" fill="#fff"/>
    <circle id="Ellipse_1060" data-name="Ellipse 1060" cx="3.175" cy="3.175" r="3.175" transform="translate(180.213 111.122) rotate(-45)" fill="#fff"/>
    <path id="Path_4479" data-name="Path 4479" d="M96.765,55.333A3.233,3.233,0,1,1,93.532,52.1,3.227,3.227,0,0,1,96.765,55.333Z" transform="translate(106.898 54.175)" fill="#fff"/>
    <path id="Path_4480" data-name="Path 4480" d="M104.064,55.579a3.348,3.348,0,1,1-3.348-3.348A3.314,3.314,0,0,1,104.064,55.579Z" transform="translate(115.531 54.334)" fill="#fff"/>
    <path id="Path_4481" data-name="Path 4481" d="M111.5,56.662a3.5,3.5,0,0,1-3.521,3.521,3.521,3.521,0,1,1,0-7.043A3.5,3.5,0,0,1,111.5,56.662Z" transform="translate(124.197 55.445)" fill="#fff"/>
    <path id="Path_4482" data-name="Path 4482" d="M119.317,58.431a3.868,3.868,0,1,1-3.868-3.81A3.819,3.819,0,0,1,119.317,58.431Z" transform="translate(132.894 57.254)" fill="#fff"/>
    <path id="Path_4483" data-name="Path 4483" d="M126.884,61.4a4.156,4.156,0,1,1-4.156-4.156A4.139,4.139,0,0,1,126.884,61.4Z" transform="translate(141.433 60.46)" fill="#fff"/>
    <circle id="Ellipse_1061" data-name="Ellipse 1061" cx="4.272" cy="4.272" r="4.272" transform="translate(273.628 127.635)" fill="#fff"/>
    <path id="Path_4484" data-name="Path 4484" d="M138.043,71.854a4.214,4.214,0,1,1-4.214-4.214A4.238,4.238,0,0,1,138.043,71.854Z" transform="translate(154.923 73.157)" fill="#fff"/>
    <path id="Path_4485" data-name="Path 4485" d="M141.71,78.365a4.1,4.1,0,1,1-4.1-4.1A4.042,4.042,0,0,1,141.71,78.365Z" transform="translate(159.685 81.251)" fill="#fff"/>
    <circle id="Ellipse_1062" data-name="Ellipse 1062" cx="4.041" cy="4.041" r="4.041" transform="translate(300.067 170.931)" fill="#fff"/>
    <path id="Path_4486" data-name="Path 4486" d="M147.309,92.507a4.156,4.156,0,1,1-4.156-4.156A4.139,4.139,0,0,1,147.309,92.507Z" transform="translate(166.382 98.456)" fill="#fff"/>
    <path id="Path_4487" data-name="Path 4487" d="M148.735,100.132a4.272,4.272,0,1,1-4.272-4.272A4.262,4.262,0,0,1,148.735,100.132Z" transform="translate(167.842 107.629)" fill="#fff"/>
    <circle id="Ellipse_1063" data-name="Ellipse 1063" cx="4.387" cy="4.387" r="4.387" transform="translate(306.814 222.476) rotate(-22.5)" fill="#fff"/>
    <circle id="Ellipse_1064" data-name="Ellipse 1064" cx="4.503" cy="4.503" r="4.503" transform="translate(305.724 237.433)" fill="#fff"/>
    <path id="Path_4488" data-name="Path 4488" d="M145.2,122.829a4.387,4.387,0,1,1-4.387-4.387A4.385,4.385,0,0,1,145.2,122.829Z" transform="translate(163.24 135.213)" fill="#fff"/>
    <circle id="Ellipse_1065" data-name="Ellipse 1065" cx="4.907" cy="4.907" r="4.907" transform="translate(328.503 249.147) rotate(-84.345)" fill="#fff"/>
    <path id="Path_4489" data-name="Path 4489" d="M156.983,124.434a4.849,4.849,0,1,1-4.849-4.849A4.878,4.878,0,0,1,156.983,124.434Z" transform="translate(176.508 136.609)" fill="#fff"/>
    <circle id="Ellipse_1066" data-name="Ellipse 1066" cx="4.676" cy="4.676" r="4.676" transform="translate(314.889 279.81) rotate(-80.782)" fill="#fff"/>
    <circle id="Ellipse_1067" data-name="Ellipse 1067" cx="4.503" cy="4.503" r="4.503" transform="translate(304.779 293.089) rotate(-80.782)" fill="#fff"/>
    <circle id="Ellipse_1068" data-name="Ellipse 1068" cx="4.33" cy="4.33" r="4.33" transform="translate(293.453 305.002) rotate(-80.782)" fill="#fff"/>
    <path id="Path_4490" data-name="Path 4490" d="M136.99,147.27A4.272,4.272,0,1,1,132.718,143,4.262,4.262,0,0,1,136.99,147.27Z" transform="translate(153.495 165.209)" fill="#fff"/>
    <path id="Path_4491" data-name="Path 4491" d="M131.065,151.713a4.272,4.272,0,1,1-4.272-4.272A4.262,4.262,0,0,1,131.065,151.713Z" transform="translate(146.258 170.637)" fill="#fff"/>
    <circle id="Ellipse_1069" data-name="Ellipse 1069" cx="4.214" cy="4.214" r="4.214" transform="translate(253.88 333.7) rotate(-85.935)" fill="#fff"/>
    <path id="Path_4492" data-name="Path 4492" d="M117.007,157.017A3.991,3.991,0,0,1,113.024,161a4.012,4.012,0,1,1,3.983-3.983Z" transform="translate(129.72 177.398)" fill="#fff"/>
    <path id="Path_4493" data-name="Path 4493" d="M109.483,157.929a3.81,3.81,0,1,1-3.81-3.81A3.806,3.806,0,0,1,109.483,157.929Z" transform="translate(121.023 178.795)" fill="#fff"/>
    <circle id="Ellipse_1070" data-name="Ellipse 1070" cx="3.406" cy="3.406" r="3.406" transform="translate(206.976 332.389) rotate(-5.655)" fill="#fff"/>
    <path id="Path_4494" data-name="Path 4494" d="M94.083,155.141a2.944,2.944,0,1,1-2.944-2.944A2.956,2.956,0,0,1,94.083,155.141Z" transform="translate(104.326 176.446)" fill="#fff"/>
    <circle id="Ellipse_1071" data-name="Ellipse 1071" cx="2.598" cy="2.598" r="2.598" transform="translate(178.551 324.197)" fill="#fff"/>
    <path id="Path_4495" data-name="Path 4495" d="M80.7,150.437a2.425,2.425,0,1,1-2.425-2.425A2.439,2.439,0,0,1,80.7,150.437Z" transform="translate(89.249 171.335)" fill="#fff"/>
    <path id="Path_4496" data-name="Path 4496" d="M74.663,147.484a2.251,2.251,0,1,1-2.251-2.251A2.218,2.218,0,0,1,74.663,147.484Z" transform="translate(82.298 167.939)" fill="#fff"/>
    <path id="Path_4497" data-name="Path 4497" d="M69.131,144.016a2.136,2.136,0,1,1-4.272,0,2.136,2.136,0,0,1,4.272,0Z" transform="translate(75.822 163.844)" fill="#fff"/>
    <path id="Path_4498" data-name="Path 4498" d="M63.92,140.592a2.194,2.194,0,1,1-2.194-2.194A2.193,2.193,0,0,1,63.92,140.592Z" transform="translate(69.315 159.591)" fill="#fff"/>
    <circle id="Ellipse_1072" data-name="Ellipse 1072" cx="2.425" cy="2.425" r="2.425" transform="translate(116.469 294.487) rotate(-85.935)" fill="#fff"/>
    <path id="Path_4499" data-name="Path 4499" d="M54.49,132.655a2.6,2.6,0,1,1-2.6-2.6A2.587,2.587,0,0,1,54.49,132.655Z" transform="translate(56.809 149.401)" fill="#fff"/>
    <circle id="Ellipse_1073" data-name="Ellipse 1073" cx="2.598" cy="2.598" r="2.598" transform="translate(98.194 267.336)" fill="#fff"/>
    <path id="Path_4500" data-name="Path 4500" d="M48.019,121.351a2.6,2.6,0,1,1-2.6-2.6A2.587,2.587,0,0,1,48.019,121.351Z" transform="translate(48.905 135.594)" fill="#fff"/>
    <circle id="Ellipse_1074" data-name="Ellipse 1074" cx="2.656" cy="2.656" r="2.656" transform="translate(85.661 241.894) rotate(-22.5)" fill="#fff"/>
    <path id="Path_4501" data-name="Path 4501" d="M44.1,108.973a2.735,2.735,0,0,1-2.771,2.771,2.771,2.771,0,1,1,0-5.542A2.735,2.735,0,0,1,44.1,108.973Z" transform="translate(43.699 120.262)" fill="#fff"/>
    <path id="Path_4502" data-name="Path 4502" d="M43.073,102.468a2.944,2.944,0,1,1-2.944-2.944A2.957,2.957,0,0,1,43.073,102.468Z" transform="translate(42.017 112.104)" fill="#fff"/>
    <path id="Path_4503" data-name="Path 4503" d="M43.082,95.781a3.117,3.117,0,1,1-3.117-3.117A3.1,3.1,0,0,1,43.082,95.781Z" transform="translate(41.604 103.725)" fill="#fff"/>
    <circle id="Ellipse_1075" data-name="Ellipse 1075" cx="3.175" cy="3.175" r="3.175" transform="translate(79.504 182.786) rotate(-22.5)" fill="#fff"/>
    <path id="Path_4504" data-name="Path 4504" d="M45.963,82.462a3.233,3.233,0,1,1-3.233-3.233A3.227,3.227,0,0,1,45.963,82.462Z" transform="translate(44.842 87.314)" fill="#fff"/>
    <circle id="Ellipse_1076" data-name="Ellipse 1076" cx="3.348" cy="3.348" r="3.348" transform="translate(89.766 152.112)" fill="#fff"/>
    <path id="Path_4505" data-name="Path 4505" d="M52.052,70.032a3.406,3.406,0,1,1-3.406-3.406A3.412,3.412,0,0,1,52.052,70.032Z" transform="translate(51.857 71.919)" fill="#fff"/>
    <path id="Path_4506" data-name="Path 4506" d="M56.3,64.451a3.464,3.464,0,1,1-3.464-3.464A3.474,3.474,0,0,1,56.3,64.451Z" transform="translate(56.904 65.031)" fill="#fff"/>
    <circle id="Ellipse_1077" data-name="Ellipse 1077" cx="3.521" cy="3.521" r="3.521" transform="translate(116.594 121.301) rotate(-80.782)" fill="#fff"/>
    <path id="Path_4507" data-name="Path 4507" d="M66.887,55.284a3.521,3.521,0,1,1-3.521-3.521A3.5,3.5,0,0,1,66.887,55.284Z" transform="translate(69.696 53.763)" fill="#fff"/>
    <path id="Path_4508" data-name="Path 4508" d="M73.034,52.082a3.425,3.425,0,0,1-3.464,3.406,3.435,3.435,0,1,1,3.464-3.406Z" transform="translate(77.346 49.922)" fill="#fff"/>
    <circle id="Ellipse_1078" data-name="Ellipse 1078" cx="3.29" cy="3.29" r="3.29" transform="translate(157.123 97.627) rotate(-45)" fill="#fff"/>
    <path id="Path_4509" data-name="Path 4509" d="M85.782,49.53A2.886,2.886,0,1,1,82.9,46.644,2.9,2.9,0,0,1,85.782,49.53Z" transform="translate(94.328 47.51)" fill="#fff"/>
    <path id="Path_4510" data-name="Path 4510" d="M91.822,50.108A2.425,2.425,0,1,1,89.4,47.683,2.4,2.4,0,0,1,91.822,50.108Z" transform="translate(102.835 48.779)" fill="#fff"/>
    <path id="Path_4511" data-name="Path 4511" d="M97.972,50.74a2.218,2.218,0,0,1-2.251,2.251,2.251,2.251,0,0,1,0-4.5A2.218,2.218,0,0,1,97.972,50.74Z" transform="translate(110.77 49.763)" fill="#fff"/>
    <path id="Path_4512" data-name="Path 4512" d="M104.428,51.24a2.309,2.309,0,1,1-2.309-2.309A2.316,2.316,0,0,1,104.428,51.24Z" transform="translate(118.515 50.303)" fill="#fff"/>
    <circle id="Ellipse_1079" data-name="Ellipse 1079" cx="2.367" cy="2.367" r="2.367" transform="translate(232.295 101.716)" fill="#fff"/>
    <path id="Path_4513" data-name="Path 4513" d="M117.17,54.427a2.482,2.482,0,1,1-2.482-2.482A2.464,2.464,0,0,1,117.17,54.427Z" transform="translate(133.656 53.985)" fill="#fff"/>
    <path id="Path_4514" data-name="Path 4514" d="M123.654,56.841A2.7,2.7,0,0,1,121,59.554a2.748,2.748,0,0,1-2.713-2.713,2.684,2.684,0,1,1,5.369,0Z" transform="translate(141.084 56.651)" fill="#fff"/>
    <circle id="Ellipse_1080" data-name="Ellipse 1080" cx="3.002" cy="3.002" r="3.002" transform="translate(271.406 119.861) rotate(-45)" fill="#fff"/>
    <circle id="Ellipse_1081" data-name="Ellipse 1081" cx="3.233" cy="3.233" r="3.233" transform="translate(285.231 125.038)" fill="#fff"/>
    <circle id="Ellipse_1082" data-name="Ellipse 1082" cx="3.406" cy="3.406" r="3.406" transform="translate(296.026 135.659)" fill="#fff"/>
    <path id="Path_4515" data-name="Path 4515" d="M145.548,74.477a3.412,3.412,0,0,1-3.406,3.406,3.376,3.376,0,0,1-3.406-3.406,3.412,3.412,0,0,1,3.406-3.406A3.375,3.375,0,0,1,145.548,74.477Z" transform="translate(166.065 77.346)" fill="#fff"/>
    <circle id="Ellipse_1083" data-name="Ellipse 1083" cx="3.521" cy="3.521" r="3.521" transform="translate(311.188 167.277) rotate(-67.5)" fill="#fff"/>
    <path id="Path_4516" data-name="Path 4516" d="M152.44,87.16a3.695,3.695,0,0,1-7.389,0,3.72,3.72,0,0,1,3.695-3.695A3.647,3.647,0,0,1,152.44,87.16Z" transform="translate(173.778 92.488)" fill="#fff"/>
    <path id="Path_4517" data-name="Path 4517" d="M155.33,94.095a3.983,3.983,0,0,1-7.966,0,3.984,3.984,0,0,1,7.966,0Z" transform="translate(176.603 100.677)" fill="#fff"/>
    <path id="Path_4518" data-name="Path 4518" d="M157.6,101.509a4.272,4.272,0,1,1-4.272-4.272A4.262,4.262,0,0,1,157.6,101.509Z" transform="translate(178.666 109.311)" fill="#fff"/>
    <path id="Path_4519" data-name="Path 4519" d="M159.328,109.261a4.618,4.618,0,1,1-4.618-4.618A4.632,4.632,0,0,1,159.328,109.261Z" transform="translate(179.936 118.358)" fill="#fff"/>
    <circle id="Ellipse_1084" data-name="Ellipse 1084" cx="4.907" cy="4.907" r="4.907" transform="translate(328.503 249.147) rotate(-84.345)" fill="#fff"/>
    <path id="Path_4520" data-name="Path 4520" d="M153.128,106.291a2.194,2.194,0,1,1-2.194-2.194A2.27,2.27,0,0,1,153.128,106.291Z" transform="translate(178.285 117.691)" fill="#fff"/>
    <path id="Path_4521" data-name="Path 4521" d="M152.724,112.3a2.292,2.292,0,0,1-2.251,2.251,2.251,2.251,0,1,1,0-4.5A2.218,2.218,0,0,1,152.724,112.3Z" transform="translate(177.651 124.96)" fill="#fff"/>
    <path id="Path_4522" data-name="Path 4522" d="M151.644,118.23a2.309,2.309,0,1,1-2.309-2.309A2.316,2.316,0,0,1,151.644,118.23Z" transform="translate(176.19 132.134)" fill="#fff"/>
    <circle id="Ellipse_1085" data-name="Ellipse 1085" cx="2.367" cy="2.367" r="2.367" transform="translate(318.931 265.185) rotate(-80.782)" fill="#fff"/>
    <circle id="Ellipse_1086" data-name="Ellipse 1086" cx="2.425" cy="2.425" r="2.425" transform="translate(313.627 273.644) rotate(-9.218)" fill="#fff"/>
    <path id="Path_4523" data-name="Path 4523" d="M144.844,135.034a2.482,2.482,0,1,1-2.482-2.482A2.54,2.54,0,0,1,144.844,135.034Z" transform="translate(167.461 152.449)" fill="#fff"/>
    <circle id="Ellipse_1087" data-name="Ellipse 1087" cx="2.54" cy="2.54" r="2.54" transform="translate(299.125 296.276) rotate(-5.655)" fill="#fff"/>
    <path id="Path_4524" data-name="Path 4524" d="M137.435,144.738a2.6,2.6,0,1,1-2.6-2.6A2.624,2.624,0,0,1,137.435,144.738Z" transform="translate(158.129 164.162)" fill="#fff"/>
    <circle id="Ellipse_1088" data-name="Ellipse 1088" cx="2.713" cy="2.713" r="2.713" transform="translate(280.44 315.885)" fill="#fff"/>
    <ellipse id="Ellipse_1089" data-name="Ellipse 1089" cx="2.771" cy="2.829" rx="2.771" ry="2.829" transform="translate(269.454 330.066) rotate(-85.935)" fill="#fff"/>
    <path id="Path_4525" data-name="Path 4525" d="M123.409,156.746a2.886,2.886,0,1,1-2.886-2.886A2.895,2.895,0,0,1,123.409,156.746Z" transform="translate(140.29 178.477)" fill="#fff"/>
    <path id="Path_4526" data-name="Path 4526" d="M117.839,159.59a2.973,2.973,0,1,1-2.944-3A2.956,2.956,0,0,1,117.839,159.59Z" transform="translate(133.275 181.81)" fill="#fff"/>
    <circle id="Ellipse_1090" data-name="Ellipse 1090" cx="3.002" cy="3.002" r="3.002" transform="translate(231.776 342.958)" fill="#fff"/>
    <circle id="Ellipse_1091" data-name="Ellipse 1091" cx="3.117" cy="3.117" r="3.117" transform="translate(217.621 347.081) rotate(-5.655)" fill="#fff"/>
    <path id="Path_4527" data-name="Path 4527" d="M99.791,165a3.29,3.29,0,1,1-3.29-3.29A3.289,3.289,0,0,1,99.791,165Z" transform="translate(110.453 188.063)" fill="#fff"/>
    <path id="Path_4528" data-name="Path 4528" d="M93.485,165.717a3.464,3.464,0,1,1-3.464-3.464A3.437,3.437,0,0,1,93.485,165.717Z" transform="translate(102.327 188.73)" fill="#fff"/>
    <path id="Path_4529" data-name="Path 4529" d="M86.962,165.067A3.464,3.464,0,1,1,83.5,161.6,3.474,3.474,0,0,1,86.962,165.067Z" transform="translate(94.359 187.936)" fill="#fff"/>
    <path id="Path_4530" data-name="Path 4530" d="M80.506,163.268a3.412,3.412,0,0,1-3.406,3.406,3.406,3.406,0,0,1,0-6.812A3.412,3.412,0,0,1,80.506,163.268Z" transform="translate(86.614 185.81)" fill="#fff"/>
    <circle id="Ellipse_1092" data-name="Ellipse 1092" cx="3.348" cy="3.348" r="3.348" transform="translate(146.801 340.592)" fill="#fff"/>
    <path id="Path_4531" data-name="Path 4531" d="M68.36,158.273a3.348,3.348,0,1,1-3.348-3.348A3.351,3.351,0,0,1,68.36,158.273Z" transform="translate(71.918 179.779)" fill="#fff"/>
    <circle id="Ellipse_1093" data-name="Ellipse 1093" cx="3.291" cy="3.291" r="3.291" transform="translate(120.786 333.205) rotate(-80.782)" fill="#fff"/>
    <path id="Path_4532" data-name="Path 4532" d="M57.619,150.512a3.166,3.166,0,0,1-3.175,3.175,3.175,3.175,0,1,1,0-6.35A3.166,3.166,0,0,1,57.619,150.512Z" transform="translate(59.221 170.51)" fill="#fff"/>
    <path id="Path_4533" data-name="Path 4533" d="M53.219,145.428a2.981,2.981,0,0,1-3,3,3.018,3.018,0,0,1-3-3,3,3,0,1,1,6,0Z" transform="translate(54.269 164.511)" fill="#fff"/>
    <path id="Path_4534" data-name="Path 4534" d="M49.307,140.084a2.833,2.833,0,0,1-2.829,2.829,2.784,2.784,0,0,1-2.771-2.829,2.8,2.8,0,1,1,5.6,0Z" transform="translate(49.984 158.194)" fill="#fff"/>
    <circle id="Ellipse_1094" data-name="Ellipse 1094" cx="2.713" cy="2.713" r="2.713" transform="translate(86.591 283.673)" fill="#fff"/>
    <path id="Path_4535" data-name="Path 4535" d="M43.05,128.959a2.569,2.569,0,1,1-5.138,0,2.569,2.569,0,0,1,5.138,0Z" transform="translate(42.906 144.958)" fill="#fff"/>
    <path id="Path_4536" data-name="Path 4536" d="M40.865,123.075a2.425,2.425,0,1,1-2.425-2.425A2.439,2.439,0,0,1,40.865,123.075Z" transform="translate(40.589 137.911)" fill="#fff"/>
    <path id="Path_4537" data-name="Path 4537" d="M39.268,117.113a2.367,2.367,0,0,1-4.734,0A2.329,2.329,0,0,1,36.9,114.8,2.366,2.366,0,0,1,39.268,117.113Z" transform="translate(38.779 130.769)" fill="#fff"/>
    <path id="Path_4538" data-name="Path 4538" d="M37.906,111.241a2.309,2.309,0,1,1-2.309-2.309A2.245,2.245,0,0,1,37.906,111.241Z" transform="translate(37.256 123.594)" fill="#fff"/>
    <path id="Path_4539" data-name="Path 4539" d="M37.019,105.3a2.425,2.425,0,1,1-4.849,0,2.39,2.39,0,0,1,2.425-2.367A2.321,2.321,0,0,1,37.019,105.3Z" transform="translate(35.891 116.261)" fill="#fff"/>
    <path id="Path_4540" data-name="Path 4540" d="M36.641,99.278A2.482,2.482,0,1,1,34.158,96.8,2.464,2.464,0,0,1,36.641,99.278Z" transform="translate(35.288 108.772)" fill="#fff"/>
    <path id="Path_4541" data-name="Path 4541" d="M37.042,93.2a2.54,2.54,0,1,1-2.54-2.54A2.525,2.525,0,0,1,37.042,93.2Z" transform="translate(35.637 101.281)" fill="#fff"/>
    <path id="Path_4542" data-name="Path 4542" d="M38.159,87.148a2.54,2.54,0,1,1-2.54-2.54A2.563,2.563,0,0,1,38.159,87.148Z" transform="translate(37.002 93.885)" fill="#fff"/>
    <path id="Path_4543" data-name="Path 4543" d="M39.926,81.276a2.54,2.54,0,1,1-2.54-2.54A2.563,2.563,0,0,1,39.926,81.276Z" transform="translate(39.16 86.711)" fill="#fff"/>
    <circle id="Ellipse_1095" data-name="Ellipse 1095" cx="2.54" cy="2.54" r="2.54" transform="translate(78.853 157.488) rotate(-80.782)" fill="#fff"/>
    <circle id="Ellipse_1096" data-name="Ellipse 1096" cx="2.482" cy="2.482" r="2.482" transform="translate(86.187 141.201)" fill="#fff"/>
    <path id="Path_4544" data-name="Path 4544" d="M48.894,65.387a2.425,2.425,0,1,1-2.425-2.425A2.439,2.439,0,0,1,48.894,65.387Z" transform="translate(50.397 67.444)" fill="#fff"/>
    <path id="Path_4545" data-name="Path 4545" d="M52.922,60.84A2.425,2.425,0,1,1,50.5,58.415,2.4,2.4,0,0,1,52.922,60.84Z" transform="translate(55.317 61.889)" fill="#fff"/>
    <path id="Path_4546" data-name="Path 4546" d="M57.221,56.454a2.482,2.482,0,1,1-2.482-2.482A2.5,2.5,0,0,1,57.221,56.454Z" transform="translate(60.427 56.461)" fill="#fff"/>
    <circle id="Ellipse_1097" data-name="Ellipse 1097" cx="2.655" cy="2.655" r="2.655" transform="translate(122.324 100.677)" fill="#fff"/>
    <path id="Path_4547" data-name="Path 4547" d="M67,48.4a2.771,2.771,0,1,1-2.771-2.771A2.772,2.772,0,0,1,67,48.4Z" transform="translate(71.664 46.271)" fill="#fff"/>
    <path id="Path_4548" data-name="Path 4548" d="M72.633,45.4a2.886,2.886,0,1,1-2.886-2.886A2.858,2.858,0,0,1,72.633,45.4Z" transform="translate(78.266 42.463)" fill="#fff"/>
    <circle id="Ellipse_1098" data-name="Ellipse 1098" cx="2.886" cy="2.886" r="2.886" transform="matrix(0.23, -0.973, 0.973, 0.23, 157.656, 85.068)" fill="#fff"/>
    <circle id="Ellipse_1099" data-name="Ellipse 1099" cx="2.886" cy="2.886" r="2.886" transform="translate(171.797 76.489)" fill="#fff"/>
    <path id="Path_4549" data-name="Path 4549" d="M90.875,40.571a2.886,2.886,0,1,1-5.773,0,2.945,2.945,0,0,1,2.886-2.944A3.024,3.024,0,0,1,90.875,40.571Z" transform="translate(100.549 36.495)" fill="#fff"/>
    <path id="Path_4550" data-name="Path 4550" d="M97.279,40.083a2.944,2.944,0,0,1-5.888,0,3.007,3.007,0,0,1,2.944-3A2.969,2.969,0,0,1,97.279,40.083Z" transform="translate(108.231 35.828)" fill="#fff"/>
    <path id="Path_4551" data-name="Path 4551" d="M103.824,40.037a3.06,3.06,0,1,1-3.06-3.06A3.08,3.08,0,0,1,103.824,40.037Z" transform="translate(115.944 35.701)" fill="#fff"/>
    <path id="Path_4552" data-name="Path 4552" d="M110.28,40.9a3.117,3.117,0,1,1-3.117-3.117A3.1,3.1,0,0,1,110.28,40.9Z" transform="translate(123.689 36.686)" fill="#fff"/>
    <path id="Path_4553" data-name="Path 4553" d="M116.245,42.9a3.06,3.06,0,0,1-6.119,0,3.06,3.06,0,1,1,6.119,0Z" transform="translate(131.117 39.193)" fill="#fff"/>
    <path id="Path_4554" data-name="Path 4554" d="M121.616,45.788a2.886,2.886,0,1,1-2.886-2.886A2.9,2.9,0,0,1,121.616,45.788Z" transform="translate(138.1 42.939)" fill="#fff"/>
    <path id="Path_4555" data-name="Path 4555" d="M126.654,49.175a2.772,2.772,0,0,1-2.771,2.771,2.742,2.742,0,0,1,0-5.484A2.76,2.76,0,0,1,126.654,49.175Z" transform="translate(144.607 47.287)" fill="#fff"/>
    <circle id="Ellipse_1100" data-name="Ellipse 1100" cx="2.655" cy="2.655" r="2.655" transform="matrix(0.23, -0.973, 0.973, 0.23, 276.4, 106.703)" fill="#fff"/>
    <circle id="Ellipse_1101" data-name="Ellipse 1101" cx="2.598" cy="2.598" r="2.598" transform="translate(286.939 115.972) rotate(-80.782)" fill="#fff"/>
    <path id="Path_4556" data-name="Path 4556" d="M140.23,61.345a2.54,2.54,0,0,1-5.08,0,2.54,2.54,0,0,1,5.08,0Z" transform="translate(161.684 62.365)" fill="#fff"/>
    <circle id="Ellipse_1102" data-name="Ellipse 1102" cx="2.54" cy="2.54" r="2.54" transform="translate(305.147 131.965)" fill="#fff"/>
    <path id="Path_4557" data-name="Path 4557" d="M146.975,71.448a2.482,2.482,0,1,1-2.482-2.482A2.464,2.464,0,0,1,146.975,71.448Z" transform="translate(170.064 74.776)" fill="#fff"/>
    <path id="Path_4558" data-name="Path 4558" d="M149.29,76.945a2.367,2.367,0,1,1-2.367-2.367A2.377,2.377,0,0,1,149.29,76.945Z" transform="translate(173.175 81.632)" fill="#fff"/>
    <path id="Path_4559" data-name="Path 4559" d="M150.994,82.682a2.309,2.309,0,1,1-2.309-2.309A2.354,2.354,0,0,1,150.994,82.682Z" transform="translate(175.397 88.711)" fill="#fff"/>
    <path id="Path_4560" data-name="Path 4560" d="M151.958,88.517a2.194,2.194,0,1,1-2.194-2.194A2.193,2.193,0,0,1,151.958,88.517Z" transform="translate(176.857 95.98)" fill="#fff"/>
    <path id="Path_4561" data-name="Path 4561" d="M152.622,94.384a2.136,2.136,0,1,1-2.136-2.136A2.131,2.131,0,0,1,152.622,94.384Z" transform="translate(177.809 103.217)" fill="#fff"/>
    <path id="Path_4562" data-name="Path 4562" d="M153.038,100.309a2.136,2.136,0,1,1-4.272,0,2.136,2.136,0,1,1,4.272,0Z" transform="translate(178.317 110.454)" fill="#fff"/>
    <path id="Path_4563" data-name="Path 4563" d="M153.128,106.291a2.194,2.194,0,1,1-2.194-2.194A2.27,2.27,0,0,1,153.128,106.291Z" transform="translate(178.285 117.691)" fill="#fff"/>
    <path id="Path_4564" data-name="Path 4564" d="M152.724,112.3a2.292,2.292,0,0,1-2.251,2.251,2.251,2.251,0,1,1,0-4.5A2.218,2.218,0,0,1,152.724,112.3Z" transform="translate(177.651 124.96)" fill="#fff"/>
    <circle id="Ellipse_1103" data-name="Ellipse 1103" cx="2.54" cy="2.54" r="2.54" transform="translate(344.744 243.767) rotate(-80.782)" fill="#fff"/>
    <path id="Path_4565" data-name="Path 4565" d="M161.483,120.317a2.655,2.655,0,1,1-5.311,0,2.648,2.648,0,0,1,2.655-2.655A2.686,2.686,0,0,1,161.483,120.317Z" transform="translate(187.364 134.26)" fill="#fff"/>
    <path id="Path_4566" data-name="Path 4566" d="M160.259,126.1a2.771,2.771,0,1,1-5.542,0,2.735,2.735,0,0,1,2.771-2.771A2.809,2.809,0,0,1,160.259,126.1Z" transform="translate(185.586 141.18)" fill="#fff"/>
    <path id="Path_4567" data-name="Path 4567" d="M158.154,131.607a2.771,2.771,0,1,1-2.771-2.771A2.809,2.809,0,0,1,158.154,131.607Z" transform="translate(183.015 147.91)" fill="#fff"/>
    <path id="Path_4568" data-name="Path 4568" d="M155.567,136.939a2.829,2.829,0,1,1-2.829-2.829A2.833,2.833,0,0,1,155.567,136.939Z" transform="translate(179.714 154.353)" fill="#fff"/>
    <circle id="Ellipse_1104" data-name="Ellipse 1104" cx="2.886" cy="2.886" r="2.886" transform="translate(322.28 304.94) rotate(-80.782)" fill="#fff"/>
    <circle id="Ellipse_1105" data-name="Ellipse 1105" cx="2.886" cy="2.886" r="2.886" transform="translate(314.903 310.343)" fill="#fff"/>
    <path id="Path_4569" data-name="Path 4569" d="M145.415,151.5a2.981,2.981,0,0,1-3,3,3.018,3.018,0,0,1-3-3,2.969,2.969,0,0,1,3-2.944A2.932,2.932,0,0,1,145.415,151.5Z" transform="translate(166.89 172.001)" fill="#fff"/>
    <path id="Path_4570" data-name="Path 4570" d="M141.243,155.828a3.043,3.043,0,0,1-3.06,3.06,3.06,3.06,0,1,1,3.06-3.06Z" transform="translate(161.653 177.144)" fill="#fff"/>
    <path id="Path_4571" data-name="Path 4571" d="M136.54,159.6a3.06,3.06,0,1,1-3.06-3.06A3.007,3.007,0,0,1,136.54,159.6Z" transform="translate(155.907 181.746)" fill="#fff"/>
    <circle id="Ellipse_1106" data-name="Ellipse 1106" cx="3.06" cy="3.06" r="3.06" transform="translate(274.308 350.65) rotate(-80.782)" fill="#fff"/>
    <path id="Path_4572" data-name="Path 4572" d="M125.655,164.99a3.007,3.007,0,0,1-2.944,3,2.973,2.973,0,0,1,0-5.946A2.884,2.884,0,0,1,125.655,164.99Z" transform="translate(142.893 188.475)" fill="#fff"/>
    <path id="Path_4573" data-name="Path 4573" d="M119.765,166.646a2.9,2.9,0,0,1-2.886,2.886,2.846,2.846,0,0,1-2.829-2.886,2.883,2.883,0,0,1,2.829-2.886A2.973,2.973,0,0,1,119.765,166.646Z" transform="translate(135.91 190.571)" fill="#fff"/>
    <path id="Path_4574" data-name="Path 4574" d="M113.63,167.487a2.713,2.713,0,1,1-2.713-2.713A2.71,2.71,0,0,1,113.63,167.487Z" transform="translate(128.768 191.809)" fill="#fff"/>
    <circle id="Ellipse_1107" data-name="Ellipse 1107" cx="2.54" cy="2.54" r="2.54" transform="translate(224.04 357.448)" fill="#fff"/>
    <path id="Path_4575" data-name="Path 4575" d="M101.4,167.5a2.367,2.367,0,1,1-2.367-2.367A2.416,2.416,0,0,1,101.4,167.5Z" transform="translate(114.674 192.253)" fill="#fff"/>
    <circle id="Ellipse_1108" data-name="Ellipse 1108" cx="2.251" cy="2.251" r="2.251" transform="translate(198.756 356.929)" fill="#fff"/>
    <circle id="Ellipse_1109" data-name="Ellipse 1109" cx="2.251" cy="2.251" r="2.251" transform="translate(185.956 356.4) rotate(-5.655)" fill="#fff"/>
    <path id="Path_4576" data-name="Path 4576" d="M84.258,166.3a2.28,2.28,0,1,1-2.251-2.309A2.3,2.3,0,0,1,84.258,166.3Z" transform="translate(93.947 190.856)" fill="#fff"/>
    <path id="Path_4577" data-name="Path 4577" d="M78.7,165.238a2.309,2.309,0,1,1-2.309-2.309A2.316,2.316,0,0,1,78.7,165.238Z" transform="translate(87.091 189.555)" fill="#fff"/>
    <circle id="Ellipse_1110" data-name="Ellipse 1110" cx="2.367" cy="2.367" r="2.367" transform="translate(148.937 348.962)" fill="#fff"/>
    <circle id="Ellipse_1111" data-name="Ellipse 1111" cx="2.425" cy="2.425" r="2.425" transform="translate(136.461 349.321) rotate(-80.782)" fill="#fff"/>
    <path id="Path_4578" data-name="Path 4578" d="M62.716,159.96a2.54,2.54,0,1,1-2.54-2.54A2.563,2.563,0,0,1,62.716,159.96Z" transform="translate(66.998 182.826)" fill="#fff"/>
    <circle id="Ellipse_1112" data-name="Ellipse 1112" cx="2.655" cy="2.655" r="2.655" transform="translate(112.799 334.473)" fill="#fff"/>
    <path id="Path_4579" data-name="Path 4579" d="M52.8,154.344a2.723,2.723,0,0,1-2.771,2.713,2.674,2.674,0,0,1-2.713-2.713,2.76,2.76,0,0,1,2.713-2.771A2.809,2.809,0,0,1,52.8,154.344Z" transform="translate(54.396 175.684)" fill="#fff"/>
    <path id="Path_4580" data-name="Path 4580" d="M48.34,150.55a2.735,2.735,0,0,1-2.771,2.771,2.771,2.771,0,1,1,2.771-2.771Z" transform="translate(48.873 171.05)" fill="#fff"/>
    <path id="Path_4581" data-name="Path 4581" d="M44.22,146.424a2.829,2.829,0,1,1-2.829-2.829A2.833,2.833,0,0,1,44.22,146.424Z" transform="translate(43.699 165.939)" fill="#fff"/>
    <path id="Path_4582" data-name="Path 4582" d="M40.359,141.986a2.886,2.886,0,1,1-2.886-2.886A2.9,2.9,0,0,1,40.359,141.986Z" transform="translate(38.843 160.448)" fill="#fff"/>
    <circle id="Ellipse_1113" data-name="Ellipse 1113" cx="3.002" cy="3.002" r="3.002" transform="translate(65.059 289.041)" fill="#fff"/>
    <path id="Path_4583" data-name="Path 4583" d="M33.415,132.5a3.117,3.117,0,1,1-3.117-3.117A3.1,3.1,0,0,1,33.415,132.5Z" transform="translate(29.796 148.576)" fill="#fff"/>
    <path id="Path_4584" data-name="Path 4584" d="M30.436,127.345a3.29,3.29,0,1,1-3.29-3.29A3.327,3.327,0,0,1,30.436,127.345Z" transform="translate(25.733 142.069)" fill="#fff"/>
    <path id="Path_4585" data-name="Path 4585" d="M27.949,121.853a3.464,3.464,0,1,1-3.464-3.464A3.437,3.437,0,0,1,27.949,121.853Z" transform="translate(22.273 135.149)" fill="#fff"/>
    <path id="Path_4586" data-name="Path 4586" d="M26.076,115.966a3.579,3.579,0,1,1-3.579-3.579A3.6,3.6,0,0,1,26.076,115.966Z" transform="translate(19.702 127.817)" fill="#fff"/>
    <path id="Path_4587" data-name="Path 4587" d="M24.82,109.871a3.666,3.666,0,1,1-3.695-3.695A3.759,3.759,0,0,1,24.82,109.871Z" transform="translate(17.956 120.23)" fill="#fff"/>
    <path id="Path_4588" data-name="Path 4588" d="M24.213,103.582a3.752,3.752,0,1,1-7.5,0,3.753,3.753,0,0,1,7.5,0Z" transform="translate(17.004 112.549)" fill="#fff"/>
    <path id="Path_4589" data-name="Path 4589" d="M24.109,97.275a3.752,3.752,0,1,1-3.752-3.752A3.745,3.745,0,0,1,24.109,97.275Z" transform="translate(16.877 104.771)" fill="#fff"/>
    <path id="Path_4590" data-name="Path 4590" d="M24.744,90.965a3.81,3.81,0,1,1-3.81-3.81A3.806,3.806,0,0,1,24.744,90.965Z" transform="translate(17.512 96.995)" fill="#fff"/>
    <path id="Path_4591" data-name="Path 4591" d="M25.966,84.7a3.81,3.81,0,1,1-3.81-3.81A3.844,3.844,0,0,1,25.966,84.7Z" transform="translate(19.004 89.345)" fill="#fff"/>
    <path id="Path_4592" data-name="Path 4592" d="M27.773,78.591a3.752,3.752,0,1,1-3.752-3.752A3.674,3.674,0,0,1,27.773,78.591Z" transform="translate(21.353 81.949)" fill="#fff"/>
    <path id="Path_4593" data-name="Path 4593" d="M30.288,72.77a3.724,3.724,0,0,1-7.447,0,3.724,3.724,0,1,1,7.447,0Z" transform="translate(24.495 74.839)" fill="#fff"/>
    <path id="Path_4594" data-name="Path 4594" d="M33.193,67.125A3.683,3.683,0,0,1,29.5,70.819a3.695,3.695,0,1,1,3.695-3.695Z" transform="translate(28.114 68.015)" fill="#fff"/>
    <path id="Path_4595" data-name="Path 4595" d="M36.559,61.818a3.637,3.637,0,1,1-3.637-3.637A3.622,3.622,0,0,1,36.559,61.818Z" transform="translate(32.367 61.603)" fill="#fff"/>
    <path id="Path_4596" data-name="Path 4596" d="M40.446,56.9a3.579,3.579,0,1,1-3.579-3.579A3.6,3.6,0,0,1,40.446,56.9Z" transform="translate(37.256 55.667)" fill="#fff"/>
    <path id="Path_4597" data-name="Path 4597" d="M44.7,52.348a3.521,3.521,0,1,1-7.043,0,3.535,3.535,0,0,1,3.521-3.521A3.613,3.613,0,0,1,44.7,52.348Z" transform="translate(42.588 50.176)" fill="#fff"/>
    <circle id="Ellipse_1114" data-name="Ellipse 1114" cx="3.521" cy="3.521" r="3.521" transform="matrix(0.851, -0.526, 0.526, 0.851, 88.721, 91.564)" fill="#fff"/>
    <circle id="Ellipse_1115" data-name="Ellipse 1115" cx="3.579" cy="3.579" r="3.579" transform="matrix(0.526, -0.851, 0.851, 0.526, 98.743, 84.303)" fill="#fff"/>
    <path id="Path_4598" data-name="Path 4598" d="M58.892,39.814A3.683,3.683,0,0,1,55.2,43.509,3.72,3.72,0,0,1,51.5,39.814,3.683,3.683,0,0,1,55.2,36.12,3.72,3.72,0,0,1,58.892,39.814Z" transform="translate(59.507 34.654)" fill="#fff"/>
    <path id="Path_4599" data-name="Path 4599" d="M64.349,36.618a3.695,3.695,0,1,1-3.695-3.695A3.72,3.72,0,0,1,64.349,36.618Z" transform="translate(66.173 30.75)" fill="#fff"/>
    <circle id="Ellipse_1116" data-name="Ellipse 1116" cx="3.637" cy="3.637" r="3.637" transform="translate(136.121 58.305)" fill="#fff"/>
    <path id="Path_4600" data-name="Path 4600" d="M76.046,32.319a3.579,3.579,0,1,1-3.579-3.579A3.6,3.6,0,0,1,76.046,32.319Z" transform="translate(80.742 25.639)" fill="#fff"/>
    <circle id="Ellipse_1117" data-name="Ellipse 1117" cx="3.464" cy="3.464" r="3.464" transform="translate(163.484 52.243)" fill="#fff"/>
    <path id="Path_4601" data-name="Path 4601" d="M88.109,30.867a3.348,3.348,0,1,1-3.348-3.348A3.388,3.388,0,0,1,88.109,30.867Z" transform="translate(96.042 24.147)" fill="#fff"/>
    <path id="Path_4602" data-name="Path 4602" d="M94.025,31.135A3.175,3.175,0,1,1,90.85,27.96,3.242,3.242,0,0,1,94.025,31.135Z" transform="translate(103.692 24.687)" fill="#fff"/>
    <path id="Path_4603" data-name="Path 4603" d="M99.785,32.054a3.018,3.018,0,0,1-3,3,3,3,0,1,1,3-3Z" transform="translate(111.151 26.02)" fill="#fff"/>
    <path id="Path_4604" data-name="Path 4604" d="M105.274,33.461a2.771,2.771,0,1,1-5.542,0A2.809,2.809,0,0,1,102.5,30.69,2.7,2.7,0,0,1,105.274,33.461Z" transform="translate(118.42 28.019)" fill="#fff"/>
    <path id="Path_4605" data-name="Path 4605" d="M110.7,35.241a2.627,2.627,0,0,1-5.253,0,2.637,2.637,0,0,1,2.6-2.655A2.725,2.725,0,0,1,110.7,35.241Z" transform="translate(125.403 30.337)" fill="#fff"/>
    <circle id="Ellipse_1118" data-name="Ellipse 1118" cx="2.54" cy="2.54" r="2.54" transform="translate(242.761 71.919) rotate(-80.782)" fill="#fff"/>
    <path id="Path_4606" data-name="Path 4606" d="M121.469,39.153a2.54,2.54,0,1,1-2.54-2.54A2.525,2.525,0,0,1,121.469,39.153Z" transform="translate(138.767 35.257)" fill="#fff"/>
    <path id="Path_4607" data-name="Path 4607" d="M126.744,41.57a2.54,2.54,0,1,1-2.54-2.54A2.525,2.525,0,0,1,126.744,41.57Z" transform="translate(145.21 38.209)" fill="#fff"/>
    <path id="Path_4608" data-name="Path 4608" d="M131.591,44.553a2.482,2.482,0,1,1-2.482-2.482A2.464,2.464,0,0,1,131.591,44.553Z" transform="translate(151.273 41.923)" fill="#fff"/>
    <path id="Path_4609" data-name="Path 4609" d="M135.945,48.185a2.425,2.425,0,1,1-2.425-2.425A2.439,2.439,0,0,1,135.945,48.185Z" transform="translate(156.733 46.43)" fill="#fff"/>
    <path id="Path_4610" data-name="Path 4610" d="M139.653,52.273a2.251,2.251,0,1,1-4.5,0,2.251,2.251,0,0,1,4.5,0Z" transform="translate(161.684 51.636)" fill="#fff"/>
    <circle id="Ellipse_1119" data-name="Ellipse 1119" cx="2.136" cy="2.136" r="2.136" transform="translate(304.628 111.818)" fill="#fff"/>
    <path id="Path_4611" data-name="Path 4611" d="M145.6,61.443a1.963,1.963,0,1,1-1.963-1.963A1.947,1.947,0,0,1,145.6,61.443Z" transform="translate(169.652 63.19)" fill="#fff"/>
    <path id="Path_4612" data-name="Path 4612" d="M147.8,66.311a1.79,1.79,0,1,1-1.79-1.79A1.8,1.8,0,0,1,147.8,66.311Z" transform="translate(172.762 69.348)" fill="#fff"/>
    <path id="Path_4613" data-name="Path 4613" d="M149.906,71.211a1.674,1.674,0,1,1-1.674-1.674A1.675,1.675,0,0,1,149.906,71.211Z" transform="translate(175.619 75.474)" fill="#fff"/>
    <path id="Path_4614" data-name="Path 4614" d="M152.057,76.148a1.675,1.675,0,0,1-1.674,1.674,1.627,1.627,0,0,1-1.616-1.674,1.664,1.664,0,0,1,1.616-1.674A1.639,1.639,0,0,1,152.057,76.148Z" transform="translate(178.317 81.505)" fill="#fff"/>
    <circle id="Ellipse_1120" data-name="Ellipse 1120" cx="1.674" cy="1.674" r="1.674" transform="translate(331.875 166.948)" fill="#fff"/>
    <path id="Path_4615" data-name="Path 4615" d="M156.347,86.242a1.79,1.79,0,1,1-1.79-1.79A1.762,1.762,0,0,1,156.347,86.242Z" transform="translate(183.206 93.694)" fill="#fff"/>
    <circle id="Ellipse_1121" data-name="Ellipse 1121" cx="1.905" cy="1.905" r="1.905" transform="translate(339.38 189.75)" fill="#fff"/>
    <path id="Path_4616" data-name="Path 4616" d="M159.59,97.049a2.02,2.02,0,1,1-2.02-2.02A2.045,2.045,0,0,1,159.59,97.049Z" transform="translate(186.602 106.613)" fill="#fff"/>
    <circle id="Ellipse_1122" data-name="Ellipse 1122" cx="2.136" cy="2.136" r="2.136" transform="translate(343.408 214.867) rotate(-22.5)" fill="#fff"/>
    <ellipse id="Ellipse_1123" data-name="Ellipse 1123" cx="2.367" cy="2.309" rx="2.367" ry="2.309" transform="translate(344.855 230.668) rotate(-80.782)" fill="#fff"/>
    <circle id="Ellipse_1124" data-name="Ellipse 1124" cx="2.54" cy="2.54" r="2.54" transform="translate(344.744 243.767) rotate(-80.782)" fill="#fff"/>
    <path id="Path_4617" data-name="Path 4617" d="M161.483,120.317a2.655,2.655,0,1,1-5.311,0,2.648,2.648,0,0,1,2.655-2.655A2.686,2.686,0,0,1,161.483,120.317Z" transform="translate(187.364 134.26)" fill="#fff"/>
    <path id="Path_4618" data-name="Path 4618" d="M165.529,114.09a1.963,1.963,0,1,1-1.963-1.963A1.947,1.947,0,0,1,165.529,114.09Z" transform="translate(193.998 127.5)" fill="#fff"/>
    <path id="Path_4619" data-name="Path 4619" d="M164.437,119.131a1.963,1.963,0,1,1-1.963-1.963A1.947,1.947,0,0,1,164.437,119.131Z" transform="translate(192.665 133.657)" fill="#fff"/>
    <path id="Path_4620" data-name="Path 4620" d="M163.138,124.146a1.963,1.963,0,1,1-1.963-1.963A1.947,1.947,0,0,1,163.138,124.146Z" transform="translate(191.078 139.784)" fill="#fff"/>
    <path id="Path_4621" data-name="Path 4621" d="M161.778,129.167a2.07,2.07,0,0,1-2.078,2.078,2.05,2.05,0,0,1,0-4.1A2.058,2.058,0,0,1,161.778,129.167Z" transform="translate(189.205 145.846)" fill="#fff"/>
    <path id="Path_4622" data-name="Path 4622" d="M160.236,134.22a2.131,2.131,0,0,1-2.136,2.136,2.136,2.136,0,1,1,0-4.272A2.131,2.131,0,0,1,160.236,134.22Z" transform="translate(187.11 151.877)" fill="#fff"/>
    <path id="Path_4623" data-name="Path 4623" d="M158.284,139.142a2.251,2.251,0,1,1-2.251-2.251A2.292,2.292,0,0,1,158.284,139.142Z" transform="translate(184.443 157.75)" fill="#fff"/>
    <circle id="Ellipse_1125" data-name="Ellipse 1125" cx="2.251" cy="2.251" r="2.251" transform="translate(331.862 308.862) rotate(-80.782)" fill="#fff"/>
    <path id="Path_4624" data-name="Path 4624" d="M152.5,148.009a2.309,2.309,0,1,1-2.309-2.309A2.316,2.316,0,0,1,152.5,148.009Z" transform="translate(177.238 168.51)" fill="#fff"/>
    <path id="Path_4625" data-name="Path 4625" d="M149.071,152.063a2.309,2.309,0,1,1-2.309-2.309A2.316,2.316,0,0,1,149.071,152.063Z" transform="translate(173.048 173.462)" fill="#fff"/>
    <path id="Path_4626" data-name="Path 4626" d="M145.549,156.044a2.367,2.367,0,1,1-2.367-2.367A2.341,2.341,0,0,1,145.549,156.044Z" transform="translate(168.604 178.255)" fill="#fff"/>
    <path id="Path_4627" data-name="Path 4627" d="M141.87,159.9a2.425,2.425,0,1,1-2.425-2.425A2.439,2.439,0,0,1,141.87,159.9Z" transform="translate(163.97 182.889)" fill="#fff"/>
    <path id="Path_4628" data-name="Path 4628" d="M138.021,163.624a2.54,2.54,0,1,1-2.54-2.54A2.49,2.49,0,0,1,138.021,163.624Z" transform="translate(158.986 187.302)" fill="#fff"/>
    <circle id="Ellipse_1126" data-name="Ellipse 1126" cx="2.598" cy="2.598" r="2.598" transform="translate(282.345 355.774)" fill="#fff"/>
    <circle id="Ellipse_1127" data-name="Ellipse 1127" cx="2.713" cy="2.713" r="2.713" transform="translate(271.896 362.24)" fill="#fff"/>
    <circle id="Ellipse_1128" data-name="Ellipse 1128" cx="2.771" cy="2.771" r="2.771" transform="translate(261.043 368.012)" fill="#fff"/>
    <path id="Path_4629" data-name="Path 4629" d="M119.6,174.983a2.829,2.829,0,1,1-2.829-2.829A2.8,2.8,0,0,1,119.6,174.983Z" transform="translate(135.783 200.823)" fill="#fff"/>
    <path id="Path_4630" data-name="Path 4630" d="M114.475,176.942a2.945,2.945,0,0,1-2.886,2.944,3,3,0,0,1-2.944-2.944A2.957,2.957,0,0,1,111.589,174,2.908,2.908,0,0,1,114.475,176.942Z" transform="translate(129.307 203.077)" fill="#fff"/>
    <path id="Path_4631" data-name="Path 4631" d="M109.192,178.455a2.981,2.981,0,0,1-3,3,3,3,0,1,1,0-6A2.981,2.981,0,0,1,109.192,178.455Z" transform="translate(122.642 204.855)" fill="#fff"/>
    <path id="Path_4632" data-name="Path 4632" d="M103.746,179.526a3.06,3.06,0,1,1-3.06-3.06A3.118,3.118,0,0,1,103.746,179.526Z" transform="translate(115.849 206.093)" fill="#fff"/>
    <path id="Path_4633" data-name="Path 4633" d="M98.133,180.046a3.043,3.043,0,0,1-3.06,3.06,3.06,3.06,0,1,1,0-6.119A3.043,3.043,0,0,1,98.133,180.046Z" transform="translate(108.993 206.728)" fill="#fff"/>
    <circle id="Ellipse_1129" data-name="Ellipse 1129" cx="3.06" cy="3.06" r="3.06" transform="translate(188.263 383.668) rotate(-3.17)" fill="#fff"/>
    <circle id="Ellipse_1130" data-name="Ellipse 1130" cx="3.06" cy="3.06" r="3.06" transform="translate(175.74 387.89) rotate(-85.935)" fill="#fff"/>
    <path id="Path_4634" data-name="Path 4634" d="M81.263,178.143a3.031,3.031,0,1,1-6.061,0,3,3,0,0,1,3.06-3A3.057,3.057,0,0,1,81.263,178.143Z" transform="translate(88.456 204.474)" fill="#fff"/>
    <path id="Path_4635" data-name="Path 4635" d="M75.774,176.74a3,3,0,1,1-3-3A2.981,2.981,0,0,1,75.774,176.74Z" transform="translate(81.821 202.76)" fill="#fff"/>
    <path id="Path_4636" data-name="Path 4636" d="M70.4,175.077a3,3,0,1,1-3-3A2.981,2.981,0,0,1,70.4,175.077Z" transform="translate(75.251 200.728)" fill="#fff"/>
    <circle id="Ellipse_1131" data-name="Ellipse 1131" cx="3.06" cy="3.06" r="3.06" transform="translate(127.866 368.359)" fill="#fff"/>
    <path id="Path_4637" data-name="Path 4637" d="M60.039,170.847a3.06,3.06,0,1,1-3.06-3.06A3.043,3.043,0,0,1,60.039,170.847Z" transform="translate(62.459 195.491)" fill="#fff"/>
    <circle id="Ellipse_1132" data-name="Ellipse 1132" cx="3.117" cy="3.117" r="3.117" transform="translate(105.179 357.333)" fill="#fff"/>
    <path id="Path_4638" data-name="Path 4638" d="M50.291,165.376a3.175,3.175,0,1,1-3.175-3.175A3.13,3.13,0,0,1,50.291,165.376Z" transform="translate(50.27 188.666)" fill="#fff"/>
    <path id="Path_4639" data-name="Path 4639" d="M45.651,162.211a3.233,3.233,0,1,1-3.233-3.233A3.227,3.227,0,0,1,45.651,162.211Z" transform="translate(44.461 184.73)" fill="#fff"/>
    <path id="Path_4640" data-name="Path 4640" d="M41.251,158.657a3.319,3.319,0,1,1-3.348-3.29A3.266,3.266,0,0,1,41.251,158.657Z" transform="translate(38.874 180.318)" fill="#fff"/>
    <path id="Path_4641" data-name="Path 4641" d="M37.281,154.557a3.348,3.348,0,1,1-3.348-3.348A3.314,3.314,0,0,1,37.281,154.557Z" transform="translate(33.954 175.24)" fill="#fff"/>
    <path id="Path_4642" data-name="Path 4642" d="M33.84,149.848a3.29,3.29,0,1,1-6.581,0,3.253,3.253,0,0,1,3.29-3.29A3.327,3.327,0,0,1,33.84,149.848Z" transform="translate(29.891 169.558)" fill="#fff"/>
    <circle id="Ellipse_1133" data-name="Ellipse 1133" cx="3.175" cy="3.175" r="3.175" transform="translate(51.204 304.974)" fill="#fff"/>
    <circle id="Ellipse_1134" data-name="Ellipse 1134" cx="3.06" cy="3.06" r="3.06" transform="translate(46.24 293.428)" fill="#fff"/>
    <circle id="Ellipse_1135" data-name="Ellipse 1135" cx="2.944" cy="2.944" r="2.944" transform="translate(41.91 281.825)" fill="#fff"/>
    <path id="Path_4643" data-name="Path 4643" d="M24.445,128.676a2.829,2.829,0,1,1-2.829-2.829A2.871,2.871,0,0,1,24.445,128.676Z" transform="translate(19.544 144.259)" fill="#fff"/>
    <path id="Path_4644" data-name="Path 4644" d="M23,123.239a2.809,2.809,0,0,1-2.771,2.771,2.772,2.772,0,0,1-2.771-2.771,2.735,2.735,0,0,1,2.771-2.771A2.772,2.772,0,0,1,23,123.239Z" transform="translate(17.925 137.689)" fill="#fff"/>
    <path id="Path_4645" data-name="Path 4645" d="M22,117.719a2.71,2.71,0,0,1-2.713,2.713,2.684,2.684,0,0,1,0-5.369A2.7,2.7,0,0,1,22,117.719Z" transform="translate(16.909 131.086)" fill="#fff"/>
    <circle id="Ellipse_1136" data-name="Ellipse 1136" cx="2.598" cy="2.598" r="2.598" transform="translate(32.616 234.085)" fill="#fff"/>
    <circle id="Ellipse_1137" data-name="Ellipse 1137" cx="2.54" cy="2.54" r="2.54" transform="translate(32.385 222.02)" fill="#fff"/>
    <circle id="Ellipse_1138" data-name="Ellipse 1138" cx="2.482" cy="2.482" r="2.482" transform="translate(31.608 212.562) rotate(-45)" fill="#fff"/>
    <path id="Path_4646" data-name="Path 4646" d="M21.465,95.9a2.482,2.482,0,1,1-2.482-2.482A2.539,2.539,0,0,1,21.465,95.9Z" transform="translate(16.75 104.645)" fill="#fff"/>
    <circle id="Ellipse_1139" data-name="Ellipse 1139" cx="2.482" cy="2.482" r="2.482" transform="translate(34.694 186.171)" fill="#fff"/>
    <path id="Path_4647" data-name="Path 4647" d="M23.143,85.266a2.425,2.425,0,1,1-2.425-2.425A2.439,2.439,0,0,1,23.143,85.266Z" transform="translate(18.94 91.726)" fill="#fff"/>
    <path id="Path_4648" data-name="Path 4648" d="M24.65,80.121A2.425,2.425,0,1,1,22.225,77.7,2.4,2.4,0,0,1,24.65,80.121Z" transform="translate(20.781 85.441)" fill="#fff"/>
    <path id="Path_4649" data-name="Path 4649" d="M26.405,75.049a2.367,2.367,0,1,1-2.367-2.367A2.341,2.341,0,0,1,26.405,75.049Z" transform="translate(23.067 79.314)" fill="#fff"/>
    <circle id="Ellipse_1140" data-name="Ellipse 1140" cx="2.367" cy="2.367" r="2.367" transform="translate(49.241 140.97)" fill="#fff"/>
    <circle id="Ellipse_1141" data-name="Ellipse 1141" cx="2.425" cy="2.425" r="2.425" transform="translate(53.975 129.944)" fill="#fff"/>
    <path id="Path_4650" data-name="Path 4650" d="M33.315,60.456a2.482,2.482,0,1,1-2.482-2.482A2.5,2.5,0,0,1,33.315,60.456Z" transform="translate(31.225 61.349)" fill="#fff"/>
    <path id="Path_4651" data-name="Path 4651" d="M36.381,55.986A2.482,2.482,0,1,1,33.9,53.5,2.5,2.5,0,0,1,36.381,55.986Z" transform="translate(34.97 55.889)" fill="#fff"/>
    <circle id="Ellipse_1142" data-name="Ellipse 1142" cx="2.482" cy="2.482" r="2.482" transform="translate(74.411 100.503)" fill="#fff"/>
    <path id="Path_4652" data-name="Path 4652" d="M43.894,48.387a2.367,2.367,0,1,1-2.367-2.367A2.341,2.341,0,0,1,43.894,48.387Z" transform="translate(44.429 46.748)" fill="#fff"/>
    <path id="Path_4653" data-name="Path 4653" d="M48.158,45.283a2.218,2.218,0,0,1-2.251,2.251,2.251,2.251,0,1,1,0-4.5A2.333,2.333,0,0,1,48.158,45.283Z" transform="translate(49.921 43.097)" fill="#fff"/>
    <path id="Path_4654" data-name="Path 4654" d="M52.671,42.771a2.078,2.078,0,1,1-2.078-2.078A2.107,2.107,0,0,1,52.671,42.771Z" transform="translate(55.856 40.241)" fill="#fff"/>
    <path id="Path_4655" data-name="Path 4655" d="M57.3,40.775a1.847,1.847,0,1,1-1.847-1.847A1.824,1.824,0,0,1,57.3,40.775Z" transform="translate(62.078 38.081)" fill="#fff"/>
    <path id="Path_4656" data-name="Path 4656" d="M62.023,39.145a1.674,1.674,0,1,1-1.674-1.674A1.755,1.755,0,0,1,62.023,39.145Z" transform="translate(68.268 36.305)" fill="#fff"/>
    <path id="Path_4657" data-name="Path 4657" d="M66.692,37.777a1.5,1.5,0,1,1-1.5-1.5A1.528,1.528,0,0,1,66.692,37.777Z" transform="translate(74.394 34.844)" fill="#fff"/>
    <path id="Path_4658" data-name="Path 4658" d="M71.372,36.544a1.385,1.385,0,1,1-1.385-1.385A1.4,1.4,0,0,1,71.372,36.544Z" transform="translate(80.393 33.479)" fill="#fff"/>
    <path id="Path_4659" data-name="Path 4659" d="M76.053,35.547a1.27,1.27,0,1,1-1.27-1.27A1.211,1.211,0,0,1,76.053,35.547Z" transform="translate(86.392 32.398)" fill="#fff"/>
    <path id="Path_4660" data-name="Path 4660" d="M80.8,34.811A1.212,1.212,0,1,1,79.584,33.6,1.219,1.219,0,0,1,80.8,34.811Z" transform="translate(92.328 31.575)" fill="#fff"/>
    <path id="Path_4661" data-name="Path 4661" d="M85.54,34.364a1.155,1.155,0,1,1-1.155-1.155A1.158,1.158,0,0,1,85.54,34.364Z" transform="translate(98.264 31.099)" fill="#fff"/>
    <path id="Path_4662" data-name="Path 4662" d="M90.258,34.28a1.1,1.1,0,1,1-1.1-1.1A1.134,1.134,0,0,1,90.258,34.28Z" transform="translate(104.168 31.067)" fill="#fff"/>
    <path id="Path_4663" data-name="Path 4663" d="M94.976,34.456a1.039,1.039,0,1,1-1.039-1.039A1.035,1.035,0,0,1,94.976,34.456Z" transform="translate(110.072 31.353)" fill="#fff"/>
    <path id="Path_4664" data-name="Path 4664" d="M99.731,34.794a1.039,1.039,0,1,1-1.039-1.039A1.035,1.035,0,0,1,99.731,34.794Z" transform="translate(115.881 31.765)" fill="#fff"/>
    <path id="Path_4665" data-name="Path 4665" d="M104.461,35.418a1.039,1.039,0,1,1-1.039-1.039A1.035,1.035,0,0,1,104.461,35.418Z" transform="translate(121.658 32.527)" fill="#fff"/>
    <path id="Path_4666" data-name="Path 4666" d="M109.138,36.327a1.039,1.039,0,1,1-1.039-1.039A1.035,1.035,0,0,1,109.138,36.327Z" transform="translate(127.371 33.638)" fill="#fff"/>
    <path id="Path_4667" data-name="Path 4667" d="M113.789,37.523a1.039,1.039,0,1,1-1.039-1.039A1.035,1.035,0,0,1,113.789,37.523Z" transform="translate(133.053 35.098)" fill="#fff"/>
    <path id="Path_4668" data-name="Path 4668" d="M118.478,38.932a1.1,1.1,0,1,1-1.1-1.1A1.1,1.1,0,0,1,118.478,38.932Z" transform="translate(138.64 36.749)" fill="#fff"/>
    <path id="Path_4669" data-name="Path 4669" d="M123.115,40.548a1.155,1.155,0,1,1-1.155-1.155A1.158,1.158,0,0,1,123.115,40.548Z" transform="translate(144.163 38.654)" fill="#fff"/>
    <path id="Path_4670" data-name="Path 4670" d="M127.674,42.505a1.219,1.219,0,0,1-1.212,1.212,1.212,1.212,0,0,1,0-2.425A1.151,1.151,0,0,1,127.674,42.505Z" transform="translate(149.591 40.969)" fill="#fff"/>
    <path id="Path_4671" data-name="Path 4671" d="M132.051,44.848a1.27,1.27,0,1,1-1.27-1.27A1.281,1.281,0,0,1,132.051,44.848Z" transform="translate(154.796 43.764)" fill="#fff"/>
    <path id="Path_4672" data-name="Path 4672" d="M136.142,47.654a1.329,1.329,0,1,1-1.328-1.27A1.259,1.259,0,0,1,136.142,47.654Z" transform="translate(159.653 47.192)" fill="#fff"/>
    <path id="Path_4673" data-name="Path 4673" d="M139.665,50.954a1.27,1.27,0,1,1-1.27-1.27A1.281,1.281,0,0,1,139.665,50.954Z" transform="translate(164.097 51.223)" fill="#fff"/>
    <path id="Path_4674" data-name="Path 4674" d="M142.772,54.586a1.219,1.219,0,0,1-1.212,1.212,1.212,1.212,0,1,1,1.212-1.212Z" transform="translate(168.033 55.731)" fill="#fff"/>
    <path id="Path_4675" data-name="Path 4675" d="M145.619,58.426a1.155,1.155,0,1,1-1.155-1.155A1.158,1.158,0,0,1,145.619,58.426Z" transform="translate(171.651 60.492)" fill="#fff"/>
    <circle id="Ellipse_1143" data-name="Ellipse 1143" cx="1.155" cy="1.155" r="1.155" transform="translate(321.253 126.423)" fill="#fff"/>
    <path id="Path_4676" data-name="Path 4676" d="M151.283,66.248a1.155,1.155,0,1,1-1.155-1.155A1.122,1.122,0,0,1,151.283,66.248Z" transform="translate(178.571 70.046)" fill="#fff"/>
    <path id="Path_4677" data-name="Path 4677" d="M154.217,70.313a1.27,1.27,0,1,1-1.27-1.27A1.281,1.281,0,0,1,154.217,70.313Z" transform="translate(181.872 74.871)" fill="#fff"/>
    <path id="Path_4678" data-name="Path 4678" d="M156.879,74.555a1.306,1.306,0,0,1-1.328,1.328,1.343,1.343,0,0,1-1.328-1.328,1.328,1.328,0,0,1,2.655,0Z" transform="translate(184.983 79.982)" fill="#fff"/>
    <path id="Path_4679" data-name="Path 4679" d="M159.422,79.01a1.443,1.443,0,1,1-1.443-1.443A1.466,1.466,0,0,1,159.422,79.01Z" transform="translate(187.808 85.282)" fill="#fff"/>
    <circle id="Ellipse_1144" data-name="Ellipse 1144" cx="1.616" cy="1.616" r="1.616" transform="translate(348.533 173.511) rotate(-22.5)" fill="#fff"/>
    <path id="Path_4680" data-name="Path 4680" d="M163.872,88.471A1.737,1.737,0,0,1,162.14,90.2a1.7,1.7,0,0,1-1.732-1.732,1.737,1.737,0,0,1,1.732-1.732A1.817,1.817,0,0,1,163.872,88.471Z" transform="translate(192.538 96.488)" fill="#fff"/>
    <path id="Path_4681" data-name="Path 4681" d="M165.35,93.5a1.824,1.824,0,0,1-1.847,1.847,1.847,1.847,0,1,1,0-3.695A1.9,1.9,0,0,1,165.35,93.5Z" transform="translate(194.061 102.487)" fill="#fff"/>
    <path id="Path_4682" data-name="Path 4682" d="M166.271,98.623a1.9,1.9,0,1,1-1.9-1.9A1.922,1.922,0,0,1,166.271,98.623Z" transform="translate(195.045 108.677)" fill="#fff"/>
    <circle id="Ellipse_1145" data-name="Ellipse 1145" cx="1.963" cy="1.963" r="1.963" transform="translate(357.671 220.358) rotate(-80.782)" fill="#fff"/>
    <path id="Path_4683" data-name="Path 4683" d="M166.282,108.971a1.963,1.963,0,1,1-1.963-1.963A1.947,1.947,0,0,1,166.282,108.971Z" transform="translate(194.918 121.246)" fill="#fff"/>
    <path id="Path_4684" data-name="Path 4684" d="M165.529,114.09a1.963,1.963,0,1,1-1.963-1.963A1.947,1.947,0,0,1,165.529,114.09Z" transform="translate(193.998 127.5)" fill="#fff"/>
    <path id="Path_4685" data-name="Path 4685" d="M164.437,119.131a1.963,1.963,0,1,1-1.963-1.963A1.947,1.947,0,0,1,164.437,119.131Z" transform="translate(192.665 133.657)" fill="#fff"/>
    <circle id="Ellipse_1146" data-name="Ellipse 1146" cx="3.637" cy="3.637" r="3.637" transform="translate(396.059 227.493) rotate(-67.5)" fill="#fff"/>
    <path id="Path_4686" data-name="Path 4686" d="M187.442,113.327a3.683,3.683,0,0,1-3.695,3.695,3.72,3.72,0,0,1-3.695-3.695,3.695,3.695,0,0,1,7.389,0Z" transform="translate(216.535 124.452)" fill="#fff"/>
    <path id="Path_4687" data-name="Path 4687" d="M186.74,118.784a3.695,3.695,0,1,1-3.695-3.695A3.683,3.683,0,0,1,186.74,118.784Z" transform="translate(215.678 131.118)" fill="#fff"/>
    <path id="Path_4688" data-name="Path 4688" d="M185.441,124.163a3.695,3.695,0,0,1-7.389,0,3.683,3.683,0,0,1,3.695-3.695A3.72,3.72,0,0,1,185.441,124.163Z" transform="translate(214.09 137.689)" fill="#fff"/>
    <circle id="Ellipse_1147" data-name="Ellipse 1147" cx="3.637" cy="3.637" r="3.637" transform="translate(387.633 270.386) rotate(-9.218)" fill="#fff"/>
    <circle id="Ellipse_1148" data-name="Ellipse 1148" cx="3.579" cy="3.579" r="3.579" transform="translate(383.137 280.902)" fill="#fff"/>
    <path id="Path_4689" data-name="Path 4689" d="M178.275,139a3.464,3.464,0,1,1-3.464-3.464A3.474,3.474,0,0,1,178.275,139Z" transform="translate(205.901 156.099)" fill="#fff"/>
    <path id="Path_4690" data-name="Path 4690" d="M175.056,143.461a3.348,3.348,0,1,1-3.348-3.348A3.351,3.351,0,0,1,175.056,143.461Z" transform="translate(202.251 161.686)" fill="#fff"/>
    <circle id="Ellipse_1149" data-name="Ellipse 1149" cx="3.233" cy="3.233" r="3.233" transform="translate(363.394 311.439)" fill="#fff"/>
    <path id="Path_4691" data-name="Path 4691" d="M167.916,151.676a3.117,3.117,0,1,1-3.117-3.117A3.1,3.1,0,0,1,167.916,151.676Z" transform="translate(194.093 172.002)" fill="#fff"/>
    <path id="Path_4692" data-name="Path 4692" d="M164.24,155.568a3.06,3.06,0,1,1-3.06-3.06A3.043,3.043,0,0,1,164.24,155.568Z" transform="translate(189.744 176.827)" fill="#fff"/>
    <path id="Path_4693" data-name="Path 4693" d="M160.409,159.252a3,3,0,1,1-3-3A2.981,2.981,0,0,1,160.409,159.252Z" transform="translate(185.205 181.397)" fill="#fff"/>
    <path id="Path_4694" data-name="Path 4694" d="M156.448,162.728a2.944,2.944,0,1,1-2.944-2.944A2.957,2.957,0,0,1,156.448,162.728Z" transform="translate(180.507 185.714)" fill="#fff"/>
    <path id="Path_4695" data-name="Path 4695" d="M152.33,166a2.886,2.886,0,1,1-2.886-2.886A2.933,2.933,0,0,1,152.33,166Z" transform="translate(175.619 189.777)" fill="#fff"/>
    <path id="Path_4696" data-name="Path 4696" d="M148.031,169.005a2.829,2.829,0,1,1-2.829-2.829A2.833,2.833,0,0,1,148.031,169.005Z" transform="translate(170.509 193.523)" fill="#fff"/>
    <path id="Path_4697" data-name="Path 4697" d="M143.692,171.864a2.829,2.829,0,1,1-2.829-2.829A2.833,2.833,0,0,1,143.692,171.864Z" transform="translate(165.208 197.014)" fill="#fff"/>
    <path id="Path_4698" data-name="Path 4698" d="M139.107,174.379a2.771,2.771,0,0,1-5.542,0,2.809,2.809,0,0,1,2.771-2.771A2.735,2.735,0,0,1,139.107,174.379Z" transform="translate(159.748 200.157)" fill="#fff"/>
    <circle id="Ellipse_1150" data-name="Ellipse 1150" cx="2.713" cy="2.713" r="2.713" transform="translate(283.095 376.787)" fill="#fff"/>
    <circle id="Ellipse_1151" data-name="Ellipse 1151" cx="2.713" cy="2.713" r="2.713" transform="translate(272.395 386.358) rotate(-88.093)" fill="#fff"/>
    <path id="Path_4699" data-name="Path 4699" d="M124.6,179.98a2.627,2.627,0,0,1-5.253,0,2.627,2.627,0,1,1,5.253,0Z" transform="translate(142.385 207.14)" fill="#fff"/>
    <path id="Path_4700" data-name="Path 4700" d="M119.52,181.06a2.525,2.525,0,0,1-2.54,2.54,2.54,2.54,0,0,1,0-5.08A2.525,2.525,0,0,1,119.52,181.06Z" transform="translate(136.386 208.6)" fill="#fff"/>
    <circle id="Ellipse_1152" data-name="Ellipse 1152" cx="2.482" cy="2.482" r="2.482" transform="translate(239.742 389.083)" fill="#fff"/>
    <path id="Path_4701" data-name="Path 4701" d="M109.31,182.322a2.425,2.425,0,1,1-2.425-2.425A2.439,2.439,0,0,1,109.31,182.322Z" transform="translate(124.197 210.283)" fill="#fff"/>
    <path id="Path_4702" data-name="Path 4702" d="M104.206,182.5a2.367,2.367,0,0,1-4.734,0,2.367,2.367,0,0,1,4.734,0Z" transform="translate(118.103 210.568)" fill="#fff"/>
    <path id="Path_4703" data-name="Path 4703" d="M99.038,182.306a2.251,2.251,0,1,1-2.251-2.251A2.184,2.184,0,0,1,99.038,182.306Z" transform="translate(112.072 210.472)" fill="#fff"/>
    <path id="Path_4704" data-name="Path 4704" d="M94.011,181.8a2.194,2.194,0,1,1-2.194-2.194A2.193,2.193,0,0,1,94.011,181.8Z" transform="translate(106.072 209.934)" fill="#fff"/>
    <path id="Path_4705" data-name="Path 4705" d="M89.036,181.019a2.136,2.136,0,0,1-4.272,0,2.1,2.1,0,0,1,2.136-2.136A2.168,2.168,0,0,1,89.036,181.019Z" transform="translate(100.137 209.045)" fill="#fff"/>
    <path id="Path_4706" data-name="Path 4706" d="M84.139,180.156a2.078,2.078,0,1,1-2.078-2.078A2.146,2.146,0,0,1,84.139,180.156Z" transform="translate(94.296 208.061)" fill="#fff"/>
    <path id="Path_4707" data-name="Path 4707" d="M79.358,179.273a2.078,2.078,0,1,1-2.078-2.078A2.07,2.07,0,0,1,79.358,179.273Z" transform="translate(88.456 206.981)" fill="#fff"/>
    <circle id="Ellipse_1153" data-name="Ellipse 1153" cx="2.078" cy="2.078" r="2.078" transform="translate(153.035 382.156)" fill="#fff"/>
    <path id="Path_4708" data-name="Path 4708" d="M69.911,177.3a2.136,2.136,0,1,1-2.136-2.136A2.169,2.169,0,0,1,69.911,177.3Z" transform="translate(76.774 204.506)" fill="#fff"/>
    <path id="Path_4709" data-name="Path 4709" d="M65.271,176.01a2.194,2.194,0,1,1-2.194-2.194A2.231,2.231,0,0,1,65.271,176.01Z" transform="translate(70.966 202.855)" fill="#fff"/>
    <path id="Path_4710" data-name="Path 4710" d="M60.683,174.431a2.251,2.251,0,1,1-2.251-2.251A2.254,2.254,0,0,1,60.683,174.431Z" transform="translate(65.22 200.855)" fill="#fff"/>
    <path id="Path_4711" data-name="Path 4711" d="M56.147,172.593a2.309,2.309,0,1,1-2.309-2.309A2.245,2.245,0,0,1,56.147,172.593Z" transform="translate(59.539 198.537)" fill="#fff"/>
    <circle id="Ellipse_1154" data-name="Ellipse 1154" cx="2.424" cy="2.424" r="2.424" transform="translate(100.676 364.15) rotate(-5.655)" fill="#fff"/>
    <circle id="Ellipse_1155" data-name="Ellipse 1155" cx="2.482" cy="2.482" r="2.482" transform="translate(90.921 358.66)" fill="#fff"/>
    <path id="Path_4712" data-name="Path 4712" d="M43.186,165.682a2.6,2.6,0,1,1-2.6-2.6A2.587,2.587,0,0,1,43.186,165.682Z" transform="translate(43.001 189.746)" fill="#fff"/>
    <path id="Path_4713" data-name="Path 4713" d="M39.066,162.8a2.7,2.7,0,0,1-2.655,2.713,2.684,2.684,0,1,1,2.655-2.713Z" transform="translate(37.827 186.159)" fill="#fff"/>
    <path id="Path_4714" data-name="Path 4714" d="M35.113,159.749a2.771,2.771,0,1,1-2.771-2.771A2.772,2.772,0,0,1,35.113,159.749Z" transform="translate(32.716 182.286)" fill="#fff"/>
    <circle id="Ellipse_1156" data-name="Ellipse 1156" cx="2.886" cy="2.886" r="2.886" transform="translate(53.629 331.413)" fill="#fff"/>
    <circle id="Ellipse_1157" data-name="Ellipse 1157" cx="2.944" cy="2.944" r="2.944" transform="translate(45.316 323.1)" fill="#fff"/>
    <path id="Path_4715" data-name="Path 4715" d="M24.543,148.734a3.06,3.06,0,1,1-3.06-3.06A3.08,3.08,0,0,1,24.543,148.734Z" transform="translate(19.099 168.479)" fill="#fff"/>
    <circle id="Ellipse_1158" data-name="Ellipse 1158" cx="3.117" cy="3.117" r="3.117" transform="translate(29.858 305.286) rotate(-9.218)" fill="#fff"/>
    <path id="Path_4716" data-name="Path 4716" d="M18.667,140.092a3.166,3.166,0,0,1-3.175,3.175,3.175,3.175,0,0,1,0-6.35A3.166,3.166,0,0,1,18.667,140.092Z" transform="translate(11.64 157.781)" fill="#fff"/>
    <path id="Path_4717" data-name="Path 4717" d="M16.19,135.452a3.289,3.289,0,0,1-3.29,3.29,3.24,3.24,0,0,1-3.233-3.29,3.277,3.277,0,0,1,3.233-3.29A3.326,3.326,0,0,1,16.19,135.452Z" transform="translate(8.402 151.973)" fill="#fff"/>
    <circle id="Ellipse_1159" data-name="Ellipse 1159" cx="3.348" cy="3.348" r="3.348" transform="translate(12.931 273.281)" fill="#fff"/>
    <path id="Path_4718" data-name="Path 4718" d="M12.087,125.667a3.406,3.406,0,1,1-3.406-3.406A3.376,3.376,0,0,1,12.087,125.667Z" transform="translate(3.038 139.879)" fill="#fff"/>
    <circle id="Ellipse_1160" data-name="Ellipse 1160" cx="3.464" cy="3.464" r="3.464" transform="translate(3.174 254.042) rotate(-45)" fill="#fff"/>
    <path id="Path_4719" data-name="Path 4719" d="M9.37,115.227a3.464,3.464,0,1,1-3.464-3.464A3.474,3.474,0,0,1,9.37,115.227Z" transform="translate(-0.422 127.055)" fill="#fff"/>
    <path id="Path_4720" data-name="Path 4720" d="M8.694,109.822a3.524,3.524,0,0,1-3.464,3.521,3.493,3.493,0,1,1,3.464-3.521Z" transform="translate(-1.247 120.453)" fill="#fff"/>
    <path id="Path_4721" data-name="Path 4721" d="M8.46,104.417A3.464,3.464,0,1,1,5,100.953,3.437,3.437,0,0,1,8.46,104.417Z" transform="translate(-1.533 113.85)" fill="#fff"/>
    <path id="Path_4722" data-name="Path 4722" d="M8.512,98.986a3.464,3.464,0,1,1-3.464-3.464A3.437,3.437,0,0,1,8.512,98.986Z" transform="translate(-1.47 107.216)" fill="#fff"/>
    <path id="Path_4723" data-name="Path 4723" d="M8.85,93.555a3.464,3.464,0,1,1-3.464-3.464A3.474,3.474,0,0,1,8.85,93.555Z" transform="translate(-1.057 100.582)" fill="#fff"/>
    <path id="Path_4724" data-name="Path 4724" d="M9.428,88.15a3.474,3.474,0,0,1-3.464,3.464A3.524,3.524,0,0,1,2.443,88.15a3.487,3.487,0,0,1,3.521-3.464A3.437,3.437,0,0,1,9.428,88.15Z" transform="translate(-0.422 93.98)" fill="#fff"/>
    <path id="Path_4725" data-name="Path 4725" d="M10.161,82.777A3.535,3.535,0,0,1,6.64,86.3a3.5,3.5,0,0,1-3.521-3.521A3.535,3.535,0,0,1,6.64,79.255,3.5,3.5,0,0,1,10.161,82.777Z" transform="translate(0.403 87.346)" fill="#fff"/>
    <path id="Path_4726" data-name="Path 4726" d="M11.29,77.43a3.579,3.579,0,1,1-3.579-3.579A3.6,3.6,0,0,1,11.29,77.43Z" transform="translate(1.641 80.743)" fill="#fff"/>
    <path id="Path_4727" data-name="Path 4727" d="M12.757,72.16A3.637,3.637,0,1,1,9.12,68.524,3.622,3.622,0,0,1,12.757,72.16Z" transform="translate(3.292 74.236)" fill="#fff"/>
    <path id="Path_4728" data-name="Path 4728" d="M14.628,66.963a3.637,3.637,0,1,1-3.637-3.637A3.659,3.659,0,0,1,14.628,66.963Z" transform="translate(5.577 67.888)" fill="#fff"/>
    <path id="Path_4729" data-name="Path 4729" d="M16.9,61.922a3.7,3.7,0,1,1-3.695-3.637A3.635,3.635,0,0,1,16.9,61.922Z" transform="translate(8.212 61.73)" fill="#fff"/>
    <path id="Path_4730" data-name="Path 4730" d="M19.42,57.069a3.695,3.695,0,1,1-3.695-3.695A3.647,3.647,0,0,1,19.42,57.069Z" transform="translate(11.291 55.731)" fill="#fff"/>
    <path id="Path_4731" data-name="Path 4731" d="M22.253,52.339a3.695,3.695,0,1,1-3.695-3.695A3.647,3.647,0,0,1,22.253,52.339Z" transform="translate(14.75 49.954)" fill="#fff"/>
    <path id="Path_4732" data-name="Path 4732" d="M25.345,47.74a3.72,3.72,0,0,1-3.695,3.695,3.683,3.683,0,0,1-3.695-3.695,3.695,3.695,0,0,1,7.389,0Z" transform="translate(18.528 44.335)" fill="#fff"/>
    <path id="Path_4733" data-name="Path 4733" d="M28.735,43.354A3.752,3.752,0,1,1,24.982,39.6,3.745,3.745,0,0,1,28.735,43.354Z" transform="translate(22.527 38.907)" fill="#fff"/>
    <path id="Path_4734" data-name="Path 4734" d="M32.295,39.066a3.752,3.752,0,1,1-3.752-3.752A3.745,3.745,0,0,1,32.295,39.066Z" transform="translate(26.876 33.67)" fill="#fff"/>
    <path id="Path_4735" data-name="Path 4735" d="M36.048,34.946a3.81,3.81,0,1,1-7.62,0,3.81,3.81,0,1,1,7.62,0Z" transform="translate(31.32 28.496)" fill="#fff"/>
    <circle id="Ellipse_1161" data-name="Ellipse 1161" cx="3.926" cy="3.926" r="3.926" transform="translate(67.608 57.523) rotate(-80.782)" fill="#fff"/>
    <path id="Path_4736" data-name="Path 4736" d="M44.331,27.012a4.041,4.041,0,1,1-4.041-4.041A4.053,4.053,0,0,1,44.331,27.012Z" transform="translate(40.874 18.593)" fill="#fff"/>
    <circle id="Ellipse_1162" data-name="Ellipse 1162" cx="4.099" cy="4.099" r="4.099" transform="translate(85.634 39.859) rotate(-67.5)" fill="#fff"/>
    <circle id="Ellipse_1163" data-name="Ellipse 1163" cx="4.156" cy="4.156" r="4.156" transform="translate(97.386 26.497)" fill="#fff"/>
    <path id="Path_4737" data-name="Path 4737" d="M58.724,17.669a4.156,4.156,0,1,1-4.156-4.156A4.139,4.139,0,0,1,58.724,17.669Z" transform="translate(58.174 7.038)" fill="#fff"/>
    <circle id="Ellipse_1164" data-name="Ellipse 1164" cx="4.156" cy="4.156" r="4.156" transform="translate(118.454 19.638) rotate(-45)" fill="#fff"/>
    <path id="Path_4738" data-name="Path 4738" d="M69.326,13.433A4.156,4.156,0,1,1,65.17,9.277,4.139,4.139,0,0,1,69.326,13.433Z" transform="translate(71.124 1.865)" fill="#fff"/>
    <path id="Path_4739" data-name="Path 4739" d="M74.815,11.718a4.185,4.185,0,1,1-4.156-4.156A4.176,4.176,0,0,1,74.815,11.718Z" transform="translate(77.758 -0.23)" fill="#fff"/>
    <circle id="Ellipse_1165" data-name="Ellipse 1165" cx="4.214" cy="4.214" r="4.214" transform="translate(154.715 8.378) rotate(-45)" fill="#fff"/>
    <path id="Path_4740" data-name="Path 4740" d="M86.021,9.281a4.214,4.214,0,1,1-4.214-4.214A4.238,4.238,0,0,1,86.021,9.281Z" transform="translate(91.376 -3.278)" fill="#fff"/>
    <path id="Path_4741" data-name="Path 4741" d="M91.711,8.658A4.214,4.214,0,1,1,87.5,4.444,4.238,4.238,0,0,1,91.711,8.658Z" transform="translate(98.327 -4.04)" fill="#fff"/>
    <path id="Path_4742" data-name="Path 4742" d="M97.428,8.476a4.214,4.214,0,1,1-4.214-4.214A4.165,4.165,0,0,1,97.428,8.476Z" transform="translate(105.311 -4.262)" fill="#fff"/>
    <path id="Path_4743" data-name="Path 4743" d="M103.145,8.71A4.214,4.214,0,1,1,98.931,4.5,4.238,4.238,0,0,1,103.145,8.71Z" transform="translate(112.294 -3.976)" fill="#fff"/>
    <circle id="Ellipse_1166" data-name="Ellipse 1166" cx="4.156" cy="4.156" r="4.156" transform="matrix(0.23, -0.973, 0.973, 0.23, 218.88, 9.229)" fill="#fff"/>
    <circle id="Ellipse_1167" data-name="Ellipse 1167" cx="4.156" cy="4.156" r="4.156" transform="translate(230.96 5.939) rotate(-22.5)" fill="#fff"/>
    <path id="Path_4744" data-name="Path 4744" d="M119.946,11.458A4.156,4.156,0,1,1,115.79,7.3,4.139,4.139,0,0,1,119.946,11.458Z" transform="translate(132.958 -0.548)" fill="#fff"/>
    <path id="Path_4745" data-name="Path 4745" d="M125.455,12.913A4.156,4.156,0,1,1,121.3,8.757,4.139,4.139,0,0,1,125.455,12.913Z" transform="translate(139.687 1.23)" fill="#fff"/>
    <path id="Path_4746" data-name="Path 4746" d="M130.86,14.68a4.156,4.156,0,1,1-4.156-4.156A4.214,4.214,0,0,1,130.86,14.68Z" transform="translate(146.289 3.388)" fill="#fff"/>
    <path id="Path_4747" data-name="Path 4747" d="M136.135,16.863a4.156,4.156,0,1,1-4.156-4.156A4.139,4.139,0,0,1,136.135,16.863Z" transform="translate(152.733 6.054)" fill="#fff"/>
    <path id="Path_4748" data-name="Path 4748" d="M141.139,19.4a4.1,4.1,0,1,1-4.1-4.1A4.042,4.042,0,0,1,141.139,19.4Z" transform="translate(158.986 9.228)" fill="#fff"/>
    <path id="Path_4749" data-name="Path 4749" d="M145.914,22.392a4.053,4.053,0,0,1-4.041,4.041,4.07,4.07,0,1,1,4.041-4.041Z" transform="translate(164.89 12.879)" fill="#fff"/>
    <circle id="Ellipse_1168" data-name="Ellipse 1168" cx="4.041" cy="4.041" r="4.041" transform="translate(312.825 38.677)" fill="#fff"/>
    <path id="Path_4750" data-name="Path 4750" d="M154.539,29.365a3.925,3.925,0,1,1-3.925-3.925A3.893,3.893,0,0,1,154.539,29.365Z" transform="translate(175.778 21.608)" fill="#fff"/>
    <path id="Path_4751" data-name="Path 4751" d="M158.347,33.387a3.868,3.868,0,1,1-3.868-3.868A3.868,3.868,0,0,1,158.347,33.387Z" transform="translate(180.571 26.592)" fill="#fff"/>
    <path id="Path_4752" data-name="Path 4752" d="M161.806,37.559a3.752,3.752,0,1,1-3.752-3.752A3.745,3.745,0,0,1,161.806,37.559Z" transform="translate(185.078 31.829)" fill="#fff"/>
    <path id="Path_4753" data-name="Path 4753" d="M164.953,41.965a3.637,3.637,0,1,1-3.637-3.637A3.622,3.622,0,0,1,164.953,41.965Z" transform="translate(189.205 37.352)" fill="#fff"/>
    <circle id="Ellipse_1169" data-name="Ellipse 1169" cx="3.521" cy="3.521" r="3.521" transform="translate(353.523 86.187)" fill="#fff"/>
    <circle id="Ellipse_1170" data-name="Ellipse 1170" cx="3.406" cy="3.406" r="3.406" transform="translate(357.99 100.446) rotate(-45)" fill="#fff"/>
    <path id="Path_4754" data-name="Path 4754" d="M172.238,56.223a3.289,3.289,0,0,1-3.29,3.29,3.327,3.327,0,0,1-3.29-3.29,3.289,3.289,0,0,1,3.29-3.29A3.253,3.253,0,0,1,172.238,56.223Z" transform="translate(198.95 55.191)" fill="#fff"/>
    <path id="Path_4755" data-name="Path 4755" d="M174.221,61.1a3.2,3.2,0,1,1-3.233-3.175A3.216,3.216,0,0,1,174.221,61.1Z" transform="translate(201.584 61.286)" fill="#fff"/>
    <path id="Path_4756" data-name="Path 4756" d="M176.165,66.034a3.166,3.166,0,0,1-3.175,3.175,3.175,3.175,0,0,1,0-6.35A3.166,3.166,0,0,1,176.165,66.034Z" transform="translate(204.028 67.317)" fill="#fff"/>
    <circle id="Ellipse_1171" data-name="Ellipse 1171" cx="3.117" cy="3.117" r="3.117" transform="translate(377.948 141.619) rotate(-9.218)" fill="#fff"/>
    <circle id="Ellipse_1172" data-name="Ellipse 1172" cx="3.175" cy="3.175" r="3.175" transform="translate(382.848 151.996)" fill="#fff"/>
    <circle id="Ellipse_1173" data-name="Ellipse 1173" cx="3.29" cy="3.29" r="3.29" transform="translate(386.947 162.964)" fill="#fff"/>
    <path id="Path_4757" data-name="Path 4757" d="M184.047,86.087a3.348,3.348,0,1,1-3.348-3.348A3.279,3.279,0,0,1,184.047,86.087Z" transform="translate(213.233 91.598)" fill="#fff"/>
    <path id="Path_4758" data-name="Path 4758" d="M185.493,91.367a3.435,3.435,0,1,1-3.464-3.406A3.389,3.389,0,0,1,185.493,91.367Z" transform="translate(214.789 97.979)" fill="#fff"/>
    <path id="Path_4759" data-name="Path 4759" d="M186.576,96.783a3.521,3.521,0,1,1-7.043,0,3.521,3.521,0,1,1,7.043,0Z" transform="translate(215.9 104.455)" fill="#fff"/>
    <path id="Path_4760" data-name="Path 4760" d="M187.263,102.272a3.579,3.579,0,1,1-3.579-3.579A3.6,3.6,0,0,1,187.263,102.272Z" transform="translate(216.598 111.089)" fill="#fff"/>
    <circle id="Ellipse_1174" data-name="Ellipse 1174" cx="3.637" cy="3.637" r="3.637" transform="translate(396.059 227.493) rotate(-67.5)" fill="#fff"/>
    <path id="Path_4761" data-name="Path 4761" d="M187.442,113.327a3.683,3.683,0,0,1-3.695,3.695,3.72,3.72,0,0,1-3.695-3.695,3.695,3.695,0,0,1,7.389,0Z" transform="translate(216.535 124.452)" fill="#fff"/>
  </g>
</svg>
