<svg id="Location_Icon_-_24x24" data-name="Location Icon - 24x24" xmlns="http://www.w3.org/2000/svg" width="24" height="24" viewBox="0 0 24 24">
  <path id="Path_2111" data-name="Path 2111" d="M0,0H24V24H0Z" fill="none"/>
  <path id="Path_2112" data-name="Path 2112" d="M11.938,2A6.956,6.956,0,0,0,5,8.983c0,5.237,6.938,12.968,6.938,12.968s6.938-7.731,6.938-12.968A6.956,6.956,0,0,0,11.938,2ZM6.982,8.983a4.956,4.956,0,1,1,9.912,0c0,2.873-2.855,7.172-4.956,9.856C9.877,16.175,6.982,11.826,6.982,8.983Z" transform="translate(0.062 0.025)" fill="#6b7688"/>
  <circle id="Ellipse_75" data-name="Ellipse 75" cx="2.531" cy="2.531" r="2.531" transform="translate(9.469 6.479)" fill="#6b7688"/>
</svg>
