<svg id="Ps_Icon_-_40x40" data-name="Ps Icon - 40x40" xmlns="http://www.w3.org/2000/svg" xmlns:xlink="http://www.w3.org/1999/xlink" width="40" height="40" viewBox="0 0 40 40">
  <defs>
    <clipPath id="clip-path">
      <rect id="Rectangle_43" data-name="Rectangle 43" width="40" height="40" rx="10" transform="translate(752 470)" fill="#6b7688"/>
    </clipPath>
  </defs>
  <g id="Mask_Group_3" data-name="Mask Group 3" transform="translate(-752 -470)" clip-path="url(#clip-path)">
    <g id="Layer_2" data-name="Layer 2" transform="translate(752 470.5)">
      <g id="Layer_1" data-name="Layer 1" transform="translate(0)">
        <g id="Layer_2-2" data-name="Layer 2">
          <g id="Surfaces">
            <g id="Photo_Surface" data-name="Photo Surface">
              <g id="Outline_no_shadow" data-name="Outline no shadow">
                <path id="Path_138" data-name="Path 138" d="M7.083,0H32.917A7.077,7.077,0,0,1,40,7.083V31.917A7.077,7.077,0,0,1,32.917,39H7.083A7.077,7.077,0,0,1,0,31.917V7.083A7.077,7.077,0,0,1,7.083,0Z" transform="translate(0 0)" fill="#edf2f8"/>
              </g>
            </g>
          </g>
          <g id="Outlined_Mnemonics_Logos" data-name="Outlined Mnemonics Logos" transform="translate(9 9.917)">
            <g id="Ps">
              <path id="Path_139" data-name="Path 139" d="M16.875,36.027V18.877c0-.117.05-.183.167-.183.283,0,.55,0,.933-.017s.817-.017,1.267-.033.933-.017,1.45-.033,1.017-.017,1.517-.017a9.8,9.8,0,0,1,3.433.517,5.952,5.952,0,0,1,2.233,1.367,5.307,5.307,0,0,1,1.217,1.9,6.38,6.38,0,0,1,.383,2.167,5.959,5.959,0,0,1-1,3.55,5.71,5.71,0,0,1-2.683,2.033,10.8,10.8,0,0,1-3.75.567c-.4,0-.667,0-.833-.017s-.4-.017-.717-.017v5.35a.207.207,0,0,1-.183.233H17.075C16.942,36.244,16.875,36.177,16.875,36.027ZM20.508,21.91v5.6c.233.017.45.033.65.033h.883a6.225,6.225,0,0,0,1.917-.3,2.867,2.867,0,0,0,1.367-.883,2.575,2.575,0,0,0,.517-1.717,2.743,2.743,0,0,0-.383-1.483,2.417,2.417,0,0,0-1.167-.95,4.89,4.89,0,0,0-1.967-.333c-.433,0-.817,0-1.133.017a3.817,3.817,0,0,0-.683.017Z" transform="translate(-16.875 -18.594)" fill="#30368e"/>
              <path id="Path_140" data-name="Path 140" d="M52.46,30.11a5.9,5.9,0,0,0-1.6-.567,8.785,8.785,0,0,0-1.867-.217,3.355,3.355,0,0,0-1,.117.855.855,0,0,0-.517.333.883.883,0,0,0-.133.45.742.742,0,0,0,.167.433,1.88,1.88,0,0,0,.567.45c.383.2.783.383,1.183.55a12.072,12.072,0,0,1,2.567,1.217,3.878,3.878,0,0,1,1.317,1.383,3.6,3.6,0,0,1,.383,1.717,3.878,3.878,0,0,1-.65,2.217,4.177,4.177,0,0,1-1.867,1.483,7.636,7.636,0,0,1-3.017.533,11.479,11.479,0,0,1-2.267-.217,6.723,6.723,0,0,1-1.7-.533.333.333,0,0,1-.183-.317v-2.9a.182.182,0,0,1,.067-.15.127.127,0,0,1,.15.017,7.135,7.135,0,0,0,2.067.817,7.758,7.758,0,0,0,1.967.25,3.181,3.181,0,0,0,1.383-.233.775.775,0,0,0,.45-.7.883.883,0,0,0-.4-.667,7.068,7.068,0,0,0-1.633-.783,10.2,10.2,0,0,1-2.367-1.2,4.315,4.315,0,0,1-1.267-1.417,3.577,3.577,0,0,1-.383-1.7,3.92,3.92,0,0,1,.567-2.017,4.108,4.108,0,0,1,1.75-1.533,6.463,6.463,0,0,1,2.95-.583,14.368,14.368,0,0,1,2.067.15,5.865,5.865,0,0,1,1.433.383.293.293,0,0,1,.167.15.833.833,0,0,1,.033.2v2.717a.205.205,0,0,1-.083.167A.443.443,0,0,1,52.46,30.11Z" transform="translate(-29.46 -22.21)" fill="#30368e"/>
            </g>
          </g>
        </g>
      </g>
    </g>
  </g>
</svg>
