<svg xmlns="http://www.w3.org/2000/svg" width="654.852" height="638.496" viewBox="0 0 654.852 638.496">
  <g id="Services_pattern" data-name="Services pattern" transform="translate(0 0)">
    <g id="pattern" transform="translate(-5.9 -16.4)" style="isolation: isolate">
      <path id="Path_2121" data-name="Path 2121" d="M341.775,396.688a4.288,4.288,0,1,1-4.288-4.288A4.219,4.219,0,0,1,341.775,396.688Z" transform="translate(-22.22 -25.526)" fill="#fff"/>
      <circle id="Ellipse_76" data-name="Ellipse 76" cx="6.432" cy="6.432" r="6.432" transform="translate(302.355 363.815) rotate(-80.782)" fill="#fff"/>
      <path id="Path_2122" data-name="Path 2122" d="M344.182,368.491a6.991,6.991,0,1,1-6.991-6.991A6.981,6.981,0,0,1,344.182,368.491Z" transform="translate(-22.016 -23.428)" fill="#fff"/>
      <path id="Path_2123" data-name="Path 2123" d="M358.3,361.6a6.9,6.9,0,1,1-6.9-6.9A6.882,6.882,0,0,1,358.3,361.6Z" transform="translate(-22.987 -22.967)" fill="#fff"/>
      <path id="Path_2124" data-name="Path 2124" d="M372.677,365.938a6.338,6.338,0,1,1-6.338-6.338A6.345,6.345,0,0,1,372.677,365.938Z" transform="translate(-24.039 -23.299)" fill="#fff"/>
      <path id="Path_2125" data-name="Path 2125" d="M381.49,378.345a6.245,6.245,0,1,1-6.245-6.245A6.246,6.246,0,0,1,381.49,378.345Z" transform="translate(-24.65 -24.148)" fill="#fff"/>
      <circle id="Ellipse_77" data-name="Ellipse 77" cx="4.94" cy="4.94" r="4.94" transform="translate(342.885 363.818) rotate(-9.218)" fill="#fff"/>
      <circle id="Ellipse_78" data-name="Ellipse 78" cx="4.661" cy="4.661" r="4.661" transform="translate(333.794 373.461) rotate(-9.218)" fill="#fff"/>
      <path id="Path_2126" data-name="Path 2126" d="M352.725,403.562a3.262,3.262,0,1,1-3.262-3.262A3.242,3.242,0,0,1,352.725,403.562Z" transform="translate(-23.103 -26.062)" fill="#fff"/>
      <path id="Path_2127" data-name="Path 2127" d="M341.775,396.688a4.288,4.288,0,1,1-4.288-4.288A4.219,4.219,0,0,1,341.775,396.688Z" transform="translate(-22.22 -25.526)" fill="#fff"/>
      <circle id="Ellipse_79" data-name="Ellipse 79" cx="6.432" cy="6.432" r="6.432" transform="translate(302.355 363.815) rotate(-80.782)" fill="#fff"/>
      <path id="Path_2128" data-name="Path 2128" d="M374.558,436.679a5.779,5.779,0,1,1-5.779-5.779A5.808,5.808,0,0,1,374.558,436.679Z" transform="translate(-24.243 -28.14)" fill="#fff"/>
      <circle id="Ellipse_80" data-name="Ellipse 80" cx="5.779" cy="5.779" r="5.779" transform="translate(315.463 414.495) rotate(-80.782)" fill="#fff"/>
      <path id="Path_2129" data-name="Path 2129" d="M328.131,428.965A5.966,5.966,0,1,1,322.166,423,6.007,6.007,0,0,1,328.131,428.965Z" transform="translate(-21.066 -27.604)" fill="#fff"/>
      <circle id="Ellipse_81" data-name="Ellipse 81" cx="6.432" cy="6.432" r="6.432" transform="matrix(0.099, -0.995, 0.995, 0.099, 278.028, 390.765)" fill="#fff"/>
      <circle id="Ellipse_82" data-name="Ellipse 82" cx="6.804" cy="6.804" r="6.804" transform="matrix(0.099, -0.995, 0.995, 0.099, 270.453, 368.888)" fill="#fff"/>
      <path id="Path_2130" data-name="Path 2130" d="M307.073,361.637a7.736,7.736,0,1,1-7.736-7.736A7.717,7.717,0,0,1,307.073,361.637Z" transform="translate(-19.396 -22.913)" fill="#fff"/>
      <path id="Path_2131" data-name="Path 2131" d="M321.764,338.982a8.482,8.482,0,1,1-8.482-8.482A8.4,8.4,0,0,1,321.764,338.982Z" transform="translate(-20.292 -21.324)" fill="#fff"/>
      <path id="Path_2132" data-name="Path 2132" d="M345.109,329.8a6.8,6.8,0,1,1-6.8-6.8A6.783,6.783,0,0,1,345.109,329.8Z" transform="translate(-22.105 -20.815)" fill="#fff"/>
      <path id="Path_2133" data-name="Path 2133" d="M368.858,331.279a5.779,5.779,0,1,1-5.779-5.779A5.748,5.748,0,0,1,368.858,331.279Z" transform="translate(-23.856 -20.984)" fill="#fff"/>
      <path id="Path_2134" data-name="Path 2134" d="M387.489,343.695a4.195,4.195,0,1,1-4.195-4.195A4.177,4.177,0,0,1,387.489,343.695Z" transform="translate(-25.336 -21.935)" fill="#fff"/>
      <circle id="Ellipse_83" data-name="Ellipse 83" cx="4.288" cy="4.288" r="4.288" transform="translate(367.652 333.038)" fill="#fff"/>
      <circle id="Ellipse_84" data-name="Ellipse 84" cx="4.381" cy="4.381" r="4.381" transform="translate(373.525 353.079)" fill="#fff"/>
      <circle id="Ellipse_85" data-name="Ellipse 85" cx="4.567" cy="4.567" r="4.567" transform="translate(370.169 373.771)" fill="#fff"/>
      <circle id="Ellipse_86" data-name="Ellipse 86" cx="5.966" cy="5.966" r="5.966" transform="translate(357.636 402.893) rotate(-80.782)" fill="#fff"/>
      <path id="Path_2135" data-name="Path 2135" d="M374.558,436.679a5.779,5.779,0,1,1-5.779-5.779A5.808,5.808,0,0,1,374.558,436.679Z" transform="translate(-24.243 -28.14)" fill="#fff"/>
      <path id="Path_2136" data-name="Path 2136" d="M425.662,429.881a4.381,4.381,0,1,1-4.381-4.381A4.376,4.376,0,0,1,425.662,429.881Z" transform="translate(-27.902 -27.773)" fill="#fff"/>
      <circle id="Ellipse_87" data-name="Ellipse 87" cx="3.915" cy="3.915" r="3.915" transform="translate(372.313 414.225)" fill="#fff"/>
      <path id="Path_2137" data-name="Path 2137" d="M384.57,458.135a3.635,3.635,0,1,1-7.27,0,3.7,3.7,0,0,1,3.635-3.635A3.64,3.64,0,0,1,384.57,458.135Z" transform="translate(-25.214 -29.742)" fill="#fff"/>
      <path id="Path_2138" data-name="Path 2138" d="M360.643,463.422a3.822,3.822,0,1,1-3.822-3.822A3.78,3.78,0,0,1,360.643,463.422Z" transform="translate(-23.564 -30.088)" fill="#fff"/>
      <path id="Path_2139" data-name="Path 2139" d="M336.148,462.774a4.474,4.474,0,1,1-4.474-4.474A4.475,4.475,0,0,1,336.148,462.774Z" transform="translate(-21.813 -30)" fill="#fff"/>
      <path id="Path_2140" data-name="Path 2140" d="M312.594,453.447a4.847,4.847,0,1,1-4.847-4.847A4.873,4.873,0,0,1,312.594,453.447Z" transform="translate(-20.163 -29.342)" fill="#fff"/>
      <path id="Path_2141" data-name="Path 2141" d="M290.917,438.659a6.059,6.059,0,1,1-6.059-6.059A6.047,6.047,0,0,1,290.917,438.659Z" transform="translate(-18.527 -28.255)" fill="#fff"/>
      <circle id="Ellipse_88" data-name="Ellipse 88" cx="6.991" cy="6.991" r="6.991" transform="translate(243.775 382.16)" fill="#fff"/>
      <circle id="Ellipse_89" data-name="Ellipse 89" cx="7.83" cy="7.83" r="7.83" transform="translate(233.589 356.67) rotate(-9.218)" fill="#fff"/>
      <path id="Path_2142" data-name="Path 2142" d="M267.924,357.362a8.762,8.762,0,1,1-8.762-8.762A8.752,8.752,0,0,1,267.924,357.362Z" transform="translate(-16.599 -22.553)" fill="#fff"/>
      <circle id="Ellipse_90" data-name="Ellipse 90" cx="8.948" cy="8.948" r="8.948" transform="translate(243.951 301.131) rotate(-9.218)" fill="#fff"/>
      <path id="Path_2143" data-name="Path 2143" d="M302.264,307.775a8.483,8.483,0,1,1-8.482-8.575A8.513,8.513,0,0,1,302.264,307.775Z" transform="translate(-18.968 -19.199)" fill="#fff"/>
      <path id="Path_2144" data-name="Path 2144" d="M329.032,294.816a8.016,8.016,0,1,1-8.016-8.016A8.016,8.016,0,0,1,329.032,294.816Z" transform="translate(-20.849 -18.357)" fill="#fff"/>
      <circle id="Ellipse_91" data-name="Ellipse 91" cx="6.804" cy="6.804" r="6.804" transform="translate(320.86 269.002)" fill="#fff"/>
      <path id="Path_2145" data-name="Path 2145" d="M383.085,302.093a5.593,5.593,0,1,1-5.593-5.593A5.55,5.55,0,0,1,383.085,302.093Z" transform="translate(-24.847 -19.016)" fill="#fff"/>
      <circle id="Ellipse_92" data-name="Ellipse 92" cx="5.033" cy="5.033" r="5.033" transform="matrix(0.099, -0.995, 0.995, 0.099, 368.532, 299.945)" fill="#fff"/>
      <path id="Path_2146" data-name="Path 2146" d="M420.616,335.608a4.008,4.008,0,1,1-4.008-4.008A4.038,4.038,0,0,1,420.616,335.608Z" transform="translate(-27.61 -21.399)" fill="#fff"/>
      <path id="Path_2147" data-name="Path 2147" d="M430.484,358.042a3.542,3.542,0,1,1-3.542-3.542A3.666,3.666,0,0,1,430.484,358.042Z" transform="translate(-28.344 -22.953)" fill="#fff"/>
      <path id="Path_2148" data-name="Path 2148" d="M436.93,381.815a3.915,3.915,0,1,1-3.915-3.915A4,4,0,0,1,436.93,381.815Z" transform="translate(-28.731 -24.542)" fill="#fff"/>
      <circle id="Ellipse_93" data-name="Ellipse 93" cx="4.288" cy="4.288" r="4.288" transform="translate(398.785 376.288)" fill="#fff"/>
      <path id="Path_2149" data-name="Path 2149" d="M425.662,429.881a4.381,4.381,0,1,1-4.381-4.381A4.376,4.376,0,0,1,425.662,429.881Z" transform="translate(-27.902 -27.773)" fill="#fff"/>
      <path id="Path_2150" data-name="Path 2150" d="M469.272,428.686a5.649,5.649,0,0,1-5.686,5.686,5.708,5.708,0,0,1-5.686-5.686A5.649,5.649,0,0,1,463.586,423,5.709,5.709,0,0,1,469.272,428.686Z" transform="translate(-30.686 -27.604)" fill="#fff"/>
      <circle id="Ellipse_94" data-name="Ellipse 94" cx="5.966" cy="5.966" r="5.966" transform="translate(415.283 419.258)" fill="#fff"/>
      <path id="Path_2151" data-name="Path 2151" d="M438.5,476.752a6.153,6.153,0,1,1-12.3,0,6.152,6.152,0,0,1,12.3,0Z" transform="translate(-28.534 -30.835)" fill="#fff"/>
      <path id="Path_2152" data-name="Path 2152" d="M415.822,495.211a6.711,6.711,0,1,1-6.711-6.711A6.683,6.683,0,0,1,415.822,495.211Z" transform="translate(-26.918 -32.05)" fill="#fff"/>
      <path id="Path_2153" data-name="Path 2153" d="M387.636,505.018a6.618,6.618,0,1,1-6.618-6.618A6.643,6.643,0,0,1,387.636,505.018Z" transform="translate(-25.017 -32.722)" fill="#fff"/>
      <path id="Path_2154" data-name="Path 2154" d="M357.517,505.059A6.059,6.059,0,1,1,351.459,499,5.931,5.931,0,0,1,357.517,505.059Z" transform="translate(-23.048 -32.763)" fill="#fff"/>
      <path id="Path_2155" data-name="Path 2155" d="M329.267,495.533a5.033,5.033,0,1,1-5.033-5.033A5.012,5.012,0,0,1,329.267,495.533Z" transform="translate(-21.27 -32.186)" fill="#fff"/>
      <path id="Path_2156" data-name="Path 2156" d="M304.989,481.194A4.195,4.195,0,1,1,300.794,477,4.3,4.3,0,0,1,304.989,481.194Z" transform="translate(-19.735 -31.27)" fill="#fff"/>
      <path id="Path_2157" data-name="Path 2157" d="M285.4,462.948a3.449,3.449,0,1,1-6.9,0,3.5,3.5,0,0,1,3.449-3.449A3.329,3.329,0,0,1,285.4,462.948Z" transform="translate(-18.507 -30.081)" fill="#fff"/>
      <path id="Path_2158" data-name="Path 2158" d="M270.045,442.369a3.123,3.123,0,1,1-3.169-3.169A3.266,3.266,0,0,1,270.045,442.369Z" transform="translate(-17.509 -28.703)" fill="#fff"/>
      <path id="Path_2159" data-name="Path 2159" d="M258.538,419.969a3.169,3.169,0,1,1-3.169-3.169A3.143,3.143,0,0,1,258.538,419.969Z" transform="translate(-16.721 -27.183)" fill="#fff"/>
      <path id="Path_2160" data-name="Path 2160" d="M253.038,395.269a3.169,3.169,0,1,1-3.169-3.169A3.2,3.2,0,0,1,253.038,395.269Z" transform="translate(-16.348 -25.506)" fill="#fff"/>
      <path id="Path_2161" data-name="Path 2161" d="M251.884,369.742a3.542,3.542,0,1,1-3.542-3.542A3.54,3.54,0,0,1,251.884,369.742Z" transform="translate(-16.219 -23.748)" fill="#fff"/>
      <path id="Path_2162" data-name="Path 2162" d="M255.062,343.081a4.381,4.381,0,1,1-4.381-4.381A4.376,4.376,0,0,1,255.062,343.081Z" transform="translate(-16.32 -21.881)" fill="#fff"/>
      <path id="Path_2163" data-name="Path 2163" d="M267.221,318.867a4.661,4.661,0,1,1-9.321,0,4.538,4.538,0,0,1,4.661-4.567A4.6,4.6,0,0,1,267.221,318.867Z" transform="translate(-17.108 -20.224)" fill="#fff"/>
      <circle id="Ellipse_95" data-name="Ellipse 95" cx="4.474" cy="4.474" r="4.474" transform="translate(258.689 276.179)" fill="#fff"/>
      <circle id="Ellipse_96" data-name="Ellipse 96" cx="4.008" cy="4.008" r="4.008" transform="translate(281.152 264.808)" fill="#fff"/>
      <path id="Path_2164" data-name="Path 2164" d="M334.084,280.442a3.542,3.542,0,1,1-3.542-3.542A3.54,3.54,0,0,1,334.084,280.442Z" transform="translate(-21.799 -17.685)" fill="#fff"/>
      <path id="Path_2165" data-name="Path 2165" d="M359.77,277.635A3.635,3.635,0,1,1,356.135,274,3.582,3.582,0,0,1,359.77,277.635Z" transform="translate(-23.53 -17.488)" fill="#fff"/>
      <circle id="Ellipse_97" data-name="Ellipse 97" cx="3.728" cy="3.728" r="3.728" transform="translate(351.88 260.636) rotate(-22.5)" fill="#fff"/>
      <path id="Path_2166" data-name="Path 2166" d="M410.53,289.215a3.915,3.915,0,1,1-3.915-3.915A3.939,3.939,0,0,1,410.53,289.215Z" transform="translate(-26.938 -18.255)" fill="#fff"/>
      <circle id="Ellipse_98" data-name="Ellipse 98" cx="4.381" cy="4.381" r="4.381" transform="translate(396.641 279.349)" fill="#fff"/>
      <circle id="Ellipse_99" data-name="Ellipse 99" cx="4.754" cy="4.754" r="4.754" transform="translate(412.762 304.207) rotate(-67.5)" fill="#fff"/>
      <circle id="Ellipse_100" data-name="Ellipse 100" cx="5.127" cy="5.127" r="5.127" transform="translate(426.841 318.777)" fill="#fff"/>
      <path id="Path_2167" data-name="Path 2167" d="M474.54,372.92a5.22,5.22,0,1,1-5.22-5.22A5.211,5.211,0,0,1,474.54,372.92Z" transform="translate(-31.107 -23.849)" fill="#fff"/>
      <path id="Path_2168" data-name="Path 2168" d="M475.313,401.006a5.491,5.491,0,0,1-5.406,5.5,5.453,5.453,0,1,1,5.406-5.5Z" transform="translate(-31.134 -25.743)" fill="#fff"/>
      <path id="Path_2169" data-name="Path 2169" d="M469.272,428.686a5.649,5.649,0,0,1-5.686,5.686,5.708,5.708,0,0,1-5.686-5.686A5.649,5.649,0,0,1,463.586,423,5.709,5.709,0,0,1,469.272,428.686Z" transform="translate(-30.686 -27.604)" fill="#fff"/>
      <path id="Path_2170" data-name="Path 2170" d="M524.264,435.782a8.482,8.482,0,1,1-8.482-8.482A8.4,8.4,0,0,1,524.264,435.782Z" transform="translate(-34.039 -27.895)" fill="#fff"/>
      <path id="Path_2171" data-name="Path 2171" d="M509.7,464.6a8.249,8.249,0,1,1-8.2-8.2A8.155,8.155,0,0,1,509.7,464.6Z" transform="translate(-33.082 -29.871)" fill="#fff"/>
      <path id="Path_2172" data-name="Path 2172" d="M490.532,490.216a8.016,8.016,0,1,1-8.016-8.016A8.016,8.016,0,0,1,490.532,490.216Z" transform="translate(-31.813 -31.623)" fill="#fff"/>
      <path id="Path_2173" data-name="Path 2173" d="M467.546,512.123a7.923,7.923,0,1,1-7.923-7.923A7.916,7.916,0,0,1,467.546,512.123Z" transform="translate(-30.265 -33.116)" fill="#fff"/>
      <path id="Path_2174" data-name="Path 2174" d="M440.673,528.637a7.737,7.737,0,1,1-7.737-7.737A7.718,7.718,0,0,1,440.673,528.637Z" transform="translate(-28.466 -34.25)" fill="#fff"/>
      <path id="Path_2175" data-name="Path 2175" d="M411.214,539.457A7.457,7.457,0,1,1,403.757,532,7.479,7.479,0,0,1,411.214,539.457Z" transform="translate(-26.504 -35.004)" fill="#fff"/>
      <path id="Path_2176" data-name="Path 2176" d="M380.914,546.057a7.457,7.457,0,1,1-7.457-7.457A7.479,7.479,0,0,1,380.914,546.057Z" transform="translate(-24.447 -35.452)" fill="#fff"/>
      <path id="Path_2177" data-name="Path 2177" d="M350.087,547.743a7.643,7.643,0,1,1-7.643-7.643A7.739,7.739,0,0,1,350.087,547.743Z" transform="translate(-22.329 -35.553)" fill="#fff"/>
      <circle id="Ellipse_101" data-name="Ellipse 101" cx="7.923" cy="7.923" r="7.923" transform="translate(281.895 516.126) rotate(-80.782)" fill="#fff"/>
      <path id="Path_2178" data-name="Path 2178" d="M289.232,534.616a8.016,8.016,0,1,1-8.016-8.016A7.9,7.9,0,0,1,289.232,534.616Z" transform="translate(-18.147 -34.637)" fill="#fff"/>
      <path id="Path_2179" data-name="Path 2179" d="M263.487,515.843a7.643,7.643,0,1,1-7.643-7.643A7.678,7.678,0,0,1,263.487,515.843Z" transform="translate(-16.449 -33.388)" fill="#fff"/>
      <circle id="Ellipse_102" data-name="Ellipse 102" cx="7.457" cy="7.457" r="7.457" transform="translate(211.337 454.679)" fill="#fff"/>
      <path id="Path_2180" data-name="Path 2180" d="M223.755,468.577a7.177,7.177,0,1,1-7.177-7.177A7.18,7.18,0,0,1,223.755,468.577Z" transform="translate(-13.815 -30.211)" fill="#fff"/>
      <path id="Path_2181" data-name="Path 2181" d="M212.309,440.2a6.8,6.8,0,1,1-6.8-6.8A6.843,6.843,0,0,1,212.309,440.2Z" transform="translate(-13.089 -28.31)" fill="#fff"/>
      <path id="Path_2182" data-name="Path 2182" d="M207.07,410.632a6.385,6.385,0,1,1-6.338-6.432A6.426,6.426,0,0,1,207.07,410.632Z" transform="translate(-12.79 -26.327)" fill="#fff"/>
      <path id="Path_2183" data-name="Path 2183" d="M209.485,381.392a5.593,5.593,0,1,1-5.593-5.593A5.492,5.492,0,0,1,209.485,381.392Z" transform="translate(-13.062 -24.399)" fill="#fff"/>
      <path id="Path_2184" data-name="Path 2184" d="M219.135,354.667a4.567,4.567,0,1,1-4.567-4.567A4.575,4.575,0,0,1,219.135,354.667Z" transform="translate(-13.856 -22.655)" fill="#fff"/>
      <circle id="Ellipse_103" data-name="Ellipse 103" cx="3.542" cy="3.542" r="3.542" transform="translate(210.592 306.846)" fill="#fff"/>
      <path id="Path_2185" data-name="Path 2185" d="M247.252,310.776a3.076,3.076,0,1,1-3.076-3.076A3.044,3.044,0,0,1,247.252,310.776Z" transform="translate(-15.967 -19.776)" fill="#fff"/>
      <path id="Path_2186" data-name="Path 2186" d="M264.093,292.4a2.8,2.8,0,0,1-5.593,0,2.867,2.867,0,0,1,2.8-2.8A2.692,2.692,0,0,1,264.093,292.4Z" transform="translate(-17.149 -18.547)" fill="#fff"/>
      <path id="Path_2187" data-name="Path 2187" d="M284.547,278.923a2.424,2.424,0,1,1-2.424-2.423A2.468,2.468,0,0,1,284.547,278.923Z" transform="translate(-18.588 -17.658)" fill="#fff"/>
      <circle id="Ellipse_104" data-name="Ellipse 104" cx="2.33" cy="2.33" r="2.33" transform="translate(281.339 248.496)" fill="#fff"/>
      <path id="Path_2188" data-name="Path 2188" d="M328.779,256.49a2.89,2.89,0,1,1-2.89-2.89A2.9,2.9,0,0,1,328.779,256.49Z" transform="translate(-21.528 -16.103)" fill="#fff"/>
      <path id="Path_2189" data-name="Path 2189" d="M354.33,246.315a3.915,3.915,0,1,1-3.915-3.915A3.938,3.938,0,0,1,354.33,246.315Z" transform="translate(-23.123 -15.343)" fill="#fff"/>
      <circle id="Ellipse_105" data-name="Ellipse 105" cx="5.127" cy="5.127" r="5.127" transform="translate(347.892 219.973)" fill="#fff"/>
      <path id="Path_2190" data-name="Path 2190" d="M411.972,243.286a5.686,5.686,0,1,1-5.686-5.686A5.708,5.708,0,0,1,411.972,243.286Z" transform="translate(-26.796 -15.017)" fill="#fff"/>
      <path id="Path_2191" data-name="Path 2191" d="M438.445,254.872A5.872,5.872,0,1,1,432.572,249,5.848,5.848,0,0,1,438.445,254.872Z" transform="translate(-28.568 -15.791)" fill="#fff"/>
      <path id="Path_2192" data-name="Path 2192" d="M462.031,271.665a5.965,5.965,0,1,1-11.931,0,5.965,5.965,0,0,1,11.931,0Z" transform="translate(-30.156 -16.925)" fill="#fff"/>
      <path id="Path_2193" data-name="Path 2193" d="M482.617,292.352a6.059,6.059,0,0,1-12.117,0,6.127,6.127,0,0,1,6.059-6.152A6.188,6.188,0,0,1,482.617,292.352Z" transform="translate(-31.541 -18.316)" fill="#fff"/>
      <path id="Path_2194" data-name="Path 2194" d="M503.7,314.7a6.9,6.9,0,1,1-6.9-6.9A6.882,6.882,0,0,1,503.7,314.7Z" transform="translate(-32.858 -19.783)" fill="#fff"/>
      <path id="Path_2195" data-name="Path 2195" d="M518.114,341.957a7.457,7.457,0,1,1-7.457-7.457A7.479,7.479,0,0,1,518.114,341.957Z" transform="translate(-33.761 -21.595)" fill="#fff"/>
      <path id="Path_2196" data-name="Path 2196" d="M528.319,372.109A8.109,8.109,0,1,1,520.209,364,8.115,8.115,0,0,1,528.319,372.109Z" transform="translate(-34.365 -23.598)" fill="#fff"/>
      <path id="Path_2197" data-name="Path 2197" d="M530.964,404.182a8.482,8.482,0,1,1-8.482-8.482A8.4,8.4,0,0,1,530.964,404.182Z" transform="translate(-34.494 -25.75)" fill="#fff"/>
      <path id="Path_2198" data-name="Path 2198" d="M524.264,435.782a8.482,8.482,0,1,1-8.482-8.482A8.4,8.4,0,0,1,524.264,435.782Z" transform="translate(-34.039 -27.895)" fill="#fff"/>
      <circle id="Ellipse_106" data-name="Ellipse 106" cx="7.27" cy="7.27" r="7.27" transform="translate(499.546 399.777)" fill="#fff"/>
      <circle id="Ellipse_107" data-name="Ellipse 107" cx="7.084" cy="7.084" r="7.084" transform="translate(487.588 436.885) rotate(-67.5)" fill="#fff"/>
      <path id="Path_2199" data-name="Path 2199" d="M522.809,487.9a6.8,6.8,0,1,1-6.8-6.8A6.783,6.783,0,0,1,522.809,487.9Z" transform="translate(-34.168 -31.548)" fill="#fff"/>
      <path id="Path_2200" data-name="Path 2200" d="M503.736,510.418a6.618,6.618,0,1,1-6.618-6.618A6.643,6.643,0,0,1,503.736,510.418Z" transform="translate(-32.899 -33.089)" fill="#fff"/>
      <circle id="Ellipse_108" data-name="Ellipse 108" cx="6.525" cy="6.525" r="6.525" transform="translate(437.747 489.26)" fill="#fff"/>
      <path id="Path_2201" data-name="Path 2201" d="M458.35,546.725a6.525,6.525,0,1,1-6.525-6.525A6.485,6.485,0,0,1,458.35,546.725Z" transform="translate(-29.83 -35.56)" fill="#fff"/>
      <path id="Path_2202" data-name="Path 2202" d="M432.35,559.725a6.525,6.525,0,1,1-6.525-6.525A6.544,6.544,0,0,1,432.35,559.725Z" transform="translate(-28.065 -36.443)" fill="#fff"/>
      <circle id="Ellipse_109" data-name="Ellipse 109" cx="6.338" cy="6.338" r="6.338" transform="translate(365.508 524.307)" fill="#fff"/>
      <circle id="Ellipse_110" data-name="Ellipse 110" cx="6.152" cy="6.152" r="6.152" transform="translate(339.036 527.01)" fill="#fff"/>
      <path id="Path_2203" data-name="Path 2203" d="M347.031,569.565a5.966,5.966,0,1,1-11.931,0,5.965,5.965,0,1,1,11.931,0Z" transform="translate(-22.349 -37.149)" fill="#fff"/>
      <circle id="Ellipse_111" data-name="Ellipse 111" cx="6.059" cy="6.059" r="6.059" transform="translate(285.994 534.334) rotate(-85.935)" fill="#fff"/>
      <path id="Path_2204" data-name="Path 2204" d="M291.724,557.059a6.027,6.027,0,0,1-5.966,6.059,6.059,6.059,0,0,1,0-12.117A5.968,5.968,0,0,1,291.724,557.059Z" transform="translate(-18.588 -36.293)" fill="#fff"/>
      <path id="Path_2205" data-name="Path 2205" d="M267.158,542.679a5.779,5.779,0,1,1-5.779-5.779A5.808,5.808,0,0,1,267.158,542.679Z" transform="translate(-16.952 -35.336)" fill="#fff"/>
      <circle id="Ellipse_112" data-name="Ellipse 112" cx="5.406" cy="5.406" r="5.406" transform="translate(219.074 485.252)" fill="#fff"/>
      <circle id="Ellipse_113" data-name="Ellipse 113" cx="5.127" cy="5.127" r="5.127" transform="translate(200.724 468.52) rotate(-22.5)" fill="#fff"/>
      <path id="Path_2206" data-name="Path 2206" d="M212.708,480.654a4.754,4.754,0,1,1-4.754-4.754A4.774,4.774,0,0,1,212.708,480.654Z" transform="translate(-13.394 -31.195)" fill="#fff"/>
      <circle id="Ellipse_114" data-name="Ellipse 114" cx="4.381" cy="4.381" r="4.381" transform="translate(178.997 429.029) rotate(-67.5)" fill="#fff"/>
      <path id="Path_2207" data-name="Path 2207" d="M193.475,431.188a4.288,4.288,0,1,1-8.575,0,4.276,4.276,0,0,1,4.288-4.288A4.337,4.337,0,0,1,193.475,431.188Z" transform="translate(-12.152 -27.868)" fill="#fff"/>
      <circle id="Ellipse_115" data-name="Ellipse 115" cx="4.008" cy="4.008" r="4.008" transform="translate(169.073 381.268) rotate(-67.5)" fill="#fff"/>
      <path id="Path_2208" data-name="Path 2208" d="M191.557,379.528a3.728,3.728,0,1,1-3.728-3.728A3.681,3.681,0,0,1,191.557,379.528Z" transform="translate(-12.098 -24.399)" fill="#fff"/>
      <path id="Path_2209" data-name="Path 2209" d="M194.87,354.335a3.582,3.582,0,0,1-3.635,3.635,3.635,3.635,0,1,1,0-7.27A3.582,3.582,0,0,1,194.87,354.335Z" transform="translate(-12.335 -22.695)" fill="#fff"/>
      <circle id="Ellipse_116" data-name="Ellipse 116" cx="3.728" cy="3.728" r="3.728" transform="translate(179.716 306.593) rotate(-22.5)" fill="#fff"/>
      <circle id="Ellipse_117" data-name="Ellipse 117" cx="3.915" cy="3.915" r="3.915" transform="translate(188.78 282.238)" fill="#fff"/>
      <path id="Path_2210" data-name="Path 2210" d="M222.6,282.9a4.1,4.1,0,1,1-4.1-4.1A4.078,4.078,0,0,1,222.6,282.9Z" transform="translate(-14.155 -17.814)" fill="#fff"/>
      <path id="Path_2211" data-name="Path 2211" d="M238.675,261.988a4.276,4.276,0,0,1-4.288,4.288,4.337,4.337,0,0,1-4.288-4.288,4.276,4.276,0,0,1,4.288-4.288A4.337,4.337,0,0,1,238.675,261.988Z" transform="translate(-15.221 -16.382)" fill="#fff"/>
      <path id="Path_2212" data-name="Path 2212" d="M257.207,242.354a4.754,4.754,0,1,1-4.754-4.754A4.835,4.835,0,0,1,257.207,242.354Z" transform="translate(-16.416 -15.017)" fill="#fff"/>
      <path id="Path_2213" data-name="Path 2213" d="M279.48,226.94a4.94,4.94,0,1,1-4.94-4.94A4.913,4.913,0,0,1,279.48,226.94Z" transform="translate(-17.902 -13.958)" fill="#fff"/>
      <path id="Path_2214" data-name="Path 2214" d="M304.267,215.933a5.033,5.033,0,1,1-5.033-5.033A5.012,5.012,0,0,1,304.267,215.933Z" transform="translate(-19.572 -13.204)" fill="#fff"/>
      <circle id="Ellipse_118" data-name="Ellipse 118" cx="5.127" cy="5.127" r="5.127" transform="translate(296.886 195.825) rotate(-45)" fill="#fff"/>
      <path id="Path_2215" data-name="Path 2215" d="M357.94,205.72a5.22,5.22,0,1,1-5.22-5.22A5.211,5.211,0,0,1,357.94,205.72Z" transform="translate(-23.191 -12.498)" fill="#fff"/>
      <path id="Path_2216" data-name="Path 2216" d="M385.512,206.406A5.406,5.406,0,1,1,380.106,201,5.351,5.351,0,0,1,385.512,206.406Z" transform="translate(-25.037 -12.532)" fill="#fff"/>
      <path id="Path_2217" data-name="Path 2217" d="M413.372,210.186a5.649,5.649,0,0,1-5.686,5.686,5.686,5.686,0,1,1,0-11.372A5.649,5.649,0,0,1,413.372,210.186Z" transform="translate(-26.891 -12.77)" fill="#fff"/>
      <path id="Path_2218" data-name="Path 2218" d="M441.89,216.352a6.246,6.246,0,1,1-6.245-6.152A6.167,6.167,0,0,1,441.89,216.352Z" transform="translate(-28.751 -13.157)" fill="#fff"/>
      <path id="Path_2219" data-name="Path 2219" d="M469.722,227.011a6.711,6.711,0,1,1-6.711-6.711A6.683,6.683,0,0,1,469.722,227.011Z" transform="translate(-30.577 -13.843)" fill="#fff"/>
      <circle id="Ellipse_119" data-name="Ellipse 119" cx="6.898" cy="6.898" r="6.898" transform="translate(447.721 222.49)" fill="#fff"/>
      <path id="Path_2220" data-name="Path 2220" d="M512.409,267.1a6.8,6.8,0,1,1-6.8-6.8A6.843,6.843,0,0,1,512.409,267.1Z" transform="translate(-33.462 -16.558)" fill="#fff"/>
      <path id="Path_2221" data-name="Path 2221" d="M527.036,292.418a6.618,6.618,0,1,1-6.618-6.618A6.526,6.526,0,0,1,527.036,292.418Z" transform="translate(-34.481 -18.289)" fill="#fff"/>
      <circle id="Ellipse_120" data-name="Ellipse 120" cx="6.525" cy="6.525" r="6.525" transform="translate(490.411 292.398)" fill="#fff"/>
      <path id="Path_2222" data-name="Path 2222" d="M548.322,346.711A6.711,6.711,0,1,1,541.611,340,6.683,6.683,0,0,1,548.322,346.711Z" transform="translate(-35.913 -21.969)" fill="#fff"/>
      <path id="Path_2223" data-name="Path 2223" d="M553.3,375.8a6.9,6.9,0,1,1-6.9-6.9A6.882,6.882,0,0,1,553.3,375.8Z" transform="translate(-36.226 -23.931)" fill="#fff"/>
      <circle id="Ellipse_121" data-name="Ellipse 121" cx="7.084" cy="7.084" r="7.084" transform="translate(501.305 375.627) rotate(-22.5)" fill="#fff"/>
      <circle id="Ellipse_122" data-name="Ellipse 122" cx="7.27" cy="7.27" r="7.27" transform="translate(499.546 399.777)" fill="#fff"/>
      <path id="Path_2224" data-name="Path 2224" d="M539.168,462.884a7.084,7.084,0,1,1-7.084-7.084A7.081,7.081,0,0,1,539.168,462.884Z" transform="translate(-35.241 -29.83)" fill="#fff"/>
      <circle id="Ellipse_123" data-name="Ellipse 123" cx="7.923" cy="7.923" r="7.923" transform="matrix(0.099, -0.995, 0.995, 0.099, 536.326, 418.692)" fill="#fff"/>
      <path id="Path_2225" data-name="Path 2225" d="M582.459,468.03a7.83,7.83,0,1,1-7.83-7.83A7.877,7.877,0,0,1,582.459,468.03Z" transform="translate(-38.079 -30.129)" fill="#fff"/>
      <circle id="Ellipse_124" data-name="Ellipse 124" cx="7.55" cy="7.55" r="7.55" transform="translate(514.345 468.202) rotate(-80.782)" fill="#fff"/>
      <circle id="Ellipse_125" data-name="Ellipse 125" cx="7.27" cy="7.27" r="7.27" transform="translate(498.019 489.643) rotate(-80.782)" fill="#fff"/>
      <circle id="Ellipse_126" data-name="Ellipse 126" cx="6.991" cy="6.991" r="6.991" transform="translate(479.732 508.879) rotate(-80.782)" fill="#fff"/>
      <path id="Path_2226" data-name="Path 2226" d="M508.1,557.2a6.9,6.9,0,1,1-6.9-6.9A6.882,6.882,0,0,1,508.1,557.2Z" transform="translate(-33.157 -36.246)" fill="#fff"/>
      <path id="Path_2227" data-name="Path 2227" d="M485.3,574.3a6.9,6.9,0,1,1-6.9-6.9A6.882,6.882,0,0,1,485.3,574.3Z" transform="translate(-31.609 -37.407)" fill="#fff"/>
      <circle id="Ellipse_127" data-name="Ellipse 127" cx="6.804" cy="6.804" r="6.804" transform="translate(415.833 555.218) rotate(-85.935)" fill="#fff"/>
      <path id="Path_2228" data-name="Path 2228" d="M432.356,595.225a6.445,6.445,0,0,1-6.432,6.432,6.478,6.478,0,1,1,6.432-6.432Z" transform="translate(-28.072 -38.853)" fill="#fff"/>
      <path id="Path_2229" data-name="Path 2229" d="M404.3,599.252a6.152,6.152,0,1,1-6.152-6.152A6.146,6.146,0,0,1,404.3,599.252Z" transform="translate(-26.212 -39.152)" fill="#fff"/>
      <circle id="Ellipse_128" data-name="Ellipse 128" cx="5.499" cy="5.499" r="5.499" transform="matrix(0.995, -0.099, 0.099, 0.995, 340.099, 553.101)" fill="#fff"/>
      <path id="Path_2230" data-name="Path 2230" d="M348.908,590.454a4.754,4.754,0,1,1-4.754-4.754A4.774,4.774,0,0,1,348.908,590.454Z" transform="translate(-22.641 -38.649)" fill="#fff"/>
      <circle id="Ellipse_129" data-name="Ellipse 129" cx="4.194" cy="4.194" r="4.194" transform="translate(294.202 539.874)" fill="#fff"/>
      <path id="Path_2231" data-name="Path 2231" d="M299.73,573.515a3.915,3.915,0,1,1-3.915-3.915A3.939,3.939,0,0,1,299.73,573.515Z" transform="translate(-19.416 -37.556)" fill="#fff"/>
      <path id="Path_2232" data-name="Path 2232" d="M277.27,562.535a3.635,3.635,0,1,1-3.635-3.635A3.582,3.582,0,0,1,277.27,562.535Z" transform="translate(-17.929 -36.83)" fill="#fff"/>
      <path id="Path_2233" data-name="Path 2233" d="M256.5,549.449a3.449,3.449,0,1,1-6.9,0,3.449,3.449,0,0,1,6.9,0Z" transform="translate(-16.545 -35.954)" fill="#fff"/>
      <path id="Path_2234" data-name="Path 2234" d="M236.184,536.142a3.542,3.542,0,1,1-3.542-3.542A3.54,3.54,0,0,1,236.184,536.142Z" transform="translate(-15.153 -35.044)" fill="#fff"/>
      <circle id="Ellipse_130" data-name="Ellipse 130" cx="3.915" cy="3.915" r="3.915" transform="translate(193.96 491.901) rotate(-85.935)" fill="#fff"/>
      <path id="Path_2235" data-name="Path 2235" d="M198.089,504.695a4.194,4.194,0,1,1-4.194-4.194A4.177,4.177,0,0,1,198.089,504.695Z" transform="translate(-12.478 -32.865)" fill="#fff"/>
      <circle id="Ellipse_131" data-name="Ellipse 131" cx="4.194" cy="4.194" r="4.194" transform="translate(164.452 448.061)" fill="#fff"/>
      <path id="Path_2236" data-name="Path 2236" d="M173.189,461.194A4.194,4.194,0,1,1,168.994,457,4.177,4.177,0,0,1,173.189,461.194Z" transform="translate(-10.788 -29.912)" fill="#fff"/>
      <circle id="Ellipse_132" data-name="Ellipse 132" cx="4.288" cy="4.288" r="4.288" transform="translate(144.215 406.98) rotate(-22.5)" fill="#fff"/>
      <path id="Path_2237" data-name="Path 2237" d="M157.348,413.174a4.417,4.417,0,0,1-4.474,4.474,4.474,4.474,0,1,1,0-8.948A4.417,4.417,0,0,1,157.348,413.174Z" transform="translate(-9.674 -26.633)" fill="#fff"/>
      <path id="Path_2238" data-name="Path 2238" d="M152.608,387.754A4.754,4.754,0,1,1,147.854,383,4.774,4.774,0,0,1,152.608,387.754Z" transform="translate(-9.314 -24.888)" fill="#fff"/>
      <path id="Path_2239" data-name="Path 2239" d="M151.867,361.633a5.033,5.033,0,1,1-5.033-5.033A5.012,5.012,0,0,1,151.867,361.633Z" transform="translate(-9.226 -23.096)" fill="#fff"/>
      <circle id="Ellipse_133" data-name="Ellipse 133" cx="5.127" cy="5.127" r="5.127" transform="translate(134.273 311.54) rotate(-22.5)" fill="#fff"/>
      <path id="Path_2240" data-name="Path 2240" d="M162.44,310.12a5.22,5.22,0,1,1-5.22-5.22A5.211,5.211,0,0,1,162.44,310.12Z" transform="translate(-9.919 -19.586)" fill="#fff"/>
      <circle id="Ellipse_134" data-name="Ellipse 134" cx="5.406" cy="5.406" r="5.406" transform="translate(150.843 262.011)" fill="#fff"/>
      <path id="Path_2241" data-name="Path 2241" d="M185.1,261.9a5.5,5.5,0,1,1-5.5-5.5A5.509,5.509,0,0,1,185.1,261.9Z" transform="translate(-11.419 -16.293)" fill="#fff"/>
      <path id="Path_2242" data-name="Path 2242" d="M201.185,240.293a5.593,5.593,0,1,1-5.593-5.593A5.609,5.609,0,0,1,201.185,240.293Z" transform="translate(-12.498 -14.82)" fill="#fff"/>
      <circle id="Ellipse_135" data-name="Ellipse 135" cx="5.686" cy="5.686" r="5.686" transform="translate(194.161 212.262) rotate(-80.782)" fill="#fff"/>
      <path id="Path_2243" data-name="Path 2243" d="M241.672,204.886a5.686,5.686,0,1,1-5.686-5.686A5.649,5.649,0,0,1,241.672,204.886Z" transform="translate(-15.234 -12.41)" fill="#fff"/>
      <path id="Path_2244" data-name="Path 2244" d="M265.585,192.693a5.53,5.53,0,0,1-5.593,5.5,5.546,5.546,0,1,1,5.593-5.5Z" transform="translate(-16.87 -11.589)" fill="#fff"/>
      <circle id="Ellipse_136" data-name="Ellipse 136" cx="5.313" cy="5.313" r="5.313" transform="translate(259.603 174.035) rotate(-45)" fill="#fff"/>
      <path id="Path_2245" data-name="Path 2245" d="M317.221,184.161a4.661,4.661,0,1,1-4.661-4.661A4.674,4.674,0,0,1,317.221,184.161Z" transform="translate(-20.502 -11.073)" fill="#fff"/>
      <path id="Path_2246" data-name="Path 2246" d="M342.53,187.415a3.915,3.915,0,1,1-3.915-3.915A3.879,3.879,0,0,1,342.53,187.415Z" transform="translate(-22.322 -11.344)" fill="#fff"/>
      <path id="Path_2247" data-name="Path 2247" d="M366.97,190.235a3.582,3.582,0,0,1-3.635,3.635,3.635,3.635,0,1,1,0-7.27A3.582,3.582,0,0,1,366.97,190.235Z" transform="translate(-24.019 -11.555)" fill="#fff"/>
      <path id="Path_2248" data-name="Path 2248" d="M391.557,192.028a3.728,3.728,0,1,1-3.728-3.728A3.739,3.739,0,0,1,391.557,192.028Z" transform="translate(-25.676 -11.67)" fill="#fff"/>
      <circle id="Ellipse_137" data-name="Ellipse 137" cx="3.822" cy="3.822" r="3.822" transform="translate(380.981 180.638)" fill="#fff"/>
      <path id="Path_2249" data-name="Path 2249" d="M439.816,203.908a4.008,4.008,0,1,1-4.008-4.008A3.978,3.978,0,0,1,439.816,203.908Z" transform="translate(-28.914 -12.458)" fill="#fff"/>
      <path id="Path_2250" data-name="Path 2250" d="M463.869,212.681a4.357,4.357,0,0,1-4.288,4.381,4.437,4.437,0,0,1-4.381-4.381,4.335,4.335,0,1,1,8.669,0Z" transform="translate(-30.502 -13.028)" fill="#fff"/>
      <circle id="Ellipse_138" data-name="Ellipse 138" cx="4.847" cy="4.847" r="4.847" transform="translate(444.133 209.936) rotate(-45)" fill="#fff"/>
      <circle id="Ellipse_139" data-name="Ellipse 139" cx="5.22" cy="5.22" r="5.22" transform="translate(466.456 218.295)" fill="#fff"/>
      <circle id="Ellipse_140" data-name="Ellipse 140" cx="5.499" cy="5.499" r="5.499" transform="translate(483.887 235.446)" fill="#fff"/>
      <path id="Path_2251" data-name="Path 2251" d="M544.9,279a5.51,5.51,0,0,1-5.5,5.5,5.451,5.451,0,0,1-5.5-5.5,5.509,5.509,0,0,1,5.5-5.5A5.45,5.45,0,0,1,544.9,279Z" transform="translate(-35.845 -17.454)" fill="#fff"/>
      <circle id="Ellipse_141" data-name="Ellipse 141" cx="5.686" cy="5.686" r="5.686" transform="translate(508.368 286.498) rotate(-67.5)" fill="#fff"/>
      <path id="Path_2252" data-name="Path 2252" d="M570.131,327.165a5.966,5.966,0,0,1-11.931,0,6.007,6.007,0,0,1,5.966-5.965A5.889,5.889,0,0,1,570.131,327.165Z" transform="translate(-37.495 -20.693)" fill="#fff"/>
      <path id="Path_2253" data-name="Path 2253" d="M579.963,353.338a6.432,6.432,0,0,1-12.863,0,6.432,6.432,0,0,1,12.863,0Z" transform="translate(-38.099 -22.444)" fill="#fff"/>
      <path id="Path_2254" data-name="Path 2254" d="M587.4,381.1a6.9,6.9,0,1,1-6.9-6.9A6.882,6.882,0,0,1,587.4,381.1Z" transform="translate(-38.541 -24.291)" fill="#fff"/>
      <path id="Path_2255" data-name="Path 2255" d="M592.514,410.157a7.457,7.457,0,1,1-7.457-7.457A7.479,7.479,0,0,1,592.514,410.157Z" transform="translate(-38.812 -26.225)" fill="#fff"/>
      <circle id="Ellipse_142" data-name="Ellipse 142" cx="7.923" cy="7.923" r="7.923" transform="matrix(0.099, -0.995, 0.995, 0.099, 536.326, 418.692)" fill="#fff"/>
      <path id="Path_2256" data-name="Path 2256" d="M579.484,404.142a3.542,3.542,0,1,1-3.542-3.542A3.666,3.666,0,0,1,579.484,404.142Z" transform="translate(-38.459 -26.083)" fill="#fff"/>
      <path id="Path_2257" data-name="Path 2257" d="M577.67,427.135a3.7,3.7,0,0,1-3.635,3.635,3.635,3.635,0,0,1,0-7.27A3.582,3.582,0,0,1,577.67,427.135Z" transform="translate(-38.323 -27.638)" fill="#fff"/>
      <path id="Path_2258" data-name="Path 2258" d="M573.257,449.828a3.728,3.728,0,1,1-3.728-3.728A3.739,3.739,0,0,1,573.257,449.828Z" transform="translate(-38.011 -29.172)" fill="#fff"/>
      <circle id="Ellipse_143" data-name="Ellipse 143" cx="3.822" cy="3.822" r="3.822" transform="translate(520.87 444.588) rotate(-80.782)" fill="#fff"/>
      <circle id="Ellipse_144" data-name="Ellipse 144" cx="3.915" cy="3.915" r="3.915" transform="translate(512.306 458.247) rotate(-9.218)" fill="#fff"/>
      <path id="Path_2259" data-name="Path 2259" d="M546.316,514.108a4.008,4.008,0,1,1-4.008-4.008A4.1,4.1,0,0,1,546.316,514.108Z" transform="translate(-36.144 -33.517)" fill="#fff"/>
      <circle id="Ellipse_145" data-name="Ellipse 145" cx="4.101" cy="4.101" r="4.101" transform="matrix(0.995, -0.099, 0.099, 0.995, 488.89, 494.79)" fill="#fff"/>
      <path id="Path_2260" data-name="Path 2260" d="M517.289,551.194A4.194,4.194,0,1,1,513.094,547,4.237,4.237,0,0,1,517.289,551.194Z" transform="translate(-34.148 -36.022)" fill="#fff"/>
      <circle id="Ellipse_146" data-name="Ellipse 146" cx="4.381" cy="4.381" r="4.381" transform="translate(458.72 526.451)" fill="#fff"/>
      <ellipse id="Ellipse_147" data-name="Ellipse 147" cx="4.474" cy="4.567" rx="4.474" ry="4.567" transform="translate(440.981 549.35) rotate(-85.935)" fill="#fff"/>
      <path id="Path_2261" data-name="Path 2261" d="M462.021,596.76a4.661,4.661,0,1,1-4.661-4.661A4.674,4.674,0,0,1,462.021,596.76Z" transform="translate(-30.333 -39.084)" fill="#fff"/>
      <path id="Path_2262" data-name="Path 2262" d="M440.2,607.447a4.8,4.8,0,1,1-4.754-4.847A4.774,4.774,0,0,1,440.2,607.447Z" transform="translate(-28.832 -39.796)" fill="#fff"/>
      <circle id="Ellipse_148" data-name="Ellipse 148" cx="4.847" cy="4.847" r="4.847" transform="translate(380.143 570.167)" fill="#fff"/>
      <circle id="Ellipse_149" data-name="Ellipse 149" cx="5.033" cy="5.033" r="5.033" transform="matrix(0.995, -0.099, 0.099, 0.995, 357.287, 576.824)" fill="#fff"/>
      <path id="Path_2263" data-name="Path 2263" d="M369.326,627.613a5.313,5.313,0,1,1-5.313-5.313A5.311,5.311,0,0,1,369.326,627.613Z" transform="translate(-23.951 -41.134)" fill="#fff"/>
      <path id="Path_2264" data-name="Path 2264" d="M344.285,629.993a5.593,5.593,0,1,1-5.593-5.593A5.55,5.55,0,0,1,344.285,629.993Z" transform="translate(-22.213 -41.276)" fill="#fff"/>
      <path id="Path_2265" data-name="Path 2265" d="M319.185,627.493a5.593,5.593,0,1,1-5.593-5.593A5.609,5.609,0,0,1,319.185,627.493Z" transform="translate(-20.509 -41.107)" fill="#fff"/>
      <path id="Path_2266" data-name="Path 2266" d="M294.6,620.7a5.51,5.51,0,0,1-5.5,5.5,5.5,5.5,0,1,1,0-11A5.51,5.51,0,0,1,294.6,620.7Z" transform="translate(-18.853 -40.652)" fill="#fff"/>
      <circle id="Ellipse_150" data-name="Ellipse 150" cx="5.406" cy="5.406" r="5.406" transform="translate(242.936 566.346)" fill="#fff"/>
      <path id="Path_2267" data-name="Path 2267" d="M248.112,601.606a5.406,5.406,0,1,1-5.406-5.406A5.41,5.41,0,0,1,248.112,601.606Z" transform="translate(-15.709 -39.362)" fill="#fff"/>
      <circle id="Ellipse_151" data-name="Ellipse 151" cx="5.313" cy="5.313" r="5.313" transform="translate(200.931 554.419) rotate(-80.782)" fill="#fff"/>
      <path id="Path_2268" data-name="Path 2268" d="M207.553,572.127a5.112,5.112,0,0,1-5.127,5.127,5.127,5.127,0,1,1,0-10.253A5.112,5.112,0,0,1,207.553,572.127Z" transform="translate(-12.994 -37.38)" fill="#fff"/>
      <path id="Path_2269" data-name="Path 2269" d="M191.394,552.947a4.814,4.814,0,0,1-4.847,4.847,4.873,4.873,0,0,1-4.847-4.847,4.847,4.847,0,1,1,9.694,0Z" transform="translate(-11.935 -36.097)" fill="#fff"/>
      <path id="Path_2270" data-name="Path 2270" d="M177.241,532.767a4.575,4.575,0,0,1-4.567,4.567,4.5,4.5,0,0,1-4.474-4.567,4.521,4.521,0,1,1,9.041,0Z" transform="translate(-11.018 -34.746)" fill="#fff"/>
      <circle id="Ellipse_152" data-name="Ellipse 152" cx="4.381" cy="4.381" r="4.381" transform="translate(145.717 474.439)" fill="#fff"/>
      <path id="Path_2271" data-name="Path 2271" d="M154.2,490.6a4.148,4.148,0,1,1-8.3,0,4.148,4.148,0,0,1,8.3,0Z" transform="translate(-9.504 -31.915)" fill="#fff"/>
      <path id="Path_2272" data-name="Path 2272" d="M146.43,468.215a3.915,3.915,0,1,1-3.915-3.915A3.939,3.939,0,0,1,146.43,468.215Z" transform="translate(-9.009 -30.407)" fill="#fff"/>
      <path id="Path_2273" data-name="Path 2273" d="M140.543,445.528a3.822,3.822,0,0,1-7.643,0,3.76,3.76,0,0,1,3.822-3.728A3.82,3.82,0,0,1,140.543,445.528Z" transform="translate(-8.622 -28.88)" fill="#fff"/>
      <path id="Path_2274" data-name="Path 2274" d="M135.557,422.928a3.728,3.728,0,1,1-3.728-3.728A3.624,3.624,0,0,1,135.557,422.928Z" transform="translate(-8.296 -27.345)" fill="#fff"/>
      <path id="Path_2275" data-name="Path 2275" d="M131.63,399.921a3.915,3.915,0,1,1-7.83,0,3.859,3.859,0,0,1,3.915-3.822A3.747,3.747,0,0,1,131.63,399.921Z" transform="translate(-8.004 -25.777)" fill="#fff"/>
      <path id="Path_2276" data-name="Path 2276" d="M129.916,376.508a4.008,4.008,0,1,1-4.008-4.008A3.978,3.978,0,0,1,129.916,376.508Z" transform="translate(-7.875 -24.175)" fill="#fff"/>
      <path id="Path_2277" data-name="Path 2277" d="M131.2,353a4.1,4.1,0,1,1-4.1-4.1A4.078,4.078,0,0,1,131.2,353Z" transform="translate(-7.95 -22.573)" fill="#fff"/>
      <path id="Path_2278" data-name="Path 2278" d="M135.5,329.7a4.1,4.1,0,1,1-4.1-4.1A4.138,4.138,0,0,1,135.5,329.7Z" transform="translate(-8.242 -20.991)" fill="#fff"/>
      <path id="Path_2279" data-name="Path 2279" d="M142.3,307.1a4.1,4.1,0,1,1-4.1-4.1A4.138,4.138,0,0,1,142.3,307.1Z" transform="translate(-8.703 -19.457)" fill="#fff"/>
      <circle id="Ellipse_153" data-name="Ellipse 153" cx="4.101" cy="4.101" r="4.101" transform="translate(133.222 270.692) rotate(-80.782)" fill="#fff"/>
      <circle id="Ellipse_154" data-name="Ellipse 154" cx="4.008" cy="4.008" r="4.008" transform="translate(145.064 244.394)" fill="#fff"/>
      <path id="Path_2280" data-name="Path 2280" d="M177.33,246.215a3.915,3.915,0,1,1-3.915-3.915A3.938,3.938,0,0,1,177.33,246.215Z" transform="translate(-11.107 -15.336)" fill="#fff"/>
      <path id="Path_2281" data-name="Path 2281" d="M192.83,228.715a3.915,3.915,0,1,1-3.915-3.915A3.879,3.879,0,0,1,192.83,228.715Z" transform="translate(-12.159 -14.148)" fill="#fff"/>
      <path id="Path_2282" data-name="Path 2282" d="M209.116,211.708a4.008,4.008,0,1,1-4.008-4.008A4.038,4.038,0,0,1,209.116,211.708Z" transform="translate(-13.252 -12.987)" fill="#fff"/>
      <circle id="Ellipse_155" data-name="Ellipse 155" cx="4.288" cy="4.288" r="4.288" transform="translate(203.414 178.96)" fill="#fff"/>
      <path id="Path_2283" data-name="Path 2283" d="M245.448,180.074a4.474,4.474,0,1,1-4.474-4.474A4.475,4.475,0,0,1,245.448,180.074Z" transform="translate(-15.655 -10.808)" fill="#fff"/>
      <path id="Path_2284" data-name="Path 2284" d="M266.621,168.261a4.661,4.661,0,1,1-4.661-4.661A4.615,4.615,0,0,1,266.621,168.261Z" transform="translate(-17.067 -9.993)" fill="#fff"/>
      <circle id="Ellipse_156" data-name="Ellipse 156" cx="4.661" cy="4.661" r="4.661" transform="translate(260.463 153.758) rotate(-76.714)" fill="#fff"/>
      <circle id="Ellipse_157" data-name="Ellipse 157" cx="4.661" cy="4.661" r="4.661" transform="translate(283.296 139.905)" fill="#fff"/>
      <path id="Path_2285" data-name="Path 2285" d="M336.821,149.554a4.661,4.661,0,0,1-9.321,0,4.755,4.755,0,0,1,4.661-4.754A4.884,4.884,0,0,1,336.821,149.554Z" transform="translate(-21.833 -8.717)" fill="#fff"/>
      <path id="Path_2286" data-name="Path 2286" d="M361.208,147.547a4.754,4.754,0,0,1-9.508,0,4.855,4.855,0,0,1,4.754-4.847A4.794,4.794,0,0,1,361.208,147.547Z" transform="translate(-23.476 -8.574)" fill="#fff"/>
      <path id="Path_2287" data-name="Path 2287" d="M385.88,147.24a4.94,4.94,0,1,1-4.94-4.94A4.973,4.973,0,0,1,385.88,147.24Z" transform="translate(-25.126 -8.547)" fill="#fff"/>
      <path id="Path_2288" data-name="Path 2288" d="M410.467,150.433a5.033,5.033,0,1,1-5.033-5.033A5.012,5.012,0,0,1,410.467,150.433Z" transform="translate(-26.782 -8.758)" fill="#fff"/>
      <path id="Path_2289" data-name="Path 2289" d="M433.68,158.24a4.94,4.94,0,1,1-9.88,0,4.94,4.94,0,1,1,9.88,0Z" transform="translate(-28.371 -9.294)" fill="#fff"/>
      <path id="Path_2290" data-name="Path 2290" d="M455.121,169.761a4.661,4.661,0,1,1-4.661-4.661A4.674,4.674,0,0,1,455.121,169.761Z" transform="translate(-29.864 -10.095)" fill="#fff"/>
      <path id="Path_2291" data-name="Path 2291" d="M475.155,183.181a4.475,4.475,0,0,1-4.474,4.474,4.428,4.428,0,0,1,0-8.855A4.456,4.456,0,0,1,475.155,183.181Z" transform="translate(-31.256 -11.025)" fill="#fff"/>
      <circle id="Ellipse_158" data-name="Ellipse 158" cx="4.288" cy="4.288" r="4.288" transform="translate(452.196 188.691) rotate(-76.714)" fill="#fff"/>
      <circle id="Ellipse_159" data-name="Ellipse 159" cx="4.194" cy="4.194" r="4.194" transform="translate(469.214 203.658) rotate(-80.782)" fill="#fff"/>
      <path id="Path_2292" data-name="Path 2292" d="M528.3,230.4a4.1,4.1,0,0,1-8.2,0,4.1,4.1,0,0,1,8.2,0Z" transform="translate(-34.908 -14.25)" fill="#fff"/>
      <circle id="Ellipse_160" data-name="Ellipse 160" cx="4.101" cy="4.101" r="4.101" transform="translate(498.614 229.481)" fill="#fff"/>
      <path id="Path_2293" data-name="Path 2293" d="M554.516,269.408a4.008,4.008,0,1,1-4.008-4.008A3.978,3.978,0,0,1,554.516,269.408Z" transform="translate(-36.701 -16.904)" fill="#fff"/>
      <path id="Path_2294" data-name="Path 2294" d="M563.943,290.822A3.822,3.822,0,1,1,560.122,287,3.839,3.839,0,0,1,563.943,290.822Z" transform="translate(-37.366 -18.371)" fill="#fff"/>
      <path id="Path_2295" data-name="Path 2295" d="M570.757,313.028a3.728,3.728,0,1,1-3.728-3.728A3.8,3.8,0,0,1,570.757,313.028Z" transform="translate(-37.841 -19.885)" fill="#fff"/>
      <path id="Path_2296" data-name="Path 2296" d="M574.984,335.742a3.542,3.542,0,1,1-3.542-3.542A3.54,3.54,0,0,1,574.984,335.742Z" transform="translate(-38.154 -21.439)" fill="#fff"/>
      <path id="Path_2297" data-name="Path 2297" d="M577.8,358.449A3.449,3.449,0,1,1,574.349,355,3.441,3.441,0,0,1,577.8,358.449Z" transform="translate(-38.357 -22.987)" fill="#fff"/>
      <path id="Path_2298" data-name="Path 2298" d="M579.4,381.249a3.449,3.449,0,0,1-6.9,0,3.449,3.449,0,1,1,6.9,0Z" transform="translate(-38.466 -24.535)" fill="#fff"/>
      <path id="Path_2299" data-name="Path 2299" d="M579.484,404.142a3.542,3.542,0,1,1-3.542-3.542A3.666,3.666,0,0,1,579.484,404.142Z" transform="translate(-38.459 -26.083)" fill="#fff"/>
      <path id="Path_2300" data-name="Path 2300" d="M577.67,427.135a3.7,3.7,0,0,1-3.635,3.635,3.635,3.635,0,0,1,0-7.27A3.582,3.582,0,0,1,577.67,427.135Z" transform="translate(-38.323 -27.638)" fill="#fff"/>
      <circle id="Ellipse_161" data-name="Ellipse 161" cx="4.101" cy="4.101" r="4.101" transform="translate(562.549 410.005) rotate(-80.782)" fill="#fff"/>
      <path id="Path_2301" data-name="Path 2301" d="M609.575,457.088a4.288,4.288,0,0,1-8.575,0,4.276,4.276,0,0,1,4.288-4.288A4.337,4.337,0,0,1,609.575,457.088Z" transform="translate(-40.401 -29.627)" fill="#fff"/>
      <path id="Path_2302" data-name="Path 2302" d="M604.348,479.074a4.474,4.474,0,0,1-8.948,0,4.417,4.417,0,0,1,4.474-4.474A4.536,4.536,0,0,1,604.348,479.074Z" transform="translate(-40.021 -31.107)" fill="#fff"/>
      <path id="Path_2303" data-name="Path 2303" d="M596.248,500.274a4.474,4.474,0,1,1-4.474-4.474A4.536,4.536,0,0,1,596.248,500.274Z" transform="translate(-39.471 -32.546)" fill="#fff"/>
      <path id="Path_2304" data-name="Path 2304" d="M586.035,520.667a4.567,4.567,0,1,1-4.567-4.567A4.575,4.575,0,0,1,586.035,520.667Z" transform="translate(-38.765 -33.924)" fill="#fff"/>
      <circle id="Ellipse_162" data-name="Ellipse 162" cx="4.661" cy="4.661" r="4.661" transform="translate(526.278 508.779) rotate(-80.782)" fill="#fff"/>
      <circle id="Ellipse_163" data-name="Ellipse 163" cx="4.661" cy="4.661" r="4.661" transform="translate(514.367 517.503)" fill="#fff"/>
      <path id="Path_2305" data-name="Path 2305" d="M546.194,576.453a4.814,4.814,0,0,1-4.847,4.847,4.873,4.873,0,0,1-4.847-4.847,4.794,4.794,0,0,1,4.847-4.754A4.734,4.734,0,0,1,546.194,576.453Z" transform="translate(-36.022 -37.699)" fill="#fff"/>
      <path id="Path_2306" data-name="Path 2306" d="M529.88,592.84a4.913,4.913,0,0,1-4.94,4.94,4.94,4.94,0,1,1,4.94-4.94Z" transform="translate(-34.902 -38.798)" fill="#fff"/>
      <path id="Path_2307" data-name="Path 2307" d="M511.78,607.34a4.94,4.94,0,1,1-4.94-4.94A4.855,4.855,0,0,1,511.78,607.34Z" transform="translate(-33.673 -39.783)" fill="#fff"/>
      <circle id="Ellipse_164" data-name="Ellipse 164" cx="4.94" cy="4.94" r="4.94" transform="translate(448.818 582.586) rotate(-80.782)" fill="#fff"/>
      <path id="Path_2308" data-name="Path 2308" d="M470.408,628.354a4.855,4.855,0,0,1-4.754,4.847,4.8,4.8,0,0,1,0-9.6A4.657,4.657,0,0,1,470.408,628.354Z" transform="translate(-30.889 -41.222)" fill="#fff"/>
      <path id="Path_2309" data-name="Path 2309" d="M448.128,634.861a4.674,4.674,0,0,1-4.661,4.661,4.6,4.6,0,0,1-4.567-4.661,4.655,4.655,0,0,1,4.567-4.66A4.8,4.8,0,0,1,448.128,634.861Z" transform="translate(-29.396 -41.67)" fill="#fff"/>
      <path id="Path_2310" data-name="Path 2310" d="M425.162,638.481a4.381,4.381,0,1,1-4.381-4.381A4.376,4.376,0,0,1,425.162,638.481Z" transform="translate(-27.868 -41.935)" fill="#fff"/>
      <circle id="Ellipse_165" data-name="Ellipse 165" cx="4.101" cy="4.101" r="4.101" transform="translate(367.652 593.563)" fill="#fff"/>
      <path id="Path_2311" data-name="Path 2311" d="M379.643,639.322a3.822,3.822,0,1,1-3.822-3.822A3.9,3.9,0,0,1,379.643,639.322Z" transform="translate(-24.854 -42.03)" fill="#fff"/>
      <circle id="Ellipse_166" data-name="Ellipse 166" cx="3.635" cy="3.635" r="3.635" transform="translate(326.826 592.724)" fill="#fff"/>
      <circle id="Ellipse_167" data-name="Ellipse 167" cx="3.635" cy="3.635" r="3.635" transform="matrix(0.995, -0.099, 0.099, 0.995, 306.159, 591.87)" fill="#fff"/>
      <path id="Path_2312" data-name="Path 2312" d="M314.064,634.828a3.682,3.682,0,1,1-3.635-3.728A3.721,3.721,0,0,1,314.064,634.828Z" transform="translate(-20.421 -41.731)" fill="#fff"/>
      <path id="Path_2313" data-name="Path 2313" d="M292.557,630.728A3.728,3.728,0,1,1,288.828,627,3.739,3.739,0,0,1,292.557,630.728Z" transform="translate(-18.955 -41.453)" fill="#fff"/>
      <circle id="Ellipse_168" data-name="Ellipse 168" cx="3.822" cy="3.822" r="3.822" transform="translate(246.385 579.861)" fill="#fff"/>
      <circle id="Ellipse_169" data-name="Ellipse 169" cx="3.915" cy="3.915" r="3.915" transform="translate(226.24 580.44) rotate(-80.782)" fill="#fff"/>
      <path id="Path_2314" data-name="Path 2314" d="M230,609.9a4.1,4.1,0,1,1-4.1-4.1A4.138,4.138,0,0,1,230,609.9Z" transform="translate(-14.657 -40.014)" fill="#fff"/>
      <circle id="Ellipse_170" data-name="Ellipse 170" cx="4.288" cy="4.288" r="4.288" transform="translate(188.035 556.465)" fill="#fff"/>
      <path id="Path_2315" data-name="Path 2315" d="M190.955,587.774a4.4,4.4,0,0,1-4.474,4.381,4.318,4.318,0,0,1-4.381-4.381,4.456,4.456,0,0,1,4.381-4.474A4.536,4.536,0,0,1,190.955,587.774Z" transform="translate(-11.962 -38.486)" fill="#fff"/>
      <path id="Path_2316" data-name="Path 2316" d="M173.648,573.174a4.417,4.417,0,0,1-4.474,4.474,4.474,4.474,0,1,1,4.474-4.474Z" transform="translate(-10.781 -37.495)" fill="#fff"/>
      <path id="Path_2317" data-name="Path 2317" d="M157.535,557.167a4.567,4.567,0,1,1-4.567-4.567A4.575,4.575,0,0,1,157.535,557.167Z" transform="translate(-9.674 -36.402)" fill="#fff"/>
      <path id="Path_2318" data-name="Path 2318" d="M142.421,539.961a4.661,4.661,0,1,1-4.661-4.661A4.674,4.674,0,0,1,142.421,539.961Z" transform="translate(-8.635 -35.227)" fill="#fff"/>
      <circle id="Ellipse_171" data-name="Ellipse 171" cx="4.847" cy="4.847" r="4.847" transform="translate(110.949 483.108)" fill="#fff"/>
      <path id="Path_2319" data-name="Path 2319" d="M114.667,502.933a5.033,5.033,0,1,1-5.033-5.033A5.012,5.012,0,0,1,114.667,502.933Z" transform="translate(-6.701 -32.688)" fill="#fff"/>
      <path id="Path_2320" data-name="Path 2320" d="M102.426,482.713a5.313,5.313,0,1,1-5.313-5.313A5.371,5.371,0,0,1,102.426,482.713Z" transform="translate(-5.832 -31.297)" fill="#fff"/>
      <path id="Path_2321" data-name="Path 2321" d="M92.085,461.193a5.593,5.593,0,1,1-5.593-5.593A5.55,5.55,0,0,1,92.085,461.193Z" transform="translate(-5.092 -29.817)" fill="#fff"/>
      <path id="Path_2322" data-name="Path 2322" d="M84.358,438.279a5.779,5.779,0,1,1-5.779-5.779A5.808,5.808,0,0,1,84.358,438.279Z" transform="translate(-4.542 -28.249)" fill="#fff"/>
      <path id="Path_2323" data-name="Path 2323" d="M79.138,414.565a5.919,5.919,0,1,1-5.966-5.965A6.069,6.069,0,0,1,79.138,414.565Z" transform="translate(-4.168 -26.626)" fill="#fff"/>
      <path id="Path_2324" data-name="Path 2324" d="M76.417,390.366a6.059,6.059,0,0,1-12.117,0,6.059,6.059,0,0,1,12.117,0Z" transform="translate(-3.965 -24.983)" fill="#fff"/>
      <path id="Path_2325" data-name="Path 2325" d="M76.017,365.959a6.059,6.059,0,1,1-6.059-6.059A6.047,6.047,0,0,1,76.017,365.959Z" transform="translate(-3.938 -23.32)" fill="#fff"/>
      <path id="Path_2326" data-name="Path 2326" d="M78.2,341.552a6.152,6.152,0,1,1-6.152-6.152A6.146,6.146,0,0,1,78.2,341.552Z" transform="translate(-4.073 -21.657)" fill="#fff"/>
      <path id="Path_2327" data-name="Path 2327" d="M82.9,317.452a6.152,6.152,0,1,1-6.152-6.152A6.207,6.207,0,0,1,82.9,317.452Z" transform="translate(-4.392 -20.02)" fill="#fff"/>
      <path id="Path_2328" data-name="Path 2328" d="M90.117,294.059A6.059,6.059,0,1,1,84.059,288,5.931,5.931,0,0,1,90.117,294.059Z" transform="translate(-4.895 -18.438)" fill="#fff"/>
      <path id="Path_2329" data-name="Path 2329" d="M99.924,271.659a6.012,6.012,0,0,1-12.024,0,6.012,6.012,0,1,1,12.024,0Z" transform="translate(-5.567 -16.918)" fill="#fff"/>
      <path id="Path_2330" data-name="Path 2330" d="M111.231,250.066a5.947,5.947,0,0,1-5.966,5.965,5.965,5.965,0,1,1,5.966-5.965Z" transform="translate(-6.341 -15.458)" fill="#fff"/>
      <path id="Path_2331" data-name="Path 2331" d="M124.445,229.772a5.872,5.872,0,1,1-5.872-5.872A5.848,5.848,0,0,1,124.445,229.772Z" transform="translate(-7.251 -14.087)" fill="#fff"/>
      <path id="Path_2332" data-name="Path 2332" d="M139.658,210.979a5.779,5.779,0,1,1-5.779-5.779A5.808,5.808,0,0,1,139.658,210.979Z" transform="translate(-8.296 -12.817)" fill="#fff"/>
      <path id="Path_2333" data-name="Path 2333" d="M156.272,193.586a5.686,5.686,0,0,1-11.372,0,5.708,5.708,0,0,1,5.686-5.686A5.834,5.834,0,0,1,156.272,193.586Z" transform="translate(-9.437 -11.643)" fill="#fff"/>
      <circle id="Ellipse_172" data-name="Ellipse 172" cx="5.686" cy="5.686" r="5.686" transform="translate(149.155 164.247) rotate(-31.714)" fill="#fff"/>
      <circle id="Ellipse_173" data-name="Ellipse 173" cx="5.779" cy="5.779" r="5.779" transform="translate(165.338 152.521) rotate(-58.286)" fill="#fff"/>
      <path id="Path_2334" data-name="Path 2334" d="M210.131,144.965a5.947,5.947,0,0,1-5.965,5.965,6.007,6.007,0,0,1-5.965-5.965A5.947,5.947,0,0,1,204.166,139,6.007,6.007,0,0,1,210.131,144.965Z" transform="translate(-13.055 -8.323)" fill="#fff"/>
      <path id="Path_2335" data-name="Path 2335" d="M231.131,132.666a5.966,5.966,0,1,1-5.966-5.966A6.007,6.007,0,0,1,231.131,132.666Z" transform="translate(-14.481 -7.488)" fill="#fff"/>
      <circle id="Ellipse_174" data-name="Ellipse 174" cx="5.872" cy="5.872" r="5.872" transform="translate(225.692 110.543)" fill="#fff"/>
      <path id="Path_2336" data-name="Path 2336" d="M276.658,116.379a5.779,5.779,0,1,1-5.779-5.779A5.808,5.808,0,0,1,276.658,116.379Z" transform="translate(-17.597 -6.395)" fill="#fff"/>
      <circle id="Ellipse_175" data-name="Ellipse 175" cx="5.593" cy="5.593" r="5.593" transform="translate(269.874 100.756)" fill="#fff"/>
      <path id="Path_2337" data-name="Path 2337" d="M324.112,111.306a5.406,5.406,0,1,1-5.406-5.406A5.471,5.471,0,0,1,324.112,111.306Z" transform="translate(-20.869 -6.076)" fill="#fff"/>
      <path id="Path_2338" data-name="Path 2338" d="M347.653,112.727a5.127,5.127,0,1,1-5.127-5.127A5.235,5.235,0,0,1,347.653,112.727Z" transform="translate(-22.505 -6.191)" fill="#fff"/>
      <path id="Path_2339" data-name="Path 2339" d="M370.594,116.647a4.873,4.873,0,0,1-4.847,4.847,4.847,4.847,0,1,1,4.847-4.847Z" transform="translate(-24.101 -6.477)" fill="#fff"/>
      <path id="Path_2340" data-name="Path 2340" d="M392.748,122.574a4.474,4.474,0,1,1-8.948,0,4.536,4.536,0,0,1,4.474-4.474A4.361,4.361,0,0,1,392.748,122.574Z" transform="translate(-25.655 -6.904)" fill="#fff"/>
      <path id="Path_2341" data-name="Path 2341" d="M414.282,129.688a4.241,4.241,0,0,1-8.482,0,4.257,4.257,0,0,1,4.195-4.288A4.4,4.4,0,0,1,414.282,129.688Z" transform="translate(-27.149 -7.4)" fill="#fff"/>
      <circle id="Ellipse_176" data-name="Ellipse 176" cx="4.101" cy="4.101" r="4.101" transform="translate(397.88 132.526) rotate(-80.782)" fill="#fff"/>
      <path id="Path_2342" data-name="Path 2342" d="M456.1,145a4.1,4.1,0,1,1-4.1-4.1A4.078,4.078,0,0,1,456.1,145Z" transform="translate(-30.007 -8.452)" fill="#fff"/>
      <path id="Path_2343" data-name="Path 2343" d="M476.4,154.3a4.1,4.1,0,1,1-4.1-4.1A4.077,4.077,0,0,1,476.4,154.3Z" transform="translate(-31.385 -9.084)" fill="#fff"/>
      <path id="Path_2344" data-name="Path 2344" d="M495.316,165.908a4.008,4.008,0,1,1-4.008-4.008A3.978,3.978,0,0,1,495.316,165.908Z" transform="translate(-32.682 -9.878)" fill="#fff"/>
      <path id="Path_2345" data-name="Path 2345" d="M512.33,180.015a3.915,3.915,0,1,1-3.915-3.915A3.938,3.938,0,0,1,512.33,180.015Z" transform="translate(-33.849 -10.842)" fill="#fff"/>
      <path id="Path_2346" data-name="Path 2346" d="M527.37,196.135a3.635,3.635,0,0,1-7.271,0,3.635,3.635,0,0,1,7.271,0Z" transform="translate(-34.908 -11.955)" fill="#fff"/>
      <circle id="Ellipse_177" data-name="Ellipse 177" cx="3.449" cy="3.449" r="3.449" transform="translate(497.775 196.95)" fill="#fff"/>
      <path id="Path_2347" data-name="Path 2347" d="M551.538,232.069a3.169,3.169,0,1,1-3.169-3.169A3.143,3.143,0,0,1,551.538,232.069Z" transform="translate(-36.612 -14.426)" fill="#fff"/>
      <path id="Path_2348" data-name="Path 2348" d="M560.779,251.19a2.89,2.89,0,1,1-2.89-2.89A2.9,2.9,0,0,1,560.779,251.19Z" transform="translate(-37.278 -15.743)" fill="#fff"/>
      <path id="Path_2349" data-name="Path 2349" d="M569.406,270.3a2.7,2.7,0,1,1-2.7-2.7A2.705,2.705,0,0,1,569.406,270.3Z" transform="translate(-37.889 -17.054)" fill="#fff"/>
      <path id="Path_2350" data-name="Path 2350" d="M577.813,289.3a2.705,2.705,0,0,1-2.7,2.7,2.627,2.627,0,0,1-2.61-2.7,2.687,2.687,0,0,1,2.61-2.7A2.647,2.647,0,0,1,577.813,289.3Z" transform="translate(-38.466 -18.344)" fill="#fff"/>
      <circle id="Ellipse_178" data-name="Ellipse 178" cx="2.703" cy="2.703" r="2.703" transform="translate(541.771 285.967)" fill="#fff"/>
      <path id="Path_2351" data-name="Path 2351" d="M593.679,327.89A2.89,2.89,0,1,1,590.79,325,2.845,2.845,0,0,1,593.679,327.89Z" transform="translate(-39.511 -20.951)" fill="#fff"/>
      <circle id="Ellipse_179" data-name="Ellipse 179" cx="3.076" cy="3.076" r="3.076" transform="translate(553.888 322.785)" fill="#fff"/>
      <path id="Path_2352" data-name="Path 2352" d="M605.125,368.962a3.262,3.262,0,1,1-3.262-3.262A3.3,3.3,0,0,1,605.125,368.962Z" transform="translate(-40.238 -23.714)" fill="#fff"/>
      <circle id="Ellipse_180" data-name="Ellipse 180" cx="3.449" cy="3.449" r="3.449" transform="translate(560.392 363.341) rotate(-22.5)" fill="#fff"/>
      <ellipse id="Ellipse_181" data-name="Ellipse 181" cx="3.822" cy="3.728" rx="3.822" ry="3.728" transform="translate(562.729 388.854) rotate(-80.782)" fill="#fff"/>
      <circle id="Ellipse_182" data-name="Ellipse 182" cx="4.101" cy="4.101" r="4.101" transform="translate(562.549 410.005) rotate(-80.782)" fill="#fff"/>
      <path id="Path_2353" data-name="Path 2353" d="M609.575,457.088a4.288,4.288,0,0,1-8.575,0,4.276,4.276,0,0,1,4.288-4.288A4.337,4.337,0,0,1,609.575,457.088Z" transform="translate(-40.401 -29.627)" fill="#fff"/>
      <path id="Path_2354" data-name="Path 2354" d="M628.238,434.669a3.169,3.169,0,1,1-3.169-3.169A3.143,3.143,0,0,1,628.238,434.669Z" transform="translate(-41.82 -28.181)" fill="#fff"/>
      <path id="Path_2355" data-name="Path 2355" d="M624.038,454.069a3.169,3.169,0,1,1-3.169-3.169A3.143,3.143,0,0,1,624.038,454.069Z" transform="translate(-41.534 -29.498)" fill="#fff"/>
      <path id="Path_2356" data-name="Path 2356" d="M619.038,473.369a3.169,3.169,0,1,1-3.169-3.169A3.143,3.143,0,0,1,619.038,473.369Z" transform="translate(-41.195 -30.808)" fill="#fff"/>
      <path id="Path_2357" data-name="Path 2357" d="M613.418,492.562a3.342,3.342,0,0,1-3.356,3.356,3.309,3.309,0,0,1,0-6.618A3.323,3.323,0,0,1,613.418,492.562Z" transform="translate(-40.794 -32.105)" fill="#fff"/>
      <path id="Path_2358" data-name="Path 2358" d="M607.1,511.749a3.441,3.441,0,0,1-3.449,3.449,3.449,3.449,0,0,1,0-6.9A3.441,3.441,0,0,1,607.1,511.749Z" transform="translate(-40.346 -33.395)" fill="#fff"/>
      <path id="Path_2359" data-name="Path 2359" d="M599.07,530.435a3.635,3.635,0,1,1-3.635-3.635A3.7,3.7,0,0,1,599.07,530.435Z" transform="translate(-39.776 -34.65)" fill="#fff"/>
      <circle id="Ellipse_183" data-name="Ellipse 183" cx="3.635" cy="3.635" r="3.635" transform="translate(541.749 515.113) rotate(-80.782)" fill="#fff"/>
      <path id="Path_2360" data-name="Path 2360" d="M576.557,564.428a3.728,3.728,0,1,1-3.728-3.728A3.739,3.739,0,0,1,576.557,564.428Z" transform="translate(-38.235 -36.952)" fill="#fff"/>
      <path id="Path_2361" data-name="Path 2361" d="M563.357,580.028a3.728,3.728,0,1,1-3.728-3.728A3.739,3.739,0,0,1,563.357,580.028Z" transform="translate(-37.339 -38.011)" fill="#fff"/>
      <path id="Path_2362" data-name="Path 2362" d="M549.543,595.222a3.822,3.822,0,1,1-3.822-3.822A3.78,3.78,0,0,1,549.543,595.222Z" transform="translate(-36.388 -39.036)" fill="#fff"/>
      <path id="Path_2363" data-name="Path 2363" d="M535.13,609.915A3.915,3.915,0,1,1,531.215,606,3.939,3.939,0,0,1,535.13,609.915Z" transform="translate(-35.397 -40.027)" fill="#fff"/>
      <path id="Path_2364" data-name="Path 2364" d="M519.8,624a4.1,4.1,0,1,1-4.1-4.1A4.021,4.021,0,0,1,519.8,624Z" transform="translate(-34.331 -40.971)" fill="#fff"/>
      <circle id="Ellipse_184" data-name="Ellipse 184" cx="4.194" cy="4.194" r="4.194" transform="translate(461.796 590.86)" fill="#fff"/>
      <circle id="Ellipse_185" data-name="Ellipse 185" cx="4.381" cy="4.381" r="4.381" transform="translate(444.924 601.3)" fill="#fff"/>
      <circle id="Ellipse_186" data-name="Ellipse 186" cx="4.474" cy="4.474" r="4.474" transform="translate(427.401 610.621)" fill="#fff"/>
      <path id="Path_2365" data-name="Path 2365" d="M447.635,667.067a4.567,4.567,0,1,1-4.567-4.567A4.516,4.516,0,0,1,447.635,667.067Z" transform="translate(-29.369 -43.863)" fill="#fff"/>
      <path id="Path_2366" data-name="Path 2366" d="M427.514,674.354a4.755,4.755,0,0,1-4.661,4.754,4.835,4.835,0,0,1-4.754-4.754,4.774,4.774,0,0,1,4.754-4.754A4.7,4.7,0,0,1,427.514,674.354Z" transform="translate(-27.984 -44.345)" fill="#fff"/>
      <path id="Path_2367" data-name="Path 2367" d="M406.794,680.047a4.814,4.814,0,0,1-4.847,4.847,4.847,4.847,0,0,1,0-9.694A4.814,4.814,0,0,1,406.794,680.047Z" transform="translate(-26.558 -44.725)" fill="#fff"/>
      <path id="Path_2368" data-name="Path 2368" d="M385.58,684.04a4.94,4.94,0,1,1-4.94-4.94A5.035,5.035,0,0,1,385.58,684.04Z" transform="translate(-25.105 -44.99)" fill="#fff"/>
      <path id="Path_2369" data-name="Path 2369" d="M363.98,686.04a4.913,4.913,0,0,1-4.94,4.94,4.94,4.94,0,1,1,0-9.88A4.913,4.913,0,0,1,363.98,686.04Z" transform="translate(-23.639 -45.126)" fill="#fff"/>
      <circle id="Ellipse_187" data-name="Ellipse 187" cx="4.94" cy="4.94" r="4.94" transform="matrix(0.998, -0.055, 0.055, 0.998, 309.884, 635.899)" fill="#fff"/>
      <circle id="Ellipse_188" data-name="Ellipse 188" cx="4.94" cy="4.94" r="4.94" transform="translate(289.663 642.717) rotate(-85.935)" fill="#fff"/>
      <path id="Path_2370" data-name="Path 2370" d="M299.187,678.847a4.894,4.894,0,1,1-9.787,0A4.835,4.835,0,0,1,294.34,674,4.935,4.935,0,0,1,299.187,678.847Z" transform="translate(-19.246 -44.644)" fill="#fff"/>
      <path id="Path_2371" data-name="Path 2371" d="M278.194,673.447a4.847,4.847,0,1,1-4.847-4.847A4.814,4.814,0,0,1,278.194,673.447Z" transform="translate(-17.828 -44.277)" fill="#fff"/>
      <path id="Path_2372" data-name="Path 2372" d="M257.494,667.047a4.847,4.847,0,1,1-4.847-4.847A4.814,4.814,0,0,1,257.494,667.047Z" transform="translate(-16.422 -43.843)" fill="#fff"/>
      <circle id="Ellipse_189" data-name="Ellipse 189" cx="4.94" cy="4.94" r="4.94" transform="translate(212.363 611.18)" fill="#fff"/>
      <path id="Path_2373" data-name="Path 2373" d="M217.38,650.64a4.94,4.94,0,1,1-4.94-4.94A4.913,4.913,0,0,1,217.38,650.64Z" transform="translate(-13.686 -42.722)" fill="#fff"/>
      <circle id="Ellipse_190" data-name="Ellipse 190" cx="5.033" cy="5.033" r="5.033" transform="translate(175.731 593.377)" fill="#fff"/>
      <path id="Path_2374" data-name="Path 2374" d="M179.353,629.327a5.127,5.127,0,1,1-5.127-5.127A5.054,5.054,0,0,1,179.353,629.327Z" transform="translate(-11.079 -41.263)" fill="#fff"/>
      <path id="Path_2375" data-name="Path 2375" d="M161.24,617.02a5.22,5.22,0,1,1-5.22-5.22A5.211,5.211,0,0,1,161.24,617.02Z" transform="translate(-9.837 -40.421)" fill="#fff"/>
      <path id="Path_2376" data-name="Path 2376" d="M143.919,603.213a5.36,5.36,0,1,1-5.406-5.313A5.274,5.274,0,0,1,143.919,603.213Z" transform="translate(-8.642 -39.477)" fill="#fff"/>
      <path id="Path_2377" data-name="Path 2377" d="M128.512,587.306a5.406,5.406,0,1,1-5.406-5.406A5.351,5.351,0,0,1,128.512,587.306Z" transform="translate(-7.59 -38.391)" fill="#fff"/>
      <path id="Path_2378" data-name="Path 2378" d="M115.526,569.313a5.313,5.313,0,1,1-10.626,0A5.252,5.252,0,0,1,110.213,564,5.371,5.371,0,0,1,115.526,569.313Z" transform="translate(-6.721 -37.176)" fill="#fff"/>
      <circle id="Ellipse_191" data-name="Ellipse 191" cx="5.127" cy="5.127" r="5.127" transform="translate(88.578 508.834)" fill="#fff"/>
      <circle id="Ellipse_192" data-name="Ellipse 192" cx="4.94" cy="4.94" r="4.94" transform="translate(80.562 490.192)" fill="#fff"/>
      <circle id="Ellipse_193" data-name="Ellipse 193" cx="4.754" cy="4.754" r="4.754" transform="translate(73.571 471.457)" fill="#fff"/>
      <path id="Path_2379" data-name="Path 2379" d="M81.435,488.867a4.567,4.567,0,1,1-4.567-4.567A4.636,4.636,0,0,1,81.435,488.867Z" transform="translate(-4.508 -31.765)" fill="#fff"/>
      <path id="Path_2380" data-name="Path 2380" d="M76.148,468.074a4.536,4.536,0,0,1-4.474,4.474,4.475,4.475,0,0,1-4.474-4.474,4.417,4.417,0,0,1,4.474-4.474A4.475,4.475,0,0,1,76.148,468.074Z" transform="translate(-4.162 -30.36)" fill="#fff"/>
      <path id="Path_2381" data-name="Path 2381" d="M72.669,447.088a4.376,4.376,0,0,1-4.381,4.381,4.335,4.335,0,0,1,0-8.669A4.357,4.357,0,0,1,72.669,447.088Z" transform="translate(-3.944 -28.948)" fill="#fff"/>
      <circle id="Ellipse_194" data-name="Ellipse 194" cx="4.194" cy="4.194" r="4.194" transform="translate(58.564 394.371)" fill="#fff"/>
      <circle id="Ellipse_195" data-name="Ellipse 195" cx="4.101" cy="4.101" r="4.101" transform="translate(58.191 374.89)" fill="#fff"/>
      <circle id="Ellipse_196" data-name="Ellipse 196" cx="4.008" cy="4.008" r="4.008" transform="translate(56.937 359.619) rotate(-45)" fill="#fff"/>
      <path id="Path_2382" data-name="Path 2382" d="M71.516,363.508a4.008,4.008,0,1,1-4.008-4.008A4.1,4.1,0,0,1,71.516,363.508Z" transform="translate(-3.91 -23.293)" fill="#fff"/>
      <circle id="Ellipse_197" data-name="Ellipse 197" cx="4.008" cy="4.008" r="4.008" transform="translate(61.92 317.006)" fill="#fff"/>
      <path id="Path_2383" data-name="Path 2383" d="M78.23,322.715a3.915,3.915,0,1,1-3.915-3.915A3.939,3.939,0,0,1,78.23,322.715Z" transform="translate(-4.379 -20.53)" fill="#fff"/>
      <path id="Path_2384" data-name="Path 2384" d="M84.03,302.915A3.915,3.915,0,1,1,80.115,299,3.879,3.879,0,0,1,84.03,302.915Z" transform="translate(-4.773 -19.185)" fill="#fff"/>
      <path id="Path_2385" data-name="Path 2385" d="M91.043,283.521a3.822,3.822,0,1,1-3.822-3.822A3.78,3.78,0,0,1,91.043,283.521Z" transform="translate(-5.261 -17.875)" fill="#fff"/>
      <circle id="Ellipse_198" data-name="Ellipse 198" cx="3.822" cy="3.822" r="3.822" transform="translate(85.409 244.022)" fill="#fff"/>
      <circle id="Ellipse_199" data-name="Ellipse 199" cx="3.915" cy="3.915" r="3.915" transform="translate(93.052 226.218)" fill="#fff"/>
      <path id="Path_2386" data-name="Path 2386" d="M117.116,227.108a4.008,4.008,0,1,1-4.008-4.008A4.038,4.038,0,0,1,117.116,227.108Z" transform="translate(-7.006 -14.033)" fill="#fff"/>
      <path id="Path_2387" data-name="Path 2387" d="M128.916,209.908a4.008,4.008,0,1,1-4.008-4.008A4.038,4.038,0,0,1,128.916,209.908Z" transform="translate(-7.807 -12.865)" fill="#fff"/>
      <circle id="Ellipse_200" data-name="Ellipse 200" cx="4.008" cy="4.008" r="4.008" transform="translate(126.049 178.681)" fill="#fff"/>
      <path id="Path_2388" data-name="Path 2388" d="M158.343,180.922a3.822,3.822,0,1,1-3.822-3.822A3.78,3.78,0,0,1,158.343,180.922Z" transform="translate(-9.83 -10.91)" fill="#fff"/>
      <path id="Path_2389" data-name="Path 2389" d="M175.27,169.235a3.582,3.582,0,0,1-3.635,3.635,3.635,3.635,0,1,1,0-7.27A3.767,3.767,0,0,1,175.27,169.235Z" transform="translate(-11.005 -10.129)" fill="#fff"/>
      <path id="Path_2390" data-name="Path 2390" d="M193.411,159.956a3.356,3.356,0,1,1-3.356-3.356A3.4,3.4,0,0,1,193.411,159.956Z" transform="translate(-12.274 -9.518)" fill="#fff"/>
      <path id="Path_2391" data-name="Path 2391" d="M212.266,152.782a2.983,2.983,0,1,1-2.983-2.983A2.945,2.945,0,0,1,212.266,152.782Z" transform="translate(-13.605 -9.056)" fill="#fff"/>
      <path id="Path_2392" data-name="Path 2392" d="M231.206,146.9a2.7,2.7,0,1,1-2.7-2.7A2.833,2.833,0,0,1,231.206,146.9Z" transform="translate(-14.929 -8.676)" fill="#fff"/>
      <path id="Path_2393" data-name="Path 2393" d="M249.947,142.023a2.424,2.424,0,1,1-2.423-2.423A2.468,2.468,0,0,1,249.947,142.023Z" transform="translate(-16.239 -8.364)" fill="#fff"/>
      <path id="Path_2394" data-name="Path 2394" d="M268.474,137.537a2.237,2.237,0,1,1-2.237-2.237A2.268,2.268,0,0,1,268.474,137.537Z" transform="translate(-17.522 -8.072)" fill="#fff"/>
      <path id="Path_2395" data-name="Path 2395" d="M287,133.95a2.051,2.051,0,1,1-2.051-2.051A1.956,1.956,0,0,1,287,133.95Z" transform="translate(-18.805 -7.841)" fill="#fff"/>
      <path id="Path_2396" data-name="Path 2396" d="M305.515,131.257a1.957,1.957,0,1,1-1.957-1.957A1.969,1.969,0,0,1,305.515,131.257Z" transform="translate(-20.075 -7.665)" fill="#fff"/>
      <path id="Path_2397" data-name="Path 2397" d="M324.028,129.664a1.864,1.864,0,1,1-1.864-1.864A1.87,1.87,0,0,1,324.028,129.664Z" transform="translate(-21.344 -7.563)" fill="#fff"/>
      <path id="Path_2398" data-name="Path 2398" d="M342.442,129.471a1.771,1.771,0,1,1-1.771-1.771A1.832,1.832,0,0,1,342.442,129.471Z" transform="translate(-22.607 -7.556)" fill="#fff"/>
      <path id="Path_2399" data-name="Path 2399" d="M360.856,130.278a1.678,1.678,0,1,1-1.678-1.678A1.671,1.671,0,0,1,360.856,130.278Z" transform="translate(-23.87 -7.617)" fill="#fff"/>
      <path id="Path_2400" data-name="Path 2400" d="M379.156,131.578a1.678,1.678,0,1,1-1.678-1.678A1.671,1.671,0,0,1,379.156,131.578Z" transform="translate(-25.112 -7.705)" fill="#fff"/>
      <path id="Path_2401" data-name="Path 2401" d="M397.356,133.978a1.678,1.678,0,1,1-1.678-1.678A1.671,1.671,0,0,1,397.356,133.978Z" transform="translate(-26.348 -7.868)" fill="#fff"/>
      <path id="Path_2402" data-name="Path 2402" d="M415.356,137.478a1.678,1.678,0,1,1-1.678-1.678A1.671,1.671,0,0,1,415.356,137.478Z" transform="translate(-27.57 -8.106)" fill="#fff"/>
      <path id="Path_2403" data-name="Path 2403" d="M433.256,142.078a1.678,1.678,0,1,1-1.678-1.678A1.671,1.671,0,0,1,433.256,142.078Z" transform="translate(-28.785 -8.418)" fill="#fff"/>
      <path id="Path_2404" data-name="Path 2404" d="M451.042,147.371a1.771,1.771,0,1,1-1.771-1.771A1.77,1.77,0,0,1,451.042,147.371Z" transform="translate(-29.98 -8.771)" fill="#fff"/>
      <path id="Path_2405" data-name="Path 2405" d="M468.628,153.464a1.864,1.864,0,1,1-1.864-1.864A1.87,1.87,0,0,1,468.628,153.464Z" transform="translate(-31.161 -9.179)" fill="#fff"/>
      <path id="Path_2406" data-name="Path 2406" d="M485.915,160.857a1.969,1.969,0,0,1-1.957,1.957,1.957,1.957,0,1,1,0-3.915A1.859,1.859,0,0,1,485.915,160.857Z" transform="translate(-32.322 -9.674)" fill="#fff"/>
      <path id="Path_2407" data-name="Path 2407" d="M502.5,169.751a2.051,2.051,0,1,1-2.051-2.051A2.069,2.069,0,0,1,502.5,169.751Z" transform="translate(-33.435 -10.272)" fill="#fff"/>
      <path id="Path_2408" data-name="Path 2408" d="M517.988,180.551a2.146,2.146,0,1,1-2.144-2.051A2.033,2.033,0,0,1,517.988,180.551Z" transform="translate(-34.474 -11.005)" fill="#fff"/>
      <path id="Path_2409" data-name="Path 2409" d="M531.8,193.251a2.051,2.051,0,1,1-2.051-2.051A2.069,2.069,0,0,1,531.8,193.251Z" transform="translate(-35.424 -11.867)" fill="#fff"/>
      <path id="Path_2410" data-name="Path 2410" d="M544.015,207.357a1.969,1.969,0,0,1-1.957,1.957,1.957,1.957,0,1,1,1.957-1.957Z" transform="translate(-36.266 -12.831)" fill="#fff"/>
      <path id="Path_2411" data-name="Path 2411" d="M555.228,222.264a1.864,1.864,0,1,1-1.864-1.864A1.87,1.87,0,0,1,555.228,222.264Z" transform="translate(-37.04 -13.849)" fill="#fff"/>
      <circle id="Ellipse_201" data-name="Ellipse 201" cx="1.864" cy="1.864" r="1.864" transform="translate(524.62 220.532)" fill="#fff"/>
      <path id="Path_2412" data-name="Path 2412" d="M577.028,252.364a1.864,1.864,0,1,1-1.864-1.864A1.812,1.812,0,0,1,577.028,252.364Z" transform="translate(-38.52 -15.893)" fill="#fff"/>
      <path id="Path_2413" data-name="Path 2413" d="M587.8,267.751a2.051,2.051,0,1,1-2.051-2.051A2.069,2.069,0,0,1,587.8,267.751Z" transform="translate(-39.226 -16.925)" fill="#fff"/>
      <path id="Path_2414" data-name="Path 2414" d="M597.788,283.944a2.109,2.109,0,0,1-2.144,2.144,2.168,2.168,0,0,1-2.144-2.144,2.144,2.144,0,1,1,4.288,0Z" transform="translate(-39.892 -18.018)" fill="#fff"/>
      <path id="Path_2415" data-name="Path 2415" d="M607.061,300.83a2.33,2.33,0,1,1-2.33-2.33A2.368,2.368,0,0,1,607.061,300.83Z" transform="translate(-40.496 -19.151)" fill="#fff"/>
      <circle id="Ellipse_202" data-name="Ellipse 202" cx="2.61" cy="2.61" r="2.61" transform="translate(568.668 296.565) rotate(-22.5)" fill="#fff"/>
      <path id="Path_2416" data-name="Path 2416" d="M622.893,336.6a2.8,2.8,0,0,1-2.8,2.8,2.746,2.746,0,0,1-2.8-2.8,2.8,2.8,0,0,1,2.8-2.8A2.934,2.934,0,0,1,622.893,336.6Z" transform="translate(-41.507 -21.548)" fill="#fff"/>
      <path id="Path_2417" data-name="Path 2417" d="M628.065,355.683a2.945,2.945,0,0,1-2.983,2.983,2.983,2.983,0,0,1,0-5.966A3.066,3.066,0,0,1,628.065,355.683Z" transform="translate(-41.833 -22.831)" fill="#fff"/>
      <path id="Path_2418" data-name="Path 2418" d="M631.352,375.276a3.076,3.076,0,1,1-3.076-3.076A3.1,3.1,0,0,1,631.352,375.276Z" transform="translate(-42.044 -24.155)" fill="#fff"/>
      <circle id="Ellipse_203" data-name="Ellipse 203" cx="3.169" cy="3.169" r="3.169" transform="translate(583.423 372.207) rotate(-80.782)" fill="#fff"/>
      <path id="Path_2419" data-name="Path 2419" d="M631.138,414.969a3.169,3.169,0,1,1-3.169-3.169A3.143,3.143,0,0,1,631.138,414.969Z" transform="translate(-42.016 -26.843)" fill="#fff"/>
      <path id="Path_2420" data-name="Path 2420" d="M628.238,434.669a3.169,3.169,0,1,1-3.169-3.169A3.143,3.143,0,0,1,628.238,434.669Z" transform="translate(-41.82 -28.181)" fill="#fff"/>
      <path id="Path_2421" data-name="Path 2421" d="M624.038,454.069a3.169,3.169,0,1,1-3.169-3.169A3.143,3.143,0,0,1,624.038,454.069Z" transform="translate(-41.534 -29.498)" fill="#fff"/>
      <circle id="Ellipse_204" data-name="Ellipse 204" cx="5.872" cy="5.872" r="5.872" transform="translate(645.407 383.728) rotate(-67.5)" fill="#fff"/>
      <path id="Path_2422" data-name="Path 2422" d="M704.831,427.866a5.947,5.947,0,0,1-5.966,5.966,6.007,6.007,0,0,1-5.966-5.966,5.966,5.966,0,1,1,11.931,0Z" transform="translate(-46.64 -27.529)" fill="#fff"/>
      <path id="Path_2423" data-name="Path 2423" d="M702.131,448.865a5.966,5.966,0,1,1-5.965-5.965A5.947,5.947,0,0,1,702.131,448.865Z" transform="translate(-46.456 -28.955)" fill="#fff"/>
      <path id="Path_2424" data-name="Path 2424" d="M697.131,469.566a5.966,5.966,0,0,1-11.931,0,5.947,5.947,0,0,1,5.965-5.966A6.007,6.007,0,0,1,697.131,469.566Z" transform="translate(-46.117 -30.36)" fill="#fff"/>
      <circle id="Ellipse_205" data-name="Ellipse 205" cx="5.872" cy="5.872" r="5.872" transform="translate(631.802 452.986) rotate(-9.218)" fill="#fff"/>
      <circle id="Ellipse_206" data-name="Ellipse 206" cx="5.779" cy="5.779" r="5.779" transform="translate(624.542 469.965)" fill="#fff"/>
      <path id="Path_2425" data-name="Path 2425" d="M670.585,527.193a5.593,5.593,0,1,1-5.593-5.593A5.609,5.609,0,0,1,670.585,527.193Z" transform="translate(-44.365 -34.297)" fill="#fff"/>
      <path id="Path_2426" data-name="Path 2426" d="M658.712,544.606a5.406,5.406,0,1,1-5.406-5.406A5.41,5.41,0,0,1,658.712,544.606Z" transform="translate(-43.585 -35.492)" fill="#fff"/>
      <circle id="Ellipse_207" data-name="Ellipse 207" cx="5.22" cy="5.22" r="5.22" transform="translate(592.664 519.274)" fill="#fff"/>
      <path id="Path_2427" data-name="Path 2427" d="M632.267,576.733a5.033,5.033,0,1,1-5.033-5.033A5.012,5.012,0,0,1,632.267,576.733Z" transform="translate(-41.84 -37.699)" fill="#fff"/>
      <path id="Path_2428" data-name="Path 2428" d="M618.38,591.84a4.94,4.94,0,1,1-4.94-4.94A4.913,4.913,0,0,1,618.38,591.84Z" transform="translate(-40.91 -38.731)" fill="#fff"/>
      <path id="Path_2429" data-name="Path 2429" d="M603.894,606.147a4.847,4.847,0,1,1-4.847-4.847A4.814,4.814,0,0,1,603.894,606.147Z" transform="translate(-39.939 -39.708)" fill="#fff"/>
      <path id="Path_2430" data-name="Path 2430" d="M588.907,619.654a4.754,4.754,0,1,1-4.754-4.754A4.774,4.774,0,0,1,588.907,619.654Z" transform="translate(-38.934 -40.631)" fill="#fff"/>
      <path id="Path_2431" data-name="Path 2431" d="M573.321,632.361a4.661,4.661,0,1,1-4.661-4.661A4.736,4.736,0,0,1,573.321,632.361Z" transform="translate(-37.889 -41.5)" fill="#fff"/>
      <path id="Path_2432" data-name="Path 2432" d="M557.035,644.067a4.567,4.567,0,1,1-4.567-4.567A4.575,4.575,0,0,1,557.035,644.067Z" transform="translate(-36.796 -42.302)" fill="#fff"/>
      <path id="Path_2433" data-name="Path 2433" d="M540.335,655.067a4.567,4.567,0,1,1-4.567-4.567A4.575,4.575,0,0,1,540.335,655.067Z" transform="translate(-35.662 -43.048)" fill="#fff"/>
      <path id="Path_2434" data-name="Path 2434" d="M522.948,664.874a4.474,4.474,0,0,1-8.948,0,4.536,4.536,0,0,1,4.474-4.474A4.417,4.417,0,0,1,522.948,664.874Z" transform="translate(-34.494 -43.72)" fill="#fff"/>
      <circle id="Ellipse_208" data-name="Ellipse 208" cx="4.381" cy="4.381" r="4.381" transform="translate(463.007 624.789)" fill="#fff"/>
      <circle id="Ellipse_209" data-name="Ellipse 209" cx="4.381" cy="4.381" r="4.381" transform="translate(445.73 640.243) rotate(-88.093)" fill="#fff"/>
      <path id="Path_2435" data-name="Path 2435" d="M467.782,686.688a4.241,4.241,0,0,1-8.482,0,4.241,4.241,0,1,1,8.482,0Z" transform="translate(-30.781 -45.214)" fill="#fff"/>
      <path id="Path_2436" data-name="Path 2436" d="M448.6,691.1a4.078,4.078,0,0,1-4.1,4.1,4.1,4.1,0,0,1,0-8.2A4.078,4.078,0,0,1,448.6,691.1Z" transform="translate(-29.498 -45.526)" fill="#fff"/>
      <circle id="Ellipse_210" data-name="Ellipse 210" cx="4.008" cy="4.008" r="4.008" transform="translate(393.006 644.643)" fill="#fff"/>
      <path id="Path_2437" data-name="Path 2437" d="M409.83,696.215a3.915,3.915,0,1,1-3.915-3.915A3.939,3.939,0,0,1,409.83,696.215Z" transform="translate(-26.891 -45.886)" fill="#fff"/>
      <path id="Path_2438" data-name="Path 2438" d="M390.443,697.022a3.822,3.822,0,1,1-7.643,0,3.822,3.822,0,0,1,7.643,0Z" transform="translate(-25.587 -45.947)" fill="#fff"/>
      <path id="Path_2439" data-name="Path 2439" d="M371.07,696.535a3.635,3.635,0,1,1-3.635-3.635A3.526,3.526,0,0,1,371.07,696.535Z" transform="translate(-24.297 -45.927)" fill="#fff"/>
      <path id="Path_2440" data-name="Path 2440" d="M351.984,694.742a3.542,3.542,0,1,1-3.542-3.542A3.54,3.54,0,0,1,351.984,694.742Z" transform="translate(-23.014 -45.811)" fill="#fff"/>
      <path id="Path_2441" data-name="Path 2441" d="M333.1,691.849a3.449,3.449,0,1,1-6.9,0,3.384,3.384,0,0,1,3.449-3.449A3.5,3.5,0,0,1,333.1,691.849Z" transform="translate(-21.745 -45.621)" fill="#fff"/>
      <path id="Path_2442" data-name="Path 2442" d="M314.511,688.656a3.356,3.356,0,1,1-3.356-3.356A3.466,3.466,0,0,1,314.511,688.656Z" transform="translate(-20.496 -45.411)" fill="#fff"/>
      <path id="Path_2443" data-name="Path 2443" d="M296.111,685.256a3.356,3.356,0,1,1-3.356-3.356A3.342,3.342,0,0,1,296.111,685.256Z" transform="translate(-19.246 -45.18)" fill="#fff"/>
      <circle id="Ellipse_211" data-name="Ellipse 211" cx="3.356" cy="3.356" r="3.356" transform="translate(253.003 633.458)" fill="#fff"/>
      <path id="Path_2444" data-name="Path 2444" d="M259.5,677.549a3.449,3.449,0,1,1-3.449-3.449A3.5,3.5,0,0,1,259.5,677.549Z" transform="translate(-16.748 -44.65)" fill="#fff"/>
      <path id="Path_2445" data-name="Path 2445" d="M241.384,672.442a3.542,3.542,0,1,1-3.542-3.542A3.6,3.6,0,0,1,241.384,672.442Z" transform="translate(-15.506 -44.298)" fill="#fff"/>
      <path id="Path_2446" data-name="Path 2446" d="M223.47,666.235a3.635,3.635,0,1,1-3.635-3.635A3.64,3.64,0,0,1,223.47,666.235Z" transform="translate(-14.277 -43.87)" fill="#fff"/>
      <path id="Path_2447" data-name="Path 2447" d="M205.757,659.028a3.728,3.728,0,1,1-3.728-3.728A3.624,3.624,0,0,1,205.757,659.028Z" transform="translate(-13.062 -43.374)" fill="#fff"/>
      <circle id="Ellipse_212" data-name="Ellipse 212" cx="3.915" cy="3.915" r="3.915" transform="matrix(0.995, -0.099, 0.099, 0.995, 168.46, 604.384)" fill="#fff"/>
      <circle id="Ellipse_213" data-name="Ellipse 213" cx="4.008" cy="4.008" r="4.008" transform="translate(152.708 595.521)" fill="#fff"/>
      <path id="Path_2448" data-name="Path 2448" d="M154.589,631.794a4.194,4.194,0,1,1-4.194-4.194A4.177,4.177,0,0,1,154.589,631.794Z" transform="translate(-9.525 -41.494)" fill="#fff"/>
      <path id="Path_2449" data-name="Path 2449" d="M138.475,620.588a4.357,4.357,0,0,1-4.288,4.381,4.335,4.335,0,1,1,4.288-4.381Z" transform="translate(-8.418 -40.727)" fill="#fff"/>
      <path id="Path_2450" data-name="Path 2450" d="M122.748,608.574a4.474,4.474,0,1,1-4.474-4.474A4.475,4.475,0,0,1,122.748,608.574Z" transform="translate(-7.325 -39.898)" fill="#fff"/>
      <circle id="Ellipse_214" data-name="Ellipse 214" cx="4.661" cy="4.661" r="4.661" transform="translate(92.493 551.525)" fill="#fff"/>
      <circle id="Ellipse_215" data-name="Ellipse 215" cx="4.754" cy="4.754" r="4.754" transform="translate(79.071 538.103)" fill="#fff"/>
      <path id="Path_2451" data-name="Path 2451" d="M80.78,565.54a4.94,4.94,0,1,1-4.94-4.94A4.973,4.973,0,0,1,80.78,565.54Z" transform="translate(-4.413 -36.945)" fill="#fff"/>
      <circle id="Ellipse_216" data-name="Ellipse 216" cx="5.033" cy="5.033" r="5.033" transform="translate(54.111 509.338) rotate(-9.218)" fill="#fff"/>
      <path id="Path_2452" data-name="Path 2452" d="M57.653,532.027a5.112,5.112,0,0,1-5.127,5.127,5.127,5.127,0,0,1,0-10.253A5.112,5.112,0,0,1,57.653,532.027Z" transform="translate(-2.817 -34.657)" fill="#fff"/>
      <path id="Path_2453" data-name="Path 2453" d="M47.733,513.913a5.311,5.311,0,0,1-5.313,5.313,5.232,5.232,0,0,1-5.22-5.313,5.291,5.291,0,0,1,5.22-5.313A5.371,5.371,0,0,1,47.733,513.913Z" transform="translate(-2.125 -33.415)" fill="#fff"/>
      <circle id="Ellipse_217" data-name="Ellipse 217" cx="5.406" cy="5.406" r="5.406" transform="translate(26.779 457.661)" fill="#fff"/>
      <path id="Path_2454" data-name="Path 2454" d="M31.3,476a5.5,5.5,0,1,1-5.5-5.5A5.451,5.451,0,0,1,31.3,476Z" transform="translate(-0.978 -30.828)" fill="#fff"/>
      <circle id="Ellipse_218" data-name="Ellipse 218" cx="5.593" cy="5.593" r="5.593" transform="translate(11.025 426.595) rotate(-45)" fill="#fff"/>
      <path id="Path_2455" data-name="Path 2455" d="M20.585,435.693a5.593,5.593,0,1,1-5.593-5.593A5.609,5.609,0,0,1,20.585,435.693Z" transform="translate(-0.238 -28.086)" fill="#fff"/>
      <path id="Path_2456" data-name="Path 2456" d="M17.985,414.893a5.69,5.69,0,0,1-5.593,5.686,5.639,5.639,0,1,1,5.593-5.686Z" transform="translate(-0.061 -26.673)" fill="#fff"/>
      <path id="Path_2457" data-name="Path 2457" d="M17.085,394.093a5.593,5.593,0,1,1-5.593-5.593A5.55,5.55,0,0,1,17.085,394.093Z" transform="translate(0 -25.261)" fill="#fff"/>
      <path id="Path_2458" data-name="Path 2458" d="M17.285,373.193a5.593,5.593,0,1,1-5.593-5.593A5.55,5.55,0,0,1,17.285,373.193Z" transform="translate(-0.014 -23.843)" fill="#fff"/>
      <path id="Path_2459" data-name="Path 2459" d="M18.585,352.293a5.593,5.593,0,1,1-5.593-5.593A5.609,5.609,0,0,1,18.585,352.293Z" transform="translate(-0.102 -22.424)" fill="#fff"/>
      <path id="Path_2460" data-name="Path 2460" d="M20.679,331.493a5.609,5.609,0,0,1-5.593,5.593A5.69,5.69,0,0,1,9.4,331.493a5.63,5.63,0,0,1,5.686-5.593A5.55,5.55,0,0,1,20.679,331.493Z" transform="translate(-0.238 -21.012)" fill="#fff"/>
      <path id="Path_2461" data-name="Path 2461" d="M23.372,310.686a5.708,5.708,0,0,1-5.686,5.686A5.649,5.649,0,0,1,12,310.686,5.709,5.709,0,0,1,17.686,305,5.649,5.649,0,0,1,23.372,310.686Z" transform="translate(-0.414 -19.593)" fill="#fff"/>
      <path id="Path_2462" data-name="Path 2462" d="M27.458,289.979a5.779,5.779,0,1,1-5.779-5.779A5.808,5.808,0,0,1,27.458,289.979Z" transform="translate(-0.679 -18.181)" fill="#fff"/>
      <path id="Path_2463" data-name="Path 2463" d="M32.845,269.572a5.872,5.872,0,1,1-5.872-5.872A5.848,5.848,0,0,1,32.845,269.572Z" transform="translate(-1.032 -16.789)" fill="#fff"/>
      <path id="Path_2464" data-name="Path 2464" d="M40.045,249.572a5.872,5.872,0,1,1-5.872-5.872A5.908,5.908,0,0,1,40.045,249.572Z" transform="translate(-1.521 -15.431)" fill="#fff"/>
      <path id="Path_2465" data-name="Path 2465" d="M48.531,230.172a5.966,5.966,0,1,1-5.966-5.872A5.869,5.869,0,0,1,48.531,230.172Z" transform="translate(-2.084 -14.114)" fill="#fff"/>
      <path id="Path_2466" data-name="Path 2466" d="M58.231,211.366a5.966,5.966,0,1,1-5.966-5.965A5.889,5.889,0,0,1,58.231,211.366Z" transform="translate(-2.743 -12.831)" fill="#fff"/>
      <path id="Path_2467" data-name="Path 2467" d="M69.131,193.165a5.966,5.966,0,1,1-5.966-5.965A5.889,5.889,0,0,1,69.131,193.165Z" transform="translate(-3.483 -11.595)" fill="#fff"/>
      <path id="Path_2468" data-name="Path 2468" d="M81.031,175.465a6.007,6.007,0,0,1-5.966,5.966,5.947,5.947,0,0,1-5.966-5.966,5.966,5.966,0,0,1,11.931,0Z" transform="translate(-4.291 -10.394)" fill="#fff"/>
      <path id="Path_2469" data-name="Path 2469" d="M93.817,158.459a6.059,6.059,0,1,1-6.059-6.059A6.047,6.047,0,0,1,93.817,158.459Z" transform="translate(-5.146 -9.233)" fill="#fff"/>
      <path id="Path_2470" data-name="Path 2470" d="M107.517,141.959a6.059,6.059,0,1,1-6.059-6.059A6.047,6.047,0,0,1,107.517,141.959Z" transform="translate(-6.076 -8.113)" fill="#fff"/>
      <path id="Path_2471" data-name="Path 2471" d="M121.7,125.845a6.152,6.152,0,0,1-12.3,0,6.153,6.153,0,1,1,12.3,0Z" transform="translate(-7.026 -7.006)" fill="#fff"/>
      <circle id="Ellipse_219" data-name="Ellipse 219" cx="6.338" cy="6.338" r="6.338" transform="translate(115.066 109.281) rotate(-80.782)" fill="#fff"/>
      <path id="Path_2472" data-name="Path 2472" d="M152.55,94.925a6.525,6.525,0,1,1-6.525-6.525A6.544,6.544,0,0,1,152.55,94.925Z" transform="translate(-9.07 -4.888)" fill="#fff"/>
      <circle id="Ellipse_220" data-name="Ellipse 220" cx="6.618" cy="6.618" r="6.618" transform="translate(144.171 80.76) rotate(-67.5)" fill="#fff"/>
      <circle id="Ellipse_221" data-name="Ellipse 221" cx="6.711" cy="6.711" r="6.711" transform="translate(163.147 59.184)" fill="#fff"/>
      <path id="Path_2473" data-name="Path 2473" d="M207.422,58.711A6.711,6.711,0,1,1,200.711,52,6.683,6.683,0,0,1,207.422,58.711Z" transform="translate(-12.77 -2.417)" fill="#fff"/>
      <circle id="Ellipse_222" data-name="Ellipse 222" cx="6.711" cy="6.711" r="6.711" transform="translate(197.166 48.11) rotate(-45)" fill="#fff"/>
      <path id="Path_2474" data-name="Path 2474" d="M248.222,42.411a6.711,6.711,0,1,1-6.711-6.711A6.683,6.683,0,0,1,248.222,42.411Z" transform="translate(-15.54 -1.31)" fill="#fff"/>
      <path id="Path_2475" data-name="Path 2475" d="M269.216,35.811A6.758,6.758,0,1,1,262.5,29.1,6.743,6.743,0,0,1,269.216,35.811Z" transform="translate(-16.959 -0.862)" fill="#fff"/>
      <circle id="Ellipse_223" data-name="Ellipse 223" cx="6.804" cy="6.804" r="6.804" transform="translate(255.715 29.928) rotate(-45)" fill="#fff"/>
      <path id="Path_2476" data-name="Path 2476" d="M312.209,26.3a6.8,6.8,0,1,1-6.8-6.8A6.843,6.843,0,0,1,312.209,26.3Z" transform="translate(-19.871 -0.21)" fill="#fff"/>
      <path id="Path_2477" data-name="Path 2477" d="M334.109,23.9a6.8,6.8,0,1,1-6.8-6.8A6.843,6.843,0,0,1,334.109,23.9Z" transform="translate(-21.358 -0.048)" fill="#fff"/>
      <path id="Path_2478" data-name="Path 2478" d="M356.109,23.2a6.8,6.8,0,1,1-6.8-6.8A6.725,6.725,0,0,1,356.109,23.2Z" transform="translate(-22.851 0)" fill="#fff"/>
      <path id="Path_2479" data-name="Path 2479" d="M378.109,24.1a6.8,6.8,0,1,1-6.8-6.8A6.843,6.843,0,0,1,378.109,24.1Z" transform="translate(-24.345 -0.061)" fill="#fff"/>
      <circle id="Ellipse_224" data-name="Ellipse 224" cx="6.711" cy="6.711" r="6.711" transform="translate(359.321 31.302) rotate(-76.714)" fill="#fff"/>
      <circle id="Ellipse_225" data-name="Ellipse 225" cx="6.711" cy="6.711" r="6.711" transform="translate(378.825 25.991) rotate(-22.5)" fill="#fff"/>
      <path id="Path_2480" data-name="Path 2480" d="M443.022,34.811a6.711,6.711,0,1,1-6.711-6.711A6.683,6.683,0,0,1,443.022,34.811Z" transform="translate(-28.765 -0.794)" fill="#fff"/>
      <path id="Path_2481" data-name="Path 2481" d="M464.222,40.411a6.711,6.711,0,1,1-6.711-6.711A6.683,6.683,0,0,1,464.222,40.411Z" transform="translate(-30.204 -1.174)" fill="#fff"/>
      <path id="Path_2482" data-name="Path 2482" d="M485.022,47.211a6.711,6.711,0,1,1-6.711-6.711A6.8,6.8,0,0,1,485.022,47.211Z" transform="translate(-31.616 -1.636)" fill="#fff"/>
      <path id="Path_2483" data-name="Path 2483" d="M505.322,55.611a6.711,6.711,0,1,1-6.711-6.711A6.683,6.683,0,0,1,505.322,55.611Z" transform="translate(-32.994 -2.206)" fill="#fff"/>
      <path id="Path_2484" data-name="Path 2484" d="M524.836,65.518a6.618,6.618,0,1,1-6.618-6.618A6.526,6.526,0,0,1,524.836,65.518Z" transform="translate(-34.331 -2.885)" fill="#fff"/>
      <path id="Path_2485" data-name="Path 2485" d="M543.343,77.018a6.544,6.544,0,0,1-6.525,6.525,6.572,6.572,0,1,1,6.525-6.525Z" transform="translate(-35.594 -3.666)" fill="#fff"/>
      <circle id="Ellipse_226" data-name="Ellipse 226" cx="6.525" cy="6.525" r="6.525" transform="translate(511.011 78.851)" fill="#fff"/>
      <path id="Path_2486" data-name="Path 2486" d="M577.177,104.238a6.338,6.338,0,1,1-6.338-6.338A6.286,6.286,0,0,1,577.177,104.238Z" transform="translate(-37.923 -5.533)" fill="#fff"/>
      <path id="Path_2487" data-name="Path 2487" d="M592.09,119.845a6.245,6.245,0,1,1-6.245-6.245A6.246,6.246,0,0,1,592.09,119.845Z" transform="translate(-38.948 -6.599)" fill="#fff"/>
      <path id="Path_2488" data-name="Path 2488" d="M605.917,136.159a6.059,6.059,0,1,1-6.059-6.059A6.047,6.047,0,0,1,605.917,136.159Z" transform="translate(-39.912 -7.719)" fill="#fff"/>
      <path id="Path_2489" data-name="Path 2489" d="M618.545,153.372a5.872,5.872,0,1,1-5.872-5.872A5.848,5.848,0,0,1,618.545,153.372Z" transform="translate(-40.794 -8.9)" fill="#fff"/>
      <circle id="Ellipse_227" data-name="Ellipse 227" cx="5.686" cy="5.686" r="5.686" transform="translate(576.725 155.564)" fill="#fff"/>
      <circle id="Ellipse_228" data-name="Ellipse 228" cx="5.499" cy="5.499" r="5.499" transform="translate(583.938 178.588) rotate(-45)" fill="#fff"/>
      <path id="Path_2490" data-name="Path 2490" d="M648.126,209.013a5.31,5.31,0,0,1-5.313,5.313,5.371,5.371,0,0,1-5.313-5.313,5.31,5.31,0,0,1,5.313-5.313A5.252,5.252,0,0,1,648.126,209.013Z" transform="translate(-42.879 -12.716)" fill="#fff"/>
      <path id="Path_2491" data-name="Path 2491" d="M656.146,228.027a5.173,5.173,0,1,1-5.22-5.127A5.192,5.192,0,0,1,656.146,228.027Z" transform="translate(-43.442 -14.019)" fill="#fff"/>
      <path id="Path_2492" data-name="Path 2492" d="M663.753,247.027a5.112,5.112,0,0,1-5.127,5.127,5.127,5.127,0,0,1,0-10.253A5.112,5.112,0,0,1,663.753,247.027Z" transform="translate(-43.965 -15.309)" fill="#fff"/>
      <circle id="Ellipse_229" data-name="Ellipse 229" cx="5.033" cy="5.033" r="5.033" transform="translate(616.163 245.07) rotate(-9.218)" fill="#fff"/>
      <circle id="Ellipse_230" data-name="Ellipse 230" cx="5.127" cy="5.127" r="5.127" transform="translate(624.076 261.825)" fill="#fff"/>
      <circle id="Ellipse_231" data-name="Ellipse 231" cx="5.313" cy="5.313" r="5.313" transform="translate(630.694 279.535)" fill="#fff"/>
      <path id="Path_2493" data-name="Path 2493" d="M693.312,323.806a5.406,5.406,0,1,1-5.406-5.406A5.294,5.294,0,0,1,693.312,323.806Z" transform="translate(-45.934 -20.502)" fill="#fff"/>
      <path id="Path_2494" data-name="Path 2494" d="M698.492,344a5.546,5.546,0,1,1-5.593-5.5A5.472,5.472,0,0,1,698.492,344Z" transform="translate(-46.266 -21.867)" fill="#fff"/>
      <path id="Path_2495" data-name="Path 2495" d="M702.272,364.586a5.686,5.686,0,1,1-11.372,0,5.686,5.686,0,1,1,11.372,0Z" transform="translate(-46.504 -23.252)" fill="#fff"/>
      <path id="Path_2496" data-name="Path 2496" d="M704.658,385.579a5.779,5.779,0,1,1-5.779-5.779A5.808,5.808,0,0,1,704.658,385.579Z" transform="translate(-46.653 -24.671)" fill="#fff"/>
      <circle id="Ellipse_232" data-name="Ellipse 232" cx="5.872" cy="5.872" r="5.872" transform="translate(645.407 383.728) rotate(-67.5)" fill="#fff"/>
      <path id="Path_2497" data-name="Path 2497" d="M704.831,427.866a5.947,5.947,0,0,1-5.966,5.966,6.007,6.007,0,0,1-5.966-5.966,5.966,5.966,0,1,1,11.931,0Z" transform="translate(-46.64 -27.529)" fill="#fff"/>
    </g>
  </g>
</svg>
