<svg id="Xd_Icon_-_40x40" data-name="Xd Icon - 40x40" xmlns="http://www.w3.org/2000/svg" xmlns:xlink="http://www.w3.org/1999/xlink" width="40" height="40" viewBox="0 0 40 40">
  <defs>
    <clipPath id="clip-path">
      <rect id="Rectangle_46" data-name="Rectangle 46" width="40" height="40" rx="10" transform="translate(1204 470)" fill="#6b7688"/>
    </clipPath>
  </defs>
  <g id="Mask_Group_2" data-name="Mask Group 2" transform="translate(-1204 -470)" clip-path="url(#clip-path)">
    <g id="Layer_2" data-name="Layer 2" transform="translate(1204 470.5)">
      <g id="Layer_1" data-name="Layer 1" transform="translate(0)">
        <g id="Layer_2-2" data-name="Layer 2">
          <g id="Surfaces">
            <g id="UI_UX_Surface" data-name="UI UX Surface">
              <g id="Outline_no_shadow" data-name="Outline no shadow">
                <path id="Path_135" data-name="Path 135" d="M7.083,0H32.917A7.077,7.077,0,0,1,40,7.083V31.917A7.077,7.077,0,0,1,32.917,39H7.083A7.077,7.077,0,0,1,0,31.917V7.083A7.077,7.077,0,0,1,7.083,0Z" transform="translate(0 0)" fill="#edf2f8"/>
              </g>
            </g>
          </g>
          <g id="Outlined_Mnemonics_Logos" data-name="Outlined Mnemonics Logos" transform="translate(5.827 8.549)">
            <g id="Xd">
              <path id="Path_136" data-name="Path 136" d="M26.132,19l-5,8.25L26.465,36a.287.287,0,0,1,.033.2c-.017.067-.083.017-.183.033H22.5c-.267,0-.45-.017-.567-.183-.35-.7-.717-1.383-1.067-2.083s-.733-1.383-1.133-2.1-.8-1.433-1.2-2.167H18.5c-.35.717-.733,1.433-1.117,2.15s-.767,1.433-1.133,2.133-.767,1.417-1.15,2.1c-.067.167-.2.183-.383.183H11.049c-.067,0-.117.033-.117-.05a.232.232,0,0,1,.033-.183l5.183-8.5-5.05-8.55c-.05-.067-.067-.133-.033-.167a.193.193,0,0,1,.167-.067h3.783a.983.983,0,0,1,.233.033.473.473,0,0,1,.167.15c.317.717.683,1.433,1.067,2.15s.783,1.417,1.2,2.117.767,1.4,1.117,2.117h.033c.35-.733.717-1.45,1.083-2.15s.75-1.4,1.133-2.1.75-1.417,1.117-2.1a.283.283,0,0,1,.1-.167.318.318,0,0,1,.217-.033H26a.153.153,0,0,1,.183.117c.017.017-.017.083-.05.117Z" transform="translate(-10.926 -17.298)" fill="#30368e"/>
              <path id="Path_137" data-name="Path 137" d="M47.735,35.313a8.287,8.287,0,0,1-3.583-.75A5.81,5.81,0,0,1,41.635,32.3a7.212,7.212,0,0,1-.917-3.8,6.845,6.845,0,0,1,.917-3.517,6.922,6.922,0,0,1,2.65-2.583A8.525,8.525,0,0,1,48.5,21.43a2.976,2.976,0,0,1,.35.017c.15.017.317.017.517.033V16.213c0-.117.05-.183.167-.183h3.383a.15.15,0,0,1,.167.117v15.9c0,.3.017.633.033,1s.05.683.067.967a.27.27,0,0,1-.167.267,12.728,12.728,0,0,1-2.717.8,14.7,14.7,0,0,1-2.567.233Zm1.633-3.333V24.647a4.265,4.265,0,0,0-.45-.083c-.183-.017-.367-.033-.55-.033a4.108,4.108,0,0,0-1.883.433A3.737,3.737,0,0,0,45.068,26.2a3.694,3.694,0,0,0-.55,2.117A4.645,4.645,0,0,0,44.8,30.03a3.257,3.257,0,0,0,.75,1.183,2.88,2.88,0,0,0,1.133.667,4.363,4.363,0,0,0,1.383.217c.25,0,.483-.017.7-.033a1.458,1.458,0,0,0,.6-.083Z" transform="translate(-24.829 -16.029)" fill="#30368e"/>
            </g>
          </g>
        </g>
      </g>
    </g>
  </g>
</svg>
